<svg width="232" height="19" viewBox="0 0 232 19" fill="none" xmlns="http://www.w3.org/2000/svg">
<path d="M12.04 11.96C11.8933 12.8 11.6867 13.6867 11.42 14.62C10.58 14.9533 9.33333 15.12 7.68 15.12C6.65333 15.12 5.71333 14.9733 4.86 14.68C4.02 14.3733 3.3 13.9467 2.7 13.4C2.1 12.8533 1.63333 12.1933 1.3 11.42C0.98 10.6467 0.82 9.78 0.82 8.82C0.82 7.92667 0.986667 7.08 1.32 6.28C1.65333 5.46667 2.11333 4.75333 2.7 4.14C3.28667 3.51333 3.97333 3.02 4.76 2.66C5.56 2.28667 6.41333 2.1 7.32 2.1C7.92 2.1 8.43333 2.11333 8.86 2.14C9.3 2.16667 9.68 2.21333 10 2.28C10.32 2.33333 10.6 2.41333 10.84 2.52C11.0933 2.62667 11.3467 2.76 11.6 2.92C11.64 3.24 11.6667 3.58667 11.68 3.96C11.7067 4.33333 11.7133 4.69333 11.7 5.04H11.3C11.0467 4.26667 10.6133 3.66 10 3.22C9.38667 2.78 8.61333 2.56 7.68 2.56C6.98667 2.56 6.34667 2.70667 5.76 3C5.17333 3.29333 4.66667 3.71333 4.24 4.26C3.81333 4.80667 3.48 5.46667 3.24 6.24C3 7 2.88 7.84667 2.88 8.78C2.88 10.7133 3.29333 12.1733 4.12 13.16C4.94667 14.1467 6.15333 14.64 7.74 14.64C8.67333 14.64 9.46667 14.4133 10.12 13.96C10.7867 13.5067 11.3333 12.84 11.76 11.96H12.04ZM17.6353 15.12C17.0353 15.12 16.482 15.02 15.9753 14.82C15.4686 14.6067 15.0286 14.32 14.6553 13.96C14.282 13.5867 13.9886 13.1467 13.7753 12.64C13.562 12.1333 13.4553 11.58 13.4553 10.98C13.4553 10.3667 13.562 9.80667 13.7753 9.3C13.9886 8.79333 14.2886 8.36 14.6753 8C15.062 7.62667 15.5153 7.34 16.0353 7.14C16.5686 6.92667 17.1553 6.82 17.7953 6.82C18.4486 6.82 19.0353 6.93333 19.5553 7.16C20.0886 7.37333 20.542 7.67333 20.9153 8.06C21.2886 8.43333 21.5753 8.88 21.7753 9.4C21.9886 9.90667 22.0953 10.4467 22.0953 11.02C22.0953 11.6067 21.982 12.1467 21.7553 12.64C21.542 13.1333 21.2353 13.5667 20.8353 13.94C20.4486 14.3133 19.982 14.6067 19.4353 14.82C18.8886 15.02 18.2886 15.12 17.6353 15.12ZM15.0353 11.14C15.0353 12.2467 15.282 13.12 15.7753 13.76C16.2686 14.3867 16.9153 14.7 17.7153 14.7C18.1153 14.7 18.4886 14.6133 18.8353 14.44C19.182 14.2667 19.4753 14.02 19.7153 13.7C19.9686 13.3667 20.162 12.9733 20.2953 12.52C20.442 12.0667 20.5153 11.56 20.5153 11C20.5153 10.44 20.4486 9.93333 20.3153 9.48C20.1953 9.01333 20.0153 8.61333 19.7753 8.28C19.5353 7.94667 19.242 7.69333 18.8953 7.52C18.5486 7.33333 18.162 7.24 17.7353 7.24C16.8953 7.24 16.2353 7.56667 15.7553 8.22C15.2753 8.87333 15.0353 9.84667 15.0353 11.14ZM25.9716 8.04C27.1982 7.14667 28.3716 6.74 29.4916 6.82C30.4249 6.87333 31.1716 7.25333 31.7316 7.96C32.3049 8.66667 32.5916 9.6 32.5916 10.76C32.5916 11.36 32.4849 11.9267 32.2716 12.46C32.0582 12.9933 31.7582 13.4533 31.3716 13.84C30.9849 14.2267 30.5249 14.5333 29.9916 14.76C29.4716 14.9867 28.9049 15.1 28.2916 15.1C27.5582 15.1 26.7849 14.9067 25.9716 14.52V17.56C25.9716 17.7333 26.0249 17.8667 26.1316 17.96C26.2516 18.0667 26.4782 18.1467 26.8116 18.2L28.0116 18.4V18.74C27.8249 18.7133 27.6116 18.6933 27.3716 18.68C27.1449 18.68 26.8782 18.6733 26.5716 18.66H25.7516C25.2849 18.66 24.8449 18.6667 24.4316 18.68C24.0182 18.6933 23.6449 18.7133 23.3116 18.74V18.4L24.1516 18.24C24.3516 18.2 24.4782 18.1333 24.5316 18.04C24.5982 17.96 24.6316 17.7933 24.6316 17.54V8.72C24.6316 8.22667 24.5449 7.97333 24.3716 7.96L23.3916 7.8L23.4516 7.52C23.7849 7.38667 24.0716 7.26 24.3116 7.14C24.5649 7.02 24.7582 6.92 24.8916 6.84C25.0382 6.74667 25.1782 6.63333 25.3116 6.5C25.4582 6.36667 25.5782 6.22667 25.6716 6.08H25.9716V8.04ZM25.9716 8.66V12.96C25.9716 13.44 26.1782 13.84 26.5916 14.16C27.0182 14.4667 27.5716 14.62 28.2516 14.62C28.6782 14.62 29.0649 14.54 29.4116 14.38C29.7582 14.2067 30.0582 13.9733 30.3116 13.68C30.5649 13.3733 30.7582 13.0133 30.8916 12.6C31.0249 12.1867 31.0916 11.7333 31.0916 11.24C31.0916 10.68 31.0182 10.18 30.8716 9.74C30.7249 9.28667 30.5116 8.90667 30.2316 8.6C29.9649 8.29333 29.6449 8.07333 29.2716 7.94C28.8982 7.79333 28.4849 7.74667 28.0316 7.8C27.3782 7.88 26.6916 8.16667 25.9716 8.66ZM37.3394 16.88C37.0994 17.5067 36.806 17.9733 36.4594 18.28C36.1127 18.5867 35.746 18.74 35.3594 18.74C35.1327 18.74 34.9527 18.6667 34.8194 18.52C34.686 18.3733 34.606 18.22 34.5794 18.06C34.566 17.9133 34.5994 17.78 34.6794 17.66C34.7727 17.54 34.9194 17.4733 35.1194 17.46C35.266 17.4067 35.406 17.3867 35.5394 17.4C35.6727 17.4133 35.7994 17.4267 35.9194 17.44C36.0394 17.4667 36.146 17.48 36.2394 17.48C36.3327 17.4933 36.4127 17.4733 36.4794 17.42C36.5194 17.3933 36.5594 17.3667 36.5994 17.34C36.6527 17.3133 36.6994 17.26 36.7394 17.18C36.7927 17.1133 36.846 17.0133 36.8994 16.88C36.9527 16.76 37.0194 16.5867 37.0994 16.36C37.246 15.92 37.3194 15.6133 37.3194 15.44C37.2927 15.2 37.2127 14.9133 37.0794 14.58L34.6194 8.2C34.5127 7.89333 34.3394 7.70667 34.0994 7.64L33.3994 7.42V7.08C34.2394 7.14667 34.9794 7.18 35.6194 7.18C36.2727 7.18 36.8794 7.14667 37.4394 7.08V7.42C37.2927 7.44667 37.126 7.47333 36.9394 7.5C36.766 7.51333 36.606 7.54 36.4594 7.58C36.3127 7.62 36.1994 7.68667 36.1194 7.78C36.0527 7.87333 36.046 8 36.0994 8.16L38.0994 13.72L39.9194 8.72C39.986 8.53333 40.0127 8.33333 39.9994 8.12C39.9994 7.89333 39.886 7.74667 39.6594 7.68L38.5394 7.4V7.08C39.1394 7.14667 39.6927 7.18 40.1994 7.18C40.7194 7.18 41.3127 7.14667 41.9794 7.08V7.4L41.3394 7.58C41.2327 7.60667 41.1394 7.64667 41.0594 7.7C40.9927 7.74 40.9194 7.81333 40.8394 7.92C40.7727 8.01333 40.6994 8.14 40.6194 8.3C40.5527 8.46 40.4727 8.66667 40.3794 8.92L37.3394 16.88ZM47.2769 14.88V14.56L48.2369 14.38C48.5035 14.3133 48.6702 14.2133 48.7369 14.08C48.8169 13.9467 48.8569 13.7067 48.8569 13.36V9.52C48.8569 9.25333 48.7969 9.06 48.6769 8.94C48.5702 8.82 48.3235 8.72 47.9369 8.64L47.4169 8.52L47.4569 8.22C47.9769 8.04667 48.4235 7.83333 48.7969 7.58C49.1702 7.31333 49.4969 6.90667 49.7769 6.36H50.1369C50.1635 6.72 50.1835 7.10667 50.1969 7.52C50.2102 7.93333 50.2169 8.37333 50.2169 8.84C50.3502 8.6 50.4969 8.37333 50.6569 8.16C50.8302 7.93333 51.0369 7.70667 51.2769 7.48C51.7302 7.04 52.1369 6.82 52.4969 6.82C52.8302 6.82 53.0902 6.91333 53.2769 7.1C53.4635 7.28667 53.5569 7.52667 53.5569 7.82C53.5569 8.08667 53.4769 8.3 53.3169 8.46C53.1702 8.60667 52.9835 8.68 52.7569 8.68C52.5302 8.68 52.2969 8.61333 52.0569 8.48C51.8169 8.34667 51.6102 8.28 51.4369 8.28C51.3035 8.28 51.1635 8.34667 51.0169 8.48C50.8835 8.61333 50.7569 8.77333 50.6369 8.96C50.5169 9.14667 50.4169 9.34667 50.3369 9.56C50.2569 9.76 50.2169 9.92667 50.2169 10.06V13.4C50.2169 13.7467 50.2702 13.98 50.3769 14.1C50.4969 14.2067 50.7435 14.2867 51.1169 14.34L52.5569 14.56V14.88C52.2102 14.8533 51.8169 14.8333 51.3769 14.82C50.9502 14.8067 50.4902 14.8 49.9969 14.8H49.7169C49.2502 14.8 48.8102 14.8067 48.3969 14.82C47.9969 14.8333 47.6235 14.8533 47.2769 14.88ZM58.963 14.88C58.7496 14.8533 58.4563 14.8333 58.083 14.82C57.723 14.8067 57.2763 14.8 56.743 14.8C56.2096 14.8 55.7563 14.8067 55.383 14.82C55.023 14.8333 54.7363 14.8533 54.523 14.88V14.54L55.603 14.32C56.0163 14.24 56.223 14 56.223 13.6V9.62C56.223 9.3 56.143 9.06667 55.983 8.92C55.823 8.77333 55.503 8.64667 55.023 8.54V8.24C55.4896 8.12 55.9096 7.94 56.283 7.7C56.6696 7.46 56.9763 7.16 57.203 6.8H57.543V13.66C57.543 13.86 57.5696 14.0067 57.623 14.1C57.6896 14.1933 57.8096 14.26 57.983 14.3L58.963 14.54V14.88ZM56.783 2.66C57.0363 2.66 57.2563 2.75333 57.443 2.94C57.6296 3.11333 57.723 3.32667 57.723 3.58C57.723 3.80667 57.623 4.00667 57.423 4.18C57.2363 4.35333 57.0096 4.44 56.743 4.44C56.503 4.44 56.2963 4.36 56.123 4.2C55.963 4.02667 55.883 3.82 55.883 3.58C55.883 3.32667 55.9696 3.11333 56.143 2.94C56.3296 2.75333 56.543 2.66 56.783 2.66ZM63.4336 14.74C62.9669 14.74 62.5336 14.6533 62.1336 14.48C61.7469 14.2933 61.4069 14.0467 61.1136 13.74C60.8203 13.42 60.5936 13.04 60.4336 12.6C60.2736 12.16 60.1936 11.68 60.1936 11.16C60.1936 10.5467 60.2936 9.98667 60.4936 9.48C60.7069 8.96 60.9936 8.52 61.3536 8.16C61.7136 7.78667 62.1269 7.5 62.5936 7.3C63.0736 7.08667 63.5803 6.98 64.1136 6.98C64.4869 6.98 64.8136 7.00667 65.0936 7.06C65.3736 7.11333 65.6069 7.17333 65.7936 7.24C66.0203 7.30667 66.2069 7.38667 66.3536 7.48L67.5136 6.74L67.6936 6.8V14.38C67.6936 14.8867 67.5936 15.36 67.3936 15.8C67.1936 16.2267 66.9136 16.6 66.5536 16.92C66.2069 17.24 65.7869 17.4933 65.2936 17.68C64.8136 17.8667 64.2803 17.96 63.6936 17.96C62.9603 17.96 62.3736 17.9 61.9336 17.78C61.5069 17.6733 61.1803 17.5333 60.9536 17.36C60.7403 17.2 60.6003 17.0267 60.5336 16.84C60.4669 16.6667 60.4336 16.5133 60.4336 16.38C60.4336 16.1533 60.5003 15.9867 60.6336 15.88C60.7669 15.76 60.9403 15.7 61.1536 15.7C61.4736 15.7 61.6736 15.7867 61.7536 15.96C61.8469 16.1333 61.9403 16.3267 62.0336 16.54C62.1269 16.7533 62.2869 16.9467 62.5136 17.12C62.7403 17.2933 63.1536 17.38 63.7536 17.38C65.4869 17.38 66.3536 16.4667 66.3536 14.64V12.26C66.2603 12.5667 66.1336 12.8667 65.9736 13.16C65.8136 13.4533 65.6136 13.72 65.3736 13.96C65.1336 14.1867 64.8469 14.3733 64.5136 14.52C64.1936 14.6667 63.8336 14.74 63.4336 14.74ZM66.3536 10.5C66.3536 10.1 66.3203 9.72667 66.2536 9.38C66.1869 9.02 66.0603 8.70667 65.8736 8.44C65.7003 8.16 65.4603 7.94667 65.1536 7.8C64.8469 7.64 64.4536 7.56 63.9736 7.56C63.6536 7.56 63.3469 7.62667 63.0536 7.76C62.7736 7.88 62.5203 8.07333 62.2936 8.34C62.0803 8.60667 61.9069 8.94 61.7736 9.34C61.6536 9.74 61.5936 10.2067 61.5936 10.74C61.5936 11.14 61.6336 11.5333 61.7136 11.92C61.7936 12.3067 61.9203 12.6533 62.0936 12.96C62.2803 13.2533 62.5136 13.4933 62.7936 13.68C63.0736 13.8533 63.4136 13.94 63.8136 13.94C64.1869 13.94 64.5269 13.8467 64.8336 13.66C65.1403 13.4733 65.4003 13.2267 65.6136 12.92C65.8403 12.6 66.0136 12.2467 66.1336 11.86C66.2669 11.4733 66.3403 11.08 66.3536 10.68V10.5ZM70.7486 3.76C70.7486 3.58667 70.7286 3.44 70.6886 3.32C70.6619 3.2 70.5953 3.1 70.4886 3.02C70.3953 2.92667 70.2486 2.84667 70.0486 2.78C69.8619 2.71333 69.6153 2.64667 69.3086 2.58V2.32C69.5753 2.30667 69.9086 2.24 70.3086 2.12C70.7219 2 71.1553 1.82667 71.6086 1.6H72.0886V8.64C73.0353 7.44 74.0686 6.83333 75.1886 6.82C75.2953 6.82 75.4019 6.82667 75.5086 6.84C75.6286 6.85333 75.7419 6.87333 75.8486 6.9C76.4086 7.02 76.8419 7.30667 77.1486 7.76C77.4686 8.21333 77.6286 8.80667 77.6286 9.54V13.82C77.6286 13.9533 77.6553 14.06 77.7086 14.14C77.7619 14.2067 77.9019 14.2733 78.1286 14.34L78.9686 14.54V14.88C78.5553 14.8533 78.1819 14.8333 77.8486 14.82C77.5153 14.8067 77.2353 14.8 77.0086 14.8C76.7819 14.8 76.4953 14.8067 76.1486 14.82C75.8153 14.8333 75.4419 14.8533 75.0286 14.88V14.54L75.8286 14.32C76.0019 14.2667 76.1219 14.2067 76.1886 14.14C76.2686 14.06 76.3086 13.9067 76.3086 13.68V9.6C76.3086 9.05333 76.1486 8.62 75.8286 8.3C75.5219 7.98 75.1153 7.82 74.6086 7.82C74.0886 7.82 73.6353 7.95333 73.2486 8.22C72.8753 8.48667 72.4886 8.88 72.0886 9.4V13.68C72.0886 13.8267 72.1086 13.94 72.1486 14.02C72.2019 14.1 72.3086 14.16 72.4686 14.2L73.7686 14.54V14.88C73.5553 14.8533 73.2553 14.8333 72.8686 14.82C72.4953 14.8067 72.0486 14.8 71.5286 14.8C71.0086 14.8 70.5619 14.8067 70.1886 14.82C69.8153 14.8333 69.5219 14.8533 69.3086 14.88V14.54L70.3286 14.32C70.5019 14.28 70.6153 14.2333 70.6686 14.18C70.7219 14.1133 70.7486 14 70.7486 13.84V3.76ZM82.5731 5.16H82.8331C82.8331 5.52 82.8331 5.88 82.8331 6.24C82.8465 6.58667 82.8531 6.94 82.8531 7.3L85.5331 7.24V7.98L82.8531 8.06V12.08C82.8531 12.8667 82.9065 13.4533 83.0131 13.84C83.1331 14.2267 83.4531 14.4067 83.9731 14.38C84.1731 14.38 84.3998 14.34 84.6531 14.26C84.9198 14.1667 85.2131 14.0267 85.5331 13.84L85.7131 14.12C85.4465 14.44 85.1198 14.6867 84.7331 14.86C84.3598 15.0333 83.8398 15.12 83.1731 15.12C82.8265 15.12 82.5465 15.08 82.3331 15C82.1198 14.92 81.9465 14.7867 81.8131 14.6C81.6798 14.4133 81.5865 14.16 81.5331 13.84C81.4931 13.5067 81.4731 13.0933 81.4731 12.6V8.1C81.2865 8.1 81.1065 8.10667 80.9331 8.12C80.7598 8.12 80.5798 8.12 80.3931 8.12C80.2065 8.12 80.1131 8.06667 80.1131 7.96C80.1131 7.85333 80.1998 7.76 80.3731 7.68C80.9465 7.42667 81.3665 7.15333 81.6331 6.86C81.7665 6.71333 81.9198 6.5 82.0931 6.22C82.2665 5.92667 82.4265 5.57333 82.5731 5.16ZM104.818 5.9C104.485 6.94 104.198 7.82 103.958 8.54C103.731 9.24667 103.538 9.83333 103.378 10.3C103.231 10.7667 103.118 11.14 103.038 11.42C102.958 11.6867 102.898 11.9 102.858 12.06C102.818 12.22 102.791 12.34 102.778 12.42C102.778 12.5 102.778 12.5867 102.778 12.68C102.778 13.2267 103.011 13.5 103.478 13.5C103.905 13.5 104.358 13.36 104.838 13.08C105.318 12.7867 105.758 12.38 106.158 11.86C106.571 11.34 106.911 10.72 107.178 10C107.445 9.28 107.578 8.49333 107.578 7.64C107.578 6.76 107.418 5.97333 107.098 5.28C106.791 4.57333 106.358 3.98 105.798 3.5C105.238 3.02 104.571 2.65333 103.798 2.4C103.025 2.14667 102.178 2.02 101.258 2.02C100.151 2.02 99.0913 2.23333 98.078 2.66C97.078 3.07333 96.198 3.66667 95.438 4.44C94.678 5.2 94.0713 6.11333 93.618 7.18C93.1646 8.23333 92.938 9.4 92.938 10.68C92.938 11.7867 93.1113 12.8 93.458 13.72C93.8046 14.6267 94.3046 15.4133 94.958 16.08C95.6246 16.7467 96.4246 17.26 97.358 17.62C98.2913 17.9933 99.3513 18.18 100.538 18.18C102.258 18.18 103.805 17.72 105.178 16.8C106.551 15.8933 107.618 14.5667 108.378 12.82H108.938C108.631 13.7267 108.191 14.5467 107.618 15.28C107.058 16.0133 106.405 16.64 105.658 17.16C104.925 17.68 104.111 18.08 103.218 18.36C102.338 18.64 101.425 18.78 100.478 18.78C99.278 18.78 98.158 18.58 97.118 18.18C96.0913 17.7933 95.1913 17.2333 94.418 16.5C93.658 15.78 93.058 14.9067 92.618 13.88C92.178 12.8533 91.958 11.7133 91.958 10.46C91.958 9.24667 92.1846 8.1 92.638 7.02C93.1046 5.94 93.7446 4.99333 94.558 4.18C95.3846 3.36667 96.358 2.72667 97.478 2.26C98.6113 1.78 99.8513 1.54 101.198 1.54C102.211 1.54 103.145 1.68 103.998 1.96C104.865 2.22667 105.611 2.62667 106.238 3.16C106.865 3.68 107.351 4.32667 107.698 5.1C108.045 5.86 108.218 6.73333 108.218 7.72C108.218 8.53333 108.078 9.33333 107.798 10.12C107.518 10.8933 107.131 11.5867 106.638 12.2C106.158 12.8 105.585 13.2867 104.918 13.66C104.265 14.02 103.551 14.2 102.778 14.2C102.391 14.1867 102.085 14.12 101.858 14C101.645 13.8667 101.485 13.6867 101.378 13.46C101.285 13.2333 101.245 12.9533 101.258 12.62C101.271 12.2733 101.325 11.88 101.418 11.44C99.9646 13.2933 98.7046 14.22 97.638 14.22C97.1313 14.22 96.7046 14.0067 96.358 13.58C96.0113 13.14 95.838 12.5333 95.838 11.76C95.838 11.1733 95.998 10.5333 96.318 9.84C96.6513 9.14667 97.0713 8.50667 97.578 7.92C98.098 7.32 98.678 6.82667 99.318 6.44C99.958 6.04 100.591 5.84 101.218 5.84C102.125 5.84 102.678 6.29333 102.878 7.2L103.218 6.1L104.818 5.9ZM102.518 7.72C102.518 7.32 102.405 6.98667 102.178 6.72C101.951 6.45333 101.671 6.32 101.338 6.32C101.085 6.32 100.818 6.36 100.538 6.44C100.271 6.52 99.998 6.66 99.718 6.86C99.4513 7.06 99.1846 7.33333 98.918 7.68C98.6513 8.02667 98.398 8.46667 98.158 9C97.678 10.08 97.438 10.9 97.438 11.46C97.438 11.98 97.5446 12.3667 97.758 12.62C97.9846 12.8733 98.258 13 98.578 13C99.0713 13 99.5513 12.8267 100.018 12.48C100.498 12.12 100.925 11.68 101.298 11.16C101.671 10.6267 101.965 10.0533 102.178 9.44C102.405 8.81333 102.518 8.24 102.518 7.72ZM122.778 14.86C121.818 14.82 120.478 14.8 118.758 14.8C116.998 14.8 115.651 14.82 114.718 14.86C114.851 14.5667 114.984 14.3 115.118 14.06C115.264 13.8067 115.444 13.5467 115.658 13.28C115.884 13.0133 116.158 12.7067 116.478 12.36C116.811 12.0133 117.231 11.58 117.738 11.06L118.198 10.58C119.144 9.63333 119.851 8.76667 120.318 7.98C120.784 7.18 121.018 6.42 121.018 5.7C121.018 4.9 120.791 4.28 120.338 3.84C119.884 3.4 119.318 3.18 118.638 3.18C117.958 3.18 117.351 3.40667 116.818 3.86C116.298 4.31333 115.938 4.96 115.738 5.8L115.258 5.7C115.471 4.56667 115.911 3.68667 116.578 3.06C117.244 2.42 118.084 2.1 119.098 2.1C119.578 2.1 120.024 2.18667 120.438 2.36C120.864 2.52 121.238 2.75333 121.558 3.06C121.878 3.35333 122.131 3.7 122.318 4.1C122.504 4.5 122.598 4.92667 122.598 5.38C122.598 5.80667 122.531 6.20667 122.398 6.58C122.278 6.94 122.091 7.3 121.838 7.66C121.584 8.02 121.271 8.39333 120.898 8.78C120.538 9.16667 120.111 9.59333 119.618 10.06L118.758 10.88C118.051 11.4933 117.218 12.4133 116.258 13.64H120.918C121.198 13.64 121.418 13.62 121.578 13.58C121.751 13.54 121.898 13.4667 122.018 13.36C122.138 13.24 122.244 13.0867 122.338 12.9C122.431 12.7133 122.531 12.4667 122.638 12.16H123.078L122.778 14.86ZM128.373 2.1C128.933 2.1 129.459 2.27333 129.953 2.62C130.446 2.95333 130.879 3.41333 131.253 4C131.626 4.58667 131.919 5.28 132.133 6.08C132.359 6.86667 132.473 7.71333 132.473 8.62C132.473 9.5 132.366 10.3333 132.153 11.12C131.939 11.9067 131.646 12.6 131.273 13.2C130.913 13.7867 130.479 14.2533 129.973 14.6C129.479 14.9467 128.953 15.12 128.393 15.12C127.833 15.12 127.306 14.9533 126.813 14.62C126.319 14.2733 125.879 13.8067 125.493 13.22C125.119 12.6333 124.819 11.9467 124.593 11.16C124.379 10.3733 124.273 9.53333 124.273 8.64C124.273 7.72 124.379 6.86 124.593 6.06C124.819 5.26 125.119 4.56667 125.493 3.98C125.866 3.39333 126.299 2.93333 126.793 2.6C127.286 2.26667 127.813 2.1 128.373 2.1ZM128.373 14.62C129.346 14.62 130.013 14.1333 130.373 13.16C130.733 12.1733 130.913 10.66 130.913 8.62C130.913 6.59333 130.733 5.08667 130.373 4.1C130.013 3.1 129.346 2.6 128.373 2.6C127.413 2.6 126.746 3.08667 126.373 4.06C126.013 5.03333 125.833 6.55333 125.833 8.62C125.833 12.62 126.679 14.62 128.373 14.62ZM141.528 14.86C140.568 14.82 139.228 14.8 137.508 14.8C135.748 14.8 134.401 14.82 133.468 14.86C133.601 14.5667 133.734 14.3 133.868 14.06C134.014 13.8067 134.194 13.5467 134.408 13.28C134.634 13.0133 134.908 12.7067 135.228 12.36C135.561 12.0133 135.981 11.58 136.488 11.06L136.948 10.58C137.894 9.63333 138.601 8.76667 139.068 7.98C139.534 7.18 139.768 6.42 139.768 5.7C139.768 4.9 139.541 4.28 139.088 3.84C138.634 3.4 138.068 3.18 137.388 3.18C136.708 3.18 136.101 3.40667 135.568 3.86C135.048 4.31333 134.688 4.96 134.488 5.8L134.008 5.7C134.221 4.56667 134.661 3.68667 135.328 3.06C135.994 2.42 136.834 2.1 137.848 2.1C138.328 2.1 138.774 2.18667 139.188 2.36C139.614 2.52 139.988 2.75333 140.308 3.06C140.628 3.35333 140.881 3.7 141.068 4.1C141.254 4.5 141.348 4.92667 141.348 5.38C141.348 5.80667 141.281 6.20667 141.148 6.58C141.028 6.94 140.841 7.3 140.588 7.66C140.334 8.02 140.021 8.39333 139.648 8.78C139.288 9.16667 138.861 9.59333 138.368 10.06L137.508 10.88C136.801 11.4933 135.968 12.4133 135.008 13.64H139.668C139.948 13.64 140.168 13.62 140.328 13.58C140.501 13.54 140.648 13.4667 140.768 13.36C140.888 13.24 140.994 13.0867 141.088 12.9C141.181 12.7133 141.281 12.4667 141.388 12.16H141.828L141.528 14.86ZM150.903 14.86C149.943 14.82 148.603 14.8 146.883 14.8C145.123 14.8 143.776 14.82 142.843 14.86C142.976 14.5667 143.109 14.3 143.243 14.06C143.389 13.8067 143.569 13.5467 143.783 13.28C144.009 13.0133 144.283 12.7067 144.603 12.36C144.936 12.0133 145.356 11.58 145.863 11.06L146.323 10.58C147.269 9.63333 147.976 8.76667 148.443 7.98C148.909 7.18 149.143 6.42 149.143 5.7C149.143 4.9 148.916 4.28 148.463 3.84C148.009 3.4 147.443 3.18 146.763 3.18C146.083 3.18 145.476 3.40667 144.943 3.86C144.423 4.31333 144.063 4.96 143.863 5.8L143.383 5.7C143.596 4.56667 144.036 3.68667 144.703 3.06C145.369 2.42 146.209 2.1 147.223 2.1C147.703 2.1 148.149 2.18667 148.563 2.36C148.989 2.52 149.363 2.75333 149.683 3.06C150.003 3.35333 150.256 3.7 150.443 4.1C150.629 4.5 150.723 4.92667 150.723 5.38C150.723 5.80667 150.656 6.20667 150.523 6.58C150.403 6.94 150.216 7.3 149.963 7.66C149.709 8.02 149.396 8.39333 149.023 8.78C148.663 9.16667 148.236 9.59333 147.743 10.06L146.883 10.88C146.176 11.4933 145.343 12.4133 144.383 13.64H149.043C149.323 13.64 149.543 13.62 149.703 13.58C149.876 13.54 150.023 13.4667 150.143 13.36C150.263 13.24 150.369 13.0867 150.463 12.9C150.556 12.7133 150.656 12.4667 150.763 12.16H151.203L150.903 14.86ZM166.718 7.74L169.138 13.1L172.318 4.94C172.598 4.22 172.738 3.69333 172.738 3.36C172.738 3.01333 172.571 2.80667 172.238 2.74L171.418 2.58V2.24C171.551 2.28 172.058 2.3 172.938 2.3C173.844 2.3 174.411 2.28 174.638 2.24V2.58L174.038 2.76C173.838 2.82667 173.684 2.92 173.578 3.04C173.471 3.16 173.364 3.36667 173.258 3.66L168.918 15.24H168.438L165.858 9.54L163.098 15.24H162.638L158.178 4.18C158.058 3.9 157.958 3.67333 157.878 3.5C157.798 3.32667 157.724 3.19333 157.658 3.1C157.591 2.99333 157.518 2.91333 157.438 2.86C157.358 2.80667 157.264 2.76 157.158 2.72L156.618 2.58V2.24C156.951 2.28 157.571 2.3 158.478 2.3C159.398 2.3 160.098 2.28 160.578 2.24V2.58L159.698 2.76C159.591 2.78667 159.538 2.84667 159.538 2.94C159.538 3.11333 159.684 3.56 159.978 4.28L163.558 13.3L165.578 8.98L163.498 4.22C163.364 3.92667 163.251 3.68667 163.158 3.5C163.064 3.31333 162.978 3.17333 162.898 3.08C162.831 2.97333 162.758 2.9 162.678 2.86C162.611 2.80667 162.538 2.77333 162.458 2.76L161.538 2.58V2.24C161.911 2.28 162.691 2.3 163.878 2.3C165.051 2.3 165.791 2.28 166.098 2.24V2.58L164.998 2.78C164.864 2.82 164.798 2.9 164.798 3.02C164.798 3.08667 164.831 3.22667 164.898 3.44C164.964 3.64 165.071 3.91333 165.218 4.26L166.438 7.12L167.998 3.66C168.104 3.44667 168.118 3.24 168.038 3.04C167.971 2.84 167.838 2.72667 167.638 2.7L166.958 2.58V2.24C167.291 2.28 167.918 2.3 168.838 2.3C169.744 2.3 170.331 2.28 170.598 2.24V2.58L169.658 2.76C169.204 2.85333 168.858 3.16 168.618 3.68L166.718 7.74ZM178.532 15.02C177.985 15.02 177.505 14.9267 177.092 14.74C176.678 14.54 176.338 14.2733 176.072 13.94C175.805 13.6067 175.605 13.2133 175.472 12.76C175.338 12.3067 175.272 11.82 175.272 11.3C175.272 10.5933 175.392 9.97333 175.632 9.44C175.872 8.89333 176.185 8.44 176.572 8.08C176.958 7.72 177.392 7.44667 177.872 7.26C178.365 7.07333 178.865 6.98 179.372 6.98C179.638 6.98 179.878 7.00667 180.092 7.06C180.318 7.11333 180.525 7.17333 180.712 7.24C180.912 7.30667 181.105 7.38667 181.292 7.48L182.412 6.9L182.592 6.96C182.592 8 182.592 9.04 182.592 10.08C182.605 11.1067 182.612 12.14 182.612 13.18C182.612 13.7133 182.838 13.9667 183.292 13.94C183.398 13.94 183.485 13.9267 183.552 13.9C183.618 13.86 183.685 13.82 183.752 13.78C183.805 13.7267 183.865 13.68 183.932 13.64L184.132 13.76C184.038 14 183.918 14.2133 183.772 14.4C183.638 14.56 183.472 14.7067 183.272 14.84C183.072 14.96 182.838 15.02 182.572 15.02C182.118 15.02 181.798 14.88 181.612 14.6C181.425 14.3067 181.332 13.9067 181.332 13.4V12.8C181.252 13.08 181.132 13.3533 180.972 13.62C180.825 13.8867 180.638 14.1267 180.412 14.34C180.185 14.54 179.918 14.7067 179.612 14.84C179.305 14.96 178.945 15.02 178.532 15.02ZM181.332 10.6C181.332 10.1467 181.292 9.73333 181.212 9.36C181.145 8.98667 181.025 8.67333 180.852 8.42C180.678 8.15333 180.452 7.95333 180.172 7.82C179.905 7.67333 179.565 7.6 179.152 7.6C178.872 7.6 178.572 7.66 178.252 7.78C177.945 7.88667 177.665 8.07333 177.412 8.34C177.158 8.59333 176.945 8.92667 176.772 9.34C176.612 9.74 176.532 10.2267 176.532 10.8C176.532 11.24 176.585 11.6667 176.692 12.08C176.812 12.48 176.978 12.8333 177.192 13.14C177.405 13.4467 177.665 13.6933 177.972 13.88C178.278 14.0533 178.632 14.14 179.032 14.14C179.352 14.14 179.645 14.06 179.912 13.9C180.192 13.74 180.432 13.52 180.632 13.24C180.832 12.9467 180.992 12.6067 181.112 12.22C181.245 11.8333 181.318 11.4133 181.332 10.96V10.6ZM189.55 14.86C189.23 14.8467 188.877 14.8333 188.49 14.82C188.103 14.8067 187.71 14.8 187.31 14.8C186.91 14.8 186.517 14.8067 186.13 14.82C185.743 14.8333 185.39 14.8467 185.07 14.86V14.52L186.27 14.28C186.443 14.24 186.563 14.1867 186.63 14.12C186.697 14.0533 186.73 13.92 186.73 13.72V3.6C186.73 3.32 186.65 3.11333 186.49 2.98C186.33 2.84667 185.977 2.7 185.43 2.54V2.26C185.683 2.20667 186.003 2.12667 186.39 2.02C186.777 1.91333 187.183 1.77333 187.61 1.6H188.07V13.68C188.07 13.9333 188.097 14.1 188.15 14.18C188.203 14.2467 188.33 14.3 188.53 14.34L189.55 14.52V14.86ZM197.759 9.82H192.259C192.219 10.0867 192.199 10.34 192.199 10.58C192.199 11.6067 192.472 12.44 193.019 13.08C193.566 13.7067 194.319 14.02 195.279 14.02C195.746 14.02 196.172 13.9333 196.559 13.76C196.946 13.5733 197.366 13.2667 197.819 12.84L197.899 13.3C197.446 13.9 196.919 14.3533 196.319 14.66C195.732 14.9667 195.046 15.12 194.259 15.12C193.766 15.12 193.306 15.02 192.879 14.82C192.466 14.6067 192.099 14.3133 191.779 13.94C191.472 13.5667 191.232 13.1333 191.059 12.64C190.886 12.1333 190.799 11.5867 190.799 11C190.799 10.4133 190.892 9.86667 191.079 9.36C191.279 8.84 191.552 8.39333 191.899 8.02C192.246 7.64667 192.659 7.35333 193.139 7.14C193.619 6.92667 194.139 6.82 194.699 6.82C195.139 6.82 195.539 6.89333 195.899 7.04C196.272 7.18667 196.592 7.39333 196.859 7.66C197.126 7.91333 197.332 8.22667 197.479 8.6C197.639 8.97333 197.732 9.38 197.759 9.82ZM192.359 9.36H195.259C195.459 9.36 195.632 9.36 195.779 9.36C195.926 9.34667 196.046 9.32 196.139 9.28C196.232 9.22667 196.286 9.15333 196.299 9.06C196.326 8.96667 196.319 8.83333 196.279 8.66C196.199 8.31333 196.032 8 195.779 7.72C195.539 7.44 195.166 7.3 194.659 7.3C194.059 7.3 193.559 7.48667 193.159 7.86C192.759 8.22 192.492 8.72 192.359 9.36ZM201.612 0.0199995C202.026 0.0333327 202.366 0.199999 202.632 0.519999C202.912 0.839999 203.052 1.24 203.052 1.72C203.052 2.25333 202.879 2.75333 202.532 3.22H202.552C202.406 3.47333 202.212 3.74 201.972 4.02C201.732 4.3 201.459 4.57333 201.152 4.84C200.552 5.36 200.146 5.62 199.932 5.62C199.866 5.62 199.792 5.6 199.712 5.56C199.646 5.52 199.592 5.46667 199.552 5.4C199.512 5.33333 199.506 5.24667 199.532 5.14C199.572 5.03333 199.672 4.91333 199.832 4.78C200.952 3.88667 201.512 3.17333 201.512 2.64C201.512 2.42667 201.399 2.27333 201.172 2.18C200.932 2.08667 200.752 1.96 200.632 1.8C200.512 1.62667 200.452 1.42667 200.452 1.2C200.452 0.879999 200.559 0.606666 200.772 0.38C200.986 0.14 201.266 0.0199995 201.612 0.0199995ZM209.506 9.1C209.453 8.88667 209.36 8.67333 209.226 8.46C209.093 8.24667 208.933 8.06 208.746 7.9C208.573 7.72667 208.386 7.58667 208.186 7.48C207.986 7.37333 207.793 7.32 207.606 7.32C206.646 7.32 206.166 7.74667 206.166 8.6C206.166 8.97333 206.326 9.28 206.646 9.52C206.98 9.76 207.473 9.99333 208.126 10.22C209.633 10.7667 210.386 11.5733 210.386 12.64C210.386 13.0267 210.306 13.3733 210.146 13.68C210 13.9867 209.793 14.2467 209.526 14.46C209.26 14.6733 208.953 14.84 208.606 14.96C208.26 15.0667 207.893 15.12 207.506 15.12C206.546 15.12 205.753 14.9467 205.126 14.6L204.926 12.32H205.286C205.473 13.04 205.793 13.6133 206.246 14.04C206.7 14.4533 207.18 14.66 207.686 14.66C208.153 14.66 208.533 14.5333 208.826 14.28C209.133 14.0133 209.286 13.6667 209.286 13.24C209.286 12.4933 208.66 11.9 207.406 11.46C206.513 11.14 205.873 10.8 205.486 10.44C205.113 10.0667 204.926 9.57333 204.926 8.96C204.926 8.64 205 8.34667 205.146 8.08C205.293 7.81333 205.493 7.58667 205.746 7.4C206 7.21333 206.293 7.07333 206.626 6.98C206.973 6.87333 207.34 6.82 207.726 6.82C208.553 6.82 209.24 6.98 209.786 7.3L209.906 9.1H209.506ZM231.311 9.58L230.051 9.72C229.825 9.74667 229.665 9.8 229.571 9.88C229.491 9.96 229.451 10.0933 229.451 10.28V12.5C229.451 12.86 229.445 13.1467 229.431 13.36C229.418 13.5733 229.371 13.7467 229.291 13.88C229.225 14 229.111 14.1 228.951 14.18C228.791 14.26 228.565 14.3533 228.271 14.46C227.751 14.66 227.138 14.82 226.431 14.94C225.738 15.06 225.011 15.12 224.251 15.12C223.185 15.12 222.205 14.9733 221.311 14.68C220.431 14.3733 219.678 13.9467 219.051 13.4C218.425 12.8533 217.938 12.1933 217.591 11.42C217.245 10.6467 217.071 9.78667 217.071 8.84C217.071 7.82667 217.265 6.90667 217.651 6.08C218.038 5.24 218.578 4.52667 219.271 3.94C219.965 3.35333 220.778 2.9 221.711 2.58C222.645 2.26 223.665 2.1 224.771 2.1C226.545 2.1 228.025 2.42 229.211 3.06L229.371 5.58L229.071 5.64C228.658 4.64 228.118 3.88 227.451 3.36C226.785 2.84 225.971 2.58 225.011 2.58C224.091 2.58 223.271 2.72667 222.551 3.02C221.831 3.3 221.218 3.70667 220.711 4.24C220.205 4.76 219.818 5.39333 219.551 6.14C219.285 6.87333 219.151 7.69333 219.151 8.6C219.151 9.38667 219.291 10.1467 219.571 10.88C219.851 11.6 220.238 12.24 220.731 12.8C221.238 13.3467 221.831 13.7867 222.511 14.12C223.205 14.44 223.958 14.6 224.771 14.6C225.771 14.6 226.511 14.42 226.991 14.06C227.471 13.7 227.711 13.1733 227.711 12.48V10.28C227.711 10.08 227.658 9.94 227.551 9.86C227.458 9.78 227.305 9.73333 227.091 9.72L225.231 9.58V9.18C226.271 9.23333 227.285 9.26 228.271 9.26C229.258 9.26 230.271 9.23333 231.311 9.18V9.58Z" fill="white"/>
</svg>
