<svg width="327" height="31" viewBox="0 0 327 31" fill="none" xmlns="http://www.w3.org/2000/svg">
<path d="M20.92 15.48L25.76 26.2L32.12 9.88C32.68 8.44 32.96 7.38666 32.96 6.72C32.96 6.02666 32.6267 5.61333 31.96 5.48L30.32 5.16V4.48C30.5867 4.56 31.6 4.6 33.36 4.6C35.1733 4.6 36.3067 4.56 36.76 4.48V5.16L35.56 5.52C35.16 5.65333 34.8533 5.84 34.64 6.08C34.4267 6.32 34.2133 6.73333 34 7.32L25.32 30.48H24.36L19.2 19.08L13.68 30.48H12.76L3.84 8.36C3.6 7.8 3.4 7.34667 3.24 7C3.08 6.65333 2.93333 6.38667 2.8 6.2C2.66667 5.98666 2.52 5.82667 2.36 5.72C2.2 5.61333 2.01333 5.52 1.8 5.44L0.72 5.16V4.48C1.38667 4.56 2.62667 4.6 4.44 4.6C6.28 4.6 7.68 4.56 8.64 4.48V5.16L6.88 5.52C6.66667 5.57333 6.56 5.69333 6.56 5.88C6.56 6.22666 6.85333 7.12 7.44 8.56L14.6 26.6L18.64 17.96L14.48 8.44C14.2133 7.85333 13.9867 7.37333 13.8 7C13.6133 6.62667 13.44 6.34666 13.28 6.16C13.1467 5.94667 13 5.8 12.84 5.72C12.7067 5.61333 12.56 5.54667 12.4 5.52L10.56 5.16V4.48C11.3067 4.56 12.8667 4.6 15.24 4.6C17.5867 4.6 19.0667 4.56 19.68 4.48V5.16L17.48 5.56C17.2133 5.64 17.08 5.8 17.08 6.04C17.08 6.17333 17.1467 6.45333 17.28 6.88C17.4133 7.28 17.6267 7.82667 17.92 8.52L20.36 14.24L23.48 7.32C23.6933 6.89333 23.72 6.48 23.56 6.08C23.4267 5.68 23.16 5.45333 22.76 5.4L21.4 5.16V4.48C22.0667 4.56 23.32 4.6 25.16 4.6C26.9733 4.6 28.1467 4.56 28.68 4.48V5.16L26.8 5.52C25.8933 5.70667 25.2 6.32 24.72 7.36L20.92 15.48ZM44.5478 30.04C43.4545 30.04 42.4945 29.8533 41.6678 29.48C40.8411 29.08 40.1611 28.5467 39.6278 27.88C39.0945 27.2133 38.6945 26.4267 38.4278 25.52C38.1611 24.6133 38.0278 23.64 38.0278 22.6C38.0278 21.1867 38.2678 19.9467 38.7478 18.88C39.2278 17.7867 39.8545 16.88 40.6278 16.16C41.4011 15.44 42.2678 14.8933 43.2278 14.52C44.2145 14.1467 45.2145 13.96 46.2278 13.96C46.7611 13.96 47.2411 14.0133 47.6678 14.12C48.1211 14.2267 48.5345 14.3467 48.9078 14.48C49.3078 14.6133 49.6945 14.7733 50.0678 14.96L52.3078 13.8L52.6678 13.92C52.6678 16 52.6678 18.08 52.6678 20.16C52.6945 22.2133 52.7078 24.28 52.7078 26.36C52.7078 27.4267 53.1611 27.9333 54.0678 27.88C54.2811 27.88 54.4545 27.8533 54.5878 27.8C54.7211 27.72 54.8545 27.64 54.9878 27.56C55.0945 27.4533 55.2145 27.36 55.3478 27.28L55.7478 27.52C55.5611 28 55.3211 28.4267 55.0278 28.8C54.7611 29.12 54.4278 29.4133 54.0278 29.68C53.6278 29.92 53.1611 30.04 52.6278 30.04C51.7211 30.04 51.0811 29.76 50.7078 29.2C50.3345 28.6133 50.1478 27.8133 50.1478 26.8V25.6C49.9878 26.16 49.7478 26.7067 49.4278 27.24C49.1345 27.7733 48.7611 28.2533 48.3078 28.68C47.8545 29.08 47.3211 29.4133 46.7078 29.68C46.0945 29.92 45.3745 30.04 44.5478 30.04ZM50.1478 21.2C50.1478 20.2933 50.0678 19.4667 49.9078 18.72C49.7745 17.9733 49.5345 17.3467 49.1878 16.84C48.8411 16.3067 48.3878 15.9067 47.8278 15.64C47.2945 15.3467 46.6145 15.2 45.7878 15.2C45.2278 15.2 44.6278 15.32 43.9878 15.56C43.3745 15.7733 42.8145 16.1467 42.3078 16.68C41.8011 17.1867 41.3745 17.8533 41.0278 18.68C40.7078 19.48 40.5478 20.4533 40.5478 21.6C40.5478 22.48 40.6545 23.3333 40.8678 24.16C41.1078 24.96 41.4411 25.6667 41.8678 26.28C42.2945 26.8933 42.8145 27.3867 43.4278 27.76C44.0411 28.1067 44.7478 28.28 45.5478 28.28C46.1878 28.28 46.7745 28.12 47.3078 27.8C47.8678 27.48 48.3478 27.04 48.7478 26.48C49.1478 25.8933 49.4678 25.2133 49.7078 24.44C49.9745 23.6667 50.1211 22.8267 50.1478 21.92V21.2ZM66.5841 29.72C65.9441 29.6933 65.2374 29.6667 64.4641 29.64C63.6907 29.6133 62.9041 29.6 62.1041 29.6C61.3041 29.6 60.5174 29.6133 59.7441 29.64C58.9707 29.6667 58.2641 29.6933 57.6241 29.72V29.04L60.0241 28.56C60.3707 28.48 60.6107 28.3733 60.7441 28.24C60.8774 28.1067 60.9441 27.84 60.9441 27.44V7.2C60.9441 6.64 60.7841 6.22667 60.4641 5.96C60.1441 5.69333 59.4374 5.4 58.3441 5.08V4.52C58.8507 4.41333 59.4907 4.25333 60.2641 4.04C61.0374 3.82667 61.8507 3.54667 62.7041 3.2H63.6241V27.36C63.6241 27.8667 63.6774 28.2 63.7841 28.36C63.8907 28.4933 64.1441 28.6 64.5441 28.68L66.5841 29.04V29.72ZM83.0025 19.64H72.0025C71.9225 20.1733 71.8825 20.68 71.8825 21.16C71.8825 23.2133 72.4292 24.88 73.5225 26.16C74.6158 27.4133 76.1225 28.04 78.0425 28.04C78.9758 28.04 79.8292 27.8667 80.6025 27.52C81.3758 27.1467 82.2158 26.5333 83.1225 25.68L83.2825 26.6C82.3758 27.8 81.3225 28.7067 80.1225 29.32C78.9492 29.9333 77.5758 30.24 76.0025 30.24C75.0158 30.24 74.0958 30.04 73.2425 29.64C72.4158 29.2133 71.6825 28.6267 71.0425 27.88C70.4292 27.1333 69.9492 26.2667 69.6025 25.28C69.2558 24.2667 69.0825 23.1733 69.0825 22C69.0825 20.8267 69.2692 19.7333 69.6425 18.72C70.0425 17.68 70.5892 16.7867 71.2825 16.04C71.9758 15.2933 72.8025 14.7067 73.7625 14.28C74.7225 13.8533 75.7625 13.64 76.8825 13.64C77.7625 13.64 78.5625 13.7867 79.2825 14.08C80.0292 14.3733 80.6692 14.7867 81.2025 15.32C81.7358 15.8267 82.1492 16.4533 82.4425 17.2C82.7625 17.9467 82.9492 18.76 83.0025 19.64ZM72.2025 18.72H78.0025C78.4025 18.72 78.7492 18.72 79.0425 18.72C79.3358 18.6933 79.5758 18.64 79.7625 18.56C79.9492 18.4533 80.0558 18.3067 80.0825 18.12C80.1358 17.9333 80.1225 17.6667 80.0425 17.32C79.8825 16.6267 79.5492 16 79.0425 15.44C78.5625 14.88 77.8158 14.6 76.8025 14.6C75.6025 14.6 74.6025 14.9733 73.8025 15.72C73.0025 16.44 72.4692 17.44 72.2025 18.72ZM90.7091 0.039999C91.5357 0.0666653 92.2157 0.399998 92.7491 1.04C93.3091 1.68 93.5891 2.48 93.5891 3.44C93.5891 4.50667 93.2424 5.50667 92.5491 6.44H92.5891C92.2957 6.94667 91.9091 7.48 91.4291 8.04C90.9491 8.6 90.4024 9.14667 89.7891 9.68C88.5891 10.72 87.7757 11.24 87.3491 11.24C87.2157 11.24 87.0691 11.2 86.9091 11.12C86.7757 11.04 86.6691 10.9333 86.5891 10.8C86.5091 10.6667 86.4957 10.4933 86.5491 10.28C86.6291 10.0667 86.8291 9.82667 87.1491 9.56C89.3891 7.77333 90.5091 6.34667 90.5091 5.28C90.5091 4.85333 90.2824 4.54667 89.8291 4.36C89.3491 4.17333 88.9891 3.92 88.7491 3.6C88.5091 3.25333 88.3891 2.85333 88.3891 2.4C88.3891 1.76 88.6024 1.21333 89.0291 0.759999C89.4557 0.279999 90.0157 0.039999 90.7091 0.039999ZM106.497 18.2C106.39 17.7733 106.204 17.3467 105.937 16.92C105.67 16.4933 105.35 16.12 104.977 15.8C104.63 15.4533 104.257 15.1733 103.857 14.96C103.457 14.7467 103.07 14.64 102.697 14.64C100.777 14.64 99.8169 15.4933 99.8169 17.2C99.8169 17.9467 100.137 18.56 100.777 19.04C101.444 19.52 102.43 19.9867 103.737 20.44C106.75 21.5333 108.257 23.1467 108.257 25.28C108.257 26.0533 108.097 26.7467 107.777 27.36C107.484 27.9733 107.07 28.4933 106.537 28.92C106.004 29.3467 105.39 29.68 104.697 29.92C104.004 30.1333 103.27 30.24 102.497 30.24C100.577 30.24 98.9902 29.8933 97.7369 29.2L97.3369 24.64H98.0569C98.4302 26.08 99.0702 27.2267 99.9769 28.08C100.884 28.9067 101.844 29.32 102.857 29.32C103.79 29.32 104.55 29.0667 105.137 28.56C105.75 28.0267 106.057 27.3333 106.057 26.48C106.057 24.9867 104.804 23.8 102.297 22.92C100.51 22.28 99.2302 21.6 98.4569 20.88C97.7102 20.1333 97.3369 19.1467 97.3369 17.92C97.3369 17.28 97.4835 16.6933 97.7769 16.16C98.0702 15.6267 98.4702 15.1733 98.9769 14.8C99.4835 14.4267 100.07 14.1467 100.737 13.96C101.43 13.7467 102.164 13.64 102.937 13.64C104.59 13.64 105.964 13.96 107.057 14.6L107.297 18.2H106.497ZM150.107 19.16L147.587 19.44C147.134 19.4933 146.814 19.6 146.627 19.76C146.467 19.92 146.387 20.1867 146.387 20.56V25C146.387 25.72 146.374 26.2933 146.347 26.72C146.321 27.1467 146.227 27.4933 146.067 27.76C145.934 28 145.707 28.2 145.387 28.36C145.067 28.52 144.614 28.7067 144.027 28.92C142.987 29.32 141.761 29.64 140.347 29.88C138.961 30.12 137.507 30.24 135.987 30.24C133.854 30.24 131.894 29.9467 130.107 29.36C128.347 28.7467 126.841 27.8933 125.587 26.8C124.334 25.7067 123.361 24.3867 122.667 22.84C121.974 21.2933 121.627 19.5733 121.627 17.68C121.627 15.6533 122.014 13.8133 122.787 12.16C123.561 10.48 124.641 9.05333 126.027 7.88C127.414 6.70667 129.041 5.8 130.907 5.16C132.774 4.52 134.814 4.2 137.027 4.2C140.574 4.2 143.534 4.84 145.907 6.12L146.227 11.16L145.627 11.28C144.801 9.28 143.721 7.76 142.387 6.72C141.054 5.68 139.427 5.16 137.507 5.16C135.667 5.16 134.027 5.45333 132.587 6.04C131.147 6.6 129.921 7.41333 128.907 8.48C127.894 9.52 127.121 10.7867 126.587 12.28C126.054 13.7467 125.787 15.3867 125.787 17.2C125.787 18.7733 126.067 20.2933 126.627 21.76C127.187 23.2 127.961 24.48 128.947 25.6C129.961 26.6933 131.147 27.5733 132.507 28.24C133.894 28.88 135.401 29.2 137.027 29.2C139.027 29.2 140.507 28.84 141.467 28.12C142.427 27.4 142.907 26.3467 142.907 24.96V20.56C142.907 20.16 142.801 19.88 142.587 19.72C142.401 19.56 142.094 19.4667 141.667 19.44L137.947 19.16V18.36C140.027 18.4667 142.054 18.52 144.027 18.52C146.001 18.52 148.027 18.4667 150.107 18.36V19.16ZM184.807 23.92C184.513 25.6 184.1 27.3733 183.567 29.24C181.887 29.9067 179.393 30.24 176.087 30.24C174.033 30.24 172.153 29.9467 170.447 29.36C168.767 28.7467 167.327 27.8933 166.127 26.8C164.927 25.7067 163.993 24.3867 163.327 22.84C162.687 21.2933 162.367 19.56 162.367 17.64C162.367 15.8533 162.7 14.16 163.367 12.56C164.033 10.9333 164.953 9.50666 166.127 8.28C167.3 7.02666 168.673 6.04 170.247 5.32C171.847 4.57333 173.553 4.2 175.367 4.2C176.567 4.2 177.593 4.22667 178.447 4.28C179.327 4.33333 180.087 4.42666 180.727 4.56C181.367 4.66666 181.927 4.82667 182.407 5.04C182.913 5.25333 183.42 5.52 183.927 5.84C184.007 6.48 184.06 7.17333 184.087 7.92C184.14 8.66667 184.153 9.38667 184.127 10.08H183.327C182.82 8.53333 181.953 7.32 180.727 6.44C179.5 5.56 177.953 5.12 176.087 5.12C174.7 5.12 173.42 5.41333 172.247 6C171.073 6.58667 170.06 7.42667 169.207 8.52C168.353 9.61333 167.687 10.9333 167.207 12.48C166.727 14 166.487 15.6933 166.487 17.56C166.487 21.4267 167.313 24.3467 168.967 26.32C170.62 28.2933 173.033 29.28 176.207 29.28C178.073 29.28 179.66 28.8267 180.967 27.92C182.3 27.0133 183.393 25.68 184.247 23.92H184.807ZM195.997 30.24C194.797 30.24 193.691 30.04 192.677 29.64C191.664 29.2133 190.784 28.64 190.037 27.92C189.291 27.1733 188.704 26.2933 188.277 25.28C187.851 24.2667 187.637 23.16 187.637 21.96C187.637 20.7333 187.851 19.6133 188.277 18.6C188.704 17.5867 189.304 16.72 190.077 16C190.851 15.2533 191.757 14.68 192.797 14.28C193.864 13.8533 195.037 13.64 196.317 13.64C197.624 13.64 198.797 13.8667 199.837 14.32C200.904 14.7467 201.811 15.3467 202.557 16.12C203.304 16.8667 203.877 17.76 204.277 18.8C204.704 19.8133 204.917 20.8933 204.917 22.04C204.917 23.2133 204.691 24.2933 204.237 25.28C203.811 26.2667 203.197 27.1333 202.397 27.88C201.624 28.6267 200.691 29.2133 199.597 29.64C198.504 30.04 197.304 30.24 195.997 30.24ZM190.797 22.28C190.797 24.4933 191.291 26.24 192.277 27.52C193.264 28.7733 194.557 29.4 196.157 29.4C196.957 29.4 197.704 29.2267 198.397 28.88C199.091 28.5333 199.677 28.04 200.157 27.4C200.664 26.7333 201.051 25.9467 201.317 25.04C201.611 24.1333 201.757 23.12 201.757 22C201.757 20.88 201.624 19.8667 201.357 18.96C201.117 18.0267 200.757 17.2267 200.277 16.56C199.797 15.8933 199.211 15.3867 198.517 15.04C197.824 14.6667 197.051 14.48 196.197 14.48C194.517 14.48 193.197 15.1333 192.237 16.44C191.277 17.7467 190.797 19.6933 190.797 22.28ZM216.35 29.72C215.71 29.6933 215.003 29.6667 214.23 29.64C213.456 29.6133 212.67 29.6 211.87 29.6C211.07 29.6 210.283 29.6133 209.51 29.64C208.736 29.6667 208.03 29.6933 207.39 29.72V29.04L209.79 28.56C210.136 28.48 210.376 28.3733 210.51 28.24C210.643 28.1067 210.71 27.84 210.71 27.44V7.2C210.71 6.64 210.55 6.22667 210.23 5.96C209.91 5.69333 209.203 5.4 208.11 5.08V4.52C208.616 4.41333 209.256 4.25333 210.03 4.04C210.803 3.82667 211.616 3.54667 212.47 3.2H213.39V27.36C213.39 27.8667 213.443 28.2 213.55 28.36C213.656 28.4933 213.91 28.6 214.31 28.68L216.35 29.04V29.72ZM227.248 29.72C226.608 29.6933 225.901 29.6667 225.128 29.64C224.355 29.6133 223.568 29.6 222.768 29.6C221.968 29.6 221.181 29.6133 220.408 29.64C219.635 29.6667 218.928 29.6933 218.288 29.72V29.04L220.688 28.56C221.035 28.48 221.275 28.3733 221.408 28.24C221.541 28.1067 221.608 27.84 221.608 27.44V7.2C221.608 6.64 221.448 6.22667 221.128 5.96C220.808 5.69333 220.101 5.4 219.008 5.08V4.52C219.515 4.41333 220.155 4.25333 220.928 4.04C221.701 3.82667 222.515 3.54667 223.368 3.2H224.288V27.36C224.288 27.8667 224.341 28.2 224.448 28.36C224.555 28.4933 224.808 28.6 225.208 28.68L227.248 29.04V29.72ZM243.667 19.64H232.667C232.587 20.1733 232.547 20.68 232.547 21.16C232.547 23.2133 233.093 24.88 234.187 26.16C235.28 27.4133 236.787 28.04 238.707 28.04C239.64 28.04 240.493 27.8667 241.267 27.52C242.04 27.1467 242.88 26.5333 243.787 25.68L243.947 26.6C243.04 27.8 241.987 28.7067 240.787 29.32C239.613 29.9333 238.24 30.24 236.667 30.24C235.68 30.24 234.76 30.04 233.907 29.64C233.08 29.2133 232.347 28.6267 231.707 27.88C231.093 27.1333 230.613 26.2667 230.267 25.28C229.92 24.2667 229.747 23.1733 229.747 22C229.747 20.8267 229.933 19.7333 230.307 18.72C230.707 17.68 231.253 16.7867 231.947 16.04C232.64 15.2933 233.467 14.7067 234.427 14.28C235.387 13.8533 236.427 13.64 237.547 13.64C238.427 13.64 239.227 13.7867 239.947 14.08C240.693 14.3733 241.333 14.7867 241.867 15.32C242.4 15.8267 242.813 16.4533 243.107 17.2C243.427 17.9467 243.613 18.76 243.667 19.64ZM232.867 18.72H238.667C239.067 18.72 239.413 18.72 239.707 18.72C240 18.6933 240.24 18.64 240.427 18.56C240.613 18.4533 240.72 18.3067 240.747 18.12C240.8 17.9333 240.787 17.6667 240.707 17.32C240.547 16.6267 240.213 16 239.707 15.44C239.227 14.88 238.48 14.6 237.467 14.6C236.267 14.6 235.267 14.9733 234.467 15.72C233.667 16.44 233.133 17.44 232.867 18.72ZM260.933 27.44C260.24 28.3467 259.36 29.04 258.293 29.52C257.253 30 256.173 30.24 255.053 30.24C253.8 30.24 252.68 30.0267 251.693 29.6C250.706 29.1467 249.853 28.56 249.133 27.84C248.44 27.0933 247.906 26.2267 247.533 25.24C247.16 24.2533 246.973 23.2133 246.973 22.12C246.973 20.8667 247.16 19.72 247.533 18.68C247.933 17.64 248.506 16.7467 249.253 16C250 15.2533 250.906 14.68 251.973 14.28C253.066 13.8533 254.306 13.64 255.693 13.64C257.16 13.64 258.346 13.8667 259.253 14.32C260.186 14.7467 260.653 15.32 260.653 16.04C260.653 16.44 260.533 16.7867 260.293 17.08C260.053 17.3467 259.773 17.4933 259.453 17.52C259.08 17.52 258.746 17.3733 258.453 17.08L257.453 16.08C257.08 15.7067 256.64 15.3733 256.133 15.08C255.653 14.76 255.053 14.6 254.333 14.6C253.533 14.6 252.853 14.8133 252.293 15.24C251.733 15.64 251.266 16.1733 250.893 16.84C250.546 17.5067 250.28 18.2533 250.093 19.08C249.933 19.9067 249.853 20.7333 249.853 21.56C249.853 22.4933 250 23.3867 250.293 24.24C250.586 25.0667 251 25.8 251.533 26.44C252.066 27.0533 252.706 27.5467 253.453 27.92C254.226 28.2933 255.08 28.48 256.013 28.48C257.08 28.48 257.933 28.3067 258.573 27.96C259.213 27.6133 259.826 27.12 260.413 26.48L260.933 27.44ZM268.178 10.32H268.698C268.698 11.04 268.698 11.76 268.698 12.48C268.724 13.1733 268.738 13.88 268.738 14.6L274.098 14.48V15.96L268.738 16.12V24.16C268.738 25.7333 268.844 26.9067 269.058 27.68C269.298 28.4533 269.938 28.8133 270.978 28.76C271.378 28.76 271.831 28.68 272.338 28.52C272.871 28.3333 273.458 28.0533 274.098 27.68L274.458 28.24C273.924 28.88 273.271 29.3733 272.497 29.72C271.751 30.0667 270.711 30.24 269.378 30.24C268.684 30.24 268.124 30.16 267.698 30C267.271 29.84 266.924 29.5733 266.658 29.2C266.391 28.8267 266.204 28.32 266.098 27.68C266.018 27.0133 265.978 26.1867 265.978 25.2V16.2C265.604 16.2 265.244 16.2133 264.898 16.24C264.551 16.24 264.191 16.24 263.818 16.24C263.444 16.24 263.257 16.1333 263.257 15.92C263.257 15.7067 263.431 15.52 263.778 15.36C264.924 14.8533 265.764 14.3067 266.298 13.72C266.564 13.4267 266.871 13 267.217 12.44C267.564 11.8533 267.884 11.1467 268.178 10.32ZM284.707 29.76C284.281 29.7067 283.694 29.6667 282.947 29.64C282.227 29.6133 281.334 29.6 280.267 29.6C279.201 29.6 278.294 29.6133 277.547 29.64C276.827 29.6667 276.254 29.7067 275.827 29.76V29.08L277.987 28.64C278.814 28.48 279.227 28 279.227 27.2V19.24C279.227 18.6 279.067 18.1333 278.747 17.84C278.427 17.5467 277.787 17.2933 276.827 17.08V16.48C277.761 16.24 278.601 15.88 279.347 15.4C280.121 14.92 280.734 14.32 281.187 13.6H281.867V27.32C281.867 27.72 281.921 28.0133 282.027 28.2C282.161 28.3867 282.401 28.52 282.747 28.6L284.707 29.08V29.76ZM280.347 5.32C280.854 5.32 281.294 5.50666 281.667 5.88C282.041 6.22666 282.227 6.65333 282.227 7.16C282.227 7.61333 282.027 8.01333 281.627 8.36C281.254 8.70667 280.801 8.88 280.267 8.88C279.787 8.88 279.374 8.72 279.027 8.4C278.707 8.05333 278.547 7.64 278.547 7.16C278.547 6.65333 278.721 6.22666 279.067 5.88C279.441 5.50666 279.867 5.32 280.347 5.32ZM295.528 30.24C294.328 30.24 293.222 30.04 292.208 29.64C291.195 29.2133 290.315 28.64 289.568 27.92C288.822 27.1733 288.235 26.2933 287.808 25.28C287.382 24.2667 287.168 23.16 287.168 21.96C287.168 20.7333 287.382 19.6133 287.808 18.6C288.235 17.5867 288.835 16.72 289.608 16C290.382 15.2533 291.288 14.68 292.328 14.28C293.395 13.8533 294.568 13.64 295.848 13.64C297.155 13.64 298.328 13.8667 299.368 14.32C300.435 14.7467 301.342 15.3467 302.088 16.12C302.835 16.8667 303.408 17.76 303.808 18.8C304.235 19.8133 304.448 20.8933 304.448 22.04C304.448 23.2133 304.222 24.2933 303.768 25.28C303.342 26.2667 302.728 27.1333 301.928 27.88C301.155 28.6267 300.222 29.2133 299.128 29.64C298.035 30.04 296.835 30.24 295.528 30.24ZM290.328 22.28C290.328 24.4933 290.822 26.24 291.808 27.52C292.795 28.7733 294.088 29.4 295.688 29.4C296.488 29.4 297.235 29.2267 297.928 28.88C298.622 28.5333 299.208 28.04 299.688 27.4C300.195 26.7333 300.582 25.9467 300.848 25.04C301.142 24.1333 301.288 23.12 301.288 22C301.288 20.88 301.155 19.8667 300.888 18.96C300.648 18.0267 300.288 17.2267 299.808 16.56C299.328 15.8933 298.742 15.3867 298.048 15.04C297.355 14.6667 296.582 14.48 295.728 14.48C294.048 14.48 292.728 15.1333 291.768 16.44C290.808 17.7467 290.328 19.6933 290.328 22.28ZM326.281 29.72C323.454 29.56 320.641 29.56 317.841 29.72V29.04L319.961 28.72C320.548 28.64 320.841 28.12 320.841 27.16V20.4C320.841 18.9333 320.601 17.7733 320.121 16.92C319.641 16.04 318.694 15.6 317.281 15.6C315.654 15.6 314.041 16.4 312.441 18V27.6C312.441 28.0267 312.761 28.32 313.401 28.48L315.641 29.04V29.72C315.241 29.6933 314.788 29.6667 314.281 29.64C313.801 29.6133 313.228 29.6 312.561 29.6H311.241C310.308 29.6 309.468 29.6133 308.721 29.64C308.001 29.64 307.401 29.6667 306.921 29.72V29.04L309.001 28.64C309.534 28.56 309.801 28.16 309.801 27.44V19.52C309.801 18.6933 309.628 18.1333 309.281 17.84C308.961 17.5467 308.374 17.3333 307.521 17.2V16.48C308.374 16.2667 309.161 15.88 309.881 15.32C310.628 14.7333 311.254 13.9333 311.761 12.92H312.441V16.56C313.454 15.6533 314.548 14.9467 315.721 14.44C316.921 13.9067 317.988 13.64 318.921 13.64C322.014 13.64 323.561 15.4667 323.561 19.12V27.04C323.561 27.5467 323.628 27.9333 323.761 28.2C323.894 28.4667 324.161 28.64 324.561 28.72L326.281 29.04V29.72Z" fill="white"/>
</svg>
