<svg width="324" height="68" viewBox="0 0 324 68" fill="none" xmlns="http://www.w3.org/2000/svg">
<path d="M19.232 17.664C19.1253 18.3253 18.9867 18.9973 18.816 19.68C18.6453 20.3627 18.4533 21.0667 18.24 21.792C16.896 22.3253 14.912 22.592 12.288 22.592C10.624 22.592 9.10933 22.3573 7.744 21.888C6.4 21.3973 5.25867 20.7147 4.32 19.84C3.38133 18.944 2.656 17.8773 2.144 16.64C1.632 15.4027 1.376 14.0267 1.376 12.512C1.376 11.104 1.64267 9.76 2.176 8.48C2.70933 7.17867 3.43467 6.03733 4.352 5.056C5.29067 4.05333 6.38933 3.25333 7.648 2.656C8.90667 2.05866 10.2613 1.76 11.712 1.76C12.6293 1.76 13.4187 1.78133 14.08 1.824C14.7413 1.84533 15.3173 1.89867 15.808 1.984C16.32 2.06933 16.7893 2.208 17.216 2.4C17.6427 2.57067 18.08 2.79467 18.528 3.072C18.592 3.584 18.6347 4.10667 18.656 4.64C18.6987 5.152 18.7093 5.68533 18.688 6.24H18.08C17.6533 5.00267 16.928 4.064 15.904 3.424C14.9013 2.76267 13.6853 2.432 12.256 2.432C11.1253 2.432 10.08 2.67733 9.12 3.168C8.18133 3.65867 7.37067 4.352 6.688 5.248C6.00533 6.12267 5.46133 7.18933 5.056 8.448C4.672 9.68533 4.48 11.0507 4.48 12.544C4.48 15.5947 5.13067 17.92 6.432 19.52C7.75467 21.0987 9.70667 21.888 12.288 21.888C15.2533 21.888 17.4293 20.48 18.816 17.664H19.232ZM28.2805 22.592C27.3418 22.592 26.4672 22.432 25.6565 22.112C24.8458 21.7707 24.1418 21.312 23.5445 20.736C22.9472 20.1387 22.4672 19.4347 22.1045 18.624C21.7632 17.8133 21.5925 16.928 21.5925 15.968C21.5925 14.9867 21.7632 14.0907 22.1045 13.28C22.4672 12.4693 22.9578 11.776 23.5765 11.2C24.1952 10.6027 24.9205 10.144 25.7525 9.824C26.6058 9.48267 27.5338 9.312 28.5365 9.312C29.5605 9.312 30.4885 9.49333 31.3205 9.856C32.1525 10.1973 32.8672 10.6773 33.4645 11.296C34.0832 11.8933 34.5525 12.608 34.8725 13.44C35.2138 14.2507 35.3845 15.1147 35.3845 16.032C35.3845 16.9493 35.2032 17.8133 34.8405 18.624C34.4992 19.4133 34.0085 20.1067 33.3685 20.704C32.7498 21.28 32.0032 21.7387 31.1285 22.08C30.2538 22.4213 29.3045 22.592 28.2805 22.592ZM23.8965 16.224C23.8965 18.016 24.3125 19.424 25.1445 20.448C25.9765 21.472 27.0645 21.984 28.4085 21.984C29.0698 21.984 29.6885 21.8453 30.2645 21.568C30.8405 21.2693 31.3312 20.864 31.7365 20.352C32.1632 19.8187 32.4938 19.1893 32.7285 18.464C32.9632 17.7173 33.0805 16.896 33.0805 16C33.0805 15.104 32.9738 14.2827 32.7605 13.536C32.5472 12.7893 32.2378 12.1493 31.8325 11.616C31.4272 11.0827 30.9365 10.6667 30.3605 10.368C29.7845 10.0693 29.1445 9.92 28.4405 9.92C27.0325 9.92 25.9232 10.4533 25.1125 11.52C24.3018 12.5867 23.8965 14.1547 23.8965 16.224ZM44.5603 22.176C44.0483 22.1547 43.4829 22.1333 42.8643 22.112C42.2456 22.0907 41.6269 22.08 41.0083 22.08C40.3896 22.08 39.7709 22.0907 39.1523 22.112C38.5336 22.1333 37.9683 22.1547 37.4563 22.176V21.664L39.4403 21.28C39.7176 21.216 39.9096 21.1307 40.0163 21.024C40.1229 20.9173 40.1763 20.704 40.1763 20.384V4.128C40.1763 3.68 40.0483 3.34933 39.7923 3.136C39.5363 2.92267 38.9709 2.688 38.0963 2.432V2.016C38.9496 1.84533 40.0483 1.49333 41.3923 0.959999H42.1283V20.32C42.1283 20.7253 42.1709 20.992 42.2563 21.12C42.3416 21.2267 42.5443 21.312 42.8643 21.376L44.5603 21.664V22.176ZM53.343 22.592C52.4043 22.592 51.5297 22.432 50.719 22.112C49.9083 21.7707 49.2043 21.312 48.607 20.736C48.0097 20.1387 47.5297 19.4347 47.167 18.624C46.8257 17.8133 46.655 16.928 46.655 15.968C46.655 14.9867 46.8257 14.0907 47.167 13.28C47.5297 12.4693 48.0203 11.776 48.639 11.2C49.2577 10.6027 49.983 10.144 50.815 9.824C51.6683 9.48267 52.5963 9.312 53.599 9.312C54.623 9.312 55.551 9.49333 56.383 9.856C57.215 10.1973 57.9297 10.6773 58.527 11.296C59.1457 11.8933 59.615 12.608 59.935 13.44C60.2763 14.2507 60.447 15.1147 60.447 16.032C60.447 16.9493 60.2657 17.8133 59.903 18.624C59.5617 19.4133 59.071 20.1067 58.431 20.704C57.8123 21.28 57.0657 21.7387 56.191 22.08C55.3163 22.4213 54.367 22.592 53.343 22.592ZM48.959 16.224C48.959 18.016 49.375 19.424 50.207 20.448C51.039 21.472 52.127 21.984 53.471 21.984C54.1323 21.984 54.751 21.8453 55.327 21.568C55.903 21.2693 56.3937 20.864 56.799 20.352C57.2257 19.8187 57.5563 19.1893 57.791 18.464C58.0257 17.7173 58.143 16.896 58.143 16C58.143 15.104 58.0363 14.2827 57.823 13.536C57.6097 12.7893 57.3003 12.1493 56.895 11.616C56.4897 11.0827 55.999 10.6667 55.423 10.368C54.847 10.0693 54.207 9.92 53.503 9.92C52.095 9.92 50.9857 10.4533 50.175 11.52C49.3643 12.5867 48.959 14.1547 48.959 16.224ZM62.5188 22.208V21.696L64.1188 21.408C64.5454 21.3013 64.8121 21.1413 64.9188 20.928C65.0468 20.7147 65.1108 20.3307 65.1108 19.776V13.632C65.1108 13.2053 65.0148 12.896 64.8228 12.704C64.6521 12.512 64.2574 12.352 63.6388 12.224L62.7747 12.032L62.8388 11.552C63.6708 11.2533 64.3641 10.912 64.9188 10.528C65.4734 10.1227 65.9641 9.472 66.3908 8.576H66.9668C67.0094 9.152 67.0414 9.78133 67.0628 10.464C67.0841 11.1253 67.0948 11.84 67.0948 12.608C67.5214 11.8187 68.1081 11.0827 68.8548 10.4C69.6014 9.67467 70.2521 9.312 70.8068 9.312C71.3401 9.312 71.7454 9.46133 72.0228 9.76C72.3214 10.0587 72.4708 10.4213 72.4708 10.848C72.4708 11.2533 72.3534 11.5627 72.1188 11.776C71.8841 11.9893 71.5961 12.096 71.2548 12.096C70.9134 12.096 70.5401 12.0107 70.1348 11.84C69.7508 11.6693 69.4201 11.584 69.1428 11.584C68.9081 11.584 68.6628 11.7013 68.4068 11.936C68.1721 12.1493 67.9588 12.416 67.7668 12.736C67.5748 13.056 67.4148 13.3867 67.2868 13.728C67.1588 14.048 67.0948 14.3147 67.0948 14.528V19.84C67.0948 20.3947 67.1801 20.768 67.3508 20.96C67.5428 21.1307 67.9374 21.2587 68.5348 21.344L70.9988 21.696V22.208C70.4228 22.1653 69.7828 22.1333 69.0788 22.112C68.3748 22.0907 67.6174 22.08 66.8068 22.08H66.3908C65.6441 22.08 64.9508 22.0907 64.3108 22.112C63.6708 22.1333 63.0734 22.1653 62.5188 22.208ZM79.0413 9.824L83.2013 9.92V11.04L79.1053 11.168V19.2C79.1053 20.5013 79.5533 21.216 80.4493 21.344L82.5933 21.664V22.176C81.5053 22.112 80.3746 22.08 79.2013 22.08H78.3053C76.7693 22.08 75.6066 22.112 74.8173 22.176V21.696L75.8093 21.472C76.1506 21.408 76.4066 21.3333 76.5773 21.248C76.7479 21.1627 76.8759 21.0453 76.9613 20.896C77.0466 20.7467 77.0893 20.5653 77.0893 20.352C77.1106 20.1173 77.1213 19.8187 77.1213 19.456V11.552C76.7159 11.4667 75.9373 11.4027 74.7853 11.36V10.88C75.2546 10.688 75.6386 10.5173 75.9373 10.368C76.2359 10.1973 76.4706 10.048 76.6413 9.92C76.8119 9.792 76.9186 9.664 76.9613 9.536C77.0253 9.408 77.0573 9.25867 77.0573 9.088C77.0573 8.576 77.1426 7.904 77.3133 7.072C77.4839 6.21867 77.7719 5.36533 78.1773 4.512C78.6039 3.65867 79.1693 2.90133 79.8733 2.24C80.5986 1.55733 81.5053 1.152 82.5933 1.024C82.7426 1.00267 82.8919 0.991999 83.0413 0.991999C83.1906 0.970666 83.3506 0.959999 83.5213 0.959999C85.2919 0.959999 86.1773 1.408 86.1773 2.304C86.1773 2.624 86.0599 2.88 85.8253 3.072C85.6119 3.264 85.3239 3.36 84.9613 3.36C84.8333 3.36 84.6413 3.31733 84.3853 3.232C84.1293 3.12533 83.8519 3.01867 83.5533 2.912C83.2546 2.784 82.9346 2.67733 82.5933 2.592C82.2733 2.48533 81.9533 2.432 81.6333 2.432C80.9719 2.432 80.4599 2.58133 80.0973 2.88C79.7346 3.17867 79.4679 3.57333 79.2973 4.064C79.1479 4.53333 79.0626 5.07733 79.0413 5.696C79.0199 6.31467 79.0093 6.944 79.0093 7.584C79.0093 8.16 79.0093 8.64 79.0093 9.024C79.0093 9.38667 79.0199 9.65333 79.0413 9.824ZM85.7055 9.92H89.8015V18.176C89.8015 19.2 89.9722 19.9253 90.3135 20.352C90.6762 20.7787 91.3482 20.992 92.3295 20.992C93.7802 20.992 95.1135 20.448 96.3295 19.36V11.648C96.3295 11.4347 96.2868 11.264 96.2015 11.136C96.1375 11.008 95.9988 10.912 95.7855 10.848C95.5935 10.7627 95.3055 10.688 94.9215 10.624C94.5375 10.56 94.0255 10.496 93.3855 10.432V9.92H98.4095V19.328C98.4095 19.712 98.4308 20.0213 98.4735 20.256C98.5162 20.4693 98.6122 20.6293 98.7615 20.736C98.9322 20.8213 99.1562 20.8853 99.4335 20.928C99.7322 20.9493 100.138 20.96 100.65 20.96C100.65 21.0453 100.65 21.1307 100.65 21.216C100.671 21.28 100.682 21.3547 100.682 21.44L96.3295 22.592V20.16C95.3695 20.9707 94.5055 21.5893 93.7375 22.016C92.9908 22.4213 92.2335 22.624 91.4655 22.624C90.3775 22.624 89.4922 22.2293 88.8095 21.44C88.1268 20.6507 87.7855 19.6053 87.7855 18.304V11.616C87.7855 11.2107 87.6468 10.9333 87.3695 10.784C87.1135 10.6347 86.5588 10.496 85.7055 10.368V9.92ZM109.373 22.176C108.861 22.1547 108.295 22.1333 107.677 22.112C107.058 22.0907 106.439 22.08 105.821 22.08C105.202 22.08 104.583 22.0907 103.965 22.112C103.346 22.1333 102.781 22.1547 102.269 22.176V21.664L104.253 21.28C104.53 21.216 104.722 21.1307 104.829 21.024C104.935 20.9173 104.989 20.704 104.989 20.384V4.128C104.989 3.68 104.861 3.34933 104.605 3.136C104.349 2.92267 103.783 2.688 102.909 2.432V2.016C103.762 1.84533 104.861 1.49333 106.205 0.959999H106.941V20.32C106.941 20.7253 106.983 20.992 107.069 21.12C107.154 21.2267 107.357 21.312 107.677 21.376L109.373 21.664V22.176ZM127.148 12.864C127.062 12.5227 126.902 12.1813 126.668 11.84C126.433 11.4987 126.166 11.2 125.868 10.944C125.59 10.6667 125.292 10.4533 124.972 10.304C124.652 10.1333 124.364 10.048 124.108 10.048C122.55 10.048 121.772 10.7627 121.772 12.192C121.772 12.768 122.028 13.2587 122.54 13.664C123.052 14.048 123.83 14.432 124.876 14.816C127.286 15.7547 128.492 17.056 128.492 18.72C128.492 19.3173 128.374 19.8613 128.14 20.352C127.905 20.8213 127.585 21.2267 127.18 21.568C126.774 21.888 126.294 22.144 125.74 22.336C125.206 22.5067 124.641 22.592 124.044 22.592C122.529 22.592 121.27 22.3147 120.268 21.76L119.948 18.144H120.492C120.641 18.72 120.854 19.2427 121.132 19.712C121.409 20.16 121.718 20.5547 122.06 20.896C122.401 21.216 122.764 21.472 123.148 21.664C123.553 21.8347 123.948 21.92 124.332 21.92C125.1 21.92 125.718 21.7067 126.188 21.28C126.657 20.8533 126.892 20.2987 126.892 19.616C126.892 18.3787 125.889 17.3973 123.884 16.672C122.476 16.1387 121.462 15.584 120.844 15.008C120.246 14.4107 119.948 13.632 119.948 12.672C119.948 11.648 120.364 10.8373 121.196 10.24C122.028 9.62133 123.062 9.312 124.3 9.312C125.601 9.312 126.689 9.568 127.564 10.08L127.756 12.864H127.148ZM130.643 9.92H134.739V18.176C134.739 19.2 134.91 19.9253 135.251 20.352C135.614 20.7787 136.286 20.992 137.267 20.992C138.718 20.992 140.051 20.448 141.267 19.36V11.648C141.267 11.4347 141.224 11.264 141.139 11.136C141.075 11.008 140.936 10.912 140.723 10.848C140.531 10.7627 140.243 10.688 139.859 10.624C139.475 10.56 138.963 10.496 138.323 10.432V9.92H143.347V19.328C143.347 19.712 143.368 20.0213 143.411 20.256C143.454 20.4693 143.55 20.6293 143.699 20.736C143.87 20.8213 144.094 20.8853 144.371 20.928C144.67 20.9493 145.075 20.96 145.587 20.96C145.587 21.0453 145.587 21.1307 145.587 21.216C145.608 21.28 145.619 21.3547 145.619 21.44L141.267 22.592V20.16C140.307 20.9707 139.443 21.5893 138.675 22.016C137.928 22.4213 137.171 22.624 136.403 22.624C135.315 22.624 134.43 22.2293 133.747 21.44C133.064 20.6507 132.723 19.6053 132.723 18.304V11.616C132.723 11.2107 132.584 10.9333 132.307 10.784C132.051 10.6347 131.496 10.496 130.643 10.368V9.92ZM164.518 21.664L165.446 21.472C165.958 21.3653 166.321 21.2373 166.534 21.088C166.748 20.9173 166.854 20.5973 166.854 20.128V14.4C166.854 13.1413 166.609 12.224 166.118 11.648C165.628 11.072 164.838 10.784 163.75 10.784C162.342 10.784 161.116 11.4027 160.07 12.64V19.872C160.07 20.32 160.113 20.6613 160.198 20.896C160.284 21.1093 160.518 21.2587 160.902 21.344L162.534 21.696V22.208C161.446 22.1227 160.294 22.08 159.078 22.08C157.862 22.08 156.668 22.1227 155.494 22.208V21.696L156.422 21.472C157.02 21.3227 157.446 21.1627 157.702 20.992C157.98 20.8 158.118 20.48 158.118 20.032V14.336C158.118 13.248 157.862 12.3947 157.35 11.776C156.838 11.136 156.134 10.816 155.238 10.816C154.876 10.816 154.46 10.8907 153.99 11.04C153.542 11.1893 153.116 11.392 152.71 11.648C152.305 11.8827 151.964 12.1493 151.686 12.448C151.409 12.7467 151.27 13.056 151.27 13.376V19.904C151.27 20.416 151.334 20.768 151.462 20.96C151.612 21.152 151.836 21.28 152.134 21.344L153.766 21.696V22.208C151.633 22.0587 149.446 22.0587 147.206 22.208V21.696L148.134 21.504C148.604 21.3973 148.913 21.248 149.062 21.056C149.233 20.864 149.318 20.544 149.318 20.096V13.184C149.318 12.928 149.297 12.7147 149.254 12.544C149.212 12.352 149.126 12.2027 148.998 12.096C148.892 11.968 148.721 11.872 148.486 11.808C148.273 11.744 147.974 11.68 147.59 11.616V11.104C148.7 10.8053 149.724 10.016 150.662 8.736H151.27V11.808C152.209 10.9547 153.041 10.3253 153.766 9.92C154.513 9.51467 155.334 9.312 156.23 9.312C156.678 9.312 157.073 9.344 157.414 9.408C157.777 9.472 158.097 9.58933 158.374 9.76C158.673 9.93067 158.95 10.176 159.206 10.496C159.462 10.7947 159.718 11.1787 159.974 11.648C160.7 10.9013 161.436 10.3253 162.182 9.92C162.95 9.51467 163.889 9.312 164.998 9.312C166.15 9.312 167.068 9.696 167.75 10.464C168.454 11.2107 168.806 12.288 168.806 13.696V20.16C168.806 20.9493 168.977 21.376 169.318 21.44L170.758 21.696V22.208C169.67 22.1227 168.572 22.08 167.462 22.08C166.353 22.08 165.372 22.112 164.518 22.176V21.664ZM189.675 21.664L190.603 21.472C191.115 21.3653 191.477 21.2373 191.691 21.088C191.904 20.9173 192.011 20.5973 192.011 20.128V14.4C192.011 13.1413 191.765 12.224 191.275 11.648C190.784 11.072 189.995 10.784 188.907 10.784C187.499 10.784 186.272 11.4027 185.227 12.64V19.872C185.227 20.32 185.269 20.6613 185.355 20.896C185.44 21.1093 185.675 21.2587 186.059 21.344L187.691 21.696V22.208C186.603 22.1227 185.451 22.08 184.235 22.08C183.019 22.08 181.824 22.1227 180.651 22.208V21.696L181.579 21.472C182.176 21.3227 182.603 21.1627 182.859 20.992C183.136 20.8 183.275 20.48 183.275 20.032V14.336C183.275 13.248 183.019 12.3947 182.507 11.776C181.995 11.136 181.291 10.816 180.395 10.816C180.032 10.816 179.616 10.8907 179.147 11.04C178.699 11.1893 178.272 11.392 177.867 11.648C177.461 11.8827 177.12 12.1493 176.843 12.448C176.565 12.7467 176.427 13.056 176.427 13.376V19.904C176.427 20.416 176.491 20.768 176.619 20.96C176.768 21.152 176.992 21.28 177.291 21.344L178.923 21.696V22.208C176.789 22.0587 174.603 22.0587 172.363 22.208V21.696L173.291 21.504C173.76 21.3973 174.069 21.248 174.219 21.056C174.389 20.864 174.475 20.544 174.475 20.096V13.184C174.475 12.928 174.453 12.7147 174.411 12.544C174.368 12.352 174.283 12.2027 174.155 12.096C174.048 11.968 173.877 11.872 173.643 11.808C173.429 11.744 173.131 11.68 172.747 11.616V11.104C173.856 10.8053 174.88 10.016 175.819 8.736H176.427V11.808C177.365 10.9547 178.197 10.3253 178.923 9.92C179.669 9.51467 180.491 9.312 181.387 9.312C181.835 9.312 182.229 9.344 182.571 9.408C182.933 9.472 183.253 9.58933 183.531 9.76C183.829 9.93067 184.107 10.176 184.363 10.496C184.619 10.7947 184.875 11.1787 185.131 11.648C185.856 10.9013 186.592 10.3253 187.339 9.92C188.107 9.51467 189.045 9.312 190.155 9.312C191.307 9.312 192.224 9.696 192.907 10.464C193.611 11.2107 193.963 12.288 193.963 13.696V20.16C193.963 20.9493 194.133 21.376 194.475 21.44L195.915 21.696V22.208C194.827 22.1227 193.728 22.08 192.619 22.08C191.509 22.08 190.528 22.112 189.675 22.176V21.664ZM209.039 14.048H200.111C200.047 14.4747 200.015 14.9013 200.015 15.328C200.015 16.16 200.132 16.928 200.367 17.632C200.601 18.3147 200.932 18.9013 201.359 19.392C201.807 19.8827 202.34 20.2667 202.959 20.544C203.599 20.8213 204.303 20.96 205.071 20.96C205.817 20.96 206.5 20.8107 207.119 20.512C207.737 20.2133 208.409 19.7227 209.135 19.04L209.263 19.808C207.748 21.664 205.817 22.592 203.471 22.592C202.703 22.592 201.977 22.4213 201.295 22.08C200.633 21.7387 200.057 21.28 199.567 20.704C199.076 20.1067 198.692 19.4133 198.415 18.624C198.137 17.8133 197.999 16.9387 197.999 16C197.999 15.0613 198.148 14.1867 198.447 13.376C198.767 12.5653 199.204 11.8613 199.759 11.264C200.313 10.6453 200.964 10.1653 201.711 9.824C202.457 9.48267 203.279 9.312 204.175 9.312C204.857 9.312 205.487 9.42933 206.063 9.664C206.639 9.87733 207.14 10.1973 207.567 10.624C208.015 11.0293 208.356 11.5307 208.591 12.128C208.847 12.704 208.996 13.344 209.039 14.048ZM200.271 13.376H205.135C205.817 13.376 206.319 13.3333 206.639 13.248C206.98 13.1413 207.065 12.8 206.895 12.224C206.724 11.6693 206.425 11.168 205.999 10.72C205.593 10.272 204.975 10.048 204.143 10.048C203.119 10.048 202.265 10.3467 201.583 10.944C200.921 11.5413 200.484 12.352 200.271 13.376ZM211.331 22.208V21.696L212.931 21.408C213.358 21.3013 213.625 21.1413 213.731 20.928C213.859 20.7147 213.923 20.3307 213.923 19.776V13.632C213.923 13.2053 213.827 12.896 213.635 12.704C213.465 12.512 213.07 12.352 212.451 12.224L211.587 12.032L211.651 11.552C212.483 11.2533 213.177 10.912 213.731 10.528C214.286 10.1227 214.777 9.472 215.203 8.576H215.779C215.822 9.152 215.854 9.78133 215.875 10.464C215.897 11.1253 215.907 11.84 215.907 12.608C216.334 11.8187 216.921 11.0827 217.667 10.4C218.414 9.67467 219.065 9.312 219.619 9.312C220.153 9.312 220.558 9.46133 220.835 9.76C221.134 10.0587 221.283 10.4213 221.283 10.848C221.283 11.2533 221.166 11.5627 220.931 11.776C220.697 11.9893 220.409 12.096 220.067 12.096C219.726 12.096 219.353 12.0107 218.947 11.84C218.563 11.6693 218.233 11.584 217.955 11.584C217.721 11.584 217.475 11.7013 217.219 11.936C216.985 12.1493 216.771 12.416 216.579 12.736C216.387 13.056 216.227 13.3867 216.099 13.728C215.971 14.048 215.907 14.3147 215.907 14.528V19.84C215.907 20.3947 215.993 20.768 216.163 20.96C216.355 21.1307 216.75 21.2587 217.347 21.344L219.811 21.696V22.208C219.235 22.1653 218.595 22.1333 217.891 22.112C217.187 22.0907 216.43 22.08 215.619 22.08H215.203C214.457 22.08 213.763 22.0907 213.123 22.112C212.483 22.1333 211.886 22.1653 211.331 22.208ZM230.766 29.6C231.576 28.896 232.163 28.0533 232.526 27.072C232.888 26.0907 233.07 24.8533 233.07 23.36V14.848C233.07 14.2933 233.07 13.8453 233.07 13.504C233.091 13.1413 233.048 12.864 232.942 12.672C232.835 12.4587 232.643 12.3093 232.366 12.224C232.088 12.1387 231.662 12.064 231.086 12V11.392C232.686 10.944 233.816 10.1973 234.478 9.152H234.958V23.168C234.958 24.448 234.616 25.696 233.934 26.912C233.272 28.1493 232.302 29.1627 231.022 29.952L230.766 29.6ZM233.55 2.656C234.403 2.656 234.83 3.104 234.83 4C234.83 4.42667 234.691 4.768 234.414 5.024C234.158 5.25867 233.827 5.376 233.422 5.376C232.995 5.41867 232.675 5.29067 232.462 4.992C232.248 4.672 232.142 4.33067 232.142 3.968C232.142 3.60533 232.259 3.28533 232.494 3.008C232.75 2.73067 233.102 2.61333 233.55 2.656ZM243.684 22.432C242.81 22.432 242.042 22.2827 241.38 21.984C240.719 21.664 240.164 21.2373 239.716 20.704C239.29 20.1707 238.97 19.5413 238.756 18.816C238.543 18.0907 238.436 17.312 238.436 16.48C238.436 15.3493 238.628 14.3573 239.012 13.504C239.396 12.6293 239.898 11.904 240.516 11.328C241.135 10.752 241.839 10.3147 242.628 10.016C243.418 9.71733 244.218 9.568 245.028 9.568C245.412 9.568 245.786 9.61067 246.148 9.696C246.511 9.78133 246.831 9.87733 247.108 9.984C247.428 10.0907 247.727 10.2187 248.004 10.368L249.764 9.472L250.052 9.568C250.052 11.232 250.052 12.896 250.052 14.56C250.074 16.224 250.084 17.888 250.084 19.552C250.084 20.4053 250.447 20.8107 251.172 20.768C251.343 20.768 251.482 20.7467 251.588 20.704C251.716 20.64 251.834 20.576 251.94 20.512C252.047 20.4267 252.143 20.3413 252.228 20.256L252.548 20.416C252.399 20.8 252.207 21.1413 251.972 21.44C251.78 21.696 251.535 21.9307 251.236 22.144C250.938 22.336 250.575 22.432 250.148 22.432C249.466 22.432 248.975 22.208 248.676 21.76C248.378 21.312 248.228 20.6827 248.228 19.872V18.944C248.079 19.392 247.876 19.8293 247.62 20.256C247.386 20.6613 247.087 21.0347 246.724 21.376C246.362 21.696 245.924 21.952 245.412 22.144C244.922 22.336 244.346 22.432 243.684 22.432ZM248.26 15.392C248.26 13.856 247.983 12.6613 247.428 11.808C246.895 10.9333 245.946 10.496 244.58 10.496C244.111 10.496 243.62 10.592 243.108 10.784C242.596 10.976 242.127 11.2853 241.7 11.712C241.274 12.1173 240.922 12.6507 240.644 13.312C240.367 13.9733 240.228 14.7627 240.228 15.68C240.228 16.4053 240.324 17.0987 240.516 17.76C240.708 18.4 240.975 18.976 241.316 19.488C241.679 19.9787 242.116 20.3733 242.628 20.672C243.162 20.9493 243.759 21.088 244.42 21.088C244.954 21.088 245.455 20.96 245.924 20.704C246.394 20.4267 246.799 20.0533 247.14 19.584C247.482 19.0933 247.748 18.528 247.94 17.888C248.154 17.2267 248.26 16.512 248.26 15.744V15.392ZM265.728 20.544C265.173 21.248 264.469 21.7707 263.616 22.112C262.762 22.432 261.93 22.592 261.12 22.592C260.117 22.592 259.21 22.4213 258.4 22.08C257.61 21.7173 256.928 21.2373 256.352 20.64C255.797 20.0427 255.37 19.3493 255.072 18.56C254.773 17.7707 254.624 16.9493 254.624 16.096C254.624 15.0933 254.773 14.176 255.072 13.344C255.37 12.512 255.808 11.7973 256.384 11.2C256.981 10.6027 257.706 10.144 258.56 9.824C259.434 9.48267 260.437 9.312 261.568 9.312C262.741 9.312 263.69 9.49333 264.416 9.856C265.162 10.1973 265.536 10.6453 265.536 11.2C265.536 11.4987 265.44 11.7653 265.248 12C265.056 12.2133 264.842 12.3307 264.608 12.352C264.309 12.3733 264.042 12.2667 263.808 12.032C263.573 11.776 263.306 11.4987 263.008 11.2C262.73 10.9013 262.389 10.6347 261.984 10.4C261.6 10.144 261.098 10.016 260.48 10.016C259.818 10.016 259.253 10.1867 258.784 10.528C258.314 10.8693 257.92 11.3067 257.6 11.84C257.301 12.3733 257.077 12.9813 256.928 13.664C256.8 14.3253 256.736 15.008 256.736 15.712C256.736 16.4587 256.853 17.184 257.088 17.888C257.344 18.5707 257.696 19.1787 258.144 19.712C258.592 20.224 259.125 20.6293 259.744 20.928C260.384 21.2267 261.088 21.376 261.856 21.376C262.709 21.3547 263.381 21.2053 263.872 20.928C264.362 20.6507 264.842 20.256 265.312 19.744L265.728 20.544ZM281.795 22.208C281.39 22.1653 280.889 22.1333 280.291 22.112C279.715 22.0907 279.054 22.08 278.307 22.08C277.561 22.08 276.889 22.0907 276.291 22.112C275.715 22.1333 275.225 22.1653 274.819 22.208V21.696L276.291 21.568C276.761 21.5467 276.995 21.4507 276.995 21.28C276.995 21.1733 276.942 21.0347 276.835 20.864C276.729 20.6933 276.569 20.48 276.355 20.224C276.142 19.9467 275.865 19.6053 275.523 19.2C275.203 18.7947 274.819 18.2933 274.371 17.696C274.03 17.248 273.742 16.8853 273.507 16.608C273.294 16.3307 273.113 16.1173 272.963 15.968C272.814 15.8187 272.686 15.7227 272.579 15.68C272.494 15.616 272.409 15.584 272.323 15.584C272.259 15.584 272.195 15.5947 272.131 15.616C272.067 15.616 271.993 15.616 271.907 15.616H271.331V20.16C271.331 20.6933 271.385 21.0347 271.491 21.184C271.598 21.312 271.811 21.408 272.131 21.472L273.347 21.696V22.208C273.006 22.1653 272.59 22.1333 272.099 22.112C271.609 22.0907 271.022 22.08 270.339 22.08C269.657 22.08 269.07 22.0907 268.579 22.112C268.089 22.1333 267.673 22.1653 267.331 22.208V21.696L268.515 21.504C268.899 21.4613 269.145 21.3653 269.251 21.216C269.358 21.0453 269.411 20.6933 269.411 20.16V4.256C269.411 4 269.39 3.79733 269.347 3.648C269.305 3.49867 269.209 3.38133 269.059 3.296C268.931 3.18933 268.739 3.104 268.483 3.04C268.227 2.976 267.875 2.912 267.427 2.848V2.4C268.494 2.18667 269.625 1.70667 270.819 0.959999H271.331V15.072C271.758 15.072 272.185 14.944 272.611 14.688C273.038 14.432 273.603 14.016 274.307 13.44C275.033 12.864 275.534 12.4267 275.811 12.128C276.11 11.808 276.259 11.552 276.259 11.36C276.259 10.9333 275.577 10.6133 274.211 10.4V9.888H280.707V10.4C279.193 10.5707 277.87 11.136 276.739 12.096L273.955 14.496C274.382 15.0293 274.883 15.68 275.459 16.448C276.035 17.1947 276.622 17.9307 277.219 18.656C277.817 19.36 278.393 19.9787 278.947 20.512C279.502 21.0453 279.982 21.3547 280.387 21.44C280.494 21.4827 280.611 21.5147 280.739 21.536C280.867 21.536 280.985 21.5467 281.091 21.568L281.795 21.696V22.208ZM293.82 14.048H284.892C284.828 14.4747 284.796 14.9013 284.796 15.328C284.796 16.16 284.913 16.928 285.148 17.632C285.383 18.3147 285.713 18.9013 286.14 19.392C286.588 19.8827 287.121 20.2667 287.74 20.544C288.38 20.8213 289.084 20.96 289.852 20.96C290.599 20.96 291.281 20.8107 291.9 20.512C292.519 20.2133 293.191 19.7227 293.916 19.04L294.044 19.808C292.529 21.664 290.599 22.592 288.252 22.592C287.484 22.592 286.759 22.4213 286.076 22.08C285.415 21.7387 284.839 21.28 284.348 20.704C283.857 20.1067 283.473 19.4133 283.196 18.624C282.919 17.8133 282.78 16.9387 282.78 16C282.78 15.0613 282.929 14.1867 283.228 13.376C283.548 12.5653 283.985 11.8613 284.54 11.264C285.095 10.6453 285.745 10.1653 286.492 9.824C287.239 9.48267 288.06 9.312 288.956 9.312C289.639 9.312 290.268 9.42933 290.844 9.664C291.42 9.87733 291.921 10.1973 292.348 10.624C292.796 11.0293 293.137 11.5307 293.372 12.128C293.628 12.704 293.777 13.344 293.82 14.048ZM285.052 13.376H289.916C290.599 13.376 291.1 13.3333 291.42 13.248C291.761 13.1413 291.847 12.8 291.676 12.224C291.505 11.6693 291.207 11.168 290.78 10.72C290.375 10.272 289.756 10.048 288.924 10.048C287.9 10.048 287.047 10.3467 286.364 10.944C285.703 11.5413 285.265 12.352 285.052 13.376ZM300.209 6.656H300.593C300.593 7.232 300.593 7.808 300.593 8.384C300.614 8.93867 300.625 9.504 300.625 10.08L304.977 9.984V11.136L300.625 11.264V17.792C300.625 19.072 300.71 20.0427 300.881 20.704C301.073 21.344 301.585 21.6427 302.417 21.6C303.057 21.5573 303.899 21.2587 304.945 20.704L305.233 21.152C304.785 21.664 304.262 22.0373 303.665 22.272C303.089 22.4853 302.267 22.592 301.201 22.592C300.667 22.592 300.23 22.5387 299.889 22.432C299.547 22.304 299.281 22.0907 299.089 21.792C298.897 21.472 298.769 21.056 298.705 20.544C298.641 20.032 298.609 19.3707 298.609 18.56V11.328C298.31 11.328 298.022 11.3387 297.745 11.36C297.467 11.36 297.179 11.36 296.881 11.36C296.582 11.36 296.433 11.2853 296.433 11.136C296.433 10.9653 296.571 10.816 296.849 10.688C297.787 10.2827 298.449 9.84533 298.833 9.376C299.046 9.12 299.27 8.768 299.505 8.32C299.739 7.872 299.974 7.31733 300.209 6.656ZM314.523 12.864C314.437 12.5227 314.277 12.1813 314.043 11.84C313.808 11.4987 313.541 11.2 313.243 10.944C312.965 10.6667 312.667 10.4533 312.347 10.304C312.027 10.1333 311.739 10.048 311.483 10.048C309.925 10.048 309.147 10.7627 309.147 12.192C309.147 12.768 309.403 13.2587 309.915 13.664C310.427 14.048 311.205 14.432 312.251 14.816C314.661 15.7547 315.867 17.056 315.867 18.72C315.867 19.3173 315.749 19.8613 315.515 20.352C315.28 20.8213 314.96 21.2267 314.555 21.568C314.149 21.888 313.669 22.144 313.115 22.336C312.581 22.5067 312.016 22.592 311.419 22.592C309.904 22.592 308.645 22.3147 307.643 21.76L307.323 18.144H307.867C308.016 18.72 308.229 19.2427 308.507 19.712C308.784 20.16 309.093 20.5547 309.435 20.896C309.776 21.216 310.139 21.472 310.523 21.664C310.928 21.8347 311.323 21.92 311.707 21.92C312.475 21.92 313.093 21.7067 313.562 21.28C314.032 20.8533 314.267 20.2987 314.267 19.616C314.267 18.3787 313.264 17.3973 311.259 16.672C309.851 16.1387 308.837 15.584 308.219 15.008C307.621 14.4107 307.323 13.632 307.323 12.672C307.323 11.648 307.739 10.8373 308.571 10.24C309.403 9.62133 310.437 9.312 311.675 9.312C312.976 9.312 314.064 9.568 314.939 10.08L315.131 12.864H314.523ZM318.658 27.328C319.341 27.136 319.895 26.8907 320.322 26.592C320.749 26.3147 321.069 26.0267 321.282 25.728C321.517 25.4293 321.666 25.152 321.73 24.896C321.815 24.64 321.858 24.448 321.858 24.32C321.858 23.7867 321.709 23.4347 321.41 23.264C321.111 23.0933 320.781 22.9653 320.418 22.88C320.055 22.7947 319.725 22.688 319.426 22.56C319.127 22.4107 318.978 22.1013 318.978 21.632C318.978 21.248 319.149 20.9173 319.49 20.64C319.831 20.3413 320.205 20.192 320.61 20.192C321.378 20.192 321.997 20.4693 322.466 21.024C322.957 21.5573 323.202 22.208 323.202 22.976C323.202 23.488 323.074 24 322.818 24.512C322.583 25.0453 322.263 25.5253 321.858 25.952C321.453 26.3787 320.983 26.7413 320.45 27.04C319.938 27.36 319.394 27.5627 318.818 27.648L318.658 27.328ZM18.112 66.664L19.04 66.472C19.552 66.3653 19.9147 66.2373 20.128 66.088C20.3413 65.9173 20.448 65.5973 20.448 65.128V59.4C20.448 58.1413 20.2027 57.224 19.712 56.648C19.2213 56.072 18.432 55.784 17.344 55.784C15.936 55.784 14.7093 56.4027 13.664 57.64V64.872C13.664 65.32 13.7067 65.6613 13.792 65.896C13.8773 66.1093 14.112 66.2587 14.496 66.344L16.128 66.696V67.208C15.04 67.1227 13.888 67.08 12.672 67.08C11.456 67.08 10.2613 67.1227 9.088 67.208V66.696L10.016 66.472C10.6133 66.3227 11.04 66.1627 11.296 65.992C11.5733 65.8 11.712 65.48 11.712 65.032V59.336C11.712 58.248 11.456 57.3947 10.944 56.776C10.432 56.136 9.728 55.816 8.832 55.816C8.46933 55.816 8.05333 55.8907 7.584 56.04C7.136 56.1893 6.70933 56.392 6.304 56.648C5.89867 56.8827 5.55733 57.1493 5.28 57.448C5.00267 57.7467 4.864 58.056 4.864 58.376V64.904C4.864 65.416 4.928 65.768 5.056 65.96C5.20533 66.152 5.42933 66.28 5.728 66.344L7.36 66.696V67.208C5.22667 67.0587 3.04 67.0587 0.8 67.208V66.696L1.728 66.504C2.19733 66.3973 2.50667 66.248 2.656 66.056C2.82667 65.864 2.912 65.544 2.912 65.096V58.184C2.912 57.928 2.89067 57.7147 2.848 57.544C2.80533 57.352 2.72 57.2027 2.592 57.096C2.48533 56.968 2.31467 56.872 2.08 56.808C1.86667 56.744 1.568 56.68 1.184 56.616V56.104C2.29333 55.8053 3.31733 55.016 4.256 53.736H4.864V56.808C5.80267 55.9547 6.63467 55.3253 7.36 54.92C8.10667 54.5147 8.928 54.312 9.824 54.312C10.272 54.312 10.6667 54.344 11.008 54.408C11.3707 54.472 11.6907 54.5893 11.968 54.76C12.2667 54.9307 12.544 55.176 12.8 55.496C13.056 55.7947 13.312 56.1787 13.568 56.648C14.2933 55.9013 15.0293 55.3253 15.776 54.92C16.544 54.5147 17.4827 54.312 18.592 54.312C19.744 54.312 20.6613 54.696 21.344 55.464C22.048 56.2107 22.4 57.288 22.4 58.696V65.16C22.4 65.9493 22.5707 66.376 22.912 66.44L24.352 66.696V67.208C23.264 67.1227 22.1653 67.08 21.056 67.08C19.9467 67.08 18.9653 67.112 18.112 67.176V66.664ZM31.6843 67.432C30.8096 67.432 30.0416 67.2827 29.3802 66.984C28.7189 66.664 28.1643 66.2373 27.7163 65.704C27.2896 65.1707 26.9696 64.5413 26.7563 63.816C26.5429 63.0907 26.4363 62.312 26.4363 61.48C26.4363 60.3493 26.6283 59.3573 27.0123 58.504C27.3963 57.6293 27.8976 56.904 28.5163 56.328C29.1349 55.752 29.8389 55.3147 30.6283 55.016C31.4176 54.7173 32.2176 54.568 33.0283 54.568C33.4123 54.568 33.7856 54.6107 34.1483 54.696C34.5109 54.7813 34.8309 54.8773 35.1083 54.984C35.4283 55.0907 35.7269 55.2187 36.0043 55.368L37.7643 54.472L38.0523 54.568C38.0523 56.232 38.0523 57.896 38.0523 59.56C38.0736 61.224 38.0843 62.888 38.0843 64.552C38.0843 65.4053 38.4469 65.8107 39.1723 65.768C39.3429 65.768 39.4816 65.7467 39.5883 65.704C39.7163 65.64 39.8336 65.576 39.9403 65.512C40.0469 65.4267 40.1429 65.3413 40.2283 65.256L40.5483 65.416C40.3989 65.8 40.2069 66.1413 39.9723 66.44C39.7803 66.696 39.5349 66.9307 39.2363 67.144C38.9376 67.336 38.5749 67.432 38.1483 67.432C37.4656 67.432 36.9749 67.208 36.6763 66.76C36.3776 66.312 36.2283 65.6827 36.2283 64.872V63.944C36.0789 64.392 35.8763 64.8293 35.6203 65.256C35.3856 65.6613 35.0869 66.0347 34.7243 66.376C34.3616 66.696 33.9243 66.952 33.4123 67.144C32.9216 67.336 32.3456 67.432 31.6843 67.432ZM36.2603 60.392C36.2603 58.856 35.9829 57.6613 35.4283 56.808C34.8949 55.9333 33.9456 55.496 32.5803 55.496C32.1109 55.496 31.6203 55.592 31.1083 55.784C30.5963 55.976 30.1269 56.2853 29.7003 56.712C29.2736 57.1173 28.9216 57.6507 28.6443 58.312C28.3669 58.9733 28.2283 59.7627 28.2283 60.68C28.2283 61.4053 28.3243 62.0987 28.5163 62.76C28.7083 63.4 28.9749 63.976 29.3163 64.488C29.6789 64.9787 30.1163 65.3733 30.6283 65.672C31.1616 65.9493 31.7589 66.088 32.4203 66.088C32.9536 66.088 33.4549 65.96 33.9243 65.704C34.3936 65.4267 34.7989 65.0533 35.1403 64.584C35.4816 64.0933 35.7483 63.528 35.9403 62.888C36.1536 62.2267 36.2603 61.512 36.2603 60.744V60.392ZM52.7678 49.64C52.7678 49.2133 52.7358 48.872 52.6718 48.616C52.6291 48.36 52.5118 48.1573 52.3198 48.008C52.1491 47.8373 51.8931 47.6987 51.5518 47.592C51.2318 47.464 50.8051 47.336 50.2718 47.208V46.696C50.9544 46.6533 51.6051 46.568 52.2238 46.44C52.8424 46.312 53.4291 46.152 53.9838 45.96H54.7838V64.904C54.7838 65.288 54.8051 65.5867 54.8478 65.8C54.8904 66.0133 54.9864 66.1733 55.1358 66.28C55.2851 66.3653 55.4984 66.4187 55.7758 66.44C56.0744 66.4613 56.4691 66.4827 56.9598 66.504V67.016C56.1491 67.1867 55.3918 67.336 54.6878 67.464C54.0051 67.592 53.3651 67.688 52.7678 67.752V66.28C52.2131 66.5147 51.7118 66.7173 51.2638 66.888C50.8158 67.0373 50.3891 67.1653 49.9838 67.272C49.5784 67.3787 49.1838 67.464 48.7998 67.528C48.4158 67.5707 47.9998 67.592 47.5518 67.592C46.1651 67.592 44.9598 66.984 43.9358 65.768C42.9117 64.552 42.3997 63.1333 42.3997 61.512C42.3997 60.5307 42.5598 59.6133 42.8798 58.76C43.2211 57.8853 43.6798 57.1173 44.2558 56.456C44.8318 55.7947 45.4931 55.272 46.2398 54.888C47.0078 54.504 47.8078 54.312 48.6398 54.312C50.3038 54.312 51.6798 54.6 52.7678 55.176V49.64ZM52.7678 65.48V59.432C52.7678 58.984 52.7358 58.504 52.6718 57.992C52.6291 57.4587 52.4798 56.9787 52.2238 56.552C51.9891 56.1253 51.6051 55.7733 51.0718 55.496C50.5598 55.1973 49.8344 55.048 48.8958 55.048C48.2984 55.048 47.7438 55.1973 47.2318 55.496C46.7198 55.7947 46.2718 56.2107 45.8878 56.744C45.5038 57.2773 45.2051 57.896 44.9918 58.6C44.7784 59.304 44.6718 60.072 44.6718 60.904C44.6718 61.736 44.7891 62.4933 45.0238 63.176C45.2584 63.8587 45.5891 64.4453 46.0158 64.936C46.4424 65.4053 46.9331 65.768 47.4878 66.024C48.0638 66.28 48.6931 66.408 49.3758 66.408C50.0371 66.408 50.6878 66.3227 51.3278 66.152C51.9678 65.96 52.4478 65.736 52.7678 65.48ZM70.07 59.048H61.142C61.078 59.4747 61.046 59.9013 61.046 60.328C61.046 61.16 61.1633 61.928 61.398 62.632C61.6327 63.3147 61.9633 63.9013 62.39 64.392C62.838 64.8827 63.3713 65.2667 63.99 65.544C64.63 65.8213 65.334 65.96 66.102 65.96C66.8487 65.96 67.5313 65.8107 68.15 65.512C68.7687 65.2133 69.4407 64.7227 70.166 64.04L70.294 64.808C68.7793 66.664 66.8487 67.592 64.502 67.592C63.734 67.592 63.0087 67.4213 62.326 67.08C61.6647 66.7387 61.0887 66.28 60.598 65.704C60.1073 65.1067 59.7233 64.4133 59.446 63.624C59.1687 62.8133 59.03 61.9387 59.03 61C59.03 60.0613 59.1793 59.1867 59.478 58.376C59.798 57.5653 60.2353 56.8613 60.79 56.264C61.3447 55.6453 61.9953 55.1653 62.742 54.824C63.4887 54.4827 64.31 54.312 65.206 54.312C65.8887 54.312 66.518 54.4293 67.094 54.664C67.67 54.8773 68.1713 55.1973 68.598 55.624C69.046 56.0293 69.3873 56.5307 69.622 57.128C69.878 57.704 70.0273 58.344 70.07 59.048ZM61.302 58.376H66.166C66.8487 58.376 67.35 58.3333 67.67 58.248C68.0113 58.1413 68.0967 57.8 67.926 57.224C67.7553 56.6693 67.4567 56.168 67.03 55.72C66.6247 55.272 66.006 55.048 65.174 55.048C64.15 55.048 63.2967 55.3467 62.614 55.944C61.9527 56.5413 61.5153 57.352 61.302 58.376ZM85.3225 54.824L89.4825 54.92V56.04L85.3865 56.168V64.2C85.3865 65.5013 85.8345 66.216 86.7305 66.344L88.8745 66.664V67.176C87.7865 67.112 86.6558 67.08 85.4825 67.08H84.5865C83.0505 67.08 81.8878 67.112 81.0985 67.176V66.696L82.0905 66.472C82.4318 66.408 82.6878 66.3333 82.8585 66.248C83.0292 66.1627 83.1572 66.0453 83.2425 65.896C83.3278 65.7467 83.3705 65.5653 83.3705 65.352C83.3918 65.1173 83.4025 64.8187 83.4025 64.456V56.552C82.9972 56.4667 82.2185 56.4027 81.0665 56.36V55.88C81.5358 55.688 81.9198 55.5173 82.2185 55.368C82.5172 55.1973 82.7518 55.048 82.9225 54.92C83.0932 54.792 83.1998 54.664 83.2425 54.536C83.3065 54.408 83.3385 54.2587 83.3385 54.088C83.3385 53.576 83.4238 52.904 83.5945 52.072C83.7652 51.2187 84.0532 50.3653 84.4585 49.512C84.8852 48.6587 85.4505 47.9013 86.1545 47.24C86.8798 46.5573 87.7865 46.152 88.8745 46.024C89.0238 46.0027 89.1732 45.992 89.3225 45.992C89.4718 45.9707 89.6318 45.96 89.8025 45.96C91.5732 45.96 92.4585 46.408 92.4585 47.304C92.4585 47.624 92.3412 47.88 92.1065 48.072C91.8932 48.264 91.6052 48.36 91.2425 48.36C91.1145 48.36 90.9225 48.3173 90.6665 48.232C90.4105 48.1253 90.1332 48.0187 89.8345 47.912C89.5358 47.784 89.2158 47.6773 88.8745 47.592C88.5545 47.4853 88.2345 47.432 87.9145 47.432C87.2532 47.432 86.7412 47.5813 86.3785 47.88C86.0158 48.1787 85.7492 48.5733 85.5785 49.064C85.4292 49.5333 85.3438 50.0773 85.3225 50.696C85.3012 51.3147 85.2905 51.944 85.2905 52.584C85.2905 53.16 85.2905 53.64 85.2905 54.024C85.2905 54.3867 85.3012 54.6533 85.3225 54.824ZM99.1868 67.592C98.2481 67.592 97.3734 67.432 96.5628 67.112C95.7521 66.7707 95.0481 66.312 94.4508 65.736C93.8534 65.1387 93.3734 64.4347 93.0108 63.624C92.6694 62.8133 92.4988 61.928 92.4988 60.968C92.4988 59.9867 92.6694 59.0907 93.0108 58.28C93.3734 57.4693 93.8641 56.776 94.4828 56.2C95.1014 55.6027 95.8268 55.144 96.6588 54.824C97.5121 54.4827 98.4401 54.312 99.4427 54.312C100.467 54.312 101.395 54.4933 102.227 54.856C103.059 55.1973 103.773 55.6773 104.371 56.296C104.989 56.8933 105.459 57.608 105.779 58.44C106.12 59.2507 106.291 60.1147 106.291 61.032C106.291 61.9493 106.109 62.8133 105.747 63.624C105.405 64.4133 104.915 65.1067 104.275 65.704C103.656 66.28 102.909 66.7387 102.035 67.08C101.16 67.4213 100.211 67.592 99.1868 67.592ZM94.8028 61.224C94.8028 63.016 95.2188 64.424 96.0508 65.448C96.8828 66.472 97.9708 66.984 99.3148 66.984C99.9761 66.984 100.595 66.8453 101.171 66.568C101.747 66.2693 102.237 65.864 102.643 65.352C103.069 64.8187 103.4 64.1893 103.635 63.464C103.869 62.7173 103.987 61.896 103.987 61C103.987 60.104 103.88 59.2827 103.667 58.536C103.453 57.7893 103.144 57.1493 102.739 56.616C102.333 56.0827 101.843 55.6667 101.267 55.368C100.691 55.0693 100.051 54.92 99.3468 54.92C97.9388 54.92 96.8294 55.4533 96.0188 56.52C95.2081 57.5867 94.8028 59.1547 94.8028 61.224ZM108.363 67.208V66.696L109.963 66.408C110.389 66.3013 110.656 66.1413 110.763 65.928C110.891 65.7147 110.955 65.3307 110.955 64.776V58.632C110.955 58.2053 110.859 57.896 110.667 57.704C110.496 57.512 110.101 57.352 109.483 57.224L108.618 57.032L108.683 56.552C109.515 56.2533 110.208 55.912 110.763 55.528C111.317 55.1227 111.808 54.472 112.235 53.576H112.811C112.853 54.152 112.885 54.7813 112.907 55.464C112.928 56.1253 112.939 56.84 112.939 57.608C113.365 56.8187 113.952 56.0827 114.699 55.4C115.445 54.6747 116.096 54.312 116.651 54.312C117.184 54.312 117.589 54.4613 117.867 54.76C118.165 55.0587 118.315 55.4213 118.315 55.848C118.315 56.2533 118.197 56.5627 117.963 56.776C117.728 56.9893 117.44 57.096 117.099 57.096C116.757 57.096 116.384 57.0107 115.979 56.84C115.595 56.6693 115.264 56.584 114.987 56.584C114.752 56.584 114.507 56.7013 114.251 56.936C114.016 57.1493 113.803 57.416 113.611 57.736C113.419 58.056 113.259 58.3867 113.131 58.728C113.003 59.048 112.939 59.3147 112.939 59.528V64.84C112.939 65.3947 113.024 65.768 113.195 65.96C113.387 66.1307 113.781 66.2587 114.379 66.344L116.843 66.696V67.208C116.267 67.1653 115.627 67.1333 114.923 67.112C114.219 67.0907 113.461 67.08 112.651 67.08H112.235C111.488 67.08 110.795 67.0907 110.155 67.112C109.515 67.1333 108.917 67.1653 108.363 67.208ZM145.237 66.664L146.165 66.472C146.677 66.3653 147.04 66.2373 147.253 66.088C147.466 65.9173 147.573 65.5973 147.573 65.128V59.4C147.573 58.1413 147.328 57.224 146.837 56.648C146.346 56.072 145.557 55.784 144.469 55.784C143.061 55.784 141.834 56.4027 140.789 57.64V64.872C140.789 65.32 140.832 65.6613 140.917 65.896C141.002 66.1093 141.237 66.2587 141.621 66.344L143.253 66.696V67.208C142.165 67.1227 141.013 67.08 139.797 67.08C138.581 67.08 137.386 67.1227 136.213 67.208V66.696L137.141 66.472C137.738 66.3227 138.165 66.1627 138.421 65.992C138.698 65.8 138.837 65.48 138.837 65.032V59.336C138.837 58.248 138.581 57.3947 138.069 56.776C137.557 56.136 136.853 55.816 135.957 55.816C135.594 55.816 135.178 55.8907 134.709 56.04C134.261 56.1893 133.834 56.392 133.429 56.648C133.024 56.8827 132.682 57.1493 132.405 57.448C132.128 57.7467 131.989 58.056 131.989 58.376V64.904C131.989 65.416 132.053 65.768 132.181 65.96C132.33 66.152 132.554 66.28 132.853 66.344L134.485 66.696V67.208C132.352 67.0587 130.165 67.0587 127.925 67.208V66.696L128.853 66.504C129.322 66.3973 129.632 66.248 129.781 66.056C129.952 65.864 130.037 65.544 130.037 65.096V58.184C130.037 57.928 130.016 57.7147 129.973 57.544C129.93 57.352 129.845 57.2027 129.717 57.096C129.61 56.968 129.44 56.872 129.205 56.808C128.992 56.744 128.693 56.68 128.309 56.616V56.104C129.418 55.8053 130.442 55.016 131.381 53.736H131.989V56.808C132.928 55.9547 133.76 55.3253 134.485 54.92C135.232 54.5147 136.053 54.312 136.949 54.312C137.397 54.312 137.792 54.344 138.133 54.408C138.496 54.472 138.816 54.5893 139.093 54.76C139.392 54.9307 139.669 55.176 139.925 55.496C140.181 55.7947 140.437 56.1787 140.693 56.648C141.418 55.9013 142.154 55.3253 142.901 54.92C143.669 54.5147 144.608 54.312 145.717 54.312C146.869 54.312 147.786 54.696 148.469 55.464C149.173 56.2107 149.525 57.288 149.525 58.696V65.16C149.525 65.9493 149.696 66.376 150.037 66.44L151.477 66.696V67.208C150.389 67.1227 149.29 67.08 148.181 67.08C147.072 67.08 146.09 67.112 145.237 67.176V66.664ZM164.601 59.048H155.673C155.609 59.4747 155.577 59.9013 155.577 60.328C155.577 61.16 155.695 61.928 155.929 62.632C156.164 63.3147 156.495 63.9013 156.921 64.392C157.369 64.8827 157.903 65.2667 158.521 65.544C159.161 65.8213 159.865 65.96 160.633 65.96C161.38 65.96 162.063 65.8107 162.681 65.512C163.3 65.2133 163.972 64.7227 164.697 64.04L164.825 64.808C163.311 66.664 161.38 67.592 159.033 67.592C158.265 67.592 157.54 67.4213 156.857 67.08C156.196 66.7387 155.62 66.28 155.129 65.704C154.639 65.1067 154.255 64.4133 153.977 63.624C153.7 62.8133 153.561 61.9387 153.561 61C153.561 60.0613 153.711 59.1867 154.009 58.376C154.329 57.5653 154.767 56.8613 155.321 56.264C155.876 55.6453 156.527 55.1653 157.273 54.824C158.02 54.4827 158.841 54.312 159.737 54.312C160.42 54.312 161.049 54.4293 161.625 54.664C162.201 54.8773 162.703 55.1973 163.129 55.624C163.577 56.0293 163.919 56.5307 164.153 57.128C164.409 57.704 164.559 58.344 164.601 59.048ZM155.833 58.376H160.697C161.38 58.376 161.881 58.3333 162.201 58.248C162.543 58.1413 162.628 57.8 162.457 57.224C162.287 56.6693 161.988 56.168 161.561 55.72C161.156 55.272 160.537 55.048 159.705 55.048C158.681 55.048 157.828 55.3467 157.145 55.944C156.484 56.5413 156.047 57.352 155.833 58.376ZM182.318 67.176C180.099 67.048 177.88 67.048 175.662 67.176V66.664L177.422 66.408C177.891 66.344 178.126 65.928 178.126 65.16V59.752C178.126 58.5573 177.923 57.5973 177.518 56.872C177.112 56.1467 176.323 55.784 175.15 55.784C173.784 55.784 172.451 56.4347 171.15 57.736V65.512C171.15 65.8533 171.406 66.088 171.918 66.216L173.806 66.664V67.176C173.507 67.1547 173.155 67.1333 172.75 67.112C172.344 67.0907 171.896 67.08 171.406 67.08H170.35C168.835 67.08 167.683 67.112 166.894 67.176V66.664L168.59 66.344C169.016 66.28 169.23 65.96 169.23 65.384V59.048C169.23 58.3867 169.091 57.9387 168.814 57.704C168.558 57.4693 168.088 57.2987 167.406 57.192V56.616C168.75 56.296 169.827 55.336 170.638 53.736H171.15V56.616C171.96 55.912 172.856 55.3573 173.838 54.952C174.819 54.5253 175.683 54.312 176.43 54.312C178.883 54.312 180.11 55.7733 180.11 58.696V65.064C180.11 65.4693 180.163 65.7787 180.27 65.992C180.376 66.2053 180.59 66.344 180.91 66.408L182.318 66.664V67.176ZM186.645 67.528C186.176 67.528 185.781 67.368 185.461 67.048C185.141 66.728 184.981 66.3333 184.981 65.864C184.981 65.3947 185.141 65 185.461 64.68C185.781 64.36 186.176 64.2 186.645 64.2C187.114 64.2 187.509 64.36 187.829 64.68C188.149 65 188.309 65.3947 188.309 65.864C188.309 66.3333 188.149 66.728 187.829 67.048C187.509 67.368 187.114 67.528 186.645 67.528Z" fill="#060606"/>
</svg>
