<svg width="342" height="68" viewBox="0 0 342 68" fill="none" xmlns="http://www.w3.org/2000/svg">
<path d="M49.2 36.8C48.6133 39.2533 48.16 41.8133 47.84 44.48C47.52 47.1467 47.3067 49.4667 47.2 51.44C43.84 51.3333 40.32 51.28 36.64 51.28C32.96 51.2267 28.8533 51.2 24.32 51.2C19.7867 51.2 15.44 51.2267 11.28 51.28C7.12 51.28 3.36 51.3333 2.98023e-08 51.44V49.6L5.6 49.2C6.50667 49.0933 7.12 48.9067 7.44 48.64C7.81333 48.32 8 47.5733 8 46.4V7.12C8 5.84 7.84 4.93333 7.52 4.4C7.25333 3.81333 6.74667 3.49333 6 3.44L0.32 2.88V0.959998C2.50667 1.06666 5.54667 1.14666 9.44 1.2C13.3333 1.2 17.8133 1.2 22.88 1.2C27.9467 1.2 32.16 1.2 35.52 1.2C38.9333 1.14666 41.7067 1.06666 43.84 0.959998C43.7333 1.76 43.6533 2.69333 43.6 3.76C43.6 4.82666 43.6 5.92 43.6 7.04C43.6 8.10666 43.6 9.17333 43.6 10.24C43.6533 11.3067 43.7067 12.2667 43.76 13.12H42.72C42.0267 11.04 41.3867 9.41333 40.8 8.24C40.2667 7.01333 39.7067 6.08 39.12 5.44C38.5867 4.8 38 4.4 37.36 4.24C36.72 4.02667 35.9733 3.89333 35.12 3.84H19.04C18.1333 3.84 17.52 4.10667 17.2 4.64C16.88 5.12 16.72 5.97333 16.72 7.2V24.4H31.36C32.4267 24.4 33.28 24.24 33.92 23.92C34.56 23.6 35.0133 22.96 35.28 22L36.8 16.56H38.8C38.48 22.9067 38.48 29.3067 38.8 35.76H37.44L35.2 30C34.6667 28.6133 33.84 27.76 32.72 27.44C31.6 27.0667 30.1067 26.88 28.24 26.88H16.72V45.2C16.72 46.3733 16.9333 47.2 17.36 47.68C17.7867 48.1067 18.6933 48.32 20.08 48.32H35.36C36.5333 48.32 37.6267 48.1867 38.64 47.92C39.6533 47.6533 40.64 47.12 41.6 46.32C42.56 45.4667 43.52 44.2933 44.48 42.8C45.4933 41.2533 46.5333 39.2533 47.6 36.8H49.2ZM87.285 51.36C86.2717 51.2533 84.965 51.2 83.365 51.2C81.765 51.2 80.1917 51.2 78.645 51.2C77.0983 51.2 75.4983 51.2267 73.845 51.28C72.1917 51.3333 70.885 51.4133 69.925 51.52V50L71.925 49.44C73.045 49.1733 73.6583 48.8 73.765 48.32C73.925 47.7867 73.7383 47.12 73.205 46.32C73.045 46.1067 72.885 45.8933 72.725 45.68C72.6183 45.4667 72.4583 45.2267 72.245 44.96L67.285 38.56L62.165 45.52C61.5783 46.2667 61.285 46.9067 61.285 47.44C61.285 47.92 61.4983 48.3467 61.925 48.72C62.3517 49.04 63.0983 49.3067 64.165 49.52L66.565 50V51.52C64.4317 51.3067 62.0317 51.2 59.365 51.2C56.6983 51.2 54.0583 51.3067 51.445 51.52V50L53.685 49.44C54.9117 49.1733 56.0317 48.56 57.045 47.6C58.0583 46.64 59.1517 45.36 60.325 43.76L65.845 36.72L58.245 26.72C57.0717 25.3333 56.1383 24.3467 55.445 23.76C54.7517 23.12 54.1917 22.7467 53.765 22.64L51.605 22.16V20.48C52.725 20.64 55.285 20.72 59.285 20.72C61.3117 20.72 63.1517 20.72 64.805 20.72C66.4583 20.6667 67.6317 20.5867 68.325 20.48V22.16L66.725 22.4C65.8717 22.56 65.445 22.9067 65.445 23.44C65.445 23.9733 66.0317 25.0133 67.205 26.56L71.205 31.92L74.965 27.04C75.6583 26.1333 76.005 25.3067 76.005 24.56C76.005 23.44 75.2583 22.7733 73.765 22.56L71.605 22.16V20.48C72.5117 20.64 73.7117 20.7467 75.205 20.8C76.7517 20.8 78.1383 20.8 79.365 20.8C81.285 20.8 82.7517 20.7733 83.765 20.72C84.7783 20.6667 85.5783 20.6133 86.165 20.56V22.16L83.525 22.64C82.2983 22.9067 81.285 23.4133 80.485 24.16C79.7383 24.8533 78.7517 25.9733 77.525 27.52L72.725 33.76L81.845 45.84C82.6983 46.9067 83.3917 47.7067 83.925 48.24C84.5117 48.7733 85.045 49.12 85.525 49.28L87.285 49.84V51.36ZM101.693 23.84C103.72 22.24 105.64 21.0667 107.453 20.32C109.32 19.52 111.426 19.1467 113.773 19.2C117.72 19.3067 120.866 20.7467 123.213 23.52C125.56 26.2933 126.733 30.0533 126.733 34.8C126.733 37.4133 126.28 39.7867 125.373 41.92C124.52 44 123.346 45.8133 121.853 47.36C120.413 48.8533 118.68 50.0267 116.653 50.88C114.68 51.68 112.573 52.08 110.333 52.08C108.786 52.08 107.266 51.92 105.773 51.6C104.333 51.2267 102.973 50.6133 101.693 49.76V61.92C101.693 62.6133 101.906 63.1467 102.333 63.52C102.813 63.9467 103.72 64.2667 105.053 64.48L109.853 65.28V67.04C108.946 66.9333 107.853 66.8533 106.573 66.8C105.346 66.8 103.826 66.7733 102.013 66.72H99.2931C97.5331 66.72 95.6665 66.7467 93.6931 66.8C91.7198 66.8533 90.1465 66.9333 88.9731 67.04V65.28L92.3331 64.64C93.1331 64.48 93.6398 64.2133 93.8531 63.84C94.1198 63.52 94.2531 62.8533 94.2531 61.84V26.56C94.2531 24.5867 93.9065 23.5733 93.2131 23.52L89.2931 22.88L89.5331 21.76C90.9198 21.3333 92.1731 20.88 93.2931 20.4C94.4665 19.92 95.3198 19.5467 95.8531 19.28C96.5998 18.9067 97.4531 18.4 98.4131 17.76C99.3731 17.12 100.066 16.5333 100.493 16H101.693V23.84ZM101.693 26.72V42.56C101.693 44.48 102.333 46.08 103.613 47.36C104.946 48.5867 106.866 49.2 109.373 49.2C112.253 49.2 114.52 48.0533 116.173 45.76C117.88 43.4667 118.733 40.4267 118.733 36.64C118.733 34.6667 118.466 32.8533 117.933 31.2C117.453 29.5467 116.76 28.1333 115.853 26.96C114.946 25.7867 113.88 24.9067 112.653 24.32C111.426 23.68 110.093 23.4133 108.653 23.52C107.32 23.6267 106.093 23.9733 104.973 24.56C103.853 25.0933 102.76 25.8133 101.693 26.72ZM130.85 51.52V50.24L133.89 49.52C134.957 49.2 135.623 48.8 135.89 48.32C136.21 47.7867 136.37 46.8267 136.37 45.44V30.08C136.37 29.0133 136.157 28.24 135.73 27.76C135.303 27.2267 134.29 26.8267 132.69 26.56L131.01 26.24L131.09 24.88C133.17 24.2933 135.223 23.4133 137.25 22.24C139.277 21.0667 140.903 19.4667 142.13 17.44H143.57L143.89 26.88C144.317 25.92 144.797 25.0667 145.33 24.32C145.863 23.52 146.583 22.64 147.49 21.68C148.397 20.72 149.25 20.08 150.05 19.76C150.903 19.44 151.677 19.28 152.37 19.28C153.703 19.28 154.797 19.68 155.65 20.48C156.557 21.2267 157.01 22.3733 157.01 23.92C157.01 25.36 156.663 26.5067 155.97 27.36C155.33 28.16 154.397 28.56 153.17 28.56C152.53 28.56 151.97 28.4267 151.49 28.16C151.01 27.84 150.557 27.4933 150.13 27.12C149.757 26.7467 149.383 26.4267 149.01 26.16C148.637 25.84 148.29 25.68 147.97 25.68C147.49 25.68 147.037 25.8933 146.61 26.32C146.183 26.6933 145.783 27.1733 145.41 27.76C145.037 28.3467 144.717 29.0133 144.45 29.76C144.237 30.4533 144.103 31.12 144.05 31.76C143.997 32.2933 143.943 32.7733 143.89 33.2C143.837 33.6267 143.837 34.0267 143.89 34.4V45.6C143.89 46.9333 144.13 47.8133 144.61 48.24C145.09 48.6133 146.05 48.9867 147.49 49.36L151.57 50.16V51.44C150.29 51.3333 148.85 51.28 147.25 51.28C145.65 51.2267 144.023 51.2 142.37 51.2H140.85C139.09 51.2 137.357 51.2267 135.65 51.28C133.943 51.3333 132.343 51.4133 130.85 51.52ZM190.059 31.92H169.179C169.073 32.4533 168.993 32.8533 168.939 33.12C168.939 33.3867 168.939 33.7867 168.939 34.32C168.939 36.1867 169.206 37.8933 169.739 39.44C170.273 40.9867 171.019 42.32 171.979 43.44C172.939 44.56 174.086 45.44 175.419 46.08C176.806 46.6667 178.353 46.96 180.059 46.96C181.926 46.96 183.633 46.6667 185.179 46.08C186.779 45.44 188.459 44.2667 190.219 42.56L190.539 44.08C189.793 45.2533 188.939 46.3467 187.979 47.36C187.073 48.3733 186.033 49.28 184.859 50.08C183.686 50.8267 182.353 51.4133 180.859 51.84C179.366 52.2667 177.686 52.48 175.819 52.48C173.686 52.48 171.739 52.08 169.979 51.28C168.219 50.48 166.699 49.36 165.419 47.92C164.139 46.4267 163.126 44.6667 162.379 42.64C161.686 40.6133 161.339 38.4 161.339 36C161.339 33.5467 161.713 31.3067 162.459 29.28C163.259 27.2533 164.353 25.4933 165.739 24C167.126 22.5067 168.806 21.36 170.779 20.56C172.753 19.7067 174.939 19.28 177.339 19.28C179.419 19.28 181.233 19.6 182.779 20.24C184.326 20.88 185.606 21.7867 186.619 22.96C187.686 24.08 188.486 25.4133 189.019 26.96C189.606 28.5067 189.953 30.16 190.059 31.92ZM169.579 29.44H179.019C180.086 29.44 180.886 29.3067 181.419 29.04C182.006 28.7733 182.219 28.1067 182.059 27.04C181.899 25.5467 181.446 24.2667 180.699 23.2C180.006 22.08 178.806 21.52 177.099 21.52C175.179 21.52 173.579 22.2133 172.299 23.6C171.019 24.9333 170.113 26.88 169.579 29.44ZM215.4 29.2C215.24 28.4 214.947 27.5733 214.52 26.72C214.147 25.8667 213.64 25.0933 213 24.4C212.36 23.6533 211.613 23.04 210.76 22.56C209.907 22.08 208.92 21.84 207.8 21.84C206.253 21.84 204.947 22.16 203.88 22.8C202.813 23.44 202.28 24.56 202.28 26.16C202.28 27.7067 203 28.9067 204.44 29.76C205.933 30.56 208.013 31.36 210.68 32.16C213.987 33.2267 216.28 34.56 217.56 36.16C218.84 37.76 219.48 39.6267 219.48 41.76C219.48 43.6267 219.107 45.2533 218.36 46.64C217.667 47.9733 216.707 49.0933 215.48 50C214.307 50.8533 212.92 51.4933 211.32 51.92C209.773 52.2933 208.147 52.48 206.44 52.48C204.52 52.48 202.707 52.32 201 52C199.347 51.6267 197.907 51.0933 196.68 50.4L195.88 40.88H197.64C198.387 43.76 199.587 46 201.24 47.6C202.893 49.1467 204.893 49.92 207.24 49.92C208.947 49.92 210.413 49.4933 211.64 48.64C212.867 47.7333 213.48 46.4267 213.48 44.72C213.48 43.1733 212.893 41.9467 211.72 41.04C210.547 40.1333 208.68 39.3067 206.12 38.56C202.333 37.4933 199.667 36.1867 198.12 34.64C196.627 33.0933 195.88 31.0133 195.88 28.4C195.88 26.96 196.227 25.68 196.92 24.56C197.613 23.3867 198.52 22.4267 199.64 21.68C200.76 20.88 202.067 20.2933 203.56 19.92C205.053 19.4933 206.6 19.28 208.2 19.28C209.853 19.28 211.427 19.44 212.92 19.76C214.413 20.08 215.693 20.56 216.76 21.2L217.24 29.2H215.4ZM244.306 29.2C244.146 28.4 243.853 27.5733 243.426 26.72C243.053 25.8667 242.546 25.0933 241.906 24.4C241.266 23.6533 240.52 23.04 239.666 22.56C238.813 22.08 237.826 21.84 236.706 21.84C235.16 21.84 233.853 22.16 232.786 22.8C231.72 23.44 231.186 24.56 231.186 26.16C231.186 27.7067 231.906 28.9067 233.346 29.76C234.84 30.56 236.92 31.36 239.586 32.16C242.893 33.2267 245.186 34.56 246.466 36.16C247.746 37.76 248.386 39.6267 248.386 41.76C248.386 43.6267 248.013 45.2533 247.266 46.64C246.573 47.9733 245.613 49.0933 244.386 50C243.213 50.8533 241.826 51.4933 240.226 51.92C238.68 52.2933 237.053 52.48 235.346 52.48C233.426 52.48 231.613 52.32 229.906 52C228.253 51.6267 226.813 51.0933 225.586 50.4L224.786 40.88H226.546C227.293 43.76 228.493 46 230.146 47.6C231.8 49.1467 233.8 49.92 236.146 49.92C237.853 49.92 239.32 49.4933 240.546 48.64C241.773 47.7333 242.386 46.4267 242.386 44.72C242.386 43.1733 241.8 41.9467 240.626 41.04C239.453 40.1333 237.586 39.3067 235.026 38.56C231.24 37.4933 228.573 36.1867 227.026 34.64C225.533 33.0933 224.786 31.0133 224.786 28.4C224.786 26.96 225.133 25.68 225.826 24.56C226.52 23.3867 227.426 22.4267 228.546 21.68C229.666 20.88 230.973 20.2933 232.466 19.92C233.96 19.4933 235.506 19.28 237.106 19.28C238.76 19.28 240.333 19.44 241.826 19.76C243.32 20.08 244.6 20.56 245.666 21.2L246.146 29.2H244.306ZM262.493 2.32C263.719 2.32 264.759 2.77333 265.613 3.68C266.519 4.53333 266.973 5.57333 266.973 6.8C266.973 7.86666 266.519 8.85333 265.613 9.76C264.706 10.6133 263.639 11.04 262.413 11.04C261.186 11.04 260.173 10.64 259.373 9.84C258.573 8.98666 258.173 7.97333 258.173 6.8C258.173 5.57333 258.599 4.53333 259.453 3.68C260.306 2.77333 261.319 2.32 262.493 2.32ZM270.893 51.52C270.039 51.4133 268.813 51.3333 267.213 51.28C265.613 51.2267 263.746 51.2 261.613 51.2C259.479 51.2 257.613 51.2267 256.013 51.28C254.413 51.3333 253.186 51.4133 252.333 51.52V49.76L255.933 48.96C257.586 48.64 258.413 47.6533 258.413 46V30.96C258.413 29.68 258.093 28.7467 257.453 28.16C256.813 27.5733 255.533 27.0667 253.613 26.64V25.04C254.573 24.8267 255.559 24.5333 256.573 24.16C257.586 23.7333 258.573 23.28 259.533 22.8C260.493 22.2667 261.373 21.7067 262.173 21.12C262.973 20.5333 263.613 19.8933 264.093 19.2C264.413 19.2 264.706 19.2267 264.973 19.28C265.293 19.28 265.586 19.28 265.853 19.28V46.24C265.853 47.04 265.959 47.6533 266.173 48.08C266.439 48.4533 266.919 48.72 267.613 48.88L270.893 49.76V51.52ZM303.255 26.32L292.215 53.12H290.615L278.535 26.24C277.895 24.96 277.388 24.1333 277.015 23.76C276.642 23.3867 276.055 23.12 275.255 22.96L271.975 22.24V20.56C273.148 20.72 276.108 20.8 280.855 20.8C283.255 20.8 285.415 20.7733 287.335 20.72C289.255 20.6667 290.588 20.5867 291.335 20.48V22.16L288.295 22.64C287.282 22.8 286.695 23.2533 286.535 24C286.428 24.6933 286.828 26.1067 287.735 28.24L294.055 42.96L299.895 28.24C300.162 27.6 300.348 27.04 300.455 26.56C300.615 26.0267 300.695 25.5733 300.695 25.2C300.695 23.76 299.602 22.88 297.415 22.56L294.535 22.24V20.56C295.228 20.72 297.788 20.8 302.215 20.8C306.642 20.8 309.468 20.72 310.695 20.56V22.24L306.535 22.8C305.682 22.9067 305.068 23.1733 304.695 23.6C304.322 23.9733 303.842 24.88 303.255 26.32ZM341.309 31.92H320.429C320.323 32.4533 320.243 32.8533 320.189 33.12C320.189 33.3867 320.189 33.7867 320.189 34.32C320.189 36.1867 320.456 37.8933 320.989 39.44C321.523 40.9867 322.269 42.32 323.229 43.44C324.189 44.56 325.336 45.44 326.669 46.08C328.056 46.6667 329.603 46.96 331.309 46.96C333.176 46.96 334.883 46.6667 336.429 46.08C338.029 45.44 339.709 44.2667 341.469 42.56L341.789 44.08C341.043 45.2533 340.189 46.3467 339.229 47.36C338.323 48.3733 337.283 49.28 336.109 50.08C334.936 50.8267 333.603 51.4133 332.109 51.84C330.616 52.2667 328.936 52.48 327.069 52.48C324.936 52.48 322.989 52.08 321.229 51.28C319.469 50.48 317.949 49.36 316.669 47.92C315.389 46.4267 314.376 44.6667 313.629 42.64C312.936 40.6133 312.589 38.4 312.589 36C312.589 33.5467 312.963 31.3067 313.709 29.28C314.509 27.2533 315.603 25.4933 316.989 24C318.376 22.5067 320.056 21.36 322.029 20.56C324.003 19.7067 326.189 19.28 328.589 19.28C330.669 19.28 332.483 19.6 334.029 20.24C335.576 20.88 336.856 21.7867 337.869 22.96C338.936 24.08 339.736 25.4133 340.269 26.96C340.856 28.5067 341.203 30.16 341.309 31.92ZM320.829 29.44H330.269C331.336 29.44 332.136 29.3067 332.669 29.04C333.256 28.7733 333.469 28.1067 333.309 27.04C333.149 25.5467 332.696 24.2667 331.949 23.2C331.256 22.08 330.056 21.52 328.349 21.52C326.429 21.52 324.829 22.2133 323.549 23.6C322.269 24.9333 321.363 26.88 320.829 29.44Z" fill="#060606"/>
</svg>
