<svg width="208" height="101" viewBox="0 0 208 101" fill="none" xmlns="http://www.w3.org/2000/svg">
<path d="M9.76562 83.0391C8.09896 83.0391 7.60417 82.349 8.28125 80.9688C8.77604 80.0052 11.6406 76.0729 16.875 69.1719L30 52.2188C36.5104 43.5469 39.7656 37.1667 39.7656 33.0781C39.7656 30.1094 38.8802 27.7396 37.1094 25.9688C35.4167 24.276 33.2031 23.4297 30.4688 23.4297C28.0729 23.4297 25.651 24.1849 23.2031 25.6953C21.1198 26.9974 19.8568 28.2214 19.4141 29.3672C18.7891 30.9557 18.4375 32.1146 18.3594 32.8438C18.2812 33.5729 18.2292 34.3932 18.2031 35.3047C18.151 36.8411 17.9036 37.6094 17.4609 37.6094C17.1745 37.6094 16.862 37.4141 16.5234 37.0234C16.1849 36.6328 15.8594 36.3073 15.5469 36.0469C15.2344 35.7604 14.7266 35.3568 14.0234 34.8359C13.3464 34.3151 12.6562 33.7812 11.9531 33.2344C10.2344 31.8281 9.375 30.9167 9.375 30.5C9.375 30.0833 9.55729 29.7969 9.92188 29.6406C10.2865 29.4844 10.7552 29.3542 11.3281 29.25C13.2292 28.8594 14.4661 28.4688 15.0391 28.0781C15.612 27.6875 16.1198 27.2708 16.5625 26.8281C17.0052 26.3854 17.5391 25.8776 18.1641 25.3047C18.8151 24.7318 19.5573 24.1328 20.3906 23.5078C21.224 22.8828 22.1615 22.2969 23.2031 21.75C25.5208 20.5781 27.7083 19.9792 29.7656 19.9531C31.849 19.9271 33.6719 20.1094 35.2344 20.5C36.7969 20.8906 38.2031 21.5807 39.4531 22.5703C42.2917 24.8099 43.7109 28.2995 43.7109 33.0391C43.7109 37.987 40.5078 44.5625 34.1016 52.7656C31.9922 55.474 29.8568 58.3125 27.6953 61.2812C25.5339 64.25 23.8411 66.5417 22.6172 68.1562C21.4193 69.7708 20.3125 71.2552 19.2969 72.6094C17.0833 75.6042 15.6901 77.388 15.1172 77.9609C14.1536 78.9245 14.2969 79.4062 15.5469 79.4062C20.7292 79.4062 27.2526 79.849 35.1172 80.7344C37.0443 81.125 39.7917 80.0573 43.3594 77.5312C44.8177 76.4896 45.5469 76.5807 45.5469 77.8047C45.5469 78.4557 45.3906 79.1719 45.0781 79.9531C44.5312 81.4115 44.2578 82.7656 44.2578 84.0156L44.6094 87.4922C44.6094 88.638 44.0104 88.9505 42.8125 88.4297C42.5 88.2995 42.2266 88.1172 41.9922 87.8828C41.7839 87.6745 41.4193 87.388 40.8984 87.0234C40.3776 86.6589 39.8177 86.2812 39.2188 85.8906C37.8385 85.0312 36.7057 84.5104 35.8203 84.3281C34.9349 84.1719 33.6328 83.9896 31.9141 83.7812C30.1953 83.599 28.3333 83.4427 26.3281 83.3125C21.5625 83 17.6953 82.8438 14.7266 82.8438L9.76562 83.0391ZM85.5469 84.25C82.5521 86.5938 78.724 87.2057 74.0625 86.0859C70.8854 85.3047 68.0469 83.4427 65.5469 80.5C61.0938 75.2656 58.6198 66.5547 58.125 54.3672C58.099 53.9245 58.0859 53.4948 58.0859 53.0781V51.75C58.0859 42.375 59.8958 34.6276 63.5156 28.5078C65.2083 25.6172 67.2396 23.3646 69.6094 21.75C71.9792 20.1094 74.388 19.2891 76.8359 19.2891C79.3099 19.2891 81.5234 19.862 83.4766 21.0078C85.4297 22.1276 87.2135 23.9115 88.8281 26.3594C92.3438 31.5938 94.5703 39.3802 95.5078 49.7188C96.1589 56.4375 95.7943 62.6354 94.4141 68.3125C92.6172 75.7344 89.6615 81.0469 85.5469 84.25ZM76.0547 23.9766L74.2969 23.8203C73.151 23.8203 71.6927 24.7318 69.9219 26.5547C67.7865 28.7161 66.1979 31.1901 65.1562 33.9766C63.151 39.4453 62.1484 45.6172 62.1484 52.4922C62.1484 67.1797 65.4688 76.724 72.1094 81.125C74.1667 82.5052 76.0938 83.1823 77.8906 83.1562C79.6875 83.1302 81.3932 82.4792 83.0078 81.2031C84.6224 79.9271 86.0938 78.0911 87.4219 75.6953C91.0938 68.9766 92.5 60.2917 91.6406 49.6406C90.9896 42.0104 89.5182 35.9297 87.2266 31.3984C85.5599 28.1172 83.5677 25.7604 81.25 24.3281C80.3906 23.8073 79.6875 23.4948 79.1406 23.3906C79.1406 23.3906 78.8672 23.3255 78.3203 23.1953C77.9297 23.1953 77.487 23.3255 76.9922 23.5859C76.5234 23.8464 76.2109 23.9766 76.0547 23.9766ZM111.328 83.0391C109.661 83.0391 109.167 82.349 109.844 80.9688C110.339 80.0052 113.203 76.0729 118.438 69.1719L131.562 52.2188C138.073 43.5469 141.328 37.1667 141.328 33.0781C141.328 30.1094 140.443 27.7396 138.672 25.9688C136.979 24.276 134.766 23.4297 132.031 23.4297C129.635 23.4297 127.214 24.1849 124.766 25.6953C122.682 26.9974 121.419 28.2214 120.977 29.3672C120.352 30.9557 120 32.1146 119.922 32.8438C119.844 33.5729 119.792 34.3932 119.766 35.3047C119.714 36.8411 119.466 37.6094 119.023 37.6094C118.737 37.6094 118.424 37.4141 118.086 37.0234C117.747 36.6328 117.422 36.3073 117.109 36.0469C116.797 35.7604 116.289 35.3568 115.586 34.8359C114.909 34.3151 114.219 33.7812 113.516 33.2344C111.797 31.8281 110.938 30.9167 110.938 30.5C110.938 30.0833 111.12 29.7969 111.484 29.6406C111.849 29.4844 112.318 29.3542 112.891 29.25C114.792 28.8594 116.029 28.4688 116.602 28.0781C117.174 27.6875 117.682 27.2708 118.125 26.8281C118.568 26.3854 119.102 25.8776 119.727 25.3047C120.378 24.7318 121.12 24.1328 121.953 23.5078C122.786 22.8828 123.724 22.2969 124.766 21.75C127.083 20.5781 129.271 19.9792 131.328 19.9531C133.411 19.9271 135.234 20.1094 136.797 20.5C138.359 20.8906 139.766 21.5807 141.016 22.5703C143.854 24.8099 145.273 28.2995 145.273 33.0391C145.273 37.987 142.07 44.5625 135.664 52.7656C133.555 55.474 131.419 58.3125 129.258 61.2812C127.096 64.25 125.404 66.5417 124.18 68.1562C122.982 69.7708 121.875 71.2552 120.859 72.6094C118.646 75.6042 117.253 77.388 116.68 77.9609C115.716 78.9245 115.859 79.4062 117.109 79.4062C122.292 79.4062 128.815 79.849 136.68 80.7344C138.607 81.125 141.354 80.0573 144.922 77.5312C146.38 76.4896 147.109 76.5807 147.109 77.8047C147.109 78.4557 146.953 79.1719 146.641 79.9531C146.094 81.4115 145.82 82.7656 145.82 84.0156L146.172 87.4922C146.172 88.638 145.573 88.9505 144.375 88.4297C144.062 88.2995 143.789 88.1172 143.555 87.8828C143.346 87.6745 142.982 87.388 142.461 87.0234C141.94 86.6589 141.38 86.2812 140.781 85.8906C139.401 85.0312 138.268 84.5104 137.383 84.3281C136.497 84.1719 135.195 83.9896 133.477 83.7812C131.758 83.599 129.896 83.4427 127.891 83.3125C123.125 83 119.258 82.8438 116.289 82.8438L111.328 83.0391ZM164.141 83.0391C162.474 83.0391 161.979 82.349 162.656 80.9688C163.151 80.0052 166.016 76.0729 171.25 69.1719L184.375 52.2188C190.885 43.5469 194.141 37.1667 194.141 33.0781C194.141 30.1094 193.255 27.7396 191.484 25.9688C189.792 24.276 187.578 23.4297 184.844 23.4297C182.448 23.4297 180.026 24.1849 177.578 25.6953C175.495 26.9974 174.232 28.2214 173.789 29.3672C173.164 30.9557 172.812 32.1146 172.734 32.8438C172.656 33.5729 172.604 34.3932 172.578 35.3047C172.526 36.8411 172.279 37.6094 171.836 37.6094C171.549 37.6094 171.237 37.4141 170.898 37.0234C170.56 36.6328 170.234 36.3073 169.922 36.0469C169.609 35.7604 169.102 35.3568 168.398 34.8359C167.721 34.3151 167.031 33.7812 166.328 33.2344C164.609 31.8281 163.75 30.9167 163.75 30.5C163.75 30.0833 163.932 29.7969 164.297 29.6406C164.661 29.4844 165.13 29.3542 165.703 29.25C167.604 28.8594 168.841 28.4688 169.414 28.0781C169.987 27.6875 170.495 27.2708 170.938 26.8281C171.38 26.3854 171.914 25.8776 172.539 25.3047C173.19 24.7318 173.932 24.1328 174.766 23.5078C175.599 22.8828 176.536 22.2969 177.578 21.75C179.896 20.5781 182.083 19.9792 184.141 19.9531C186.224 19.9271 188.047 20.1094 189.609 20.5C191.172 20.8906 192.578 21.5807 193.828 22.5703C196.667 24.8099 198.086 28.2995 198.086 33.0391C198.086 37.987 194.883 44.5625 188.477 52.7656C186.367 55.474 184.232 58.3125 182.07 61.2812C179.909 64.25 178.216 66.5417 176.992 68.1562C175.794 69.7708 174.688 71.2552 173.672 72.6094C171.458 75.6042 170.065 77.388 169.492 77.9609C168.529 78.9245 168.672 79.4062 169.922 79.4062C175.104 79.4062 181.628 79.849 189.492 80.7344C191.419 81.125 194.167 80.0573 197.734 77.5312C199.193 76.4896 199.922 76.5807 199.922 77.8047C199.922 78.4557 199.766 79.1719 199.453 79.9531C198.906 81.4115 198.633 82.7656 198.633 84.0156L198.984 87.4922C198.984 88.638 198.385 88.9505 197.188 88.4297C196.875 88.2995 196.602 88.1172 196.367 87.8828C196.159 87.6745 195.794 87.388 195.273 87.0234C194.753 86.6589 194.193 86.2812 193.594 85.8906C192.214 85.0312 191.081 84.5104 190.195 84.3281C189.31 84.1719 188.008 83.9896 186.289 83.7812C184.57 83.599 182.708 83.4427 180.703 83.3125C175.938 83 172.07 82.8438 169.102 82.8438L164.141 83.0391Z" fill="#060606"/>
</svg>
