<svg width="231" height="86" viewBox="0 0 231 86" fill="none" xmlns="http://www.w3.org/2000/svg">
<path d="M230.5 43C230.5 48.7413 227.376 54.2717 221.593 59.3622C215.811 64.452 207.415 69.0584 196.996 72.937C176.164 80.6928 147.351 85.5 115.5 85.5C83.6493 85.5 54.8361 80.6928 34.0036 72.937C23.5855 69.0584 15.1894 64.452 9.40692 59.3622C3.62362 54.2717 0.5 48.7413 0.5 43C0.5 37.2587 3.62362 31.7283 9.40692 26.6378C15.1894 21.548 23.5855 16.9416 34.0036 13.063C54.8361 5.30718 83.6493 0.5 115.5 0.5C147.351 0.5 176.164 5.30718 196.996 13.063C207.415 16.9416 215.811 21.548 221.593 26.6378C227.376 31.7283 230.5 37.2587 230.5 43Z" fill="white" stroke="#060606"/>
<path d="M65.984 33.56L64.256 33.848C63.5947 33.976 63.1573 34.328 62.944 34.904L55.584 53.816H54.88L47.072 35.448C46.8373 34.8933 46.624 34.52 46.432 34.328C46.2613 34.136 46.016 34.008 45.696 33.944L43.936 33.56V32.984C44.6613 33.048 46.1333 33.08 48.352 33.08C50.592 33.08 52.2453 33.048 53.312 32.984V33.56L51.424 33.688C51.0187 33.752 50.688 33.816 50.432 33.88C50.1973 33.9227 50.0373 34.0293 49.952 34.2C49.8667 34.3707 49.856 34.616 49.92 34.936C50.0053 35.256 50.1653 35.704 50.4 36.28L56.064 49.976L61.088 36.088C61.2373 35.64 61.3333 35.2773 61.376 35C61.44 34.7227 61.4187 34.5093 61.312 34.36C61.2053 34.1893 60.992 34.0613 60.672 33.976C60.352 33.8907 59.904 33.8053 59.328 33.72L58.048 33.56V32.984C58.624 33.048 59.9787 33.08 62.112 33.08C64.2027 33.08 65.4933 33.048 65.984 32.984V33.56ZM73.622 53.208C73.2807 53.1653 72.8113 53.1333 72.214 53.112C71.638 53.0907 70.9233 53.08 70.07 53.08C69.2167 53.08 68.4913 53.0907 67.894 53.112C67.318 53.1333 66.8593 53.1653 66.518 53.208V52.664L68.246 52.312C68.9073 52.184 69.238 51.8 69.238 51.16V44.792C69.238 44.28 69.11 43.9067 68.854 43.672C68.598 43.4373 68.086 43.2347 67.318 43.064V42.584C68.0647 42.392 68.7367 42.104 69.334 41.72C69.9527 41.336 70.4433 40.856 70.806 40.28H71.35V51.256C71.35 51.576 71.3927 51.8107 71.478 51.96C71.5847 52.1093 71.7767 52.216 72.054 52.28L73.622 52.664V53.208ZM70.134 33.656C70.5393 33.656 70.8913 33.8053 71.19 34.104C71.4887 34.3813 71.638 34.7227 71.638 35.128C71.638 35.4907 71.478 35.8107 71.158 36.088C70.8593 36.3653 70.4967 36.504 70.07 36.504C69.686 36.504 69.3553 36.376 69.078 36.12C68.822 35.8427 68.694 35.512 68.694 35.128C68.694 34.7227 68.8327 34.3813 69.11 34.104C69.4087 33.8053 69.75 33.656 70.134 33.656ZM86.727 45.112H77.927C77.863 45.5387 77.831 45.944 77.831 46.328C77.831 47.9707 78.2683 49.304 79.143 50.328C80.0177 51.3307 81.223 51.832 82.759 51.832C83.5057 51.832 84.1883 51.6933 84.807 51.416C85.4257 51.1173 86.0977 50.6267 86.823 49.944L86.951 50.68C86.2257 51.64 85.383 52.3653 84.423 52.856C83.4843 53.3467 82.3857 53.592 81.127 53.592C80.3377 53.592 79.6017 53.432 78.919 53.112C78.2577 52.7707 77.671 52.3013 77.159 51.704C76.6683 51.1067 76.2843 50.4133 76.007 49.624C75.7297 48.8133 75.591 47.9387 75.591 47C75.591 46.0613 75.7403 45.1867 76.039 44.376C76.359 43.544 76.7963 42.8293 77.351 42.232C77.9057 41.6347 78.567 41.1653 79.335 40.824C80.103 40.4827 80.935 40.312 81.831 40.312C82.535 40.312 83.175 40.4293 83.751 40.664C84.3483 40.8987 84.8603 41.2293 85.287 41.656C85.7137 42.0613 86.0443 42.5627 86.279 43.16C86.535 43.7573 86.6843 44.408 86.727 45.112ZM78.087 44.376H82.727C83.047 44.376 83.3243 44.376 83.559 44.376C83.7937 44.3547 83.9857 44.312 84.135 44.248C84.2843 44.1627 84.3697 44.0453 84.391 43.896C84.4337 43.7467 84.423 43.5333 84.359 43.256C84.231 42.7013 83.9643 42.2 83.559 41.752C83.175 41.304 82.5777 41.08 81.767 41.08C80.807 41.08 80.007 41.3787 79.367 41.976C78.727 42.552 78.3003 43.352 78.087 44.376ZM87.8682 40.792C88.3376 40.856 89.3296 40.888 90.8443 40.888C92.3803 40.888 93.4683 40.856 94.1083 40.792V41.336C93.2976 41.464 92.7749 41.6027 92.5403 41.752C92.3269 41.9013 92.3163 42.2107 92.5083 42.68L96.5083 51.192L98.9723 46.2L97.7563 43C97.5216 42.4027 97.3189 42.0293 97.1483 41.88C96.9989 41.7093 96.8389 41.6133 96.6683 41.592L95.3883 41.336V40.792C95.9856 40.856 97.1589 40.888 98.9083 40.888C100.636 40.888 101.778 40.856 102.332 40.792V41.336L100.892 41.592C100.572 41.656 100.338 41.7413 100.188 41.848C100.06 41.9333 99.9749 42.04 99.9323 42.168C99.8896 42.2747 99.8789 42.392 99.9003 42.52C99.9429 42.648 99.9963 42.776 100.06 42.904L103.164 50.968L106.332 43.576C106.46 43.384 106.524 43.1707 106.524 42.936C106.524 42.7013 106.482 42.488 106.396 42.296C106.311 42.104 106.183 41.944 106.012 41.816C105.842 41.6667 105.639 41.5813 105.404 41.56L104.092 41.336V40.792C104.562 40.856 105.458 40.888 106.78 40.888C108.124 40.888 109.106 40.856 109.724 40.792V41.336L108.924 41.496C108.284 41.688 107.74 42.2853 107.292 43.288L102.684 53.816H102.108L99.3883 47.192L96.0283 53.816H95.3563L89.7563 42.392C89.4576 41.816 89.0523 41.496 88.5403 41.432L87.8682 41.336V40.792ZM144.284 53.176C142.3 53.112 140.679 53.08 139.42 53.08H138.716C138.161 53.08 137.575 53.0907 136.956 53.112C136.337 53.1333 135.655 53.1547 134.908 53.176V52.6L136.828 52.216C137.319 52.1093 137.628 51.9493 137.756 51.736C137.884 51.5227 137.948 51.1067 137.948 50.488V35.768L130.716 53.336L122.204 34.584V50.68C122.204 51.6827 122.524 52.216 123.164 52.28L126.108 52.6V53.176C124.828 53.112 123.537 53.08 122.236 53.08C120.956 53.08 119.473 53.112 117.788 53.176V52.6L119.548 52.28C119.953 52.216 120.263 52.1413 120.476 52.056C120.711 51.9707 120.881 51.8747 120.988 51.768C121.116 51.64 121.191 51.4907 121.212 51.32C121.233 51.1493 121.244 50.936 121.244 50.68V33.912L118.332 33.56V32.984C118.673 33.048 119.633 33.08 121.212 33.08C122.812 33.08 123.889 33.048 124.444 32.984L131.548 48.6L138.044 32.984C139.089 33.048 140.156 33.08 141.244 33.08C142.353 33.08 143.356 33.048 144.252 32.984V33.56L142.268 33.976C141.649 34.104 141.223 34.296 140.988 34.552C140.753 34.808 140.636 35.2453 140.636 35.864V50.264C140.636 50.9253 140.689 51.3733 140.796 51.608C140.924 51.8213 141.18 51.9707 141.564 52.056L144.284 52.6V53.176ZM152.498 53.592C151.538 53.592 150.652 53.432 149.842 53.112C149.031 52.7707 148.327 52.312 147.73 51.736C147.132 51.1387 146.663 50.4347 146.322 49.624C145.98 48.8133 145.81 47.928 145.81 46.968C145.81 45.9867 145.98 45.0907 146.322 44.28C146.663 43.4693 147.143 42.776 147.762 42.2C148.38 41.6027 149.106 41.144 149.938 40.824C150.791 40.4827 151.73 40.312 152.754 40.312C153.799 40.312 154.738 40.4933 155.57 40.856C156.423 41.1973 157.148 41.6773 157.746 42.296C158.343 42.8933 158.802 43.608 159.122 44.44C159.463 45.2507 159.634 46.1147 159.634 47.032C159.634 47.9707 159.452 48.8347 159.09 49.624C158.748 50.4133 158.258 51.1067 157.618 51.704C156.999 52.3013 156.252 52.7707 155.378 53.112C154.503 53.432 153.543 53.592 152.498 53.592ZM148.338 47.224C148.338 48.9947 148.732 50.392 149.522 51.416C150.311 52.4187 151.346 52.92 152.626 52.92C153.266 52.92 153.863 52.7813 154.418 52.504C154.972 52.2267 155.442 51.832 155.826 51.32C156.231 50.7867 156.54 50.1573 156.754 49.432C156.988 48.7067 157.106 47.896 157.106 47C157.106 46.104 156.999 45.2933 156.786 44.568C156.594 43.8213 156.306 43.1813 155.922 42.648C155.538 42.1147 155.068 41.7093 154.514 41.432C153.959 41.1333 153.34 40.984 152.658 40.984C151.314 40.984 150.258 41.5067 149.49 42.552C148.722 43.5973 148.338 45.1547 148.338 47.224ZM161.612 53.208V52.696L163.148 52.408C163.574 52.3013 163.841 52.1413 163.948 51.928C164.076 51.7147 164.14 51.3307 164.14 50.776V44.632C164.14 44.2053 164.044 43.896 163.852 43.704C163.681 43.512 163.286 43.352 162.668 43.224L161.836 43.032L161.9 42.552C162.732 42.2747 163.446 41.9333 164.044 41.528C164.641 41.1013 165.164 40.4507 165.612 39.576H166.188C166.23 40.152 166.262 40.7707 166.284 41.432C166.305 42.0933 166.316 42.7973 166.316 43.544C166.529 43.16 166.764 42.7973 167.02 42.456C167.297 42.0933 167.628 41.7307 168.012 41.368C168.737 40.664 169.388 40.312 169.964 40.312C170.497 40.312 170.913 40.4613 171.212 40.76C171.51 41.0587 171.66 41.4427 171.66 41.912C171.66 42.3387 171.532 42.68 171.276 42.936C171.041 43.1707 170.742 43.288 170.38 43.288C170.017 43.288 169.644 43.1813 169.26 42.968C168.876 42.7547 168.545 42.648 168.268 42.648C168.054 42.648 167.83 42.7547 167.596 42.968C167.382 43.1813 167.18 43.4373 166.988 43.736C166.796 44.0347 166.636 44.3547 166.508 44.696C166.38 45.016 166.316 45.2827 166.316 45.496V50.84C166.316 51.3947 166.401 51.768 166.572 51.96C166.764 52.1307 167.158 52.2587 167.756 52.344L170.06 52.696V53.208C169.505 53.1653 168.876 53.1333 168.172 53.112C167.489 53.0907 166.753 53.08 165.964 53.08H165.516C164.769 53.08 164.065 53.0907 163.404 53.112C162.764 53.1333 162.166 53.1653 161.612 53.208ZM184.79 45.112H175.99C175.926 45.5387 175.894 45.944 175.894 46.328C175.894 47.9707 176.331 49.304 177.206 50.328C178.08 51.3307 179.286 51.832 180.822 51.832C181.568 51.832 182.251 51.6933 182.87 51.416C183.488 51.1173 184.16 50.6267 184.886 49.944L185.014 50.68C184.288 51.64 183.446 52.3653 182.486 52.856C181.547 53.3467 180.448 53.592 179.19 53.592C178.4 53.592 177.664 53.432 176.982 53.112C176.32 52.7707 175.734 52.3013 175.222 51.704C174.731 51.1067 174.347 50.4133 174.07 49.624C173.792 48.8133 173.654 47.9387 173.654 47C173.654 46.0613 173.803 45.1867 174.102 44.376C174.422 43.544 174.859 42.8293 175.414 42.232C175.968 41.6347 176.63 41.1653 177.398 40.824C178.166 40.4827 178.998 40.312 179.894 40.312C180.598 40.312 181.238 40.4293 181.814 40.664C182.411 40.8987 182.923 41.2293 183.35 41.656C183.776 42.0613 184.107 42.5627 184.342 43.16C184.598 43.7573 184.747 44.408 184.79 45.112ZM176.15 44.376H180.79C181.11 44.376 181.387 44.376 181.622 44.376C181.856 44.3547 182.048 44.312 182.198 44.248C182.347 44.1627 182.432 44.0453 182.454 43.896C182.496 43.7467 182.486 43.5333 182.422 43.256C182.294 42.7013 182.027 42.2 181.622 41.752C181.238 41.304 180.64 41.08 179.83 41.08C178.87 41.08 178.07 41.3787 177.43 41.976C176.79 42.552 176.363 43.352 176.15 44.376Z" fill="#060606"/>
</svg>
