<svg width="231" height="86" viewBox="0 0 231 86" fill="none" xmlns="http://www.w3.org/2000/svg">
<path d="M230.5 43C230.5 48.7413 227.376 54.2717 221.593 59.3622C215.811 64.452 207.415 69.0584 196.996 72.937C176.164 80.6928 147.351 85.5 115.5 85.5C83.6493 85.5 54.8361 80.6928 34.0036 72.937C23.5855 69.0584 15.1894 64.452 9.40692 59.3622C3.62362 54.2717 0.5 48.7413 0.5 43C0.5 37.2587 3.62362 31.7283 9.40692 26.6378C15.1894 21.548 23.5855 16.9416 34.0036 13.063C54.8361 5.30718 83.6493 0.5 115.5 0.5C147.351 0.5 176.164 5.30718 196.996 13.063C207.415 16.9416 215.811 21.548 221.593 26.6378C227.376 31.7283 230.5 37.2587 230.5 43Z" fill="white" stroke="#060606"/>
<path d="M35.872 37.008C35.5733 35.6 35.0507 34.576 34.304 33.936C33.5787 33.2747 32.5973 32.944 31.36 32.944C30.8693 32.944 30.4 33.0187 29.952 33.168C29.504 33.3173 29.1093 33.52 28.768 33.776C28.448 34.032 28.192 34.3413 28 34.704C27.808 35.0667 27.712 35.4613 27.712 35.888C27.712 36.336 27.7973 36.7307 27.968 37.072C28.16 37.4133 28.448 37.7333 28.832 38.032C29.216 38.3093 29.696 38.5973 30.272 38.896C30.8693 39.1947 31.5733 39.536 32.384 39.92C33.3653 40.368 34.208 40.7947 34.912 41.2C35.6373 41.6053 36.224 42.0533 36.672 42.544C37.1413 43.0133 37.4827 43.5573 37.696 44.176C37.9093 44.7733 38.016 45.5093 38.016 46.384C38.016 47.3227 37.8347 48.176 37.472 48.944C37.1307 49.712 36.64 50.3733 36 50.928C35.36 51.4613 34.5813 51.8773 33.664 52.176C32.7467 52.4533 31.7333 52.592 30.624 52.592C28.5547 52.592 26.6667 52.0907 24.96 51.088L25.312 46.128H25.92C25.984 46.8747 26.1653 47.568 26.464 48.208C26.784 48.8267 27.1787 49.3707 27.648 49.84C28.1387 50.288 28.6827 50.6507 29.28 50.928C29.8987 51.184 30.5387 51.312 31.2 51.312C31.7547 51.312 32.288 51.2373 32.8 51.088C33.3333 50.9387 33.792 50.7253 34.176 50.448C34.5813 50.1493 34.9013 49.7867 35.136 49.36C35.3707 48.9333 35.488 48.4533 35.488 47.92C35.488 47.3227 35.3813 46.8213 35.168 46.416C34.976 45.9893 34.6667 45.6053 34.24 45.264C33.8133 44.9227 33.2693 44.6027 32.608 44.304C31.9467 43.984 31.168 43.6107 30.272 43.184C29.312 42.736 28.5013 42.288 27.84 41.84C27.2 41.3707 26.688 40.8907 26.304 40.4C25.92 39.9093 25.6427 39.3973 25.472 38.864C25.3013 38.3307 25.216 37.776 25.216 37.2C25.216 36.304 25.3973 35.5147 25.76 34.832C26.144 34.1493 26.6453 33.584 27.264 33.136C27.8827 32.6667 28.5867 32.3253 29.376 32.112C30.1867 31.8773 31.0187 31.76 31.872 31.76C33.728 31.76 35.2747 32.2293 36.512 33.168L36.384 37.008H35.872ZM41.752 34.576C41.752 33.9787 41.5813 33.5627 41.24 33.328C40.8987 33.072 40.3547 32.8587 39.608 32.688V32.112C39.8213 32.112 40.0987 32.08 40.44 32.016C40.8027 31.952 41.1867 31.8773 41.592 31.792C41.9973 31.6853 42.4027 31.568 42.808 31.44C43.2347 31.2907 43.6187 31.1307 43.96 30.96H44.728V42.128C45.3893 41.2533 46.0613 40.592 46.744 40.144C47.448 39.6747 48.2373 39.408 49.112 39.344C49.2827 39.344 49.4533 39.344 49.624 39.344C49.7947 39.344 49.9653 39.3547 50.136 39.376C51.1813 39.4613 52.0027 39.8667 52.6 40.592C53.1973 41.3173 53.496 42.3413 53.496 43.664V50.192C53.496 50.4053 53.5387 50.5973 53.624 50.768C53.7093 50.9387 53.9333 51.0773 54.296 51.184L55.384 51.504V52.208C54.7227 52.1653 54.0933 52.1333 53.496 52.112C52.92 52.0907 52.44 52.08 52.056 52.08C51.6933 52.08 51.192 52.0907 50.552 52.112C49.9333 52.1333 49.2933 52.1653 48.632 52.208V51.504L49.752 51.152C50.0507 51.0453 50.2533 50.9173 50.36 50.768C50.4667 50.5973 50.52 50.3307 50.52 49.968V43.92C50.52 43.1307 50.3387 42.512 49.976 42.064C49.6133 41.616 49.0267 41.392 48.216 41.392C47.4053 41.392 46.712 41.6373 46.136 42.128C45.5813 42.6187 45.112 43.1627 44.728 43.76V49.968C44.728 50.2027 44.7707 50.4053 44.856 50.576C44.9413 50.7467 45.1013 50.8747 45.336 50.96L47.032 51.504V52.208C46.6907 52.1653 46.1893 52.1333 45.528 52.112C44.8667 52.0907 44.1307 52.08 43.32 52.08C42.5307 52.08 41.8267 52.0907 41.208 52.112C40.6107 52.1333 40.1413 52.1653 39.8 52.208V51.504L41.08 51.152C41.3573 51.0667 41.5387 50.9387 41.624 50.768C41.7093 50.5973 41.752 50.384 41.752 50.128V34.576ZM63.712 52.592C62.6667 52.592 61.728 52.432 60.896 52.112C60.064 51.7707 59.36 51.3013 58.784 50.704C58.208 50.1067 57.76 49.4133 57.44 48.624C57.1413 47.8133 56.992 46.928 56.992 45.968C56.992 44.9867 57.1413 44.0907 57.44 43.28C57.7387 42.448 58.1867 41.744 58.784 41.168C59.3813 40.5707 60.1067 40.112 60.96 39.792C61.8347 39.4507 62.8373 39.28 63.968 39.28C65.0987 39.28 66.0907 39.4613 66.944 39.824C67.7973 40.1653 68.512 40.6453 69.088 41.264C69.664 41.8613 70.1013 42.576 70.4 43.408C70.6987 44.2187 70.848 45.0933 70.848 46.032C70.848 46.992 70.6773 47.8773 70.336 48.688C69.9947 49.4773 69.5147 50.16 68.896 50.736C68.2773 51.312 67.5307 51.7707 66.656 52.112C65.7813 52.432 64.8 52.592 63.712 52.592ZM60.32 46.192C60.32 47.8773 60.6293 49.2107 61.248 50.192C61.888 51.152 62.752 51.632 63.84 51.632C64.928 51.632 65.8027 51.12 66.464 50.096C67.1253 49.072 67.456 47.7067 67.456 46C67.456 44.2933 67.1467 42.9173 66.528 41.872C65.9093 40.8053 65.024 40.272 63.872 40.272C62.72 40.272 61.8347 40.7733 61.216 41.776C60.6187 42.7787 60.32 44.2507 60.32 46.192ZM71.6197 39.792C72.0891 39.856 73.0811 39.888 74.5958 39.888C76.1318 39.888 77.2198 39.856 77.8598 39.792V40.464C77.3691 40.5067 77.0278 40.6027 76.8358 40.752C76.6651 40.88 76.6651 41.1253 76.8358 41.488L80.2278 49.232L82.3398 44.944L81.2517 42.128C81.0171 41.5307 80.8144 41.1573 80.6438 41.008C80.4731 40.8373 80.2918 40.7307 80.0998 40.688L79.0438 40.464V39.792C79.6411 39.856 80.8038 39.888 82.5318 39.888C84.2598 39.888 85.4011 39.856 85.9558 39.792V40.464L85.0598 40.624C84.5264 40.7307 84.2171 40.8693 84.1318 41.04C84.0464 41.2107 84.0678 41.4347 84.1958 41.712L87.1398 49.008L89.8918 42.704C90.1051 42.2773 90.1157 41.8507 89.9237 41.424C89.7318 40.9973 89.4118 40.752 88.9638 40.688L87.6518 40.464V39.792C88.1211 39.856 89.0171 39.888 90.3398 39.888C91.0224 39.888 91.6198 39.888 92.1318 39.888C92.6651 39.8667 93.0811 39.8347 93.3798 39.792V40.464L92.5798 40.624C91.9184 40.7733 91.3744 41.3707 90.9478 42.416L86.3718 52.816H85.6038L82.7878 46.064L79.4598 52.816H78.6278L73.3478 41.52C73.0704 40.944 72.6651 40.624 72.1318 40.56L71.6197 40.464V39.792ZM120.612 47.088C120.505 47.7493 120.366 48.5173 120.196 49.392C120.025 50.2667 119.833 51.0667 119.62 51.792C118.276 52.3253 116.217 52.592 113.444 52.592C111.886 52.592 110.425 52.368 109.06 51.92C107.716 51.4507 106.542 50.7893 105.54 49.936C104.537 49.0613 103.748 48.0053 103.172 46.768C102.596 45.5093 102.308 44.0907 102.308 42.512C102.308 40.976 102.574 39.5573 103.108 38.256C103.662 36.9333 104.42 35.792 105.38 34.832C106.34 33.872 107.46 33.1253 108.74 32.592C110.041 32.0373 111.438 31.76 112.932 31.76C114.041 31.76 114.99 31.8133 115.78 31.92C116.59 32.0053 117.262 32.1227 117.796 32.272C118.35 32.4 118.788 32.5387 119.108 32.688C119.449 32.8373 119.716 32.9653 119.908 33.072C119.929 33.328 119.95 33.648 119.972 34.032C119.993 34.416 120.003 34.8213 120.003 35.248C120.025 35.6533 120.036 36.048 120.036 36.432C120.036 36.816 120.036 37.1467 120.036 37.424H119.236C119.108 36.8053 118.905 36.2187 118.628 35.664C118.35 35.1093 117.977 34.6187 117.508 34.192C117.06 33.7653 116.505 33.4347 115.844 33.2C115.182 32.944 114.425 32.816 113.572 32.816C112.484 32.816 111.492 33.0187 110.595 33.424C109.7 33.808 108.932 34.3947 108.292 35.184C107.652 35.9733 107.15 36.944 106.788 38.096C106.425 39.248 106.244 40.5813 106.244 42.096C106.244 43.7173 106.425 45.1253 106.788 46.32C107.15 47.4933 107.662 48.464 108.324 49.232C109.006 50 109.817 50.576 110.756 50.96C111.694 51.3227 112.74 51.504 113.892 51.504C115.385 51.504 116.601 51.12 117.54 50.352C118.5 49.584 119.321 48.496 120.003 47.088H120.612ZM127.611 52.496C126.737 52.496 125.979 52.3467 125.339 52.048C124.699 51.728 124.166 51.3013 123.739 50.768C123.334 50.2347 123.025 49.6053 122.811 48.88C122.619 48.1547 122.523 47.376 122.523 46.544C122.523 45.4133 122.705 44.4213 123.067 43.568C123.43 42.6933 123.899 41.9573 124.475 41.36C125.073 40.7627 125.755 40.3147 126.523 40.016C127.313 39.7173 128.123 39.568 128.955 39.568C129.467 39.568 129.926 39.6107 130.331 39.696C130.737 39.7813 131.089 39.8773 131.387 39.984C131.729 40.0907 132.038 40.2187 132.315 40.368L134.267 39.312L134.555 39.408C134.555 41.072 134.555 42.7253 134.555 44.368C134.577 45.9893 134.587 47.632 134.587 49.296C134.587 50.1493 134.95 50.5547 135.675 50.512C135.846 50.512 135.985 50.4907 136.091 50.448C136.198 50.384 136.294 50.3307 136.379 50.288C136.465 50.224 136.55 50.1493 136.635 50.064L136.859 50.384C136.689 50.7893 136.475 51.1413 136.219 51.44C135.985 51.7173 135.697 51.9627 135.355 52.176C135.014 52.3893 134.587 52.496 134.075 52.496C133.243 52.496 132.646 52.24 132.283 51.728C131.921 51.216 131.739 50.5547 131.739 49.744V48.912C131.611 49.36 131.441 49.808 131.227 50.256C131.014 50.6827 130.737 51.0667 130.395 51.408C130.075 51.728 129.681 51.9947 129.211 52.208C128.763 52.4 128.23 52.496 127.611 52.496ZM131.739 45.264C131.739 44.688 131.697 44.1333 131.611 43.6C131.547 43.0667 131.409 42.5973 131.195 42.192C130.982 41.7653 130.694 41.424 130.331 41.168C129.969 40.912 129.489 40.784 128.891 40.784C128.529 40.784 128.145 40.8693 127.739 41.04C127.334 41.2107 126.961 41.488 126.619 41.872C126.278 42.256 126.001 42.768 125.787 43.408C125.574 44.048 125.467 44.8267 125.467 45.744C125.467 46.4267 125.531 47.0773 125.659 47.696C125.809 48.2933 126.011 48.816 126.267 49.264C126.545 49.712 126.875 50.0747 127.259 50.352C127.665 50.608 128.123 50.736 128.635 50.736C129.105 50.736 129.531 50.5973 129.915 50.32C130.299 50.0427 130.619 49.68 130.875 49.232C131.153 48.7627 131.366 48.2187 131.515 47.6C131.665 46.9813 131.739 46.32 131.739 45.616V45.264ZM142.781 36.656H143.357C143.357 37.232 143.357 37.808 143.357 38.384C143.378 38.9387 143.389 39.504 143.389 40.08L147.517 39.984V41.36L143.389 41.488V47.536C143.389 48.6027 143.485 49.4133 143.677 49.968C143.89 50.5013 144.391 50.7467 145.181 50.704C145.501 50.704 145.853 50.6613 146.237 50.576C146.642 50.4693 147.09 50.2347 147.581 49.872L147.869 50.32C147.506 50.8747 146.983 51.3973 146.301 51.888C145.639 52.3573 144.743 52.592 143.613 52.592C142.482 52.592 141.661 52.304 141.149 51.728C140.658 51.1307 140.413 50.0747 140.413 48.56V41.552C140.114 41.552 139.826 41.5627 139.549 41.584C139.271 41.584 138.983 41.584 138.685 41.584C138.386 41.584 138.226 41.4667 138.205 41.232C138.205 40.9973 138.354 40.816 138.653 40.688C139.101 40.496 139.506 40.2933 139.869 40.08C140.253 39.8667 140.562 39.6427 140.797 39.408C141.031 39.1733 141.362 38.8213 141.789 38.352C142.215 37.8827 142.546 37.3173 142.781 36.656ZM154.205 52.496C153.33 52.496 152.573 52.3467 151.933 52.048C151.293 51.728 150.76 51.3013 150.333 50.768C149.928 50.2347 149.618 49.6053 149.405 48.88C149.213 48.1547 149.117 47.376 149.117 46.544C149.117 45.4133 149.298 44.4213 149.661 43.568C150.024 42.6933 150.493 41.9573 151.069 41.36C151.666 40.7627 152.349 40.3147 153.117 40.016C153.906 39.7173 154.717 39.568 155.549 39.568C156.061 39.568 156.52 39.6107 156.925 39.696C157.33 39.7813 157.682 39.8773 157.981 39.984C158.322 40.0907 158.632 40.2187 158.909 40.368L160.861 39.312L161.149 39.408C161.149 41.072 161.149 42.7253 161.149 44.368C161.17 45.9893 161.181 47.632 161.181 49.296C161.181 50.1493 161.544 50.5547 162.269 50.512C162.44 50.512 162.578 50.4907 162.685 50.448C162.792 50.384 162.888 50.3307 162.973 50.288C163.058 50.224 163.144 50.1493 163.229 50.064L163.453 50.384C163.282 50.7893 163.069 51.1413 162.813 51.44C162.578 51.7173 162.29 51.9627 161.949 52.176C161.608 52.3893 161.181 52.496 160.669 52.496C159.837 52.496 159.24 52.24 158.877 51.728C158.514 51.216 158.333 50.5547 158.333 49.744V48.912C158.205 49.36 158.034 49.808 157.821 50.256C157.608 50.6827 157.33 51.0667 156.989 51.408C156.669 51.728 156.274 51.9947 155.805 52.208C155.357 52.4 154.824 52.496 154.205 52.496ZM158.333 45.264C158.333 44.688 158.29 44.1333 158.205 43.6C158.141 43.0667 158.002 42.5973 157.789 42.192C157.576 41.7653 157.288 41.424 156.925 41.168C156.562 40.912 156.082 40.784 155.485 40.784C155.122 40.784 154.738 40.8693 154.333 41.04C153.928 41.2107 153.554 41.488 153.213 41.872C152.872 42.256 152.594 42.768 152.381 43.408C152.168 44.048 152.061 44.8267 152.061 45.744C152.061 46.4267 152.125 47.0773 152.253 47.696C152.402 48.2933 152.605 48.816 152.861 49.264C153.138 49.712 153.469 50.0747 153.853 50.352C154.258 50.608 154.717 50.736 155.229 50.736C155.698 50.736 156.125 50.5973 156.509 50.32C156.893 50.0427 157.213 49.68 157.469 49.232C157.746 48.7627 157.96 48.2187 158.109 47.6C158.258 46.9813 158.333 46.32 158.333 45.616V45.264ZM172.127 52.176C171.615 52.1547 171.028 52.1333 170.367 52.112C169.727 52.0907 169.065 52.08 168.383 52.08C167.721 52.08 167.06 52.0907 166.399 52.112C165.759 52.1333 165.183 52.1547 164.671 52.176V51.472L166.335 51.088C166.612 51.024 166.804 50.9387 166.911 50.832C167.017 50.7253 167.071 50.512 167.071 50.192V34.32C167.071 33.872 166.943 33.5413 166.687 33.328C166.431 33.1147 165.865 32.88 164.991 32.624V32.016C165.204 31.9733 165.481 31.92 165.823 31.856C166.164 31.792 166.537 31.7173 166.943 31.632C167.348 31.5467 167.753 31.4507 168.159 31.344C168.585 31.216 168.98 31.088 169.343 30.96H170.079V50.128C170.079 50.5547 170.121 50.8213 170.207 50.928C170.292 51.0133 170.495 51.0987 170.815 51.184L172.127 51.472V52.176ZM180.462 52.592C179.417 52.592 178.478 52.432 177.646 52.112C176.814 51.7707 176.11 51.3013 175.534 50.704C174.958 50.1067 174.51 49.4133 174.19 48.624C173.891 47.8133 173.742 46.928 173.742 45.968C173.742 44.9867 173.891 44.0907 174.19 43.28C174.489 42.448 174.937 41.744 175.534 41.168C176.131 40.5707 176.857 40.112 177.71 39.792C178.585 39.4507 179.587 39.28 180.718 39.28C181.849 39.28 182.841 39.4613 183.694 39.824C184.547 40.1653 185.262 40.6453 185.838 41.264C186.414 41.8613 186.851 42.576 187.15 43.408C187.449 44.2187 187.598 45.0933 187.598 46.032C187.598 46.992 187.427 47.8773 187.086 48.688C186.745 49.4773 186.265 50.16 185.646 50.736C185.027 51.312 184.281 51.7707 183.406 52.112C182.531 52.432 181.55 52.592 180.462 52.592ZM177.07 46.192C177.07 47.8773 177.379 49.2107 177.998 50.192C178.638 51.152 179.502 51.632 180.59 51.632C181.678 51.632 182.553 51.12 183.214 50.096C183.875 49.072 184.206 47.7067 184.206 46C184.206 44.2933 183.897 42.9173 183.278 41.872C182.659 40.8053 181.774 40.272 180.622 40.272C179.47 40.272 178.585 40.7733 177.966 41.776C177.369 42.7787 177.07 44.2507 177.07 46.192ZM194.642 51.984C193.831 51.984 193.106 51.8453 192.466 51.568C191.847 51.2693 191.324 50.8747 190.898 50.384C190.471 49.872 190.14 49.264 189.906 48.56C189.692 47.856 189.586 47.088 189.586 46.256C189.586 45.1893 189.756 44.24 190.098 43.408C190.439 42.576 190.898 41.8827 191.474 41.328C192.05 40.752 192.711 40.3147 193.458 40.016C194.226 39.7173 195.036 39.568 195.89 39.568C196.487 39.568 197.01 39.6107 197.458 39.696C197.906 39.7813 198.279 39.8773 198.578 39.984C198.94 40.0907 199.239 40.2187 199.474 40.368L201.458 39.184L201.746 39.28V51.408C201.746 52.2187 201.586 52.976 201.266 53.68C200.946 54.3627 200.498 54.96 199.922 55.472C199.367 55.984 198.695 56.3893 197.906 56.688C197.116 56.9867 196.252 57.136 195.314 57.136C194.14 57.136 193.202 57.0507 192.498 56.88C191.794 56.7093 191.26 56.496 190.898 56.24C190.535 55.984 190.29 55.696 190.162 55.376C190.055 55.0773 190.002 54.8 190.002 54.544C190.002 54.1173 190.13 53.7973 190.386 53.584C190.642 53.3707 190.972 53.264 191.378 53.264C191.783 53.264 192.082 53.3387 192.274 53.488C192.466 53.616 192.615 53.7867 192.722 54C192.828 54.192 192.914 54.4053 192.978 54.64C193.063 54.896 193.191 55.12 193.362 55.312C193.532 55.5253 193.767 55.696 194.066 55.824C194.386 55.9733 194.834 56.048 195.41 56.048C196.54 56.048 197.394 55.7067 197.97 55.024C198.567 54.3413 198.866 53.2747 198.866 51.824V48.272C198.738 48.7413 198.556 49.2 198.322 49.648C198.108 50.096 197.831 50.4907 197.49 50.832C197.148 51.1733 196.743 51.4507 196.274 51.664C195.804 51.8773 195.26 51.984 194.642 51.984ZM198.866 45.2C198.866 44.6667 198.823 44.1333 198.738 43.6C198.674 43.0667 198.535 42.5973 198.322 42.192C198.13 41.7653 197.831 41.424 197.426 41.168C197.042 40.8907 196.53 40.752 195.89 40.752C195.506 40.752 195.111 40.8373 194.706 41.008C194.322 41.1573 193.97 41.424 193.65 41.808C193.351 42.1707 193.106 42.6613 192.914 43.28C192.722 43.8773 192.626 44.624 192.626 45.52C192.626 46.16 192.679 46.7787 192.786 47.376C192.914 47.952 193.095 48.4533 193.33 48.88C193.564 49.3067 193.874 49.648 194.258 49.904C194.642 50.16 195.09 50.288 195.602 50.288C196.114 50.288 196.572 50.1493 196.978 49.872C197.383 49.5947 197.724 49.232 198.002 48.784C198.279 48.3147 198.492 47.7813 198.642 47.184C198.791 46.5653 198.866 45.936 198.866 45.296V45.2Z" fill="#060606"/>
</svg>
