<svg width="301" height="109" viewBox="0 0 301 109" fill="none" xmlns="http://www.w3.org/2000/svg">
<path d="M53.4375 85.1094C52.7083 85.1094 51.875 84.7188 50.9375 83.9375C50.026 83.1823 49.375 82.6875 48.9844 82.4531C48.151 81.9844 47.2786 81.724 46.3672 81.6719C45.4818 81.6198 44.7005 81.6589 44.0234 81.7891C43.3724 81.9193 42.5781 82.0625 41.6406 82.2188C37.9948 82.7656 35.026 82.9609 32.7344 82.8047C28.5677 82.5182 25.5078 82.0495 23.5547 81.3984C21.6016 80.7474 19.7917 79.9531 18.125 79.0156C16.4844 78.0521 14.8698 76.8672 13.2812 75.4609C11.7188 74.0547 10.3385 72.375 9.14062 70.4219C6.43229 66.125 5.07812 61.0729 5.07812 55.2656C5.07812 43.7031 9.97396 35.526 19.7656 30.7344C26.1458 27.5833 34.388 25.9297 44.4922 25.7734C46.0807 25.7734 47.6042 25.1615 49.0625 23.9375C49.4792 23.5729 49.8177 23.1823 50.0781 22.7656C50.651 21.8802 51.4062 21.4375 52.3438 21.4375C53.3073 21.4375 53.7891 21.8802 53.7891 22.7656C53.7891 22.7656 53.5938 23.5729 53.2031 25.1875C52.6562 27.7656 52.3828 30.1354 52.3828 32.2969L52.5 33.9375C52.5 34.875 52.1354 35.3438 51.4062 35.3438C50.7552 35.3438 50.0651 34.8229 49.3359 33.7812C48.6328 32.7135 47.8906 31.8932 47.1094 31.3203C46.3542 30.7474 45.5469 30.3177 44.6875 30.0312C43.5417 29.6667 41.6667 29.4844 39.0625 29.4844C36.4844 29.4844 33.9583 29.7188 31.4844 30.1875C29.0104 30.6562 26.6667 31.3594 24.4531 32.2969C22.2396 33.2083 20.1823 34.3542 18.2812 35.7344C16.4062 37.1146 14.7786 38.7292 13.3984 40.5781C10.4557 44.5104 8.98438 49.1198 8.98438 54.4062C8.98438 63.3125 11.875 69.901 17.6562 74.1719C22.3698 77.6615 28.0469 79.4062 34.6875 79.4062C40.8073 79.4062 45.026 78.2865 47.3438 76.0469C47.8906 75.5 48.4115 74.7448 48.9062 73.7812C49.401 72.8177 50.026 71.9844 50.7812 71.2812C51.5365 70.5781 52.1875 70.2266 52.7344 70.2266C53.6458 70.2266 54.1016 70.9818 54.1016 72.4922L53.7891 76.3594C53.7891 77.8438 53.9974 79.6797 54.4141 81.8672C54.8307 84.0286 54.5052 85.1094 53.4375 85.1094ZM93.1641 82.0234C92.1745 82.0234 91.1979 81.9193 90.2344 81.7109C89.2708 81.5026 88.0729 81.3984 86.6406 81.3984C86.224 81.4505 85.3776 81.737 84.1016 82.2578C81.7057 83.2734 79.5443 83.7552 77.6172 83.7031C75.6901 83.651 74.0234 83.2083 72.6172 82.375C71.2109 81.5156 70.0781 80.2656 69.2188 78.625C67.5521 75.526 66.7188 70.6432 66.7188 63.9766L67.2656 27.8828C67.2656 22.5703 67.0182 19.237 66.5234 17.8828C66.1849 16.9453 65.7422 16.2943 65.1953 15.9297C64.6484 15.5651 64.0885 15.1745 63.5156 14.7578C62.9427 14.3411 62.6562 13.8594 62.6562 13.3125C62.6562 12.4271 63.4635 11.9844 65.0781 11.9844L68.0078 12.1406L74.5703 11.8672C75.8724 11.8672 76.5234 12.3099 76.5234 13.1953C76.5234 13.7422 76.263 14.224 75.7422 14.6406C75.2474 15.0312 74.6745 15.474 74.0234 15.9688C72.2786 17.2969 71.3151 18.8073 71.1328 20.5C70.7161 24.0417 70.5078 38.5339 70.5078 63.9766C70.5078 74.1589 72.5521 79.5365 76.6406 80.1094C78.125 80.3438 79.2708 80.3438 80.0781 80.1094C80.8854 79.849 81.5755 79.5885 82.1484 79.3281C82.5651 79.1458 83.5156 78.651 85 77.8438C85.4948 77.5833 85.8984 77.0755 86.2109 76.3203C86.5495 75.5391 86.888 74.5885 87.2266 73.4688C87.5651 72.3229 87.9167 71.6198 88.2812 71.3594C88.6458 71.0729 89.0234 70.9297 89.4141 70.9297C89.8307 70.9297 90.1432 71.112 90.3516 71.4766C90.5859 71.8411 90.8333 72.362 91.0938 73.0391C91.901 75.3047 92.6302 76.8932 93.2812 77.8047C95.1562 80.4089 95.1172 81.8151 93.1641 82.0234ZM146.797 82.8828C145.573 82.8828 145.13 82.0234 145.469 80.3047C146.146 77.1276 146.328 75.1224 146.016 74.2891L138.828 63C137.448 60.7865 135.99 58.3516 134.453 55.6953C133.255 58.9505 132.135 61.6198 131.094 63.7031C130.078 65.7865 128.685 67.8958 126.914 70.0312C125.143 72.1667 123.411 73.9896 121.719 75.5C116.016 80.5781 110.794 83.1172 106.055 83.1172C103.555 83.1172 101.562 82.3099 100.078 80.6953C98.3333 78.6901 98.0339 75.7865 99.1797 71.9844C100.69 66.9323 104.336 62.3359 110.117 58.1953C115.326 54.4453 120.885 51.8802 126.797 50.5C128.385 50.1094 129.805 49.849 131.055 49.7188C128.216 44.7188 126.367 41.3203 125.508 39.5234C125.039 38.9505 124.375 38.5208 123.516 38.2344C120.312 37.1406 118.49 36.4635 118.047 36.2031C117.604 35.9167 117.383 35.5911 117.383 35.2266C117.383 34.3932 118.06 33.7682 119.414 33.3516C121.758 32.7005 123.828 31.6458 125.625 30.1875C126.641 29.3281 127.63 28.8984 128.594 28.8984C129.557 28.8984 130.039 29.4062 130.039 30.4219L128.594 35.1875C128.307 36.3333 128.333 37.2318 128.672 37.8828L136.953 53.1172C140.547 59.5495 143.867 64.9271 146.914 69.25C147.982 70.7865 148.802 71.75 149.375 72.1406C149.974 72.5052 150.69 72.8568 151.523 73.1953C152.357 73.5339 153.151 73.8594 153.906 74.1719C155.755 74.9531 156.68 75.6693 156.68 76.3203C156.68 77.0495 156.016 77.6745 154.688 78.1953C153.385 78.7161 152.318 79.25 151.484 79.7969C150.677 80.3438 150 80.8516 149.453 81.3203C148.932 81.763 148.477 82.1406 148.086 82.4531C147.695 82.7396 147.266 82.8828 146.797 82.8828ZM103.203 72.5312C102.865 73.6771 102.695 74.5885 102.695 75.2656C102.695 75.9427 102.773 76.5156 102.93 76.9844C103.086 77.4531 103.307 77.8698 103.594 78.2344C104.271 79.0156 105.039 79.4062 105.898 79.4062C107.461 79.4062 109.232 79.0156 111.211 78.2344C113.19 77.4271 114.961 76.4375 116.523 75.2656C118.086 74.0677 119.609 72.7005 121.094 71.1641C124.271 67.8568 126.732 64.4974 128.477 61.0859C130.039 58.1172 131.237 55.3828 132.07 52.8828C127.956 53.2474 123.568 54.5885 118.906 56.9062C114.635 59.0156 111.042 61.6458 108.125 64.7969C105.599 67.5312 103.958 70.1094 103.203 72.5312ZM180.273 39.0156C180.273 39.7969 180.052 40.1875 179.609 40.1875C179.193 40.1875 178.75 40.0052 178.281 39.6406C177.839 39.276 177.396 38.8724 176.953 38.4297C175.729 37.2578 174.909 36.6589 174.492 36.6328C174.076 36.5807 173.568 36.5938 172.969 36.6719C172.37 36.724 171.732 36.8411 171.055 37.0234C170.378 37.2057 169.688 37.4531 168.984 37.7656C168.281 38.0781 167.656 38.4948 167.109 39.0156C165.807 40.1615 165.156 41.6198 165.156 43.3906C165.156 45.4219 166.927 47.7656 170.469 50.4219C173.229 52.5052 175.195 54.0807 176.367 55.1484C177.539 56.2161 178.516 57.2708 179.297 58.3125C181.042 60.6823 181.914 63.2083 181.914 65.8906C181.914 70.9688 179.076 74.6927 173.398 77.0625C171.576 77.8438 170.169 78.2344 169.18 78.2344C168.19 78.2344 167.331 78.4948 166.602 79.0156C165.898 79.5365 165.247 80.1094 164.648 80.7344C164.049 81.3333 163.516 81.8932 163.047 82.4141C162.604 82.9349 162.253 83.1953 161.992 83.1953C161.758 83.1953 161.562 83.1302 161.406 83C161.25 82.8698 161.12 82.7135 161.016 82.5312C160.807 82.1146 160.703 81.737 160.703 81.3984L160.508 74.4844C160.508 71.3073 161.042 70.1354 162.109 70.9688C162.37 71.151 162.708 71.5156 163.125 72.0625C163.568 72.6094 163.919 73.026 164.18 73.3125C164.466 73.599 164.805 73.8333 165.195 74.0156C166.784 74.7708 168.906 74.7578 171.562 73.9766C174.661 73.0651 176.771 71.4115 177.891 69.0156C179.661 65.2396 178.021 61.2031 172.969 56.9062L166.992 52.2578C163.346 49.3672 161.523 46.4115 161.523 43.3906C161.523 38.8594 164.023 35.7604 169.023 34.0938C170.612 33.5469 172.07 33.2734 173.398 33.2734C173.711 33.2734 174.388 32.7786 175.43 31.7891C176.497 30.7995 177.227 30.1354 177.617 29.7969C178.555 28.9896 179.115 28.5859 179.297 28.5859C179.766 28.5859 180 29.4062 180 31.0469L179.961 34.25L180.273 39.0156ZM213.555 39.0156C213.555 39.7969 213.333 40.1875 212.891 40.1875C212.474 40.1875 212.031 40.0052 211.562 39.6406C211.12 39.276 210.677 38.8724 210.234 38.4297C209.01 37.2578 208.19 36.6589 207.773 36.6328C207.357 36.5807 206.849 36.5938 206.25 36.6719C205.651 36.724 205.013 36.8411 204.336 37.0234C203.659 37.2057 202.969 37.4531 202.266 37.7656C201.562 38.0781 200.938 38.4948 200.391 39.0156C199.089 40.1615 198.438 41.6198 198.438 43.3906C198.438 45.4219 200.208 47.7656 203.75 50.4219C206.51 52.5052 208.477 54.0807 209.648 55.1484C210.82 56.2161 211.797 57.2708 212.578 58.3125C214.323 60.6823 215.195 63.2083 215.195 65.8906C215.195 70.9688 212.357 74.6927 206.68 77.0625C204.857 77.8438 203.451 78.2344 202.461 78.2344C201.471 78.2344 200.612 78.4948 199.883 79.0156C199.18 79.5365 198.529 80.1094 197.93 80.7344C197.331 81.3333 196.797 81.8932 196.328 82.4141C195.885 82.9349 195.534 83.1953 195.273 83.1953C195.039 83.1953 194.844 83.1302 194.688 83C194.531 82.8698 194.401 82.7135 194.297 82.5312C194.089 82.1146 193.984 81.737 193.984 81.3984L193.789 74.4844C193.789 71.3073 194.323 70.1354 195.391 70.9688C195.651 71.151 195.99 71.5156 196.406 72.0625C196.849 72.6094 197.201 73.026 197.461 73.3125C197.747 73.599 198.086 73.8333 198.477 74.0156C200.065 74.7708 202.188 74.7578 204.844 73.9766C207.943 73.0651 210.052 71.4115 211.172 69.0156C212.943 65.2396 211.302 61.2031 206.25 56.9062L200.273 52.2578C196.628 49.3672 194.805 46.4115 194.805 43.3906C194.805 38.8594 197.305 35.7604 202.305 34.0938C203.893 33.5469 205.352 33.2734 206.68 33.2734C206.992 33.2734 207.669 32.7786 208.711 31.7891C209.779 30.7995 210.508 30.1354 210.898 29.7969C211.836 28.9896 212.396 28.5859 212.578 28.5859C213.047 28.5859 213.281 29.4062 213.281 31.0469L213.242 34.25L213.555 39.0156ZM230.664 84.7969C229.336 84.7969 228.672 84.3021 228.672 83.3125C228.672 82.8958 229.036 82.2057 229.766 81.2422C230.495 80.2526 231.198 79.3021 231.875 78.3906C232.578 77.4531 232.969 76.724 233.047 76.2031L233.906 43.8984C233.88 43.1172 233.607 42.4271 233.086 41.8281C232.591 41.2292 232.044 40.6562 231.445 40.1094C230.846 39.5625 230.299 39.0286 229.805 38.5078C229.31 37.987 229.062 37.4271 229.062 36.8281C229.062 35.6823 229.987 35.3307 231.836 35.7734C233.242 36.112 234.753 36.2812 236.367 36.2812L240.781 36.0859C242.109 36.0859 242.773 36.5807 242.773 37.5703C242.773 38.1172 242.37 38.7031 241.562 39.3281C240.781 39.9271 240.13 40.4479 239.609 40.8906C239.115 41.3333 238.724 41.724 238.438 42.0625C237.943 42.6094 237.695 43.1172 237.695 43.5859L236.875 73.625L236.914 76.2812C236.914 77.401 237.292 78.5208 238.047 79.6406C238.828 80.7344 239.388 81.5286 239.727 82.0234C240.091 82.5182 240.273 82.9479 240.273 83.3125C240.273 84.224 239.531 84.6797 238.047 84.6797L236.328 84.6016L230.664 84.7969ZM240.547 21.75C242.839 21.75 243.411 22.5052 242.266 24.0156L237.93 29.25C236.94 31.099 236.029 31.138 235.195 29.3672L232.266 25.6562C231.042 23.9896 230.43 22.8958 230.43 22.375C230.43 21.6198 230.911 21.2422 231.875 21.2422C234.896 21.6068 237.422 21.7891 239.453 21.7891L240.547 21.75ZM295.391 71.0469C295.391 74.1719 295.781 77.0234 296.562 79.6016C297.214 81.5807 296.914 82.5703 295.664 82.5703C295.143 82.5703 294.505 82.388 293.75 82.0234C292.995 81.6328 292.435 81.2812 292.07 80.9688C291.732 80.6562 291.406 80.3828 291.094 80.1484C290.052 79.3151 288.281 79.1719 285.781 79.7188C280.807 80.7604 277.135 81.2812 274.766 81.2812C272.396 81.2812 270.469 81.151 268.984 80.8906C267.5 80.6302 265.99 80.1745 264.453 79.5234C262.943 78.8724 261.458 77.987 260 76.8672C258.542 75.7214 257.24 74.2891 256.094 72.5703C253.568 68.7943 252.305 63.9375 252.305 58C252.305 53 253.724 48.6771 256.562 45.0312C258.906 42.0625 262.096 39.7448 266.133 38.0781C269.492 36.6979 272.839 36.0078 276.172 36.0078L282.344 36.5547C284.401 36.5547 286.159 35.8255 287.617 34.3672C288.294 33.6901 289.01 33.3516 289.766 33.3516C290.833 33.3516 291.185 33.8984 290.82 34.9922C289.701 38.3516 289.141 41.1901 289.141 43.5078C289.141 43.5078 289.193 43.9635 289.297 44.875C289.297 45.2917 289.193 45.6562 288.984 45.9688C288.802 46.2812 288.568 46.4375 288.281 46.4375C287.734 46.4375 287.174 46.0339 286.602 45.2266C286.055 44.4193 285.599 43.7161 285.234 43.1172C284.87 42.5182 284.505 41.9844 284.141 41.5156C283.281 40.5 282.357 39.9271 281.367 39.7969C279.049 39.4844 277.201 39.3281 275.82 39.3281C274.44 39.3281 272.982 39.5234 271.445 39.9141C269.909 40.2786 268.398 40.8125 266.914 41.5156C265.456 42.2188 264.076 43.0911 262.773 44.1328C261.497 45.1745 260.365 46.3594 259.375 47.6875C257.266 50.5781 256.211 53.8594 256.211 57.5312C256.211 61.2031 256.758 64.3672 257.852 67.0234C258.945 69.6536 260.378 71.776 262.148 73.3906C265.456 76.3594 269.792 77.8438 275.156 77.8438C277.422 77.8438 279.518 77.6354 281.445 77.2188C283.372 76.8021 284.857 76.4375 285.898 76.125C286.966 75.8125 287.839 75.5 288.516 75.1875C289.219 74.849 289.766 74.4974 290.156 74.1328C290.573 73.7682 290.911 73.3906 291.172 73L292.617 70.3047C293.164 69.2891 293.763 68.7812 294.414 68.7812C295.065 68.7812 295.391 69.5365 295.391 71.0469Z" fill="#060606"/>
<path d="M148.991 92.7408C146.018 95.7867 143.254 99.0308 140.265 102.056C138.378 103.967 147.163 99.5404 147.532 99.3985C159.173 94.9174 171.479 91.6018 183.68 89.0899C187.871 88.227 180.956 93.8513 180.392 94.2979C175.679 98.0253 170.808 101.535 166.07 105.224C163.527 107.204 163.657 107.435 166.999 106.378C175.06 103.828 183.021 100.749 191 98.0562" stroke="black" stroke-width="3" stroke-linecap="round"/>
</svg>
