<svg width="231" height="86" viewBox="0 0 231 86" fill="none" xmlns="http://www.w3.org/2000/svg">
<path d="M230.5 43C230.5 48.7413 227.376 54.2717 221.593 59.3622C215.811 64.452 207.415 69.0584 196.996 72.937C176.164 80.6928 147.351 85.5 115.5 85.5C83.6493 85.5 54.8361 80.6928 34.0036 72.937C23.5855 69.0584 15.1894 64.452 9.40692 59.3622C3.62362 54.2717 0.5 48.7413 0.5 43C0.5 37.2587 3.62362 31.7283 9.40692 26.6378C15.1894 21.548 23.5855 16.9416 34.0036 13.063C54.8361 5.30718 83.6493 0.5 115.5 0.5C147.351 0.5 176.164 5.30718 196.996 13.063C207.415 16.9416 215.811 21.548 221.593 26.6378C227.376 31.7283 230.5 37.2587 230.5 43Z" fill="white" stroke="#060606"/>
<path d="M58.872 37.008C58.5733 35.6 58.0507 34.576 57.304 33.936C56.5787 33.2747 55.5973 32.944 54.36 32.944C53.8693 32.944 53.4 33.0187 52.952 33.168C52.504 33.3173 52.1093 33.52 51.768 33.776C51.448 34.032 51.192 34.3413 51 34.704C50.808 35.0667 50.712 35.4613 50.712 35.888C50.712 36.336 50.7973 36.7307 50.968 37.072C51.16 37.4133 51.448 37.7333 51.832 38.032C52.216 38.3093 52.696 38.5973 53.272 38.896C53.8693 39.1947 54.5733 39.536 55.384 39.92C56.3653 40.368 57.208 40.7947 57.912 41.2C58.6373 41.6053 59.224 42.0533 59.672 42.544C60.1413 43.0133 60.4827 43.5573 60.696 44.176C60.9093 44.7733 61.016 45.5093 61.016 46.384C61.016 47.3227 60.8347 48.176 60.472 48.944C60.1307 49.712 59.64 50.3733 59 50.928C58.36 51.4613 57.5813 51.8773 56.664 52.176C55.7467 52.4533 54.7333 52.592 53.624 52.592C51.5547 52.592 49.6667 52.0907 47.96 51.088L48.312 46.128H48.92C48.984 46.8747 49.1653 47.568 49.464 48.208C49.784 48.8267 50.1787 49.3707 50.648 49.84C51.1387 50.288 51.6827 50.6507 52.28 50.928C52.8987 51.184 53.5387 51.312 54.2 51.312C54.7547 51.312 55.288 51.2373 55.8 51.088C56.3333 50.9387 56.792 50.7253 57.176 50.448C57.5813 50.1493 57.9013 49.7867 58.136 49.36C58.3707 48.9333 58.488 48.4533 58.488 47.92C58.488 47.3227 58.3813 46.8213 58.168 46.416C57.976 45.9893 57.6667 45.6053 57.24 45.264C56.8133 44.9227 56.2693 44.6027 55.608 44.304C54.9467 43.984 54.168 43.6107 53.272 43.184C52.312 42.736 51.5013 42.288 50.84 41.84C50.2 41.3707 49.688 40.8907 49.304 40.4C48.92 39.9093 48.6427 39.3973 48.472 38.864C48.3013 38.3307 48.216 37.776 48.216 37.2C48.216 36.304 48.3973 35.5147 48.76 34.832C49.144 34.1493 49.6453 33.584 50.264 33.136C50.8827 32.6667 51.5867 32.3253 52.376 32.112C53.1867 31.8773 54.0187 31.76 54.872 31.76C56.728 31.76 58.2747 32.2293 59.512 33.168L59.384 37.008H58.872ZM64.752 34.576C64.752 33.9787 64.5813 33.5627 64.24 33.328C63.8987 33.072 63.3547 32.8587 62.608 32.688V32.112C62.8213 32.112 63.0987 32.08 63.44 32.016C63.8027 31.952 64.1867 31.8773 64.592 31.792C64.9973 31.6853 65.4027 31.568 65.808 31.44C66.2347 31.2907 66.6187 31.1307 66.96 30.96H67.728V42.128C68.3893 41.2533 69.0613 40.592 69.744 40.144C70.448 39.6747 71.2373 39.408 72.112 39.344C72.2827 39.344 72.4533 39.344 72.624 39.344C72.7947 39.344 72.9653 39.3547 73.136 39.376C74.1813 39.4613 75.0027 39.8667 75.6 40.592C76.1973 41.3173 76.496 42.3413 76.496 43.664V50.192C76.496 50.4053 76.5387 50.5973 76.624 50.768C76.7093 50.9387 76.9333 51.0773 77.296 51.184L78.384 51.504V52.208C77.7227 52.1653 77.0933 52.1333 76.496 52.112C75.92 52.0907 75.44 52.08 75.056 52.08C74.6933 52.08 74.192 52.0907 73.552 52.112C72.9333 52.1333 72.2933 52.1653 71.632 52.208V51.504L72.752 51.152C73.0507 51.0453 73.2533 50.9173 73.36 50.768C73.4667 50.5973 73.52 50.3307 73.52 49.968V43.92C73.52 43.1307 73.3387 42.512 72.976 42.064C72.6133 41.616 72.0267 41.392 71.216 41.392C70.4053 41.392 69.712 41.6373 69.136 42.128C68.5813 42.6187 68.112 43.1627 67.728 43.76V49.968C67.728 50.2027 67.7707 50.4053 67.856 50.576C67.9413 50.7467 68.1013 50.8747 68.336 50.96L70.032 51.504V52.208C69.6907 52.1653 69.1893 52.1333 68.528 52.112C67.8667 52.0907 67.1307 52.08 66.32 52.08C65.5307 52.08 64.8267 52.0907 64.208 52.112C63.6107 52.1333 63.1413 52.1653 62.8 52.208V51.504L64.08 51.152C64.3573 51.0667 64.5387 50.9387 64.624 50.768C64.7093 50.5973 64.752 50.384 64.752 50.128V34.576ZM86.712 52.592C85.6667 52.592 84.728 52.432 83.896 52.112C83.064 51.7707 82.36 51.3013 81.784 50.704C81.208 50.1067 80.76 49.4133 80.44 48.624C80.1413 47.8133 79.992 46.928 79.992 45.968C79.992 44.9867 80.1413 44.0907 80.44 43.28C80.7387 42.448 81.1867 41.744 81.784 41.168C82.3813 40.5707 83.1067 40.112 83.96 39.792C84.8347 39.4507 85.8373 39.28 86.968 39.28C88.0987 39.28 89.0907 39.4613 89.944 39.824C90.7973 40.1653 91.512 40.6453 92.088 41.264C92.664 41.8613 93.1013 42.576 93.4 43.408C93.6987 44.2187 93.848 45.0933 93.848 46.032C93.848 46.992 93.6773 47.8773 93.336 48.688C92.9947 49.4773 92.5147 50.16 91.896 50.736C91.2773 51.312 90.5307 51.7707 89.656 52.112C88.7813 52.432 87.8 52.592 86.712 52.592ZM83.32 46.192C83.32 47.8773 83.6293 49.2107 84.248 50.192C84.888 51.152 85.752 51.632 86.84 51.632C87.928 51.632 88.8027 51.12 89.464 50.096C90.1253 49.072 90.456 47.7067 90.456 46C90.456 44.2933 90.1467 42.9173 89.528 41.872C88.9093 40.8053 88.024 40.272 86.872 40.272C85.72 40.272 84.8347 40.7733 84.216 41.776C83.6187 42.7787 83.32 44.2507 83.32 46.192ZM100.54 41.136C101.35 40.496 102.118 40.0267 102.844 39.728C103.59 39.408 104.433 39.2587 105.372 39.28C106.95 39.3227 108.209 39.8987 109.148 41.008C110.086 42.1173 110.556 43.6213 110.556 45.52C110.556 46.5653 110.374 47.5147 110.012 48.368C109.67 49.2 109.201 49.9253 108.604 50.544C108.028 51.1413 107.334 51.6107 106.524 51.952C105.734 52.272 104.892 52.432 103.996 52.432C103.377 52.432 102.769 52.368 102.172 52.24C101.596 52.0907 101.052 51.8453 100.54 51.504V56.368C100.54 56.6453 100.625 56.8587 100.796 57.008C100.988 57.1787 101.35 57.3067 101.884 57.392L103.804 57.712V58.416C103.441 58.3733 103.004 58.3413 102.492 58.32C102.001 58.32 101.393 58.3093 100.668 58.288H99.5798C98.8758 58.288 98.1291 58.2987 97.3398 58.32C96.5504 58.3413 95.9211 58.3733 95.4518 58.416V57.712L96.7958 57.456C97.1158 57.392 97.3184 57.2853 97.4038 57.136C97.5104 57.008 97.5638 56.7413 97.5638 56.336V42.224C97.5638 41.4347 97.4251 41.0293 97.1478 41.008L95.5798 40.752L95.6758 40.304C96.2304 40.1333 96.7318 39.952 97.1798 39.76C97.6491 39.568 97.9904 39.4187 98.2038 39.312C98.5024 39.1627 98.8438 38.96 99.2278 38.704C99.6118 38.448 99.8891 38.2133 100.06 38H100.54V41.136ZM100.54 42.288V48.624C100.54 49.392 100.796 50.032 101.308 50.544C101.841 51.0347 102.609 51.28 103.612 51.28C104.764 51.28 105.67 50.8213 106.332 49.904C107.014 48.9867 107.356 47.7707 107.356 46.256C107.356 45.4667 107.249 44.7413 107.036 44.08C106.844 43.4187 106.566 42.8533 106.204 42.384C105.841 41.9147 105.414 41.5627 104.924 41.328C104.433 41.072 103.9 40.9653 103.324 41.008C102.79 41.0507 102.3 41.1893 101.852 41.424C101.404 41.6373 100.966 41.9253 100.54 42.288ZM124.811 49.68C124.811 50.2133 124.875 50.576 125.003 50.768C125.131 50.9387 125.397 51.0453 125.803 51.088L128.491 51.408V52.176C127.211 52.112 125.931 52.08 124.651 52.08C123.371 52.08 121.888 52.112 120.203 52.176V51.408L121.963 51.088C122.688 50.96 123.147 50.8107 123.339 50.64C123.552 50.4693 123.659 50.1493 123.659 49.68V36.336C123.659 35.3547 123.552 34.6293 123.339 34.16C123.125 33.6693 122.72 33.3707 122.123 33.264L120.235 32.976V32.08H124.523C124.907 32.08 125.216 32.0907 125.451 32.112C125.707 32.112 125.92 32.144 126.091 32.208C126.261 32.2507 126.421 32.3253 126.571 32.432C126.741 32.5387 126.923 32.6987 127.115 32.912L140.011 46.736L139.883 34.704C139.883 34.128 139.787 33.7333 139.595 33.52C139.424 33.3067 139.136 33.1787 138.731 33.136L136.203 32.816V31.984C136.8 32.048 137.952 32.08 139.659 32.08C140.512 32.08 141.28 32.08 141.963 32.08C142.645 32.0587 143.136 32.0267 143.435 31.984V32.816L141.771 32.944C141.408 32.9867 141.184 33.1467 141.099 33.424C141.013 33.68 140.981 34.1067 141.003 34.704L141.131 52.496H140.363L124.811 35.888V49.68ZM152.275 52.592C151.229 52.592 150.291 52.432 149.459 52.112C148.627 51.7707 147.923 51.3013 147.347 50.704C146.771 50.1067 146.323 49.4133 146.003 48.624C145.704 47.8133 145.555 46.928 145.555 45.968C145.555 44.9867 145.704 44.0907 146.003 43.28C146.301 42.448 146.749 41.744 147.347 41.168C147.944 40.5707 148.669 40.112 149.523 39.792C150.397 39.4507 151.4 39.28 152.531 39.28C153.661 39.28 154.653 39.4613 155.507 39.824C156.36 40.1653 157.075 40.6453 157.651 41.264C158.227 41.8613 158.664 42.576 158.963 43.408C159.261 44.2187 159.411 45.0933 159.411 46.032C159.411 46.992 159.24 47.8773 158.899 48.688C158.557 49.4773 158.077 50.16 157.459 50.736C156.84 51.312 156.093 51.7707 155.219 52.112C154.344 52.432 153.363 52.592 152.275 52.592ZM148.883 46.192C148.883 47.8773 149.192 49.2107 149.811 50.192C150.451 51.152 151.315 51.632 152.403 51.632C153.491 51.632 154.365 51.12 155.027 50.096C155.688 49.072 156.019 47.7067 156.019 46C156.019 44.2933 155.709 42.9173 155.091 41.872C154.472 40.8053 153.587 40.272 152.435 40.272C151.283 40.272 150.397 40.7733 149.779 41.776C149.181 42.7787 148.883 44.2507 148.883 46.192ZM160.182 39.792C160.652 39.856 161.644 39.888 163.158 39.888C164.694 39.888 165.782 39.856 166.422 39.792V40.464C165.932 40.5067 165.59 40.6027 165.398 40.752C165.228 40.88 165.228 41.1253 165.398 41.488L168.79 49.232L170.902 44.944L169.814 42.128C169.58 41.5307 169.377 41.1573 169.206 41.008C169.036 40.8373 168.854 40.7307 168.662 40.688L167.606 40.464V39.792C168.204 39.856 169.366 39.888 171.094 39.888C172.822 39.888 173.964 39.856 174.518 39.792V40.464L173.622 40.624C173.089 40.7307 172.78 40.8693 172.694 41.04C172.609 41.2107 172.63 41.4347 172.758 41.712L175.702 49.008L178.454 42.704C178.668 42.2773 178.678 41.8507 178.486 41.424C178.294 40.9973 177.974 40.752 177.526 40.688L176.214 40.464V39.792C176.684 39.856 177.58 39.888 178.902 39.888C179.585 39.888 180.182 39.888 180.694 39.888C181.228 39.8667 181.644 39.8347 181.942 39.792V40.464L181.142 40.624C180.481 40.7733 179.937 41.3707 179.51 42.416L174.934 52.816H174.166L171.35 46.064L168.022 52.816H167.19L161.91 41.52C161.633 40.944 161.228 40.624 160.694 40.56L160.182 40.464V39.792Z" fill="#060606"/>
</svg>
