<svg width="107" height="50" viewBox="0 0 107 50" fill="none" xmlns="http://www.w3.org/2000/svg">
<path d="M18.82 23.204L23.212 32.924L29.008 18.092C29.512 16.796 29.764 15.836 29.764 15.212C29.764 14.588 29.464 14.216 28.864 14.096L27.388 13.808V13.232C27.628 13.304 28.54 13.34 30.124 13.34C31.708 13.34 32.704 13.304 33.112 13.232V13.808L32.032 14.132C31.672 14.252 31.396 14.42 31.204 14.636C31.012 14.852 30.82 15.224 30.628 15.752L22.816 36.632H22.06L17.344 26.3L12.34 36.632H11.584L3.556 16.724C3.34 16.22 3.16 15.812 3.016 15.5C2.896 15.164 2.764 14.912 2.62 14.744C2.5 14.552 2.368 14.408 2.224 14.312C2.104 14.216 1.936 14.132 1.72 14.06L0.676 13.808V13.232C1.276 13.304 2.392 13.34 4.024 13.34C5.68 13.34 6.94 13.304 7.804 13.232V13.808L6.112 14.132C5.92 14.18 5.824 14.288 5.824 14.456C5.824 14.792 6.088 15.608 6.616 16.904L13.132 33.32L16.876 25.292L13.132 16.688C12.892 16.16 12.688 15.74 12.52 15.428C12.352 15.092 12.196 14.84 12.052 14.672C11.932 14.48 11.812 14.348 11.692 14.276C11.572 14.204 11.44 14.156 11.296 14.132L9.532 13.808V13.232C10.204 13.304 11.608 13.34 13.744 13.34C15.856 13.34 17.188 13.304 17.74 13.232V13.808L15.652 14.204C15.436 14.252 15.328 14.384 15.328 14.6C15.328 14.888 15.592 15.644 16.12 16.868L18.316 22.088L21.16 15.752C21.352 15.368 21.376 14.996 21.232 14.636C21.112 14.276 20.872 14.072 20.512 14.024L19.288 13.808V13.232C19.888 13.304 21.016 13.34 22.672 13.34C24.304 13.34 25.36 13.304 25.84 13.232V13.808L24.148 14.132C23.332 14.3 22.708 14.852 22.276 15.788L18.82 23.204ZM60.8067 26.444L58.4667 26.696C58.0587 26.744 57.7707 26.84 57.6027 26.984C57.4587 27.128 57.3867 27.368 57.3867 27.704V31.7C57.3867 32.348 57.3747 32.864 57.3507 33.248C57.3267 33.632 57.2427 33.944 57.0987 34.184C56.9787 34.4 56.7747 34.58 56.4867 34.724C56.1987 34.868 55.7907 35.036 55.2627 35.228C54.3267 35.588 53.2347 35.876 51.9867 36.092C50.7627 36.308 49.4667 36.416 48.0987 36.416C46.1547 36.416 44.3907 36.14 42.8067 35.588C41.2227 35.036 39.8667 34.268 38.7387 33.284C37.6107 32.3 36.7347 31.112 36.1107 29.72C35.5107 28.328 35.2107 26.792 35.2107 25.112C35.2107 23.312 35.5587 21.668 36.2547 20.18C36.9507 18.692 37.9107 17.42 39.1347 16.364C40.3587 15.284 41.8107 14.456 43.4907 13.88C45.1947 13.28 47.0427 12.98 49.0347 12.98C52.2267 12.98 54.8907 13.556 57.0267 14.708L57.3147 19.028L56.8107 19.136C55.3227 15.56 52.8987 13.772 49.5387 13.772C47.8827 13.772 46.3827 14.036 45.0387 14.564C43.7187 15.068 42.5907 15.8 41.6547 16.76C40.7187 17.696 39.9987 18.836 39.4947 20.18C39.0147 21.524 38.7747 23.024 38.7747 24.68C38.7747 26.096 39.0267 27.464 39.5307 28.784C40.0587 30.08 40.7787 31.232 41.6907 32.24C42.6267 33.248 43.7187 34.052 44.9667 34.652C46.2147 35.252 47.5707 35.552 49.0347 35.552C52.6347 35.552 54.4347 34.268 54.4347 31.7V27.704C54.4347 27.344 54.3387 27.092 54.1467 26.948C53.9787 26.804 53.7027 26.72 53.3187 26.696L49.8627 26.444V25.796C51.7347 25.892 53.5587 25.94 55.3347 25.94C57.1107 25.94 58.9347 25.892 60.8067 25.796V26.444Z" fill="black"/>
<path d="M75.908 23.0161C72.6613 26.2628 69.4145 29.5095 66.1678 32.7563C65.3342 33.5899 67.8349 31.0891 68.6685 30.2555C74.2017 24.7223 79.735 19.1891 85.2682 13.6559C86.1049 12.8192 86.9416 11.9825 87.7783 11.1458C87.7826 11.1414 88.0125 10.9116 87.8862 11.0379C87.4746 11.4495 98.7689 22.3974 98.8791 22.5094" stroke="#060606" stroke-width="2" stroke-linecap="round"/>
<path d="M98.879 22.5093C94.7408 26.6475 90.6027 30.7856 86.4645 34.9238C85.6979 35.6905 87.2189 34.1694 87.37 34.0183C88.166 33.2223 88.9621 32.4262 89.7581 31.6302C91.835 29.5533 93.912 27.4764 95.9889 25.3994C96.0943 25.294 103.326 32.8466 103.852 33.3943C104.398 33.9622 104.946 34.5289 105.476 35.1115C106.034 35.7254 106.166 35.6839 105.776 35.6839C105.504 35.6839 105.232 35.6839 104.96 35.6839C103.283 35.6839 101.607 35.6839 99.93 35.6839C98.2972 35.6839 96.6645 35.6839 95.0317 35.6839C94.2378 35.6839 93.3176 35.8048 92.6295 35.3461" stroke="#060606" stroke-width="2" stroke-linecap="round"/>
</svg>
