<svg width="231" height="86" viewBox="0 0 231 86" fill="none" xmlns="http://www.w3.org/2000/svg">
<path d="M230.5 43C230.5 48.7413 227.376 54.2717 221.593 59.3622C215.811 64.452 207.415 69.0584 196.996 72.937C176.164 80.6928 147.351 85.5 115.5 85.5C83.6493 85.5 54.8361 80.6928 34.0036 72.937C23.5855 69.0584 15.1894 64.452 9.40692 59.3622C3.62362 54.2717 0.5 48.7413 0.5 43C0.5 37.2587 3.62362 31.7283 9.40692 26.6378C15.1894 21.548 23.5855 16.9416 34.0036 13.063C54.8361 5.30718 83.6493 0.5 115.5 0.5C147.351 0.5 176.164 5.30718 196.996 13.063C207.415 16.9416 215.811 21.548 221.593 26.6378C227.376 31.7283 230.5 37.2587 230.5 43Z" fill="white" stroke="#060606"/>
<path d="M44.672 52.632L46.368 52.44C46.9867 52.376 47.392 52.2587 47.584 52.088C47.7973 51.896 47.904 51.4587 47.904 50.776V35.896C47.904 35.576 47.8827 35.2987 47.84 35.064C47.8187 34.8293 47.7547 34.6373 47.648 34.488C47.5413 34.3387 47.36 34.2107 47.104 34.104C46.8693 33.9973 46.5493 33.912 46.144 33.848L44.8 33.624C44.8 33.5173 44.7893 33.432 44.768 33.368C44.768 33.2827 44.768 33.1867 44.768 33.08C45.28 33.08 45.6853 33.0907 45.984 33.112C46.304 33.112 46.5813 33.0907 46.816 33.048L51.104 32.824C51.616 32.76 52.1493 32.728 52.704 32.728C55.1573 32.728 57.0027 33.0907 58.24 33.816C59.4987 34.5413 60.128 35.8107 60.128 37.624C60.128 38.8827 59.808 39.8747 59.168 40.6C58.528 41.3253 57.5573 41.9973 56.256 42.616L59.776 48.792C60.2667 49.6453 60.6933 50.3067 61.056 50.776C61.4187 51.2453 61.7707 51.5973 62.112 51.832C62.4747 52.0667 62.848 52.2267 63.232 52.312C63.6373 52.376 64.128 52.4507 64.704 52.536V53.112C64.256 53.0907 63.7653 53.08 63.232 53.08H59.936C59.4667 53.08 59.1147 53.0907 58.88 53.112L54.016 44.088C53.6747 43.4267 53.1413 43.096 52.416 43.096H50.72V50.584C50.72 51.096 50.816 51.4693 51.008 51.704C51.2213 51.9387 51.584 52.12 52.096 52.248L53.664 52.632V53.208C52.128 53.1227 50.56 53.08 48.96 53.08C47.3813 53.08 45.952 53.1227 44.672 53.208V52.632ZM50.72 42.2C54.9867 42.3493 57.12 40.9947 57.12 38.136C57.12 36.792 56.6507 35.7253 55.712 34.936C54.7947 34.1253 53.504 33.72 51.84 33.72C51.6693 33.72 51.488 33.7307 51.296 33.752C51.104 33.752 50.912 33.7627 50.72 33.784V42.2ZM76.6958 45.112H67.8958C67.8318 45.5387 67.7998 45.944 67.7998 46.328C67.7998 47.9707 68.2371 49.304 69.1118 50.328C69.9864 51.3307 71.1918 51.832 72.7278 51.832C73.4744 51.832 74.1571 51.6933 74.7758 51.416C75.3944 51.1173 76.0664 50.6267 76.7918 49.944L76.9198 50.68C76.1944 51.64 75.3518 52.3653 74.3918 52.856C73.4531 53.3467 72.3544 53.592 71.0958 53.592C70.3064 53.592 69.5704 53.432 68.8878 53.112C68.2264 52.7707 67.6398 52.3013 67.1278 51.704C66.6371 51.1067 66.2531 50.4133 65.9758 49.624C65.6984 48.8133 65.5598 47.9387 65.5598 47C65.5598 46.0613 65.7091 45.1867 66.0078 44.376C66.3278 43.544 66.7651 42.8293 67.3198 42.232C67.8744 41.6347 68.5358 41.1653 69.3038 40.824C70.0718 40.4827 70.9038 40.312 71.7998 40.312C72.5038 40.312 73.1438 40.4293 73.7198 40.664C74.3171 40.8987 74.8291 41.2293 75.2558 41.656C75.6824 42.0613 76.0131 42.5627 76.2478 43.16C76.5038 43.7573 76.6531 44.408 76.6958 45.112ZM68.0558 44.376H72.6958C73.0158 44.376 73.2931 44.376 73.5278 44.376C73.7624 44.3547 73.9544 44.312 74.1038 44.248C74.2531 44.1627 74.3384 44.0453 74.3598 43.896C74.4024 43.7467 74.3918 43.5333 74.3278 43.256C74.1998 42.7013 73.9331 42.2 73.5278 41.752C73.1438 41.304 72.5464 41.08 71.7358 41.08C70.7758 41.08 69.9758 41.3787 69.3358 41.976C68.6958 42.552 68.2691 43.352 68.0558 44.376ZM84.557 53.432C83.6823 53.432 82.9143 53.2827 82.253 52.984C81.5917 52.664 81.0477 52.2373 80.621 51.704C80.1943 51.1707 79.8743 50.5413 79.661 49.816C79.4477 49.0907 79.341 48.312 79.341 47.48C79.341 46.3493 79.533 45.3573 79.917 44.504C80.301 43.6293 80.8023 42.904 81.421 42.328C82.0397 41.752 82.733 41.3147 83.501 41.016C84.2903 40.7173 85.0903 40.568 85.901 40.568C86.3277 40.568 86.7117 40.6107 87.053 40.696C87.4157 40.7813 87.7463 40.8773 88.045 40.984C88.365 41.0907 88.6743 41.2187 88.973 41.368L90.765 40.44L91.053 40.536C91.053 42.2 91.053 43.864 91.053 45.528C91.0743 47.1707 91.085 48.824 91.085 50.488C91.085 51.3413 91.4477 51.7467 92.173 51.704C92.3437 51.704 92.4823 51.6827 92.589 51.64C92.6957 51.576 92.8023 51.512 92.909 51.448C92.9943 51.3627 93.0903 51.288 93.197 51.224L93.517 51.416C93.3677 51.8 93.1757 52.1413 92.941 52.44C92.7277 52.696 92.461 52.9307 92.141 53.144C91.821 53.336 91.4477 53.432 91.021 53.432C90.2957 53.432 89.7837 53.208 89.485 52.76C89.1863 52.2907 89.037 51.6507 89.037 50.84V49.88C88.909 50.328 88.717 50.7653 88.461 51.192C88.2263 51.6187 87.9277 52.0027 87.565 52.344C87.2023 52.664 86.7757 52.9307 86.285 53.144C85.7943 53.336 85.2183 53.432 84.557 53.432ZM89.037 46.36C89.037 45.6347 88.973 44.9733 88.845 44.376C88.7383 43.7787 88.5463 43.2773 88.269 42.872C87.9917 42.4453 87.629 42.1253 87.181 41.912C86.7543 41.6773 86.2103 41.56 85.549 41.56C85.101 41.56 84.621 41.656 84.109 41.848C83.6183 42.0187 83.1703 42.3173 82.765 42.744C82.3597 43.1493 82.0183 43.6827 81.741 44.344C81.485 44.984 81.357 45.7627 81.357 46.68C81.357 47.384 81.4423 48.0667 81.613 48.728C81.805 49.368 82.0717 49.9333 82.413 50.424C82.7543 50.9147 83.1703 51.3093 83.661 51.608C84.1517 51.8853 84.717 52.024 85.357 52.024C85.869 52.024 86.3383 51.896 86.765 51.64C87.213 51.384 87.597 51.032 87.917 50.584C88.237 50.1147 88.493 49.5707 88.685 48.952C88.8983 48.3333 89.0157 47.6613 89.037 46.936V46.36ZM105.546 35.64C105.546 35.2133 105.514 34.872 105.45 34.616C105.407 34.36 105.29 34.1573 105.098 34.008C104.927 33.8373 104.671 33.6987 104.33 33.592C104.01 33.464 103.583 33.336 103.05 33.208V32.696C103.733 32.6533 104.415 32.568 105.098 32.44C105.781 32.312 106.399 32.152 106.954 31.96H107.754V50.872C107.754 51.256 107.775 51.5547 107.818 51.768C107.861 51.9813 107.957 52.1413 108.106 52.248C108.255 52.3333 108.469 52.3867 108.746 52.408C109.045 52.4293 109.439 52.4507 109.93 52.472V53.016C109.119 53.1867 108.33 53.336 107.562 53.464C106.815 53.592 106.143 53.688 105.546 53.752V52.216C105.013 52.4507 104.533 52.6533 104.106 52.824C103.679 52.9947 103.263 53.1333 102.858 53.24C102.474 53.3467 102.09 53.432 101.706 53.496C101.322 53.56 100.906 53.592 100.458 53.592C99.0287 53.592 97.8127 52.9947 96.81 51.8C95.786 50.584 95.274 49.1547 95.274 47.512C95.274 46.5093 95.4447 45.5707 95.786 44.696C96.1273 43.8213 96.586 43.064 97.162 42.424C97.7593 41.7627 98.4313 41.2507 99.178 40.888C99.946 40.504 100.746 40.312 101.578 40.312C103.199 40.312 104.522 40.6 105.546 41.176V35.64ZM105.546 51.384V45.4C105.546 44.952 105.514 44.4827 105.45 43.992C105.407 43.48 105.269 43.0213 105.034 42.616C104.799 42.1893 104.426 41.8373 103.914 41.56C103.423 41.2827 102.73 41.144 101.834 41.144C101.258 41.144 100.714 41.2933 100.202 41.592C99.7113 41.8907 99.2847 42.296 98.922 42.808C98.5593 43.32 98.2713 43.928 98.058 44.632C97.866 45.336 97.77 46.0933 97.77 46.904C97.77 47.7147 97.8767 48.4507 98.09 49.112C98.3247 49.7733 98.634 50.3387 99.018 50.808C99.4233 51.2773 99.9033 51.64 100.458 51.896C101.013 52.152 101.61 52.28 102.25 52.28C102.911 52.28 103.541 52.1947 104.138 52.024C104.757 51.8533 105.226 51.64 105.546 51.384ZM145.472 53.176C143.488 53.112 141.866 53.08 140.608 53.08H139.904C139.349 53.08 138.762 53.0907 138.144 53.112C137.525 53.1333 136.842 53.1547 136.096 53.176V52.6L138.016 52.216C138.506 52.1093 138.816 51.9493 138.944 51.736C139.072 51.5227 139.136 51.1067 139.136 50.488V35.768L131.904 53.336L123.391 34.584V50.68C123.391 51.6827 123.712 52.216 124.352 52.28L127.296 52.6V53.176C126.016 53.112 124.725 53.08 123.424 53.08C122.144 53.08 120.661 53.112 118.976 53.176V52.6L120.736 52.28C121.141 52.216 121.45 52.1413 121.664 52.056C121.898 51.9707 122.069 51.8747 122.176 51.768C122.304 51.64 122.378 51.4907 122.4 51.32C122.421 51.1493 122.432 50.936 122.432 50.68V33.912L119.52 33.56V32.984C119.861 33.048 120.821 33.08 122.4 33.08C124 33.08 125.077 33.048 125.632 32.984L132.736 48.6L139.232 32.984C140.277 33.048 141.344 33.08 142.432 33.08C143.541 33.08 144.544 33.048 145.44 32.984V33.56L143.456 33.976C142.837 34.104 142.41 34.296 142.176 34.552C141.941 34.808 141.824 35.2453 141.824 35.864V50.264C141.824 50.9253 141.877 51.3733 141.984 51.608C142.112 51.8213 142.368 51.9707 142.752 52.056L145.472 52.6V53.176ZM153.685 53.592C152.725 53.592 151.84 53.432 151.029 53.112C150.219 52.7707 149.515 52.312 148.917 51.736C148.32 51.1387 147.851 50.4347 147.509 49.624C147.168 48.8133 146.997 47.928 146.997 46.968C146.997 45.9867 147.168 45.0907 147.509 44.28C147.851 43.4693 148.331 42.776 148.949 42.2C149.568 41.6027 150.293 41.144 151.125 40.824C151.979 40.4827 152.917 40.312 153.941 40.312C154.987 40.312 155.925 40.4933 156.757 40.856C157.611 41.1973 158.336 41.6773 158.933 42.296C159.531 42.8933 159.989 43.608 160.309 44.44C160.651 45.2507 160.821 46.1147 160.821 47.032C160.821 47.9707 160.64 48.8347 160.277 49.624C159.936 50.4133 159.445 51.1067 158.805 51.704C158.187 52.3013 157.44 52.7707 156.565 53.112C155.691 53.432 154.731 53.592 153.685 53.592ZM149.525 47.224C149.525 48.9947 149.92 50.392 150.709 51.416C151.499 52.4187 152.533 52.92 153.813 52.92C154.453 52.92 155.051 52.7813 155.605 52.504C156.16 52.2267 156.629 51.832 157.013 51.32C157.419 50.7867 157.728 50.1573 157.941 49.432C158.176 48.7067 158.293 47.896 158.293 47C158.293 46.104 158.187 45.2933 157.973 44.568C157.781 43.8213 157.493 43.1813 157.109 42.648C156.725 42.1147 156.256 41.7093 155.701 41.432C155.147 41.1333 154.528 40.984 153.845 40.984C152.501 40.984 151.445 41.5067 150.677 42.552C149.909 43.5973 149.525 45.1547 149.525 47.224ZM162.799 53.208V52.696L164.335 52.408C164.762 52.3013 165.029 52.1413 165.135 51.928C165.263 51.7147 165.327 51.3307 165.327 50.776V44.632C165.327 44.2053 165.231 43.896 165.039 43.704C164.869 43.512 164.474 43.352 163.855 43.224L163.023 43.032L163.087 42.552C163.919 42.2747 164.634 41.9333 165.231 41.528C165.829 41.1013 166.351 40.4507 166.799 39.576H167.375C167.418 40.152 167.45 40.7707 167.471 41.432C167.493 42.0933 167.503 42.7973 167.503 43.544C167.717 43.16 167.951 42.7973 168.207 42.456C168.485 42.0933 168.815 41.7307 169.199 41.368C169.925 40.664 170.575 40.312 171.151 40.312C171.685 40.312 172.101 40.4613 172.399 40.76C172.698 41.0587 172.847 41.4427 172.847 41.912C172.847 42.3387 172.719 42.68 172.463 42.936C172.229 43.1707 171.93 43.288 171.567 43.288C171.205 43.288 170.831 43.1813 170.447 42.968C170.063 42.7547 169.733 42.648 169.455 42.648C169.242 42.648 169.018 42.7547 168.783 42.968C168.57 43.1813 168.367 43.4373 168.175 43.736C167.983 44.0347 167.823 44.3547 167.695 44.696C167.567 45.016 167.503 45.2827 167.503 45.496V50.84C167.503 51.3947 167.589 51.768 167.759 51.96C167.951 52.1307 168.346 52.2587 168.943 52.344L171.247 52.696V53.208C170.693 53.1653 170.063 53.1333 169.359 53.112C168.677 53.0907 167.941 53.08 167.151 53.08H166.703C165.957 53.08 165.253 53.0907 164.591 53.112C163.951 53.1333 163.354 53.1653 162.799 53.208ZM185.977 45.112H177.177C177.113 45.5387 177.081 45.944 177.081 46.328C177.081 47.9707 177.518 49.304 178.393 50.328C179.268 51.3307 180.473 51.832 182.009 51.832C182.756 51.832 183.438 51.6933 184.057 51.416C184.676 51.1173 185.348 50.6267 186.073 49.944L186.201 50.68C185.476 51.64 184.633 52.3653 183.673 52.856C182.734 53.3467 181.636 53.592 180.377 53.592C179.588 53.592 178.852 53.432 178.169 53.112C177.508 52.7707 176.921 52.3013 176.409 51.704C175.918 51.1067 175.534 50.4133 175.257 49.624C174.98 48.8133 174.841 47.9387 174.841 47C174.841 46.0613 174.99 45.1867 175.289 44.376C175.609 43.544 176.046 42.8293 176.601 42.232C177.156 41.6347 177.817 41.1653 178.585 40.824C179.353 40.4827 180.185 40.312 181.081 40.312C181.785 40.312 182.425 40.4293 183.001 40.664C183.598 40.8987 184.11 41.2293 184.537 41.656C184.964 42.0613 185.294 42.5627 185.529 43.16C185.785 43.7573 185.934 44.408 185.977 45.112ZM177.337 44.376H181.977C182.297 44.376 182.574 44.376 182.809 44.376C183.044 44.3547 183.236 44.312 183.385 44.248C183.534 44.1627 183.62 44.0453 183.641 43.896C183.684 43.7467 183.673 43.5333 183.609 43.256C183.481 42.7013 183.214 42.2 182.809 41.752C182.425 41.304 181.828 41.08 181.017 41.08C180.057 41.08 179.257 41.3787 178.617 41.976C177.977 42.552 177.55 43.352 177.337 44.376Z" fill="#060606"/>
</svg>
