<svg width="231" height="86" viewBox="0 0 231 86" fill="none" xmlns="http://www.w3.org/2000/svg">
<path d="M230.5 43C230.5 48.7413 227.376 54.2717 221.593 59.3622C215.811 64.452 207.415 69.0584 196.996 72.937C176.164 80.6928 147.351 85.5 115.5 85.5C83.6493 85.5 54.8361 80.6928 34.0036 72.937C23.5855 69.0584 15.1894 64.452 9.40692 59.3622C3.62362 54.2717 0.5 48.7413 0.5 43C0.5 37.2587 3.62362 31.7283 9.40692 26.6378C15.1894 21.548 23.5855 16.9416 34.0036 13.063C54.8361 5.30718 83.6493 0.5 115.5 0.5C147.351 0.5 176.164 5.30718 196.996 13.063C207.415 16.9416 215.811 21.548 221.593 26.6378C227.376 31.7283 230.5 37.2587 230.5 43Z" fill="white" stroke="#060606"/>
<path d="M66.872 37.008C66.5733 35.6 66.0507 34.576 65.304 33.936C64.5787 33.2747 63.5973 32.944 62.36 32.944C61.8693 32.944 61.4 33.0187 60.952 33.168C60.504 33.3173 60.1093 33.52 59.768 33.776C59.448 34.032 59.192 34.3413 59 34.704C58.808 35.0667 58.712 35.4613 58.712 35.888C58.712 36.336 58.7973 36.7307 58.968 37.072C59.16 37.4133 59.448 37.7333 59.832 38.032C60.216 38.3093 60.696 38.5973 61.272 38.896C61.8693 39.1947 62.5733 39.536 63.384 39.92C64.3653 40.368 65.208 40.7947 65.912 41.2C66.6373 41.6053 67.224 42.0533 67.672 42.544C68.1413 43.0133 68.4827 43.5573 68.696 44.176C68.9093 44.7733 69.016 45.5093 69.016 46.384C69.016 47.3227 68.8347 48.176 68.472 48.944C68.1307 49.712 67.64 50.3733 67 50.928C66.36 51.4613 65.5813 51.8773 64.664 52.176C63.7467 52.4533 62.7333 52.592 61.624 52.592C59.5547 52.592 57.6667 52.0907 55.96 51.088L56.312 46.128H56.92C56.984 46.8747 57.1653 47.568 57.464 48.208C57.784 48.8267 58.1787 49.3707 58.648 49.84C59.1387 50.288 59.6827 50.6507 60.28 50.928C60.8987 51.184 61.5387 51.312 62.2 51.312C62.7547 51.312 63.288 51.2373 63.8 51.088C64.3333 50.9387 64.792 50.7253 65.176 50.448C65.5813 50.1493 65.9013 49.7867 66.136 49.36C66.3707 48.9333 66.488 48.4533 66.488 47.92C66.488 47.3227 66.3813 46.8213 66.168 46.416C65.976 45.9893 65.6667 45.6053 65.24 45.264C64.8133 44.9227 64.2693 44.6027 63.608 44.304C62.9467 43.984 62.168 43.6107 61.272 43.184C60.312 42.736 59.5013 42.288 58.84 41.84C58.2 41.3707 57.688 40.8907 57.304 40.4C56.92 39.9093 56.6427 39.3973 56.472 38.864C56.3013 38.3307 56.216 37.776 56.216 37.2C56.216 36.304 56.3973 35.5147 56.76 34.832C57.144 34.1493 57.6453 33.584 58.264 33.136C58.8827 32.6667 59.5867 32.3253 60.376 32.112C61.1867 31.8773 62.0187 31.76 62.872 31.76C64.728 31.76 66.2747 32.2293 67.512 33.168L67.384 37.008H66.872ZM82.48 44.368H74.128C74.0853 44.5813 74.0533 44.7413 74.032 44.848C74.032 44.9547 74.032 45.1147 74.032 45.328C74.032 46.0747 74.1387 46.7573 74.352 47.376C74.5653 47.9947 74.864 48.528 75.248 48.976C75.632 49.424 76.0907 49.776 76.624 50.032C77.1787 50.2667 77.7973 50.384 78.48 50.384C79.2267 50.384 79.9093 50.2667 80.528 50.032C81.168 49.776 81.84 49.3067 82.544 48.624L82.672 49.232C82.3733 49.7013 82.032 50.1387 81.648 50.544C81.2853 50.9493 80.8693 51.312 80.4 51.632C79.9307 51.9307 79.3973 52.1653 78.8 52.336C78.2027 52.5067 77.5307 52.592 76.784 52.592C75.9307 52.592 75.152 52.432 74.448 52.112C73.744 51.792 73.136 51.344 72.624 50.768C72.112 50.1707 71.7067 49.4667 71.408 48.656C71.1307 47.8453 70.992 46.96 70.992 46C70.992 45.0187 71.1413 44.1227 71.44 43.312C71.76 42.5013 72.1973 41.7973 72.752 41.2C73.3067 40.6027 73.9787 40.144 74.768 39.824C75.5573 39.4827 76.432 39.312 77.392 39.312C78.224 39.312 78.9493 39.44 79.568 39.696C80.1867 39.952 80.6987 40.3147 81.104 40.784C81.5307 41.232 81.8507 41.7653 82.064 42.384C82.2987 43.0027 82.4373 43.664 82.48 44.368ZM74.288 43.376H78.064C78.4907 43.376 78.8107 43.3227 79.024 43.216C79.2587 43.1093 79.344 42.8427 79.28 42.416C79.216 41.8187 79.0347 41.3067 78.736 40.88C78.4587 40.432 77.9787 40.208 77.296 40.208C76.528 40.208 75.888 40.4853 75.376 41.04C74.864 41.5733 74.5013 42.352 74.288 43.376ZM96.1363 44.368H87.7843C87.7416 44.5813 87.7096 44.7413 87.6883 44.848C87.6883 44.9547 87.6883 45.1147 87.6883 45.328C87.6883 46.0747 87.7949 46.7573 88.0083 47.376C88.2216 47.9947 88.5203 48.528 88.9043 48.976C89.2883 49.424 89.7469 49.776 90.2803 50.032C90.8349 50.2667 91.4536 50.384 92.1363 50.384C92.8829 50.384 93.5656 50.2667 94.1843 50.032C94.8243 49.776 95.4963 49.3067 96.2003 48.624L96.3283 49.232C96.0296 49.7013 95.6883 50.1387 95.3043 50.544C94.9416 50.9493 94.5256 51.312 94.0563 51.632C93.5869 51.9307 93.0536 52.1653 92.4563 52.336C91.8589 52.5067 91.1869 52.592 90.4403 52.592C89.5869 52.592 88.8083 52.432 88.1043 52.112C87.4003 51.792 86.7923 51.344 86.2803 50.768C85.7683 50.1707 85.3629 49.4667 85.0643 48.656C84.7869 47.8453 84.6483 46.96 84.6483 46C84.6483 45.0187 84.7976 44.1227 85.0963 43.312C85.4163 42.5013 85.8536 41.7973 86.4083 41.2C86.9629 40.6027 87.6349 40.144 88.4243 39.824C89.2136 39.4827 90.0883 39.312 91.0483 39.312C91.8803 39.312 92.6056 39.44 93.2243 39.696C93.8429 39.952 94.3549 40.3147 94.7603 40.784C95.1869 41.232 95.5069 41.7653 95.7203 42.384C95.9549 43.0027 96.0936 43.664 96.1363 44.368ZM87.9443 43.376H91.7203C92.1469 43.376 92.4669 43.3227 92.6803 43.216C92.9149 43.1093 93.0003 42.8427 92.9363 42.416C92.8723 41.8187 92.6909 41.3067 92.3923 40.88C92.1149 40.432 91.6349 40.208 90.9523 40.208C90.1843 40.208 89.5443 40.4853 89.0323 41.04C88.5203 41.5733 88.1576 42.352 87.9443 43.376ZM133.665 52.176C132.79 52.1547 131.905 52.1333 131.009 52.112C130.134 52.0907 129.355 52.08 128.673 52.08H127.713C127.137 52.08 126.465 52.0907 125.697 52.112C124.95 52.112 124.171 52.1333 123.361 52.176V51.408L125.281 51.024C125.771 50.9173 126.081 50.7573 126.209 50.544C126.337 50.3307 126.401 49.9147 126.401 49.296V35.408L118.849 52.336L110.465 34.992V49.488C110.465 50.4907 110.785 51.024 111.425 51.088L114.369 51.408V52.176C113.089 52.112 111.777 52.08 110.433 52.08C109.089 52.08 107.574 52.112 105.889 52.176V51.408L107.649 51.088C108.054 51.024 108.363 50.9493 108.577 50.864C108.811 50.7787 108.982 50.6827 109.089 50.576C109.217 50.448 109.291 50.2987 109.312 50.128C109.334 49.9573 109.345 49.744 109.345 49.488V33.168L106.433 32.816V31.984C106.774 32.048 107.734 32.08 109.312 32.08C110.102 32.08 110.817 32.08 111.457 32.08C112.097 32.0587 112.555 32.0267 112.833 31.984L120.033 46.64L126.593 31.984C127.105 32.0267 127.67 32.0587 128.289 32.08C128.929 32.08 129.569 32.08 130.209 32.08C130.849 32.08 131.467 32.08 132.065 32.08C132.662 32.0587 133.185 32.0267 133.633 31.984V32.816L131.649 33.232C131.03 33.36 130.603 33.552 130.369 33.808C130.134 34.064 130.017 34.5013 130.017 35.12V49.072C130.017 49.7333 130.07 50.1813 130.177 50.416C130.305 50.6293 130.561 50.7787 130.945 50.864L133.665 51.408V52.176ZM141.962 52.592C140.917 52.592 139.978 52.432 139.146 52.112C138.314 51.7707 137.61 51.3013 137.034 50.704C136.458 50.1067 136.01 49.4133 135.69 48.624C135.391 47.8133 135.242 46.928 135.242 45.968C135.242 44.9867 135.391 44.0907 135.69 43.28C135.989 42.448 136.437 41.744 137.034 41.168C137.631 40.5707 138.357 40.112 139.21 39.792C140.085 39.4507 141.087 39.28 142.218 39.28C143.349 39.28 144.341 39.4613 145.194 39.824C146.047 40.1653 146.762 40.6453 147.338 41.264C147.914 41.8613 148.351 42.576 148.65 43.408C148.949 44.2187 149.098 45.0933 149.098 46.032C149.098 46.992 148.927 47.8773 148.586 48.688C148.245 49.4773 147.765 50.16 147.146 50.736C146.527 51.312 145.781 51.7707 144.906 52.112C144.031 52.432 143.05 52.592 141.962 52.592ZM138.57 46.192C138.57 47.8773 138.879 49.2107 139.498 50.192C140.138 51.152 141.002 51.632 142.09 51.632C143.178 51.632 144.053 51.12 144.714 50.096C145.375 49.072 145.706 47.7067 145.706 46C145.706 44.2933 145.397 42.9173 144.778 41.872C144.159 40.8053 143.274 40.272 142.122 40.272C140.97 40.272 140.085 40.7733 139.466 41.776C138.869 42.7787 138.57 44.2507 138.57 46.192ZM150.734 52.208V51.696L151.95 51.408C152.376 51.28 152.643 51.12 152.75 50.928C152.878 50.7147 152.942 50.3307 152.942 49.776V43.632C152.942 43.2053 152.856 42.896 152.686 42.704C152.515 42.4907 152.11 42.3307 151.47 42.224L150.798 42.096L150.83 41.552C151.662 41.3173 152.483 40.9653 153.294 40.496C154.104 40.0267 154.755 39.3867 155.246 38.576H155.822L155.95 42.352C156.12 41.968 156.312 41.6267 156.526 41.328C156.739 41.008 157.027 40.656 157.39 40.272C157.752 39.888 158.094 39.632 158.414 39.504C158.755 39.376 159.064 39.312 159.342 39.312C159.875 39.312 160.312 39.472 160.654 39.792C161.016 40.0907 161.198 40.5493 161.198 41.168C161.198 41.744 161.059 42.2027 160.782 42.544C160.526 42.864 160.152 43.024 159.662 43.024C159.406 43.024 159.182 42.9707 158.99 42.864C158.798 42.736 158.616 42.5973 158.446 42.448C158.296 42.2987 158.147 42.1707 157.998 42.064C157.848 41.936 157.71 41.872 157.582 41.872C157.39 41.872 157.208 41.9573 157.038 42.128C156.867 42.2773 156.707 42.4693 156.558 42.704C156.408 42.9387 156.28 43.2053 156.174 43.504C156.088 43.7813 156.035 44.048 156.014 44.304C155.992 44.5173 155.971 44.7093 155.95 44.88C155.928 45.0507 155.928 45.2107 155.95 45.36V49.84C155.95 50.3733 156.046 50.7253 156.238 50.896C156.43 51.0453 156.814 51.1947 157.39 51.344L159.022 51.664V52.176C158.51 52.1333 157.934 52.112 157.294 52.112C156.654 52.0907 156.003 52.08 155.342 52.08H154.734C154.03 52.08 153.336 52.0907 152.654 52.112C151.971 52.1333 151.331 52.1653 150.734 52.208ZM174.418 44.368H166.066C166.023 44.5813 165.991 44.7413 165.97 44.848C165.97 44.9547 165.97 45.1147 165.97 45.328C165.97 46.0747 166.076 46.7573 166.29 47.376C166.503 47.9947 166.802 48.528 167.186 48.976C167.57 49.424 168.028 49.776 168.562 50.032C169.116 50.2667 169.735 50.384 170.418 50.384C171.164 50.384 171.847 50.2667 172.466 50.032C173.106 49.776 173.778 49.3067 174.482 48.624L174.61 49.232C174.311 49.7013 173.97 50.1387 173.586 50.544C173.223 50.9493 172.807 51.312 172.338 51.632C171.868 51.9307 171.335 52.1653 170.738 52.336C170.14 52.5067 169.468 52.592 168.722 52.592C167.868 52.592 167.09 52.432 166.386 52.112C165.682 51.792 165.074 51.344 164.562 50.768C164.05 50.1707 163.644 49.4667 163.346 48.656C163.068 47.8453 162.93 46.96 162.93 46C162.93 45.0187 163.079 44.1227 163.378 43.312C163.698 42.5013 164.135 41.7973 164.69 41.2C165.244 40.6027 165.916 40.144 166.706 39.824C167.495 39.4827 168.37 39.312 169.33 39.312C170.162 39.312 170.887 39.44 171.506 39.696C172.124 39.952 172.636 40.3147 173.042 40.784C173.468 41.232 173.788 41.7653 174.002 42.384C174.236 43.0027 174.375 43.664 174.418 44.368ZM166.226 43.376H170.002C170.428 43.376 170.748 43.3227 170.962 43.216C171.196 43.1093 171.282 42.8427 171.218 42.416C171.154 41.8187 170.972 41.3067 170.674 40.88C170.396 40.432 169.916 40.208 169.234 40.208C168.466 40.208 167.826 40.4853 167.314 41.04C166.802 41.5733 166.439 42.352 166.226 43.376Z" fill="#060606"/>
</svg>
