<svg width="26" height="28" viewBox="0 0 26 28" fill="none" xmlns="http://www.w3.org/2000/svg">
<g filter="url(#filter0_d_1_70)">
<path d="M21 19C21 17.6044 21 16.9067 20.8278 16.3389C20.44 15.0605 19.4395 14.06 18.1611 13.6722C17.5933 13.5 16.8956 13.5 15.5 13.5H10.5C9.10444 13.5 8.40665 13.5 7.83886 13.6722C6.56045 14.06 5.56004 15.0605 5.17224 16.3389C5 16.9067 5 17.6044 5 19M17.5 5.5C17.5 7.98528 15.4853 10 13 10C10.5147 10 8.5 7.98528 8.5 5.5C8.5 3.01472 10.5147 1 13 1C15.4853 1 17.5 3.01472 17.5 5.5Z" stroke="#080808" stroke-width="2" stroke-linecap="round" stroke-linejoin="round" shape-rendering="crispEdges"/>
</g>
<defs>
<filter id="filter0_d_1_70" x="-0.00012207" y="0" width="26.0002" height="28" filterUnits="userSpaceOnUse" color-interpolation-filters="sRGB">
<feFlood flood-opacity="0" result="BackgroundImageFix"/>
<feColorMatrix in="SourceAlpha" type="matrix" values="0 0 0 0 0 0 0 0 0 0 0 0 0 0 0 0 0 0 127 0" result="hardAlpha"/>
<feOffset dy="4"/>
<feGaussianBlur stdDeviation="2"/>
<feComposite in2="hardAlpha" operator="out"/>
<feColorMatrix type="matrix" values="0 0 0 0 0 0 0 0 0 0 0 0 0 0 0 0 0 0 0.25 0"/>
<feBlend mode="normal" in2="BackgroundImageFix" result="effect1_dropShadow_1_70"/>
<feBlend mode="normal" in="SourceGraphic" in2="effect1_dropShadow_1_70" result="shape"/>
</filter>
</defs>
</svg>
