<svg width="553" height="55" viewBox="0 0 553 55" fill="none" xmlns="http://www.w3.org/2000/svg">
<path d="M17.04 49.44C17.04 50.1333 17.1467 50.6667 17.36 51.04C17.6267 51.36 18.2667 51.52 19.28 51.52H26.72C29.0133 51.52 31.04 51.44 32.8 51.28C34.6133 51.12 36.24 50.6933 37.68 50C39.12 49.2533 40.4267 48.1333 41.6 46.64C42.8267 45.0933 44 42.9867 45.12 40.32H46.4L44.08 53.52C41.84 53.4133 38.88 53.3333 35.2 53.28C31.5733 53.2267 27.12 53.2 21.84 53.2C16.56 53.2 12.1867 53.2267 8.72 53.28C5.25333 53.3333 2.66667 53.4133 0.96 53.52V52.32L5.92 51.52C7.04 51.4133 7.89333 51.2533 8.48 51.04C9.06667 50.8267 9.46667 50.56 9.68 50.24C9.94667 49.8667 10.08 49.3867 10.08 48.8V7.92C10.08 6.90666 9.89333 6.26666 9.52 6C9.2 5.68 8.69333 5.46666 8 5.36L2.08 4.32V2.96C4.96 3.12 9.28 3.2 15.04 3.2C20.8 3.2 24.3733 3.12 25.76 2.96V4.32L19.12 5.36C18.32 5.46666 17.76 5.65333 17.44 5.92C17.1733 6.13333 17.04 6.8 17.04 7.92V49.44ZM62.1738 54.08C59.9871 54.08 58.0671 53.7067 56.4138 52.96C54.7604 52.16 53.4004 51.0933 52.3338 49.76C51.2671 48.4267 50.4671 46.8533 49.9338 45.04C49.4004 43.2267 49.1338 41.28 49.1338 39.2C49.1338 36.3733 49.6138 33.8933 50.5738 31.76C51.5338 29.5733 52.7871 27.76 54.3338 26.32C55.8804 24.88 57.6138 23.7867 59.5338 23.04C61.5071 22.2933 63.5071 21.92 65.5338 21.92C66.6004 21.92 67.5604 22.0267 68.4138 22.24C69.3204 22.4533 70.1471 22.6933 70.8938 22.96C71.6938 23.2267 72.4671 23.5467 73.2138 23.92L77.6938 21.6L78.4138 21.84C78.4138 26 78.4138 30.16 78.4138 34.32C78.4671 38.4267 78.4938 42.56 78.4938 46.72C78.4938 48.8533 79.4004 49.8667 81.2138 49.76C81.6404 49.76 81.9871 49.7067 82.2538 49.6C82.5204 49.44 82.7871 49.28 83.0538 49.12C83.2671 48.9067 83.5071 48.72 83.7738 48.56L84.5738 49.04C84.2004 50 83.7204 50.8533 83.1338 51.6C82.6004 52.24 81.9338 52.8267 81.1338 53.36C80.3338 53.84 79.4004 54.08 78.3338 54.08C76.5204 54.08 75.2404 53.52 74.4938 52.4C73.7471 51.2267 73.3738 49.6267 73.3738 47.6V45.2C73.0538 46.32 72.5738 47.4133 71.9338 48.48C71.3471 49.5467 70.6004 50.5067 69.6938 51.36C68.7871 52.16 67.7204 52.8267 66.4938 53.36C65.2671 53.84 63.8271 54.08 62.1738 54.08ZM73.3738 36.4C73.3738 34.5867 73.2138 32.9333 72.8938 31.44C72.6271 29.9467 72.1471 28.6933 71.4538 27.68C70.7604 26.6133 69.8538 25.8133 68.7338 25.28C67.6671 24.6933 66.3071 24.4 64.6538 24.4C63.5338 24.4 62.3338 24.64 61.0538 25.12C59.8271 25.5467 58.7071 26.2933 57.6938 27.36C56.6804 28.3733 55.8271 29.7067 55.1338 31.36C54.4938 32.96 54.1738 34.9067 54.1738 37.2C54.1738 38.96 54.3871 40.6667 54.8138 42.32C55.2938 43.92 55.9604 45.3333 56.8138 46.56C57.6671 47.7867 58.7071 48.7733 59.9338 49.52C61.1604 50.2133 62.5738 50.56 64.1738 50.56C65.4538 50.56 66.6271 50.24 67.6938 49.6C68.8138 48.96 69.7738 48.08 70.5738 46.96C71.3738 45.7867 72.0138 44.4267 72.4938 42.88C73.0271 41.3333 73.3204 39.6533 73.3738 37.84V36.4ZM98.8863 14.64H99.9263C99.9263 16.08 99.9263 17.52 99.9263 18.96C99.9796 20.3467 100.006 21.76 100.006 23.2L110.726 22.96V25.92L100.006 26.24V42.32C100.006 45.4667 100.22 47.8133 100.646 49.36C101.126 50.9067 102.406 51.6267 104.486 51.52C105.286 51.52 106.193 51.36 107.206 51.04C108.273 50.6667 109.446 50.1067 110.726 49.36L111.446 50.48C110.38 51.76 109.073 52.7467 107.526 53.44C106.033 54.1333 103.953 54.48 101.286 54.48C99.8996 54.48 98.7796 54.32 97.9263 54C97.0729 53.68 96.3796 53.1467 95.8463 52.4C95.3129 51.6533 94.9396 50.64 94.7263 49.36C94.5663 48.0267 94.4863 46.3733 94.4863 44.4V26.4C93.7396 26.4 93.0196 26.4267 92.3263 26.48C91.6329 26.48 90.9129 26.48 90.1663 26.48C89.4196 26.48 89.0462 26.2667 89.0462 25.84C89.0462 25.4133 89.3929 25.04 90.0863 24.72C92.3796 23.7067 94.0596 22.6133 95.1263 21.44C95.6596 20.8533 96.2729 20 96.9662 18.88C97.6596 17.7067 98.2996 16.2933 98.8863 14.64ZM143.146 33.28H121.146C120.986 34.3467 120.906 35.36 120.906 36.32C120.906 40.4267 121.999 43.76 124.186 46.32C126.372 48.8267 129.386 50.08 133.226 50.08C135.092 50.08 136.799 49.7333 138.346 49.04C139.892 48.2933 141.572 47.0667 143.386 45.36L143.706 47.2C141.892 49.6 139.786 51.4133 137.386 52.64C135.039 53.8667 132.292 54.48 129.146 54.48C127.172 54.48 125.332 54.08 123.626 53.28C121.972 52.4267 120.506 51.2533 119.226 49.76C117.999 48.2667 117.039 46.5333 116.346 44.56C115.652 42.5333 115.306 40.3467 115.306 38C115.306 35.6533 115.679 33.4667 116.426 31.44C117.226 29.36 118.319 27.5733 119.706 26.08C121.092 24.5867 122.746 23.4133 124.666 22.56C126.586 21.7067 128.666 21.28 130.906 21.28C132.666 21.28 134.266 21.5733 135.706 22.16C137.199 22.7467 138.479 23.5733 139.546 24.64C140.612 25.6533 141.439 26.9067 142.026 28.4C142.666 29.8933 143.039 31.52 143.146 33.28ZM121.546 31.44H133.146C133.946 31.44 134.639 31.44 135.226 31.44C135.812 31.3867 136.292 31.28 136.666 31.12C137.039 30.9067 137.252 30.6133 137.306 30.24C137.412 29.8667 137.386 29.3333 137.226 28.64C136.906 27.2533 136.239 26 135.226 24.88C134.266 23.76 132.772 23.2 130.746 23.2C128.346 23.2 126.346 23.9467 124.746 25.44C123.146 26.88 122.079 28.88 121.546 31.44ZM169.119 30.4C168.905 29.5467 168.532 28.6933 167.999 27.84C167.465 26.9867 166.825 26.24 166.079 25.6C165.385 24.9067 164.639 24.3467 163.839 23.92C163.039 23.4933 162.265 23.28 161.519 23.28C157.679 23.28 155.759 24.9867 155.759 28.4C155.759 29.8933 156.399 31.12 157.679 32.08C159.012 33.04 160.985 33.9733 163.599 34.88C169.625 37.0667 172.639 40.2933 172.639 44.56C172.639 46.1067 172.319 47.4933 171.679 48.72C171.092 49.9467 170.265 50.9867 169.199 51.84C168.132 52.6933 166.905 53.36 165.519 53.84C164.132 54.2667 162.665 54.48 161.119 54.48C157.279 54.48 154.105 53.7867 151.599 52.4L150.799 43.28H152.239C152.985 46.16 154.265 48.4533 156.079 50.16C157.892 51.8133 159.812 52.64 161.839 52.64C163.705 52.64 165.225 52.1333 166.399 51.12C167.625 50.0533 168.239 48.6667 168.239 46.96C168.239 43.9733 165.732 41.6 160.719 39.84C157.145 38.56 154.585 37.2 153.039 35.76C151.545 34.2667 150.799 32.2933 150.799 29.84C150.799 28.56 151.092 27.3867 151.679 26.32C152.265 25.2533 153.065 24.3467 154.079 23.6C155.092 22.8533 156.265 22.2933 157.599 21.92C158.985 21.4933 160.452 21.28 161.999 21.28C165.305 21.28 168.052 21.92 170.239 23.2L170.719 30.4H169.119ZM188.339 14.64H189.379C189.379 16.08 189.379 17.52 189.379 18.96C189.433 20.3467 189.459 21.76 189.459 23.2L200.179 22.96V25.92L189.459 26.24V42.32C189.459 45.4667 189.673 47.8133 190.099 49.36C190.579 50.9067 191.859 51.6267 193.939 51.52C194.739 51.52 195.646 51.36 196.659 51.04C197.726 50.6667 198.899 50.1067 200.179 49.36L200.899 50.48C199.833 51.76 198.526 52.7467 196.979 53.44C195.486 54.1333 193.406 54.48 190.739 54.48C189.353 54.48 188.233 54.32 187.379 54C186.526 53.68 185.833 53.1467 185.299 52.4C184.766 51.6533 184.393 50.64 184.179 49.36C184.019 48.0267 183.939 46.3733 183.939 44.4V26.4C183.193 26.4 182.473 26.4267 181.779 26.48C181.086 26.48 180.366 26.48 179.619 26.48C178.873 26.48 178.499 26.2667 178.499 25.84C178.499 25.4133 178.846 25.04 179.539 24.72C181.833 23.7067 183.513 22.6133 184.579 21.44C185.113 20.8533 185.726 20 186.419 18.88C187.113 17.7067 187.753 16.2933 188.339 14.64ZM269.879 41.84C269.292 45.2 268.465 48.7467 267.399 52.48C264.039 53.8133 259.052 54.48 252.439 54.48C248.332 54.48 244.572 53.8933 241.159 52.72C237.799 51.4933 234.919 49.7867 232.519 47.6C230.119 45.4133 228.252 42.7733 226.919 39.68C225.639 36.5867 224.999 33.12 224.999 29.28C224.999 25.7067 225.665 22.32 226.999 19.12C228.332 15.8667 230.172 13.0133 232.519 10.56C234.865 8.05333 237.612 6.08 240.759 4.64C243.959 3.14666 247.372 2.4 250.999 2.4C253.399 2.4 255.452 2.45333 257.159 2.56C258.919 2.66666 260.439 2.85333 261.719 3.12C262.999 3.33333 264.119 3.65333 265.079 4.08C266.092 4.50667 267.105 5.04 268.119 5.68C268.279 6.96 268.385 8.34666 268.439 9.84C268.545 11.3333 268.572 12.7733 268.519 14.16H266.919C265.905 11.0667 264.172 8.64 261.719 6.88C259.265 5.12 256.172 4.24 252.439 4.24C249.665 4.24 247.105 4.82666 244.759 6C242.412 7.17333 240.385 8.85333 238.679 11.04C236.972 13.2267 235.639 15.8667 234.679 18.96C233.719 22 233.239 25.3867 233.239 29.12C233.239 36.8533 234.892 42.6933 238.199 46.64C241.505 50.5867 246.332 52.56 252.679 52.56C256.412 52.56 259.585 51.6533 262.199 49.84C264.865 48.0267 267.052 45.36 268.759 41.84H269.879ZM292.26 54.48C289.86 54.48 287.647 54.08 285.62 53.28C283.593 52.4267 281.833 51.28 280.34 49.84C278.847 48.3467 277.673 46.5867 276.82 44.56C275.967 42.5333 275.54 40.32 275.54 37.92C275.54 35.4667 275.967 33.2267 276.82 31.2C277.673 29.1733 278.873 27.44 280.42 26C281.967 24.5067 283.78 23.36 285.86 22.56C287.993 21.7067 290.34 21.28 292.9 21.28C295.513 21.28 297.86 21.7333 299.94 22.64C302.073 23.4933 303.887 24.6933 305.38 26.24C306.873 27.7333 308.02 29.52 308.82 31.6C309.673 33.6267 310.1 35.7867 310.1 38.08C310.1 40.4267 309.647 42.5867 308.74 44.56C307.887 46.5333 306.66 48.2667 305.06 49.76C303.513 51.2533 301.647 52.4267 299.46 53.28C297.273 54.08 294.873 54.48 292.26 54.48ZM281.86 38.56C281.86 42.9867 282.847 46.48 284.82 49.04C286.793 51.5467 289.38 52.8 292.58 52.8C294.18 52.8 295.673 52.4533 297.06 51.76C298.447 51.0667 299.62 50.08 300.58 48.8C301.593 47.4667 302.367 45.8933 302.9 44.08C303.487 42.2667 303.78 40.24 303.78 38C303.78 35.76 303.513 33.7333 302.98 31.92C302.5 30.0533 301.78 28.4533 300.82 27.12C299.86 25.7867 298.687 24.7733 297.3 24.08C295.913 23.3333 294.367 22.96 292.66 22.96C289.3 22.96 286.66 24.2667 284.74 26.88C282.82 29.4933 281.86 33.3867 281.86 38.56ZM332.965 53.44C331.685 53.3867 330.272 53.3333 328.725 53.28C327.178 53.2267 325.605 53.2 324.005 53.2C322.405 53.2 320.832 53.2267 319.285 53.28C317.738 53.3333 316.325 53.3867 315.045 53.44V52.08L319.845 51.12C320.538 50.96 321.018 50.7467 321.285 50.48C321.552 50.2133 321.685 49.68 321.685 48.88V8.4C321.685 7.28 321.365 6.45333 320.725 5.92C320.085 5.38667 318.672 4.8 316.485 4.16V3.04C317.498 2.82666 318.778 2.50666 320.325 2.08C321.872 1.65333 323.498 1.09333 325.205 0.399998H327.045V48.72C327.045 49.7333 327.152 50.4 327.365 50.72C327.578 50.9867 328.085 51.2 328.885 51.36L332.965 52.08V53.44ZM354.762 53.44C353.482 53.3867 352.069 53.3333 350.522 53.28C348.975 53.2267 347.402 53.2 345.802 53.2C344.202 53.2 342.629 53.2267 341.082 53.28C339.535 53.3333 338.122 53.3867 336.842 53.44V52.08L341.642 51.12C342.335 50.96 342.815 50.7467 343.082 50.48C343.349 50.2133 343.482 49.68 343.482 48.88V8.4C343.482 7.28 343.162 6.45333 342.522 5.92C341.882 5.38667 340.469 4.8 338.282 4.16V3.04C339.295 2.82666 340.575 2.50666 342.122 2.08C343.669 1.65333 345.295 1.09333 347.002 0.399998H348.842V48.72C348.842 49.7333 348.949 50.4 349.162 50.72C349.375 50.9867 349.882 51.2 350.682 51.36L354.762 52.08V53.44ZM387.599 33.28H365.599C365.439 34.3467 365.359 35.36 365.359 36.32C365.359 40.4267 366.452 43.76 368.639 46.32C370.825 48.8267 373.839 50.08 377.679 50.08C379.545 50.08 381.252 49.7333 382.799 49.04C384.345 48.2933 386.025 47.0667 387.839 45.36L388.159 47.2C386.345 49.6 384.239 51.4133 381.839 52.64C379.492 53.8667 376.745 54.48 373.599 54.48C371.625 54.48 369.785 54.08 368.079 53.28C366.425 52.4267 364.959 51.2533 363.679 49.76C362.452 48.2667 361.492 46.5333 360.799 44.56C360.105 42.5333 359.759 40.3467 359.759 38C359.759 35.6533 360.132 33.4667 360.879 31.44C361.679 29.36 362.772 27.5733 364.159 26.08C365.545 24.5867 367.199 23.4133 369.119 22.56C371.039 21.7067 373.119 21.28 375.359 21.28C377.119 21.28 378.719 21.5733 380.159 22.16C381.652 22.7467 382.932 23.5733 383.999 24.64C385.065 25.6533 385.892 26.9067 386.479 28.4C387.119 29.8933 387.492 31.52 387.599 33.28ZM365.999 31.44H377.599C378.399 31.44 379.092 31.44 379.679 31.44C380.265 31.3867 380.745 31.28 381.119 31.12C381.492 30.9067 381.705 30.6133 381.759 30.24C381.865 29.8667 381.839 29.3333 381.679 28.64C381.359 27.2533 380.692 26 379.679 24.88C378.719 23.76 377.225 23.2 375.199 23.2C372.799 23.2 370.799 23.9467 369.199 25.44C367.599 26.88 366.532 28.88 365.999 31.44ZM422.132 48.88C420.745 50.6933 418.985 52.08 416.852 53.04C414.772 54 412.612 54.48 410.372 54.48C407.865 54.48 405.625 54.0533 403.652 53.2C401.679 52.2933 399.972 51.12 398.532 49.68C397.145 48.1867 396.079 46.4533 395.332 44.48C394.585 42.5067 394.212 40.4267 394.212 38.24C394.212 35.7333 394.585 33.44 395.332 31.36C396.132 29.28 397.279 27.4933 398.772 26C400.265 24.5067 402.079 23.36 404.212 22.56C406.399 21.7067 408.879 21.28 411.652 21.28C414.585 21.28 416.959 21.7333 418.772 22.64C420.639 23.4933 421.572 24.64 421.572 26.08C421.572 26.88 421.332 27.5733 420.852 28.16C420.372 28.6933 419.812 28.9867 419.172 29.04C418.425 29.04 417.759 28.7467 417.172 28.16L415.172 26.16C414.425 25.4133 413.545 24.7467 412.532 24.16C411.572 23.52 410.372 23.2 408.932 23.2C407.332 23.2 405.972 23.6267 404.852 24.48C403.732 25.28 402.799 26.3467 402.052 27.68C401.359 29.0133 400.825 30.5067 400.452 32.16C400.132 33.8133 399.972 35.4667 399.972 37.12C399.972 38.9867 400.265 40.7733 400.852 42.48C401.439 44.1333 402.265 45.6 403.332 46.88C404.399 48.1067 405.679 49.0933 407.172 49.84C408.719 50.5867 410.425 50.96 412.292 50.96C414.425 50.96 416.132 50.6133 417.412 49.92C418.692 49.2267 419.919 48.24 421.092 46.96L422.132 48.88Z" fill="#060606"/>
<path d="M436.621 14.64H437.661C437.661 16.08 437.661 17.52 437.661 18.96C437.714 20.3467 437.741 21.76 437.741 23.2L448.461 22.96V25.92L437.741 26.24V42.32C437.741 45.4667 437.954 47.8133 438.381 49.36C438.861 50.9067 440.141 51.6267 442.221 51.52C443.021 51.52 443.927 51.36 444.941 51.04C446.007 50.6667 447.181 50.1067 448.461 49.36L449.181 50.48C448.114 51.76 446.807 52.7467 445.261 53.44C443.767 54.1333 441.687 54.48 439.021 54.48C437.634 54.48 436.514 54.32 435.661 54C434.807 53.68 434.114 53.1467 433.581 52.4C433.047 51.6533 432.674 50.64 432.461 49.36C432.301 48.0267 432.221 46.3733 432.221 44.4V26.4C431.474 26.4 430.754 26.4267 430.061 26.48C429.367 26.48 428.647 26.48 427.901 26.48C427.154 26.48 426.781 26.2667 426.781 25.84C426.781 25.4133 427.127 25.04 427.821 24.72C430.114 23.7067 431.794 22.6133 432.861 21.44C433.394 20.8533 434.007 20 434.701 18.88C435.394 17.7067 436.034 16.2933 436.621 14.64ZM469.68 53.52C468.827 53.4133 467.653 53.3333 466.16 53.28C464.72 53.2267 462.933 53.2 460.8 53.2C458.667 53.2 456.853 53.2267 455.36 53.28C453.92 53.3333 452.773 53.4133 451.92 53.52V52.16L456.24 51.28C457.893 50.96 458.72 50 458.72 48.4V32.48C458.72 31.2 458.4 30.2667 457.76 29.68C457.12 29.0933 455.84 28.5867 453.92 28.16V26.96C455.787 26.48 457.467 25.76 458.96 24.8C460.507 23.84 461.733 22.64 462.64 21.2H464V48.64C464 49.44 464.107 50.0267 464.32 50.4C464.587 50.7733 465.067 51.04 465.76 51.2L469.68 52.16V53.52ZM460.96 4.64C461.973 4.64 462.853 5.01333 463.6 5.76C464.347 6.45333 464.72 7.30666 464.72 8.32C464.72 9.22666 464.32 10.0267 463.52 10.72C462.773 11.4133 461.867 11.76 460.8 11.76C459.84 11.76 459.013 11.44 458.32 10.8C457.68 10.1067 457.36 9.28 457.36 8.32C457.36 7.30666 457.707 6.45333 458.4 5.76C459.147 5.01333 460 4.64 460.96 4.64ZM491.323 54.48C488.923 54.48 486.709 54.08 484.683 53.28C482.656 52.4267 480.896 51.28 479.403 49.84C477.909 48.3467 476.736 46.5867 475.883 44.56C475.029 42.5333 474.603 40.32 474.603 37.92C474.603 35.4667 475.029 33.2267 475.883 31.2C476.736 29.1733 477.936 27.44 479.483 26C481.029 24.5067 482.843 23.36 484.923 22.56C487.056 21.7067 489.403 21.28 491.963 21.28C494.576 21.28 496.923 21.7333 499.003 22.64C501.136 23.4933 502.949 24.6933 504.443 26.24C505.936 27.7333 507.083 29.52 507.883 31.6C508.736 33.6267 509.163 35.7867 509.163 38.08C509.163 40.4267 508.709 42.5867 507.803 44.56C506.949 46.5333 505.723 48.2667 504.123 49.76C502.576 51.2533 500.709 52.4267 498.523 53.28C496.336 54.08 493.936 54.48 491.323 54.48ZM480.923 38.56C480.923 42.9867 481.909 46.48 483.883 49.04C485.856 51.5467 488.443 52.8 491.643 52.8C493.243 52.8 494.736 52.4533 496.123 51.76C497.509 51.0667 498.683 50.08 499.643 48.8C500.656 47.4667 501.429 45.8933 501.963 44.08C502.549 42.2667 502.843 40.24 502.843 38C502.843 35.76 502.576 33.7333 502.043 31.92C501.563 30.0533 500.843 28.4533 499.883 27.12C498.923 25.7867 497.749 24.7733 496.363 24.08C494.976 23.3333 493.429 22.96 491.723 22.96C488.363 22.96 485.723 24.2667 483.803 26.88C481.883 29.4933 480.923 33.3867 480.923 38.56ZM552.828 53.44C547.174 53.12 541.548 53.12 535.948 53.44V52.08L540.188 51.44C541.361 51.28 541.948 50.24 541.948 48.32V34.8C541.948 31.8667 541.468 29.5467 540.508 27.84C539.548 26.08 537.654 25.2 534.828 25.2C531.574 25.2 528.348 26.8 525.148 30V49.2C525.148 50.0533 525.788 50.64 527.068 50.96L531.548 52.08V53.44C530.748 53.3867 529.841 53.3333 528.828 53.28C527.868 53.2267 526.721 53.2 525.388 53.2H522.747C520.881 53.2 519.201 53.2267 517.708 53.28C516.268 53.28 515.068 53.3333 514.108 53.44V52.08L518.268 51.28C519.334 51.12 519.868 50.32 519.868 48.88V33.04C519.868 31.3867 519.521 30.2667 518.828 29.68C518.188 29.0933 517.014 28.6667 515.308 28.4V26.96C517.014 26.5333 518.588 25.76 520.028 24.64C521.521 23.4667 522.774 21.8667 523.788 19.84H525.148V27.12C527.174 25.3067 529.361 23.8933 531.708 22.88C534.108 21.8133 536.241 21.28 538.108 21.28C544.294 21.28 547.388 24.9333 547.388 32.24V48.08C547.388 49.0933 547.521 49.8667 547.788 50.4C548.054 50.9333 548.588 51.28 549.388 51.44L552.828 52.08V53.44Z" fill="white"/>
</svg>
