<svg width="352" height="54" viewBox="0 0 352 54" fill="none" xmlns="http://www.w3.org/2000/svg">
<path d="M69.88 51.44C67.6933 51.3867 65.48 51.3333 63.24 51.28C61.0533 51.2267 59.1067 51.2 57.4 51.2H55C53.56 51.2 51.88 51.2267 49.96 51.28C48.0933 51.28 46.1467 51.3333 44.12 51.44V49.52L48.92 48.56C50.1467 48.2933 50.92 47.8933 51.24 47.36C51.56 46.8267 51.72 45.7867 51.72 44.24V9.52L32.84 51.84L11.88 8.48V44.72C11.88 47.2267 12.68 48.56 14.28 48.72L21.64 49.52V51.44C18.44 51.28 15.16 51.2 11.8 51.2C8.44 51.2 4.65333 51.28 0.44 51.44V49.52L4.84 48.72C5.85333 48.56 6.62667 48.3733 7.16 48.16C7.74667 47.9467 8.17333 47.7067 8.44 47.44C8.76 47.12 8.94667 46.7467 9 46.32C9.05333 45.8933 9.08 45.36 9.08 44.72V3.92L1.8 3.04V0.959998C2.65333 1.12 5.05333 1.2 9 1.2C10.9733 1.2 12.76 1.2 14.36 1.2C15.96 1.14666 17.1067 1.06666 17.8 0.959998L35.8 37.6L52.2 0.959998C53.48 1.06666 54.8933 1.14666 56.44 1.2C58.04 1.2 59.64 1.2 61.24 1.2C62.84 1.2 64.3867 1.2 65.88 1.2C67.3733 1.14666 68.68 1.06666 69.8 0.959998V3.04L64.84 4.08C63.2933 4.4 62.2267 4.88 61.64 5.52C61.0533 6.16 60.76 7.25333 60.76 8.8V43.68C60.76 45.3333 60.8933 46.4533 61.16 47.04C61.48 47.5733 62.12 47.9467 63.08 48.16L69.88 49.52V51.44ZM102.544 31.92H81.6638C81.5571 32.4533 81.4771 32.8533 81.4238 33.12C81.4238 33.3867 81.4238 33.7867 81.4238 34.32C81.4238 36.1867 81.6904 37.8933 82.2238 39.44C82.7571 40.9867 83.5038 42.32 84.4638 43.44C85.4238 44.56 86.5704 45.44 87.9038 46.08C89.2904 46.6667 90.8371 46.96 92.5438 46.96C94.4104 46.96 96.1171 46.6667 97.6638 46.08C99.2638 45.44 100.944 44.2667 102.704 42.56L103.024 44.08C102.277 45.2533 101.424 46.3467 100.464 47.36C99.5571 48.3733 98.5171 49.28 97.3438 50.08C96.1704 50.8267 94.8371 51.4133 93.3438 51.84C91.8504 52.2667 90.1704 52.48 88.3038 52.48C86.1704 52.48 84.2238 52.08 82.4638 51.28C80.7038 50.48 79.1838 49.36 77.9038 47.92C76.6238 46.4267 75.6104 44.6667 74.8638 42.64C74.1704 40.6133 73.8238 38.4 73.8238 36C73.8238 33.5467 74.1971 31.3067 74.9438 29.28C75.7438 27.2533 76.8371 25.4933 78.2238 24C79.6104 22.5067 81.2904 21.36 83.2638 20.56C85.2371 19.7067 87.4238 19.28 89.8238 19.28C91.9038 19.28 93.7171 19.6 95.2638 20.24C96.8104 20.88 98.0904 21.7867 99.1038 22.96C100.17 24.08 100.97 25.4133 101.504 26.96C102.09 28.5067 102.437 30.16 102.544 31.92ZM82.0638 29.44H91.5038C92.5704 29.44 93.3704 29.3067 93.9038 29.04C94.4904 28.7733 94.7038 28.1067 94.5438 27.04C94.3838 25.5467 93.9304 24.2667 93.1838 23.2C92.4904 22.08 91.2904 21.52 89.5838 21.52C87.6638 21.52 86.0638 22.2133 84.7838 23.6C83.5038 24.9333 82.5971 26.88 82.0638 29.44ZM146.444 51.44C143.671 51.28 140.711 51.2 137.564 51.2C134.418 51.2 131.458 51.28 128.684 51.44V49.76L132.124 49.12C133.298 48.96 133.884 47.92 133.884 46V32.48C133.884 31.2 133.804 30.0533 133.644 29.04C133.538 27.9733 133.271 27.0933 132.844 26.4C132.471 25.7067 131.911 25.1733 131.164 24.8C130.418 24.4267 129.431 24.24 128.204 24.24C126.764 24.24 125.298 24.64 123.804 25.44C122.364 26.24 121.031 27.28 119.804 28.56V46.88C119.804 47.7333 120.444 48.32 121.724 48.64L125.004 49.76V51.44C124.098 51.3333 123.164 51.28 122.204 51.28C121.298 51.2267 120.018 51.2 118.364 51.2H115.804C114.044 51.2 112.364 51.2267 110.764 51.28C109.164 51.28 107.911 51.3333 107.004 51.44V49.76L110.764 48.96C111.831 48.6933 112.364 47.8933 112.364 46.56V30.72C112.364 29.0667 112.018 27.9467 111.324 27.36C110.684 26.7733 109.511 26.3467 107.804 26.08V24.64C108.658 24.4267 109.564 24.16 110.524 23.84C111.538 23.4667 112.498 23.0133 113.404 22.48C114.364 21.8933 115.244 21.2267 116.044 20.48C116.898 19.7333 117.564 18.8533 118.044 17.84H119.804V25.36C121.564 23.4933 123.484 22.0267 125.564 20.96C127.698 19.84 129.698 19.28 131.564 19.28C134.658 19.28 137.058 20.1867 138.764 22C140.524 23.8133 141.404 26.56 141.404 30.24V45.76C141.404 46.7733 141.538 47.5467 141.804 48.08C142.071 48.56 142.604 48.9067 143.404 49.12L146.444 49.76V51.44ZM167.424 20.48C168.598 20.64 171.078 20.72 174.864 20.72C178.704 20.72 181.424 20.64 183.024 20.48V22.16C181.798 22.2667 180.944 22.5067 180.464 22.88C180.038 23.2 180.038 23.8133 180.464 24.72L188.944 44.08L194.224 33.36L191.504 26.32C190.918 24.8267 190.411 23.8933 189.984 23.52C189.558 23.0933 189.104 22.8267 188.624 22.72L185.984 22.16V20.48C187.478 20.64 190.384 20.72 194.704 20.72C199.024 20.72 201.878 20.64 203.264 20.48V22.16L201.024 22.56C199.691 22.8267 198.918 23.1733 198.704 23.6C198.491 24.0267 198.544 24.5867 198.864 25.28L206.224 43.52L213.104 27.76C213.638 26.6933 213.664 25.6267 213.184 24.56C212.704 23.4933 211.904 22.88 210.784 22.72L207.504 22.16V20.48C208.678 20.64 210.918 20.72 214.224 20.72C215.931 20.72 217.424 20.72 218.704 20.72C220.038 20.6667 221.078 20.5867 221.824 20.48V22.16L219.824 22.56C218.171 22.9333 216.811 24.4267 215.744 27.04L204.304 53.04H202.384L195.344 36.16L187.024 53.04H184.944L171.744 24.8C171.051 23.36 170.038 22.56 168.704 22.4L167.424 22.16V20.48ZM252.544 31.92H231.664C231.557 32.4533 231.477 32.8533 231.424 33.12C231.424 33.3867 231.424 33.7867 231.424 34.32C231.424 36.1867 231.69 37.8933 232.224 39.44C232.757 40.9867 233.504 42.32 234.464 43.44C235.424 44.56 236.57 45.44 237.904 46.08C239.29 46.6667 240.837 46.96 242.544 46.96C244.41 46.96 246.117 46.6667 247.664 46.08C249.264 45.44 250.944 44.2667 252.704 42.56L253.024 44.08C252.277 45.2533 251.424 46.3467 250.464 47.36C249.557 48.3733 248.517 49.28 247.344 50.08C246.17 50.8267 244.837 51.4133 243.344 51.84C241.85 52.2667 240.17 52.48 238.304 52.48C236.17 52.48 234.224 52.08 232.464 51.28C230.704 50.48 229.184 49.36 227.904 47.92C226.624 46.4267 225.61 44.6667 224.864 42.64C224.17 40.6133 223.824 38.4 223.824 36C223.824 33.5467 224.197 31.3067 224.944 29.28C225.744 27.2533 226.837 25.4933 228.224 24C229.61 22.5067 231.29 21.36 233.264 20.56C235.237 19.7067 237.424 19.28 239.824 19.28C241.904 19.28 243.717 19.6 245.264 20.24C246.81 20.88 248.09 21.7867 249.104 22.96C250.17 24.08 250.97 25.4133 251.504 26.96C252.09 28.5067 252.437 30.16 252.544 31.92ZM232.064 29.44H241.504C242.57 29.44 243.37 29.3067 243.904 29.04C244.49 28.7733 244.704 28.1067 244.544 27.04C244.384 25.5467 243.93 24.2667 243.184 23.2C242.49 22.08 241.29 21.52 239.584 21.52C237.664 21.52 236.064 22.2133 234.784 23.6C233.504 24.9333 232.597 26.88 232.064 29.44ZM270.684 52.24C268.498 52.24 266.604 51.8667 265.004 51.12C263.404 50.32 262.071 49.2533 261.004 47.92C259.991 46.5867 259.218 45.0133 258.684 43.2C258.204 41.3867 257.964 39.44 257.964 37.36C257.964 34.5333 258.418 32.0533 259.324 29.92C260.231 27.7333 261.404 25.8933 262.844 24.4C264.338 22.9067 266.044 21.7867 267.964 21.04C269.938 20.2933 271.964 19.92 274.044 19.92C275.324 19.92 276.471 20.0267 277.484 20.24C278.498 20.4533 279.378 20.6933 280.124 20.96C280.978 21.2267 281.751 21.5467 282.444 21.92L287.324 19.28L288.044 19.52C288.044 23.68 288.044 27.8133 288.044 31.92C288.098 35.9733 288.124 40.08 288.124 44.24C288.124 46.3733 289.031 47.3867 290.844 47.28C291.271 47.28 291.618 47.2267 291.884 47.12C292.151 46.96 292.391 46.8267 292.604 46.72C292.818 46.56 293.031 46.3733 293.244 46.16L293.804 46.96C293.378 47.9733 292.844 48.8533 292.204 49.6C291.618 50.2933 290.898 50.9067 290.044 51.44C289.191 51.9733 288.124 52.24 286.844 52.24C284.764 52.24 283.271 51.6 282.364 50.32C281.458 49.04 281.004 47.3867 281.004 45.36V43.28C280.684 44.4 280.258 45.52 279.724 46.64C279.191 47.7067 278.498 48.6667 277.644 49.52C276.844 50.32 275.858 50.9867 274.684 51.52C273.564 52 272.231 52.24 270.684 52.24ZM281.004 34.16C281.004 32.72 280.898 31.3333 280.684 30C280.524 28.6667 280.178 27.4933 279.644 26.48C279.111 25.4133 278.391 24.56 277.484 23.92C276.578 23.28 275.378 22.96 273.884 22.96C272.978 22.96 272.018 23.1733 271.004 23.6C269.991 24.0267 269.058 24.72 268.204 25.68C267.351 26.64 266.658 27.92 266.124 29.52C265.591 31.12 265.324 33.0667 265.324 35.36C265.324 37.0667 265.484 38.6933 265.804 40.24C266.178 41.7333 266.684 43.04 267.324 44.16C268.018 45.28 268.844 46.1867 269.804 46.88C270.818 47.52 271.964 47.84 273.244 47.84C274.418 47.84 275.484 47.4933 276.444 46.8C277.404 46.1067 278.204 45.2 278.844 44.08C279.538 42.9067 280.071 41.5467 280.444 40C280.818 38.4533 281.004 36.8 281.004 35.04V34.16ZM296.928 51.52V50.24L299.968 49.52C301.035 49.2 301.701 48.8 301.968 48.32C302.288 47.7867 302.448 46.8267 302.448 45.44V30.08C302.448 29.0133 302.235 28.24 301.808 27.76C301.381 27.2267 300.368 26.8267 298.768 26.56L297.088 26.24L297.168 24.88C299.248 24.2933 301.301 23.4133 303.328 22.24C305.355 21.0667 306.981 19.4667 308.208 17.44H309.648L309.968 26.88C310.395 25.92 310.875 25.0667 311.408 24.32C311.941 23.52 312.661 22.64 313.568 21.68C314.475 20.72 315.328 20.08 316.128 19.76C316.981 19.44 317.755 19.28 318.448 19.28C319.781 19.28 320.875 19.68 321.728 20.48C322.635 21.2267 323.088 22.3733 323.088 23.92C323.088 25.36 322.741 26.5067 322.048 27.36C321.408 28.16 320.475 28.56 319.248 28.56C318.608 28.56 318.048 28.4267 317.568 28.16C317.088 27.84 316.635 27.4933 316.208 27.12C315.835 26.7467 315.461 26.4267 315.088 26.16C314.715 25.84 314.368 25.68 314.048 25.68C313.568 25.68 313.115 25.8933 312.688 26.32C312.261 26.6933 311.861 27.1733 311.488 27.76C311.115 28.3467 310.795 29.0133 310.528 29.76C310.315 30.4533 310.181 31.12 310.128 31.76C310.075 32.2933 310.021 32.7733 309.968 33.2C309.915 33.6267 309.915 34.0267 309.968 34.4V45.6C309.968 46.9333 310.208 47.8133 310.688 48.24C311.168 48.6133 312.128 48.9867 313.568 49.36L317.648 50.16V51.44C316.368 51.3333 314.928 51.28 313.328 51.28C311.728 51.2267 310.101 51.2 308.448 51.2H306.928C305.168 51.2 303.435 51.2267 301.728 51.28C300.021 51.3333 298.421 51.4133 296.928 51.52ZM347.338 29.2C347.178 28.4 346.884 27.5733 346.458 26.72C346.084 25.8667 345.578 25.0933 344.938 24.4C344.298 23.6533 343.551 23.04 342.698 22.56C341.844 22.08 340.858 21.84 339.738 21.84C338.191 21.84 336.884 22.16 335.818 22.8C334.751 23.44 334.218 24.56 334.218 26.16C334.218 27.7067 334.938 28.9067 336.378 29.76C337.871 30.56 339.951 31.36 342.618 32.16C345.924 33.2267 348.218 34.56 349.498 36.16C350.778 37.76 351.418 39.6267 351.418 41.76C351.418 43.6267 351.044 45.2533 350.298 46.64C349.604 47.9733 348.644 49.0933 347.418 50C346.244 50.8533 344.858 51.4933 343.258 51.92C341.711 52.2933 340.084 52.48 338.378 52.48C336.458 52.48 334.644 52.32 332.938 52C331.284 51.6267 329.844 51.0933 328.618 50.4L327.818 40.88H329.578C330.324 43.76 331.524 46 333.178 47.6C334.831 49.1467 336.831 49.92 339.178 49.92C340.884 49.92 342.351 49.4933 343.578 48.64C344.804 47.7333 345.418 46.4267 345.418 44.72C345.418 43.1733 344.831 41.9467 343.658 41.04C342.484 40.1333 340.618 39.3067 338.058 38.56C334.271 37.4933 331.604 36.1867 330.058 34.64C328.564 33.0933 327.818 31.0133 327.818 28.4C327.818 26.96 328.164 25.68 328.858 24.56C329.551 23.3867 330.458 22.4267 331.578 21.68C332.698 20.88 334.004 20.2933 335.497 19.92C336.991 19.4933 338.538 19.28 340.138 19.28C341.791 19.28 343.364 19.44 344.858 19.76C346.351 20.08 347.631 20.56 348.698 21.2L349.178 29.2H347.338Z" fill="#060606"/>
</svg>
