<svg width="265" height="53" viewBox="0 0 265 53" fill="none" xmlns="http://www.w3.org/2000/svg">
<path d="M27.68 13.52C26.9333 10 25.6267 7.44 23.76 5.84C21.9467 4.18666 19.4933 3.36 16.4 3.36C15.1733 3.36 14 3.54666 12.88 3.92C11.76 4.29333 10.7733 4.8 9.92 5.44C9.12 6.08 8.48 6.85333 8 7.76C7.52 8.66666 7.28 9.65333 7.28 10.72C7.28 11.84 7.49333 12.8267 7.92 13.68C8.4 14.5333 9.12 15.3333 10.08 16.08C11.04 16.7733 12.24 17.4933 13.68 18.24C15.1733 18.9867 16.9333 19.84 18.96 20.8C21.4133 21.92 23.52 22.9867 25.28 24C27.0933 25.0133 28.56 26.1333 29.68 27.36C30.8533 28.5333 31.7067 29.8933 32.24 31.44C32.7733 32.9333 33.04 34.7733 33.04 36.96C33.04 39.3067 32.5867 41.44 31.68 43.36C30.8267 45.28 29.6 46.9333 28 48.32C26.4 49.6533 24.4533 50.6933 22.16 51.44C19.8667 52.1333 17.3333 52.48 14.56 52.48C9.38667 52.48 4.66667 51.2267 0.4 48.72L1.28 36.32H2.8C2.96 38.1867 3.41333 39.92 4.16 41.52C4.96 43.0667 5.94667 44.4267 7.12 45.6C8.34667 46.72 9.70667 47.6267 11.2 48.32C12.7467 48.96 14.3467 49.28 16 49.28C17.3867 49.28 18.72 49.0933 20 48.72C21.3333 48.3467 22.48 47.8133 23.44 47.12C24.4533 46.3733 25.2533 45.4667 25.84 44.4C26.4267 43.3333 26.72 42.1333 26.72 40.8C26.72 39.3067 26.4533 38.0533 25.92 37.04C25.44 35.9733 24.6667 35.0133 23.6 34.16C22.5333 33.3067 21.1733 32.5067 19.52 31.76C17.8667 30.96 15.92 30.0267 13.68 28.96C11.28 27.84 9.25333 26.72 7.6 25.6C6 24.4267 4.72 23.2267 3.76 22C2.8 20.7733 2.10667 19.4933 1.68 18.16C1.25333 16.8267 1.04 15.44 1.04 14C1.04 11.76 1.49333 9.78666 2.4 8.08C3.36 6.37333 4.61333 4.96 6.16 3.84C7.70667 2.66667 9.46667 1.81333 11.44 1.28C13.4667 0.69333 15.5467 0.399996 17.68 0.399996C22.32 0.399996 26.1867 1.57333 29.28 3.92L28.96 13.52H27.68ZM37.02 20.72H49.74V40.48C49.74 43.04 50.1667 44.8533 51.02 45.92C51.9267 46.9867 53.34 47.52 55.26 47.52C56.7533 47.52 58.1133 47.28 59.34 46.8C60.5667 46.2667 61.7933 45.44 63.02 44.32V25.52C63.02 25.04 62.9667 24.6667 62.86 24.4C62.7533 24.08 62.4867 23.8133 62.06 23.6C61.6333 23.3333 60.9933 23.12 60.14 22.96C59.2867 22.8 58.1133 22.64 56.62 22.48V20.72H70.62V43.76C70.62 44.6667 70.6467 45.3867 70.7 45.92C70.8067 46.4533 71.02 46.8533 71.34 47.12C71.7133 47.3867 72.2467 47.5733 72.94 47.68C73.6333 47.7867 74.5933 47.84 75.82 47.84C75.82 48.1067 75.82 48.4 75.82 48.72C75.8733 48.9867 75.9 49.2533 75.9 49.52L63.02 52.4V46.32C62.0067 47.3333 61.0467 48.24 60.14 49.04C59.2333 49.7867 58.3267 50.4267 57.42 50.96C56.5133 51.44 55.5533 51.8133 54.54 52.08C53.58 52.3467 52.4867 52.48 51.26 52.48C48.22 52.48 45.9533 51.4933 44.46 49.52C42.9667 47.5467 42.22 44.9333 42.22 41.68V25.44C42.22 24.96 42.14 24.5867 41.98 24.32C41.8733 24 41.6333 23.7333 41.26 23.52C40.94 23.2533 40.4333 23.04 39.74 22.88C39.0467 22.72 38.14 22.5333 37.02 22.32V20.72ZM120.893 49.68L123.213 49.2C124.493 48.9333 125.373 48.6133 125.853 48.24C126.333 47.8133 126.573 47.0133 126.573 45.84V32C126.573 30.8267 126.466 29.76 126.253 28.8C126.093 27.84 125.8 27.0133 125.373 26.32C124.946 25.5733 124.333 25.0133 123.533 24.64C122.786 24.2133 121.826 24 120.653 24C119.106 24 117.666 24.5067 116.333 25.52C115 26.48 113.826 27.7067 112.813 29.2V45.2C112.813 46.32 112.92 47.1733 113.133 47.76C113.346 48.3467 113.933 48.7467 114.893 48.96L118.013 49.76V51.52C115.293 51.3067 112.386 51.2 109.293 51.2C106.2 51.2 103.186 51.3067 100.253 51.52V49.76L102.093 49.28C103.266 48.96 104.093 48.5333 104.573 48C105.106 47.4667 105.373 46.6667 105.373 45.6V32C105.373 30.9333 105.266 29.92 105.053 28.96C104.84 27.9467 104.493 27.0933 104.013 26.4C103.533 25.6533 102.92 25.0667 102.173 24.64C101.48 24.2133 100.626 24 99.6131 24C98.7065 24 97.7998 24.1867 96.8931 24.56C95.9865 24.9333 95.1598 25.4133 94.4131 26C93.6665 26.5333 93.0265 27.1467 92.4931 27.84C92.0131 28.5333 91.6931 29.2267 91.5331 29.92V45.28C91.5331 46.6133 91.6931 47.52 92.0131 48C92.3865 48.48 92.9465 48.8 93.6931 48.96L97.2931 49.76V51.52C94.5731 51.3067 91.5598 51.2 88.2531 51.2C84.9465 51.2 81.8531 51.3067 78.9731 51.52V49.76L81.1331 49.28C82.3065 49.0133 83.0798 48.64 83.4531 48.16C83.8798 47.68 84.0931 46.88 84.0931 45.76V28.96C84.0931 28.32 84.0398 27.7867 83.9331 27.36C83.8798 26.88 83.6931 26.5067 83.3731 26.24C83.1065 25.92 82.7065 25.68 82.1731 25.52C81.6398 25.36 80.8931 25.2 79.9331 25.04V23.76C80.6265 23.6 81.4265 23.36 82.3331 23.04C83.2398 22.6667 84.1465 22.24 85.0531 21.76C86.0131 21.28 86.9198 20.72 87.7731 20.08C88.6798 19.3867 89.4265 18.64 90.0131 17.84H91.5331V25.52C92.6531 24.4533 93.6931 23.5467 94.6531 22.8C95.6131 22 96.5198 21.36 97.3731 20.88C98.2798 20.3467 99.1598 19.9467 100.013 19.68C100.866 19.4133 101.8 19.28 102.813 19.28C105.266 19.2267 107.266 19.6533 108.813 20.56C110.36 21.4667 111.613 23.1733 112.573 25.68C113.426 24.72 114.253 23.8667 115.053 23.12C115.853 22.32 116.706 21.6533 117.613 21.12C118.52 20.5333 119.506 20.08 120.573 19.76C121.64 19.44 122.866 19.28 124.253 19.28C127.346 19.28 129.746 20.1067 131.453 21.76C133.16 23.4133 134.013 26.24 134.013 30.24V45.92C134.013 47.8933 134.44 48.96 135.293 49.12L138.413 49.76V51.52C137.08 51.4133 135.613 51.3333 134.013 51.28C132.413 51.2267 130.813 51.2 129.213 51.2C127.613 51.2 126.093 51.2267 124.653 51.28C123.213 51.3333 121.96 51.3867 120.893 51.44V49.68ZM183.393 49.68L185.713 49.2C186.993 48.9333 187.873 48.6133 188.353 48.24C188.833 47.8133 189.073 47.0133 189.073 45.84V32C189.073 30.8267 188.966 29.76 188.753 28.8C188.593 27.84 188.3 27.0133 187.873 26.32C187.446 25.5733 186.833 25.0133 186.033 24.64C185.286 24.2133 184.326 24 183.153 24C181.606 24 180.166 24.5067 178.833 25.52C177.5 26.48 176.326 27.7067 175.313 29.2V45.2C175.313 46.32 175.42 47.1733 175.633 47.76C175.846 48.3467 176.433 48.7467 177.393 48.96L180.513 49.76V51.52C177.793 51.3067 174.886 51.2 171.793 51.2C168.7 51.2 165.686 51.3067 162.753 51.52V49.76L164.593 49.28C165.766 48.96 166.593 48.5333 167.073 48C167.606 47.4667 167.873 46.6667 167.873 45.6V32C167.873 30.9333 167.766 29.92 167.553 28.96C167.34 27.9467 166.993 27.0933 166.513 26.4C166.033 25.6533 165.42 25.0667 164.673 24.64C163.98 24.2133 163.126 24 162.113 24C161.206 24 160.3 24.1867 159.393 24.56C158.486 24.9333 157.66 25.4133 156.913 26C156.166 26.5333 155.526 27.1467 154.993 27.84C154.513 28.5333 154.193 29.2267 154.033 29.92V45.28C154.033 46.6133 154.193 47.52 154.513 48C154.886 48.48 155.446 48.8 156.193 48.96L159.793 49.76V51.52C157.073 51.3067 154.06 51.2 150.753 51.2C147.446 51.2 144.353 51.3067 141.473 51.52V49.76L143.633 49.28C144.806 49.0133 145.58 48.64 145.953 48.16C146.38 47.68 146.593 46.88 146.593 45.76V28.96C146.593 28.32 146.54 27.7867 146.433 27.36C146.38 26.88 146.193 26.5067 145.873 26.24C145.606 25.92 145.206 25.68 144.673 25.52C144.14 25.36 143.393 25.2 142.433 25.04V23.76C143.126 23.6 143.926 23.36 144.833 23.04C145.74 22.6667 146.646 22.24 147.553 21.76C148.513 21.28 149.42 20.72 150.273 20.08C151.18 19.3867 151.926 18.64 152.513 17.84H154.033V25.52C155.153 24.4533 156.193 23.5467 157.153 22.8C158.113 22 159.02 21.36 159.873 20.88C160.78 20.3467 161.66 19.9467 162.513 19.68C163.366 19.4133 164.3 19.28 165.313 19.28C167.766 19.2267 169.766 19.6533 171.313 20.56C172.86 21.4667 174.113 23.1733 175.073 25.68C175.926 24.72 176.753 23.8667 177.553 23.12C178.353 22.32 179.206 21.6533 180.113 21.12C181.02 20.5333 182.006 20.08 183.073 19.76C184.14 19.44 185.366 19.28 186.753 19.28C189.846 19.28 192.246 20.1067 193.953 21.76C195.66 23.4133 196.513 26.24 196.513 30.24V45.92C196.513 47.8933 196.94 48.96 197.793 49.12L200.913 49.76V51.52C199.58 51.4133 198.113 51.3333 196.513 51.28C194.913 51.2267 193.313 51.2 191.713 51.2C190.113 51.2 188.593 51.2267 187.153 51.28C185.713 51.3333 184.46 51.3867 183.393 51.44V49.68ZM233.653 31.92H212.773C212.666 32.4533 212.586 32.8533 212.533 33.12C212.533 33.3867 212.533 33.7867 212.533 34.32C212.533 36.1867 212.8 37.8933 213.333 39.44C213.866 40.9867 214.613 42.32 215.573 43.44C216.533 44.56 217.68 45.44 219.013 46.08C220.4 46.6667 221.946 46.96 223.653 46.96C225.52 46.96 227.226 46.6667 228.773 46.08C230.373 45.44 232.053 44.2667 233.813 42.56L234.133 44.08C233.386 45.2533 232.533 46.3467 231.573 47.36C230.666 48.3733 229.626 49.28 228.453 50.08C227.28 50.8267 225.946 51.4133 224.453 51.84C222.96 52.2667 221.28 52.48 219.413 52.48C217.28 52.48 215.333 52.08 213.573 51.28C211.813 50.48 210.293 49.36 209.013 47.92C207.733 46.4267 206.72 44.6667 205.973 42.64C205.28 40.6133 204.933 38.4 204.933 36C204.933 33.5467 205.306 31.3067 206.053 29.28C206.853 27.2533 207.946 25.4933 209.333 24C210.72 22.5067 212.4 21.36 214.373 20.56C216.346 19.7067 218.533 19.28 220.933 19.28C223.013 19.28 224.826 19.6 226.373 20.24C227.92 20.88 229.2 21.7867 230.213 22.96C231.28 24.08 232.08 25.4133 232.613 26.96C233.2 28.5067 233.546 30.16 233.653 31.92ZM213.173 29.44H222.613C223.68 29.44 224.48 29.3067 225.013 29.04C225.6 28.7733 225.813 28.1067 225.653 27.04C225.493 25.5467 225.04 24.2667 224.293 23.2C223.6 22.08 222.4 21.52 220.693 21.52C218.773 21.52 217.173 22.2133 215.893 23.6C214.613 24.9333 213.706 26.88 213.173 29.44ZM238.194 51.52V50.24L241.234 49.52C242.3 49.2 242.967 48.8 243.234 48.32C243.554 47.7867 243.714 46.8267 243.714 45.44V30.08C243.714 29.0133 243.5 28.24 243.074 27.76C242.647 27.2267 241.634 26.8267 240.034 26.56L238.354 26.24L238.434 24.88C240.514 24.2933 242.567 23.4133 244.594 22.24C246.62 21.0667 248.247 19.4667 249.474 17.44H250.914L251.234 26.88C251.66 25.92 252.14 25.0667 252.674 24.32C253.207 23.52 253.927 22.64 254.834 21.68C255.74 20.72 256.594 20.08 257.394 19.76C258.247 19.44 259.02 19.28 259.714 19.28C261.047 19.28 262.14 19.68 262.994 20.48C263.9 21.2267 264.354 22.3733 264.354 23.92C264.354 25.36 264.007 26.5067 263.314 27.36C262.674 28.16 261.74 28.56 260.514 28.56C259.874 28.56 259.314 28.4267 258.834 28.16C258.354 27.84 257.9 27.4933 257.474 27.12C257.1 26.7467 256.727 26.4267 256.354 26.16C255.98 25.84 255.634 25.68 255.314 25.68C254.834 25.68 254.38 25.8933 253.954 26.32C253.527 26.6933 253.127 27.1733 252.754 27.76C252.38 28.3467 252.06 29.0133 251.794 29.76C251.58 30.4533 251.447 31.12 251.394 31.76C251.34 32.2933 251.287 32.7733 251.234 33.2C251.18 33.6267 251.18 34.0267 251.234 34.4V45.6C251.234 46.9333 251.474 47.8133 251.954 48.24C252.434 48.6133 253.394 48.9867 254.834 49.36L258.914 50.16V51.44C257.634 51.3333 256.194 51.28 254.594 51.28C252.994 51.2267 251.367 51.2 249.714 51.2H248.194C246.434 51.2 244.7 51.2267 242.994 51.28C241.287 51.3333 239.687 51.4133 238.194 51.52Z" fill="#060606"/>
</svg>
