<svg width="254" height="23" viewBox="0 0 254 23" fill="none" xmlns="http://www.w3.org/2000/svg">
<path d="M16.84 10.848L20.744 19.488L25.896 6.304C26.344 5.152 26.568 4.29867 26.568 3.744C26.568 3.18933 26.3013 2.85867 25.768 2.752L24.456 2.496V1.984C24.6693 2.048 25.48 2.08 26.888 2.08C28.296 2.08 29.1813 2.048 29.544 1.984V2.496L28.584 2.784C28.264 2.89067 28.0187 3.04 27.848 3.232C27.6773 3.424 27.5067 3.75467 27.336 4.224L20.392 22.784H19.72L15.528 13.6L11.08 22.784H10.408L3.272 5.088C3.08 4.64 2.92 4.27733 2.792 4C2.68533 3.70133 2.568 3.47733 2.44 3.328C2.33333 3.15733 2.216 3.02933 2.088 2.944C1.98133 2.85866 1.832 2.784 1.64 2.72L0.712 2.496V1.984C1.24533 2.048 2.23733 2.08 3.688 2.08C5.16 2.08 6.28 2.048 7.048 1.984V2.496L5.544 2.784C5.37333 2.82667 5.288 2.92267 5.288 3.072C5.288 3.37067 5.52267 4.096 5.992 5.248L11.784 19.84L15.112 12.704L11.784 5.056C11.5707 4.58667 11.3893 4.21333 11.24 3.936C11.0907 3.63733 10.952 3.41333 10.824 3.264C10.7173 3.09333 10.6107 2.976 10.504 2.912C10.3973 2.848 10.28 2.80533 10.152 2.784L8.584 2.496V1.984C9.18133 2.048 10.4293 2.08 12.328 2.08C14.2053 2.08 15.3893 2.048 15.88 1.984V2.496L14.024 2.848C13.832 2.89067 13.736 3.008 13.736 3.2C13.736 3.456 13.9707 4.128 14.44 5.216L16.392 9.856L18.92 4.224C19.0907 3.88267 19.112 3.552 18.984 3.232C18.8773 2.912 18.664 2.73067 18.344 2.688L17.256 2.496V1.984C17.7893 2.048 18.792 2.08 20.264 2.08C21.7147 2.08 22.6533 2.048 23.08 1.984V2.496L21.576 2.784C20.8507 2.93333 20.296 3.424 19.912 4.256L16.84 10.848ZM36.4655 22.432C35.5908 22.432 34.8228 22.2827 34.1615 21.984C33.5002 21.664 32.9455 21.2373 32.4975 20.704C32.0708 20.1707 31.7508 19.5413 31.5375 18.816C31.3242 18.0907 31.2175 17.312 31.2175 16.48C31.2175 15.3493 31.4095 14.3573 31.7935 13.504C32.1775 12.6293 32.6788 11.904 33.2975 11.328C33.9162 10.752 34.6202 10.3147 35.4095 10.016C36.1988 9.71733 36.9988 9.568 37.8095 9.568C38.1935 9.568 38.5668 9.61067 38.9295 9.696C39.2922 9.78133 39.6122 9.87733 39.8895 9.984C40.2095 10.0907 40.5082 10.2187 40.7855 10.368L42.5455 9.472L42.8335 9.568C42.8335 11.232 42.8335 12.896 42.8335 14.56C42.8548 16.224 42.8655 17.888 42.8655 19.552C42.8655 20.4053 43.2282 20.8107 43.9535 20.768C44.1242 20.768 44.2628 20.7467 44.3695 20.704C44.4975 20.64 44.6148 20.576 44.7215 20.512C44.8282 20.4267 44.9242 20.3413 45.0095 20.256L45.3295 20.416C45.1802 20.8 44.9882 21.1413 44.7535 21.44C44.5615 21.696 44.3162 21.9307 44.0175 22.144C43.7188 22.336 43.3562 22.432 42.9295 22.432C42.2468 22.432 41.7562 22.208 41.4575 21.76C41.1588 21.312 41.0095 20.6827 41.0095 19.872V18.944C40.8602 19.392 40.6575 19.8293 40.4015 20.256C40.1668 20.6613 39.8682 21.0347 39.5055 21.376C39.1428 21.696 38.7055 21.952 38.1935 22.144C37.7028 22.336 37.1268 22.432 36.4655 22.432ZM41.0415 15.392C41.0415 13.856 40.7642 12.6613 40.2095 11.808C39.6762 10.9333 38.7268 10.496 37.3615 10.496C36.8922 10.496 36.4015 10.592 35.8895 10.784C35.3775 10.976 34.9082 11.2853 34.4815 11.712C34.0548 12.1173 33.7028 12.6507 33.4255 13.312C33.1482 13.9733 33.0095 14.7627 33.0095 15.68C33.0095 16.4053 33.1055 17.0987 33.2975 17.76C33.4895 18.4 33.7562 18.976 34.0975 19.488C34.4602 19.9787 34.8975 20.3733 35.4095 20.672C35.9428 20.9493 36.5402 21.088 37.2015 21.088C37.7348 21.088 38.2362 20.96 38.7055 20.704C39.1748 20.4267 39.5802 20.0533 39.9215 19.584C40.2628 19.0933 40.5295 18.528 40.7215 17.888C40.9348 17.2267 41.0415 16.512 41.0415 15.744V15.392ZM54.029 22.176C53.517 22.1547 52.9517 22.1333 52.333 22.112C51.7143 22.0907 51.0957 22.08 50.477 22.08C49.8583 22.08 49.2397 22.0907 48.621 22.112C48.0023 22.1333 47.437 22.1547 46.925 22.176V21.664L48.909 21.28C49.1863 21.216 49.3783 21.1307 49.485 21.024C49.5917 20.9173 49.645 20.704 49.645 20.384V4.128C49.645 3.68 49.517 3.34933 49.261 3.136C49.005 2.92267 48.4397 2.688 47.565 2.432V2.016C48.4183 1.84533 49.517 1.49333 50.861 0.959999H51.597V20.32C51.597 20.7253 51.6397 20.992 51.725 21.12C51.8103 21.2267 52.013 21.312 52.333 21.376L54.029 21.664V22.176ZM67.1638 14.048H58.2358C58.1718 14.4747 58.1398 14.9013 58.1398 15.328C58.1398 16.16 58.2571 16.928 58.4918 17.632C58.7264 18.3147 59.0571 18.9013 59.4838 19.392C59.9318 19.8827 60.4651 20.2667 61.0838 20.544C61.7238 20.8213 62.4278 20.96 63.1958 20.96C63.9424 20.96 64.6251 20.8107 65.2438 20.512C65.8624 20.2133 66.5344 19.7227 67.2598 19.04L67.3878 19.808C65.8731 21.664 63.9424 22.592 61.5958 22.592C60.8278 22.592 60.1024 22.4213 59.4198 22.08C58.7584 21.7387 58.1824 21.28 57.6918 20.704C57.2011 20.1067 56.8171 19.4133 56.5398 18.624C56.2624 17.8133 56.1238 16.9387 56.1238 16C56.1238 15.0613 56.2731 14.1867 56.5718 13.376C56.8918 12.5653 57.3291 11.8613 57.8838 11.264C58.4384 10.6453 59.0891 10.1653 59.8358 9.824C60.5824 9.48267 61.4038 9.312 62.2998 9.312C62.9824 9.312 63.6118 9.42933 64.1878 9.664C64.7638 9.87733 65.2651 10.1973 65.6918 10.624C66.1398 11.0293 66.4811 11.5307 66.7158 12.128C66.9718 12.704 67.1211 13.344 67.1638 14.048ZM58.3958 13.376H63.2598C63.9424 13.376 64.4438 13.3333 64.7638 13.248C65.1051 13.1413 65.1904 12.8 65.0198 12.224C64.8491 11.6693 64.5504 11.168 64.1238 10.72C63.7184 10.272 63.0998 10.048 62.2678 10.048C61.2438 10.048 60.3904 10.3467 59.7078 10.944C59.0464 11.5413 58.6091 12.352 58.3958 13.376ZM77.6163 12.864C77.5309 12.5227 77.3709 12.1813 77.1363 11.84C76.9016 11.4987 76.6349 11.2 76.3363 10.944C76.0589 10.6667 75.7603 10.4533 75.4403 10.304C75.1203 10.1333 74.8323 10.048 74.5763 10.048C73.0189 10.048 72.2403 10.7627 72.2403 12.192C72.2403 12.768 72.4963 13.2587 73.0083 13.664C73.5203 14.048 74.2989 14.432 75.3443 14.816C77.7549 15.7547 78.9603 17.056 78.9603 18.72C78.9603 19.3173 78.8429 19.8613 78.6083 20.352C78.3736 20.8213 78.0536 21.2267 77.6483 21.568C77.2429 21.888 76.7629 22.144 76.2083 22.336C75.6749 22.5067 75.1096 22.592 74.5123 22.592C72.9976 22.592 71.7389 22.3147 70.7363 21.76L70.4163 18.144H70.9603C71.1096 18.72 71.3229 19.2427 71.6003 19.712C71.8776 20.16 72.1869 20.5547 72.5283 20.896C72.8696 21.216 73.2323 21.472 73.6163 21.664C74.0216 21.8347 74.4163 21.92 74.8003 21.92C75.5683 21.92 76.1869 21.7067 76.6562 21.28C77.1256 20.8533 77.3603 20.2987 77.3603 19.616C77.3603 18.3787 76.3576 17.3973 74.3523 16.672C72.9443 16.1387 71.9309 15.584 71.3123 15.008C70.7149 14.4107 70.4163 13.632 70.4163 12.672C70.4163 11.648 70.8323 10.8373 71.6643 10.24C72.4963 9.62133 73.5309 9.312 74.7683 9.312C76.0696 9.312 77.1576 9.568 78.0323 10.08L78.2243 12.864H77.6163ZM112.568 13.728L110.488 13.952C110.125 13.9947 109.869 14.08 109.72 14.208C109.592 14.336 109.528 14.5493 109.528 14.848V18.4C109.528 18.976 109.517 19.4347 109.496 19.776C109.474 20.1173 109.4 20.3947 109.272 20.608C109.165 20.8 108.984 20.96 108.728 21.088C108.472 21.216 108.109 21.3653 107.64 21.536C106.808 21.856 105.837 22.112 104.728 22.304C103.64 22.496 102.488 22.592 101.272 22.592C99.5438 22.592 97.9758 22.3467 96.5677 21.856C95.1598 21.3653 93.9544 20.6827 92.9518 19.808C91.9491 18.9333 91.1704 17.8773 90.6158 16.64C90.0824 15.4027 89.8158 14.0373 89.8158 12.544C89.8158 10.944 90.1251 9.48267 90.7438 8.16C91.3624 6.83733 92.2158 5.70667 93.3038 4.768C94.3918 3.808 95.6824 3.072 97.1758 2.56C98.6904 2.02667 100.333 1.76 102.104 1.76C104.941 1.76 107.309 2.272 109.208 3.296L109.464 7.136L109.016 7.232C107.693 4.05333 105.538 2.464 102.552 2.464C101.08 2.464 99.7464 2.69867 98.5518 3.168C97.3784 3.616 96.3758 4.26667 95.5438 5.12C94.7118 5.952 94.0718 6.96533 93.6238 8.16C93.1971 9.35467 92.9838 10.688 92.9838 12.16C92.9838 13.4187 93.2078 14.6347 93.6558 15.808C94.1251 16.96 94.7651 17.984 95.5758 18.88C96.4078 19.776 97.3784 20.4907 98.4878 21.024C99.5971 21.5573 100.802 21.824 102.104 21.824C105.304 21.824 106.904 20.6827 106.904 18.4V14.848C106.904 14.528 106.818 14.304 106.648 14.176C106.498 14.048 106.253 13.9733 105.912 13.952L102.84 13.728V13.152C104.504 13.2373 106.125 13.28 107.704 13.28C109.282 13.28 110.904 13.2373 112.568 13.152V13.728ZM140.263 17.664C140.157 18.3253 140.018 18.9973 139.847 19.68C139.677 20.3627 139.485 21.0667 139.271 21.792C137.927 22.3253 135.943 22.592 133.319 22.592C131.655 22.592 130.141 22.3573 128.775 21.888C127.431 21.3973 126.29 20.7147 125.351 19.84C124.413 18.944 123.687 17.8773 123.175 16.64C122.663 15.4027 122.407 14.0267 122.407 12.512C122.407 11.104 122.674 9.76 123.207 8.48C123.741 7.17867 124.466 6.03733 125.383 5.056C126.322 4.05333 127.421 3.25333 128.679 2.656C129.938 2.05866 131.293 1.76 132.743 1.76C133.661 1.76 134.45 1.78133 135.111 1.824C135.773 1.84533 136.349 1.89867 136.839 1.984C137.351 2.06933 137.821 2.208 138.247 2.4C138.674 2.57067 139.111 2.79467 139.559 3.072C139.623 3.584 139.666 4.10667 139.687 4.64C139.73 5.152 139.741 5.68533 139.719 6.24H139.111C138.685 5.00267 137.959 4.064 136.935 3.424C135.933 2.76267 134.717 2.432 133.287 2.432C132.157 2.432 131.111 2.67733 130.151 3.168C129.213 3.65867 128.402 4.352 127.719 5.248C127.037 6.12267 126.493 7.18933 126.087 8.448C125.703 9.68533 125.511 11.0507 125.511 12.544C125.511 15.5947 126.162 17.92 127.463 19.52C128.786 21.0987 130.738 21.888 133.319 21.888C136.285 21.888 138.461 20.48 139.847 17.664H140.263ZM149.312 22.592C148.373 22.592 147.498 22.432 146.688 22.112C145.877 21.7707 145.173 21.312 144.576 20.736C143.978 20.1387 143.498 19.4347 143.136 18.624C142.794 17.8133 142.624 16.928 142.624 15.968C142.624 14.9867 142.794 14.0907 143.136 13.28C143.498 12.4693 143.989 11.776 144.608 11.2C145.226 10.6027 145.952 10.144 146.784 9.824C147.637 9.48267 148.565 9.312 149.568 9.312C150.592 9.312 151.52 9.49333 152.352 9.856C153.184 10.1973 153.898 10.6773 154.496 11.296C155.114 11.8933 155.584 12.608 155.904 13.44C156.245 14.2507 156.416 15.1147 156.416 16.032C156.416 16.9493 156.234 17.8133 155.872 18.624C155.53 19.4133 155.04 20.1067 154.4 20.704C153.781 21.28 153.034 21.7387 152.16 22.08C151.285 22.4213 150.336 22.592 149.312 22.592ZM144.928 16.224C144.928 18.016 145.344 19.424 146.176 20.448C147.008 21.472 148.096 21.984 149.44 21.984C150.101 21.984 150.72 21.8453 151.296 21.568C151.872 21.2693 152.362 20.864 152.768 20.352C153.194 19.8187 153.525 19.1893 153.76 18.464C153.994 17.7173 154.112 16.896 154.112 16C154.112 15.104 154.005 14.2827 153.792 13.536C153.578 12.7893 153.269 12.1493 152.864 11.616C152.458 11.0827 151.968 10.6667 151.392 10.368C150.816 10.0693 150.176 9.92 149.472 9.92C148.064 9.92 146.954 10.4533 146.144 11.52C145.333 12.5867 144.928 14.1547 144.928 16.224ZM165.592 22.176C165.08 22.1547 164.514 22.1333 163.896 22.112C163.277 22.0907 162.658 22.08 162.04 22.08C161.421 22.08 160.802 22.0907 160.184 22.112C159.565 22.1333 159 22.1547 158.488 22.176V21.664L160.472 21.28C160.749 21.216 160.941 21.1307 161.048 21.024C161.154 20.9173 161.208 20.704 161.208 20.384V4.128C161.208 3.68 161.08 3.34933 160.824 3.136C160.568 2.92267 160.002 2.688 159.128 2.432V2.016C159.981 1.84533 161.08 1.49333 162.424 0.959999H163.16V20.32C163.16 20.7253 163.202 20.992 163.288 21.12C163.373 21.2267 163.576 21.312 163.896 21.376L165.592 21.664V22.176ZM174.31 22.176C173.798 22.1547 173.233 22.1333 172.614 22.112C171.996 22.0907 171.377 22.08 170.758 22.08C170.14 22.08 169.521 22.0907 168.902 22.112C168.284 22.1333 167.718 22.1547 167.206 22.176V21.664L169.19 21.28C169.468 21.216 169.66 21.1307 169.766 21.024C169.873 20.9173 169.926 20.704 169.926 20.384V4.128C169.926 3.68 169.798 3.34933 169.542 3.136C169.286 2.92267 168.721 2.688 167.846 2.432V2.016C168.7 1.84533 169.798 1.49333 171.142 0.959999H171.878V20.32C171.878 20.7253 171.921 20.992 172.006 21.12C172.092 21.2267 172.294 21.312 172.614 21.376L174.31 21.664V22.176ZM187.445 14.048H178.517C178.453 14.4747 178.421 14.9013 178.421 15.328C178.421 16.16 178.538 16.928 178.773 17.632C179.008 18.3147 179.338 18.9013 179.765 19.392C180.213 19.8827 180.746 20.2667 181.365 20.544C182.005 20.8213 182.709 20.96 183.477 20.96C184.224 20.96 184.906 20.8107 185.525 20.512C186.144 20.2133 186.816 19.7227 187.541 19.04L187.669 19.808C186.154 21.664 184.224 22.592 181.877 22.592C181.109 22.592 180.384 22.4213 179.701 22.08C179.04 21.7387 178.464 21.28 177.973 20.704C177.482 20.1067 177.098 19.4133 176.821 18.624C176.544 17.8133 176.405 16.9387 176.405 16C176.405 15.0613 176.554 14.1867 176.853 13.376C177.173 12.5653 177.61 11.8613 178.165 11.264C178.72 10.6453 179.37 10.1653 180.117 9.824C180.864 9.48267 181.685 9.312 182.581 9.312C183.264 9.312 183.893 9.42933 184.469 9.664C185.045 9.87733 185.546 10.1973 185.973 10.624C186.421 11.0293 186.762 11.5307 186.997 12.128C187.253 12.704 187.402 13.344 187.445 14.048ZM178.677 13.376H183.541C184.224 13.376 184.725 13.3333 185.045 13.248C185.386 13.1413 185.472 12.8 185.301 12.224C185.13 11.6693 184.832 11.168 184.405 10.72C184 10.272 183.381 10.048 182.549 10.048C181.525 10.048 180.672 10.3467 179.989 10.944C179.328 11.5413 178.89 12.352 178.677 13.376ZM201.322 20.544C200.767 21.248 200.063 21.7707 199.21 22.112C198.356 22.432 197.524 22.592 196.714 22.592C195.711 22.592 194.804 22.4213 193.994 22.08C193.204 21.7173 192.522 21.2373 191.946 20.64C191.391 20.0427 190.964 19.3493 190.666 18.56C190.367 17.7707 190.218 16.9493 190.218 16.096C190.218 15.0933 190.367 14.176 190.666 13.344C190.964 12.512 191.402 11.7973 191.978 11.2C192.575 10.6027 193.3 10.144 194.154 9.824C195.028 9.48267 196.031 9.312 197.161 9.312C198.335 9.312 199.284 9.49333 200.01 9.856C200.756 10.1973 201.13 10.6453 201.13 11.2C201.13 11.4987 201.034 11.7653 200.842 12C200.65 12.2133 200.436 12.3307 200.202 12.352C199.903 12.3733 199.636 12.2667 199.402 12.032C199.167 11.776 198.9 11.4987 198.602 11.2C198.324 10.9013 197.983 10.6347 197.578 10.4C197.194 10.144 196.692 10.016 196.074 10.016C195.412 10.016 194.847 10.1867 194.378 10.528C193.908 10.8693 193.514 11.3067 193.194 11.84C192.895 12.3733 192.671 12.9813 192.522 13.664C192.394 14.3253 192.33 15.008 192.33 15.712C192.33 16.4587 192.447 17.184 192.682 17.888C192.938 18.5707 193.29 19.1787 193.738 19.712C194.186 20.224 194.719 20.6293 195.338 20.928C195.978 21.2267 196.682 21.376 197.45 21.376C198.303 21.3547 198.975 21.2053 199.466 20.928C199.956 20.6507 200.436 20.256 200.906 19.744L201.322 20.544ZM207.021 6.656H207.405C207.405 7.232 207.405 7.808 207.405 8.384C207.426 8.93867 207.437 9.504 207.437 10.08L211.789 9.984V11.136L207.437 11.264V17.792C207.437 19.072 207.522 20.0427 207.693 20.704C207.885 21.344 208.397 21.6427 209.229 21.6C209.869 21.5573 210.712 21.2587 211.757 20.704L212.045 21.152C211.597 21.664 211.074 22.0373 210.477 22.272C209.901 22.4853 209.08 22.592 208.013 22.592C207.48 22.592 207.042 22.5387 206.701 22.432C206.36 22.304 206.093 22.0907 205.901 21.792C205.709 21.472 205.581 21.056 205.517 20.544C205.453 20.032 205.421 19.3707 205.421 18.56V11.328C205.122 11.328 204.834 11.3387 204.557 11.36C204.28 11.36 203.992 11.36 203.693 11.36C203.394 11.36 203.245 11.2853 203.245 11.136C203.245 10.9653 203.384 10.816 203.661 10.688C204.6 10.2827 205.261 9.84533 205.645 9.376C205.858 9.12 206.082 8.768 206.317 8.32C206.552 7.872 206.786 7.31733 207.021 6.656ZM220.215 22.208C219.874 22.1653 219.415 22.1333 218.839 22.112C218.263 22.0907 217.548 22.08 216.695 22.08C215.842 22.08 215.127 22.0907 214.551 22.112C213.975 22.1333 213.516 22.1653 213.175 22.208V21.696L214.967 21.344C215.628 21.216 215.959 20.832 215.959 20.192V13.76C215.959 13.248 215.831 12.8747 215.575 12.64C215.319 12.4053 214.807 12.2027 214.039 12.032V11.584C215.554 11.2 216.663 10.432 217.367 9.28H217.879V20.288C217.879 20.608 217.922 20.8427 218.007 20.992C218.114 21.1413 218.306 21.248 218.583 21.312L220.215 21.696V22.208ZM216.695 2.688C217.058 2.688 217.388 2.82667 217.687 3.104C217.986 3.38133 218.135 3.70133 218.135 4.064C218.135 4.40533 217.975 4.71467 217.655 4.992C217.356 5.248 217.015 5.376 216.631 5.376C216.268 5.376 215.959 5.248 215.703 4.992C215.447 4.736 215.319 4.42667 215.319 4.064C215.319 3.70133 215.458 3.38133 215.735 3.104C216.012 2.82667 216.332 2.688 216.695 2.688ZM228.968 22.592C228.029 22.592 227.155 22.432 226.344 22.112C225.533 21.7707 224.829 21.312 224.232 20.736C223.635 20.1387 223.155 19.4347 222.792 18.624C222.451 17.8133 222.28 16.928 222.28 15.968C222.28 14.9867 222.451 14.0907 222.792 13.28C223.155 12.4693 223.645 11.776 224.264 11.2C224.883 10.6027 225.608 10.144 226.44 9.824C227.293 9.48267 228.221 9.312 229.224 9.312C230.248 9.312 231.176 9.49333 232.008 9.856C232.84 10.1973 233.555 10.6773 234.152 11.296C234.771 11.8933 235.24 12.608 235.56 13.44C235.901 14.2507 236.072 15.1147 236.072 16.032C236.072 16.9493 235.891 17.8133 235.528 18.624C235.187 19.4133 234.696 20.1067 234.056 20.704C233.437 21.28 232.691 21.7387 231.816 22.08C230.941 22.4213 229.992 22.592 228.968 22.592ZM224.584 16.224C224.584 18.016 225 19.424 225.832 20.448C226.664 21.472 227.752 21.984 229.096 21.984C229.757 21.984 230.376 21.8453 230.952 21.568C231.528 21.2693 232.019 20.864 232.424 20.352C232.851 19.8187 233.181 19.1893 233.416 18.464C233.651 17.7173 233.768 16.896 233.768 16C233.768 15.104 233.661 14.2827 233.448 13.536C233.235 12.7893 232.925 12.1493 232.52 11.616C232.115 11.0827 231.624 10.6667 231.048 10.368C230.472 10.0693 229.832 9.92 229.128 9.92C227.72 9.92 226.611 10.4533 225.8 11.52C224.989 12.5867 224.584 14.1547 224.584 16.224ZM253.568 22.176C251.349 22.048 249.13 22.048 246.912 22.176V21.664L248.672 21.408C249.141 21.344 249.376 20.928 249.376 20.16V14.752C249.376 13.5573 249.173 12.5973 248.768 11.872C248.362 11.1467 247.573 10.784 246.4 10.784C245.034 10.784 243.701 11.4347 242.4 12.736V20.512C242.4 20.8533 242.656 21.088 243.168 21.216L245.056 21.664V22.176C244.757 22.1547 244.405 22.1333 244 22.112C243.594 22.0907 243.146 22.08 242.656 22.08H241.6C240.085 22.08 238.933 22.112 238.144 22.176V21.664L239.84 21.344C240.266 21.28 240.48 20.96 240.48 20.384V14.048C240.48 13.3867 240.341 12.9387 240.064 12.704C239.808 12.4693 239.338 12.2987 238.656 12.192V11.616C240 11.296 241.077 10.336 241.888 8.736H242.4V11.616C243.21 10.912 244.106 10.3573 245.088 9.952C246.069 9.52533 246.933 9.312 247.68 9.312C250.133 9.312 251.36 10.7733 251.36 13.696V20.064C251.36 20.4693 251.413 20.7787 251.52 20.992C251.626 21.2053 251.84 21.344 252.16 21.408L253.568 21.664V22.176Z" fill="#060606"/>
</svg>
