<svg width="414" height="68" viewBox="0 0 414 68" fill="none" xmlns="http://www.w3.org/2000/svg">
<path d="M16.84 10.848L20.744 19.488L25.896 6.304C26.344 5.152 26.568 4.29867 26.568 3.744C26.568 3.18933 26.3013 2.85867 25.768 2.752L24.456 2.496V1.984C24.6693 2.048 25.48 2.08 26.888 2.08C28.296 2.08 29.1813 2.048 29.544 1.984V2.496L28.584 2.784C28.264 2.89067 28.0187 3.04 27.848 3.232C27.6773 3.424 27.5067 3.75467 27.336 4.224L20.392 22.784H19.72L15.528 13.6L11.08 22.784H10.408L3.272 5.088C3.08 4.64 2.92 4.27733 2.792 4C2.68533 3.70133 2.568 3.47733 2.44 3.328C2.33333 3.15733 2.216 3.02933 2.088 2.944C1.98133 2.85866 1.832 2.784 1.64 2.72L0.712 2.496V1.984C1.24533 2.048 2.23733 2.08 3.688 2.08C5.16 2.08 6.28 2.048 7.048 1.984V2.496L5.544 2.784C5.37333 2.82667 5.288 2.92267 5.288 3.072C5.288 3.37067 5.52267 4.096 5.992 5.248L11.784 19.84L15.112 12.704L11.784 5.056C11.5707 4.58667 11.3893 4.21333 11.24 3.936C11.0907 3.63733 10.952 3.41333 10.824 3.264C10.7173 3.09333 10.6107 2.976 10.504 2.912C10.3973 2.848 10.28 2.80533 10.152 2.784L8.584 2.496V1.984C9.18133 2.048 10.4293 2.08 12.328 2.08C14.2053 2.08 15.3893 2.048 15.88 1.984V2.496L14.024 2.848C13.832 2.89067 13.736 3.008 13.736 3.2C13.736 3.456 13.9707 4.128 14.44 5.216L16.392 9.856L18.92 4.224C19.0907 3.88267 19.112 3.552 18.984 3.232C18.8773 2.912 18.664 2.73067 18.344 2.688L17.256 2.496V1.984C17.7893 2.048 18.792 2.08 20.264 2.08C21.7147 2.08 22.6533 2.048 23.08 1.984V2.496L21.576 2.784C20.8507 2.93333 20.296 3.424 19.912 4.256L16.84 10.848ZM42.2575 14.048H33.3295C33.2655 14.4747 33.2335 14.9013 33.2335 15.328C33.2335 16.16 33.3508 16.928 33.5855 17.632C33.8202 18.3147 34.1508 18.9013 34.5775 19.392C35.0255 19.8827 35.5588 20.2667 36.1775 20.544C36.8175 20.8213 37.5215 20.96 38.2895 20.96C39.0362 20.96 39.7188 20.8107 40.3375 20.512C40.9562 20.2133 41.6282 19.7227 42.3535 19.04L42.4815 19.808C40.9668 21.664 39.0362 22.592 36.6895 22.592C35.9215 22.592 35.1962 22.4213 34.5135 22.08C33.8522 21.7387 33.2762 21.28 32.7855 20.704C32.2948 20.1067 31.9108 19.4133 31.6335 18.624C31.3562 17.8133 31.2175 16.9387 31.2175 16C31.2175 15.0613 31.3668 14.1867 31.6655 13.376C31.9855 12.5653 32.4228 11.8613 32.9775 11.264C33.5322 10.6453 34.1828 10.1653 34.9295 9.824C35.6762 9.48267 36.4975 9.312 37.3935 9.312C38.0762 9.312 38.7055 9.42933 39.2815 9.664C39.8575 9.87733 40.3588 10.1973 40.7855 10.624C41.2335 11.0293 41.5748 11.5307 41.8095 12.128C42.0655 12.704 42.2148 13.344 42.2575 14.048ZM33.4895 13.376H38.3535C39.0362 13.376 39.5375 13.3333 39.8575 13.248C40.1988 13.1413 40.2842 12.8 40.1135 12.224C39.9428 11.6693 39.6442 11.168 39.2175 10.72C38.8122 10.272 38.1935 10.048 37.3615 10.048C36.3375 10.048 35.4842 10.3467 34.8015 10.944C34.1402 11.5413 33.7028 12.352 33.4895 13.376ZM52.55 2.432L52.646 1.952L56.742 0.959999V10.432C58.4913 9.68533 60.0167 9.312 61.318 9.312C62.214 9.312 63.014 9.48267 63.718 9.824C64.4433 10.144 65.062 10.592 65.574 11.168C66.086 11.744 66.4807 12.4267 66.758 13.216C67.0353 14.0053 67.174 14.848 67.174 15.744C67.174 16.768 67.0033 17.7067 66.662 18.56C66.3207 19.392 65.8513 20.1067 65.254 20.704C64.678 21.3013 63.9847 21.7707 63.174 22.112C62.3633 22.432 61.4993 22.592 60.582 22.592C60.1553 22.592 59.6967 22.5387 59.206 22.432C58.7367 22.304 58.2993 22.176 57.894 22.048C57.51 21.8987 57.1793 21.7707 56.902 21.664C56.6247 21.536 56.4647 21.472 56.422 21.472C56.0807 21.472 55.6753 21.8987 55.206 22.752H54.726V6.4C54.726 5.84533 54.7367 5.376 54.758 4.992C54.8007 4.608 54.7687 4.26667 54.662 3.968C54.5553 3.66933 54.342 3.40267 54.022 3.168C53.7233 2.93333 53.2327 2.688 52.55 2.432ZM56.742 18.624C56.742 19.584 57.03 20.3307 57.606 20.864C58.182 21.3973 58.982 21.664 60.006 21.664C63.2273 21.664 64.838 19.8933 64.838 16.352C64.838 15.4987 64.7207 14.7093 64.486 13.984C64.2513 13.2587 63.91 12.6293 63.462 12.096C63.0353 11.5627 62.5233 11.1467 61.926 10.848C61.3287 10.528 60.678 10.368 59.974 10.368C59.0567 10.368 58.2887 10.496 57.67 10.752C57.0513 11.008 56.742 11.3067 56.742 11.648V18.624ZM69.2688 22.208V21.696L70.8688 21.408C71.2954 21.3013 71.5621 21.1413 71.6688 20.928C71.7968 20.7147 71.8608 20.3307 71.8608 19.776V13.632C71.8608 13.2053 71.7648 12.896 71.5728 12.704C71.4021 12.512 71.0074 12.352 70.3888 12.224L69.5247 12.032L69.5888 11.552C70.4208 11.2533 71.1141 10.912 71.6688 10.528C72.2234 10.1227 72.7141 9.472 73.1408 8.576H73.7168C73.7594 9.152 73.7914 9.78133 73.8128 10.464C73.8341 11.1253 73.8448 11.84 73.8448 12.608C74.2714 11.8187 74.8581 11.0827 75.6048 10.4C76.3514 9.67467 77.0021 9.312 77.5568 9.312C78.0901 9.312 78.4954 9.46133 78.7728 9.76C79.0714 10.0587 79.2208 10.4213 79.2208 10.848C79.2208 11.2533 79.1034 11.5627 78.8688 11.776C78.6341 11.9893 78.3461 12.096 78.0048 12.096C77.6634 12.096 77.2901 12.0107 76.8848 11.84C76.5008 11.6693 76.1701 11.584 75.8928 11.584C75.6581 11.584 75.4128 11.7013 75.1568 11.936C74.9221 12.1493 74.7088 12.416 74.5168 12.736C74.3248 13.056 74.1648 13.3867 74.0368 13.728C73.9088 14.048 73.8448 14.3147 73.8448 14.528V19.84C73.8448 20.3947 73.9301 20.768 74.1008 20.96C74.2928 21.1307 74.6874 21.2587 75.2848 21.344L77.7488 21.696V22.208C77.1728 22.1653 76.5328 22.1333 75.8288 22.112C75.1248 22.0907 74.3674 22.08 73.5568 22.08H73.1408C72.3941 22.08 71.7008 22.0907 71.0608 22.112C70.4208 22.1333 69.8234 22.1653 69.2688 22.208ZM87.8713 22.208C87.5299 22.1653 87.0713 22.1333 86.4953 22.112C85.9193 22.0907 85.2046 22.08 84.3513 22.08C83.4979 22.08 82.7833 22.0907 82.2073 22.112C81.6313 22.1333 81.1726 22.1653 80.8313 22.208V21.696L82.6233 21.344C83.2846 21.216 83.6153 20.832 83.6153 20.192V13.76C83.6153 13.248 83.4873 12.8747 83.2313 12.64C82.9753 12.4053 82.4633 12.2027 81.6953 12.032V11.584C83.2099 11.2 84.3193 10.432 85.0233 9.28H85.5353V20.288C85.5353 20.608 85.5779 20.8427 85.6633 20.992C85.7699 21.1413 85.9619 21.248 86.2393 21.312L87.8713 21.696V22.208ZM84.3513 2.688C84.7139 2.688 85.0446 2.82667 85.3433 3.104C85.6419 3.38133 85.7913 3.70133 85.7913 4.064C85.7913 4.40533 85.6313 4.71467 85.3113 4.992C85.0126 5.248 84.6713 5.376 84.2873 5.376C83.9246 5.376 83.6153 5.248 83.3593 4.992C83.1033 4.736 82.9753 4.42667 82.9753 4.064C82.9753 3.70133 83.1139 3.38133 83.3913 3.104C83.6686 2.82667 83.9886 2.688 84.3513 2.688ZM104.88 22.176C102.662 22.048 100.443 22.048 98.2243 22.176V21.664L99.9843 21.408C100.454 21.344 100.688 20.928 100.688 20.16V14.752C100.688 13.5573 100.486 12.5973 100.08 11.872C99.6749 11.1467 98.8856 10.784 97.7123 10.784C96.3469 10.784 95.0136 11.4347 93.7123 12.736V20.512C93.7123 20.8533 93.9683 21.088 94.4803 21.216L96.3683 21.664V22.176C96.0696 22.1547 95.7176 22.1333 95.3123 22.112C94.9069 22.0907 94.4589 22.08 93.9683 22.08H92.9123C91.3976 22.08 90.2456 22.112 89.4563 22.176V21.664L91.1523 21.344C91.5789 21.28 91.7923 20.96 91.7923 20.384V14.048C91.7923 13.3867 91.6536 12.9387 91.3763 12.704C91.1203 12.4693 90.6509 12.2987 89.9683 12.192V11.616C91.3123 11.296 92.3896 10.336 93.2003 8.736H93.7123V11.616C94.5229 10.912 95.4189 10.3573 96.4003 9.952C97.3816 9.52533 98.2456 9.312 98.9923 9.312C101.446 9.312 102.672 10.7733 102.672 13.696V20.064C102.672 20.4693 102.726 20.7787 102.832 20.992C102.939 21.2053 103.152 21.344 103.472 21.408L104.88 21.664V22.176ZM112.184 21.984C111.458 21.984 110.776 21.8453 110.136 21.568C109.496 21.2693 108.941 20.8747 108.472 20.384C108.002 19.872 107.629 19.264 107.352 18.56C107.096 17.856 106.968 17.088 106.968 16.256C106.968 15.296 107.128 14.4107 107.448 13.6C107.789 12.768 108.248 12.0533 108.824 11.456C109.4 10.8587 110.061 10.4 110.808 10.08C111.576 9.73867 112.386 9.568 113.24 9.568C113.837 9.568 114.36 9.61067 114.808 9.696C115.256 9.78133 115.629 9.87733 115.928 9.984C116.29 10.0907 116.589 10.2187 116.824 10.368L118.616 9.184L118.904 9.28V21.408C118.904 22.2187 118.744 22.976 118.424 23.68C118.125 24.3627 117.688 24.96 117.112 25.472C116.557 25.984 115.885 26.3893 115.095 26.688C114.328 26.9867 113.474 27.136 112.536 27.136C111.362 27.136 110.424 27.04 109.72 26.848C109.037 26.6773 108.514 26.4533 108.152 26.176C107.81 25.92 107.586 25.6427 107.48 25.344C107.394 25.0667 107.352 24.832 107.352 24.64C107.352 24.2773 107.448 24.0107 107.64 23.84C107.853 23.6693 108.12 23.584 108.44 23.584C108.93 23.584 109.24 23.7227 109.368 24C109.496 24.2773 109.634 24.576 109.784 24.896C109.933 25.2373 110.189 25.5467 110.552 25.824C110.936 26.1013 111.629 26.24 112.632 26.24C114.061 26.24 115.138 25.8667 115.864 25.12C116.589 24.3733 116.952 23.2747 116.952 21.824V17.984C116.802 18.4747 116.589 18.9653 116.312 19.456C116.056 19.9253 115.725 20.352 115.32 20.736C114.936 21.0987 114.477 21.3973 113.944 21.632C113.432 21.8667 112.845 21.984 112.184 21.984ZM116.952 15.2C116.952 14.5387 116.888 13.92 116.76 13.344C116.632 12.768 116.418 12.2667 116.12 11.84C115.821 11.392 115.416 11.0507 114.904 10.816C114.392 10.56 113.741 10.432 112.952 10.432C112.418 10.432 111.906 10.5493 111.416 10.784C110.946 10.9973 110.53 11.3173 110.168 11.744C109.826 12.1707 109.549 12.7147 109.336 13.376C109.122 14.016 109.016 14.7627 109.016 15.616C109.016 16.256 109.08 16.896 109.208 17.536C109.336 18.1547 109.549 18.7093 109.848 19.2C110.146 19.6693 110.52 20.0533 110.968 20.352C111.437 20.6507 112.013 20.8 112.696 20.8C113.314 20.8 113.88 20.6507 114.392 20.352C114.904 20.032 115.341 19.616 115.704 19.104C116.088 18.592 116.386 18.0267 116.6 17.408C116.813 16.768 116.93 16.128 116.952 15.488V15.2ZM135.179 25.344C134.795 26.368 134.336 27.1253 133.803 27.616C133.291 28.128 132.736 28.384 132.139 28.384C131.734 28.384 131.424 28.256 131.211 28C130.998 27.744 130.891 27.4667 130.891 27.168C130.891 26.912 130.976 26.688 131.147 26.496C131.318 26.304 131.584 26.208 131.947 26.208C132.203 26.208 132.427 26.2293 132.619 26.272C132.811 26.3147 132.992 26.3573 133.163 26.4C133.334 26.4427 133.462 26.464 133.547 26.464C133.654 26.464 133.76 26.4107 133.867 26.304C133.931 26.24 133.984 26.1867 134.027 26.144C134.091 26.1227 134.155 26.0587 134.219 25.952C134.283 25.8667 134.358 25.728 134.443 25.536C134.55 25.344 134.667 25.056 134.795 24.672C135.072 23.8827 135.211 23.36 135.211 23.104C135.211 22.7627 135.104 22.336 134.891 21.824L130.987 11.488C130.816 10.9973 130.539 10.6987 130.155 10.592L128.971 10.24V9.728C130.315 9.83467 131.499 9.888 132.523 9.888C133.547 9.888 134.507 9.83467 135.403 9.728V10.24C135.168 10.2827 134.891 10.3253 134.571 10.368C134.272 10.3893 133.995 10.4427 133.739 10.528C133.483 10.592 133.28 10.6987 133.131 10.848C132.982 10.9973 132.96 11.2107 133.067 11.488L136.299 20.608L139.275 12.352C139.382 12.0533 139.424 11.7333 139.403 11.392C139.403 11.0293 139.222 10.7947 138.859 10.688L137.067 10.24V9.728C138.027 9.83467 138.902 9.888 139.691 9.888C140.502 9.888 141.44 9.83467 142.507 9.728V10.24L141.483 10.528C141.184 10.6133 140.928 10.7947 140.715 11.072C140.502 11.328 140.246 11.8613 139.947 12.672L135.179 25.344ZM150.187 22.592C149.248 22.592 148.373 22.432 147.563 22.112C146.752 21.7707 146.048 21.312 145.451 20.736C144.853 20.1387 144.373 19.4347 144.011 18.624C143.669 17.8133 143.499 16.928 143.499 15.968C143.499 14.9867 143.669 14.0907 144.011 13.28C144.373 12.4693 144.864 11.776 145.483 11.2C146.101 10.6027 146.827 10.144 147.659 9.824C148.512 9.48267 149.44 9.312 150.443 9.312C151.467 9.312 152.395 9.49333 153.227 9.856C154.059 10.1973 154.773 10.6773 155.371 11.296C155.989 11.8933 156.459 12.608 156.779 13.44C157.12 14.2507 157.291 15.1147 157.291 16.032C157.291 16.9493 157.109 17.8133 156.747 18.624C156.405 19.4133 155.915 20.1067 155.275 20.704C154.656 21.28 153.909 21.7387 153.035 22.08C152.16 22.4213 151.211 22.592 150.187 22.592ZM145.803 16.224C145.803 18.016 146.219 19.424 147.051 20.448C147.883 21.472 148.971 21.984 150.315 21.984C150.976 21.984 151.595 21.8453 152.171 21.568C152.747 21.2693 153.237 20.864 153.643 20.352C154.069 19.8187 154.4 19.1893 154.635 18.464C154.869 17.7173 154.987 16.896 154.987 16C154.987 15.104 154.88 14.2827 154.667 13.536C154.453 12.7893 154.144 12.1493 153.739 11.616C153.333 11.0827 152.843 10.6667 152.267 10.368C151.691 10.0693 151.051 9.92 150.347 9.92C148.939 9.92 147.829 10.4533 147.019 11.52C146.208 12.5867 145.803 14.1547 145.803 16.224ZM159.331 9.92H163.427V18.176C163.427 19.2 163.597 19.9253 163.939 20.352C164.301 20.7787 164.973 20.992 165.955 20.992C167.405 20.992 168.739 20.448 169.955 19.36V11.648C169.955 11.4347 169.912 11.264 169.827 11.136C169.763 11.008 169.624 10.912 169.411 10.848C169.219 10.7627 168.931 10.688 168.547 10.624C168.163 10.56 167.65 10.496 167.01 10.432V9.92H172.035V19.328C172.035 19.712 172.056 20.0213 172.099 20.256C172.141 20.4693 172.237 20.6293 172.387 20.736C172.557 20.8213 172.781 20.8853 173.059 20.928C173.357 20.9493 173.763 20.96 174.275 20.96C174.275 21.0453 174.275 21.1307 174.275 21.216C174.296 21.28 174.307 21.3547 174.307 21.44L169.955 22.592V20.16C168.995 20.9707 168.131 21.5893 167.363 22.016C166.616 22.4213 165.859 22.624 165.091 22.624C164.003 22.624 163.117 22.2293 162.435 21.44C161.752 20.6507 161.411 19.6053 161.411 18.304V11.616C161.411 11.2107 161.272 10.9333 160.995 10.784C160.739 10.6347 160.184 10.496 159.331 10.368V9.92ZM203.35 16.864C202.88 18.7627 202.614 20.5227 202.55 22.144C199.883 22.08 196.768 22.048 193.206 22.048C189.622 22.048 186.507 22.08 183.862 22.144V21.6L186.166 21.44C186.528 21.4187 186.774 21.344 186.902 21.216C187.051 21.088 187.126 20.7893 187.126 20.32V4.224C187.126 3.712 187.062 3.34933 186.934 3.136C186.827 2.90133 186.624 2.77333 186.326 2.752L183.99 2.528V1.952C185.718 2.016 188.598 2.048 192.63 2.048C196.64 2.048 199.499 2.016 201.206 1.952C201.142 2.61333 201.11 3.34933 201.11 4.16C201.11 4.97067 201.131 5.71733 201.174 6.4H200.758C200.395 5.504 200.096 4.82133 199.862 4.352C199.648 3.86133 199.456 3.49867 199.286 3.264C199.115 3.008 198.944 2.85867 198.774 2.816C198.603 2.752 198.379 2.70933 198.102 2.688H190.678C190.315 2.688 190.07 2.79467 189.942 3.008C189.814 3.2 189.75 3.54133 189.75 4.032V11.392H196.95C197.312 11.392 197.579 11.3387 197.75 11.232C197.92 11.104 198.048 10.8373 198.134 10.432L198.55 8.192H199.19C199.062 10.7307 199.062 13.2907 199.19 15.872H198.806L198.102 13.376C197.995 13.056 197.867 12.8107 197.718 12.64C197.568 12.4693 197.366 12.352 197.11 12.288C196.875 12.2027 196.576 12.16 196.214 12.16C195.872 12.1387 195.446 12.128 194.934 12.128H189.75V20.096C189.75 20.5653 189.835 20.896 190.006 21.088C190.176 21.2587 190.539 21.344 191.094 21.344H198.198C198.667 21.344 199.083 21.3013 199.446 21.216C199.808 21.1093 200.16 20.896 200.502 20.576C200.843 20.256 201.184 19.808 201.526 19.232C201.888 18.6347 202.283 17.8453 202.71 16.864H203.35ZM216.126 6.816C215.507 4.02133 213.971 2.624 211.518 2.624C210.942 2.624 210.408 2.72 209.918 2.912C209.427 3.08267 208.99 3.31733 208.606 3.616C208.243 3.91467 207.955 4.26667 207.742 4.672C207.55 5.07733 207.454 5.504 207.454 5.952C207.454 6.31467 207.518 6.656 207.646 6.976C207.774 7.27467 208.019 7.59467 208.382 7.936C208.744 8.256 209.246 8.608 209.886 8.992C210.526 9.376 211.347 9.83467 212.35 10.368C213.374 10.88 214.238 11.3493 214.942 11.776C215.667 12.1813 216.264 12.6187 216.734 13.088C217.203 13.536 217.544 14.0373 217.758 14.592C217.971 15.1467 218.078 15.8187 218.078 16.608C218.078 18.4 217.448 19.8507 216.19 20.96C214.952 22.048 213.214 22.592 210.974 22.592C208.904 22.592 207.016 22.0907 205.31 21.088L205.662 16.32H206.11C206.195 17.088 206.408 17.8027 206.75 18.464C207.091 19.1253 207.507 19.7013 207.998 20.192C208.51 20.6613 209.075 21.0347 209.694 21.312C210.312 21.5893 210.942 21.728 211.582 21.728C212.158 21.728 212.723 21.6427 213.278 21.472C213.832 21.28 214.312 21.024 214.718 20.704C215.144 20.384 215.486 20 215.742 19.552C215.998 19.0827 216.126 18.5707 216.126 18.016C216.126 17.504 216.051 17.0667 215.902 16.704C215.752 16.32 215.486 15.9467 215.102 15.584C214.739 15.2213 214.238 14.848 213.598 14.464C212.958 14.08 212.147 13.632 211.166 13.12C209.267 12.1173 207.88 11.1467 207.006 10.208C206.131 9.26933 205.694 8.192 205.694 6.976C205.694 6.208 205.843 5.51467 206.142 4.896C206.462 4.256 206.899 3.70133 207.454 3.232C208.03 2.76267 208.702 2.4 209.47 2.144C210.238 1.888 211.091 1.76 212.03 1.76C213.886 1.76 215.432 2.22933 216.67 3.168L216.542 6.816H216.126ZM231.438 6.816C230.82 4.02133 229.284 2.624 226.83 2.624C226.254 2.624 225.721 2.72 225.23 2.912C224.74 3.08267 224.302 3.31733 223.918 3.616C223.556 3.91467 223.268 4.26667 223.054 4.672C222.862 5.07733 222.766 5.504 222.766 5.952C222.766 6.31467 222.83 6.656 222.958 6.976C223.086 7.27467 223.332 7.59467 223.694 7.936C224.057 8.256 224.558 8.608 225.198 8.992C225.838 9.376 226.66 9.83467 227.662 10.368C228.686 10.88 229.55 11.3493 230.254 11.776C230.98 12.1813 231.577 12.6187 232.046 13.088C232.516 13.536 232.857 14.0373 233.07 14.592C233.284 15.1467 233.39 15.8187 233.39 16.608C233.39 18.4 232.761 19.8507 231.502 20.96C230.265 22.048 228.526 22.592 226.286 22.592C224.217 22.592 222.329 22.0907 220.622 21.088L220.974 16.32H221.422C221.508 17.088 221.721 17.8027 222.062 18.464C222.404 19.1253 222.82 19.7013 223.31 20.192C223.822 20.6613 224.388 21.0347 225.006 21.312C225.625 21.5893 226.254 21.728 226.894 21.728C227.47 21.728 228.036 21.6427 228.59 21.472C229.145 21.28 229.625 21.024 230.03 20.704C230.457 20.384 230.798 20 231.054 19.552C231.31 19.0827 231.438 18.5707 231.438 18.016C231.438 17.504 231.364 17.0667 231.214 16.704C231.065 16.32 230.798 15.9467 230.414 15.584C230.052 15.2213 229.55 14.848 228.91 14.464C228.27 14.08 227.46 13.632 226.478 13.12C224.58 12.1173 223.193 11.1467 222.318 10.208C221.444 9.26933 221.006 8.192 221.006 6.976C221.006 6.208 221.156 5.51467 221.454 4.896C221.774 4.256 222.212 3.70133 222.766 3.232C223.342 2.76267 224.014 2.4 224.782 2.144C225.55 1.888 226.404 1.76 227.342 1.76C229.198 1.76 230.745 2.22933 231.982 3.168L231.854 6.816H231.438ZM254.975 16.864C254.505 18.7627 254.239 20.5227 254.175 22.144C251.508 22.08 248.393 22.048 244.831 22.048C241.247 22.048 238.132 22.08 235.487 22.144V21.6L237.791 21.44C238.153 21.4187 238.399 21.344 238.527 21.216C238.676 21.088 238.751 20.7893 238.751 20.32V4.224C238.751 3.712 238.687 3.34933 238.559 3.136C238.452 2.90133 238.249 2.77333 237.951 2.752L235.615 2.528V1.952C237.343 2.016 240.223 2.048 244.255 2.048C248.265 2.048 251.124 2.016 252.831 1.952C252.767 2.61333 252.735 3.34933 252.735 4.16C252.735 4.97067 252.756 5.71733 252.799 6.4H252.383C252.02 5.504 251.721 4.82133 251.487 4.352C251.273 3.86133 251.081 3.49867 250.911 3.264C250.74 3.008 250.569 2.85867 250.399 2.816C250.228 2.752 250.004 2.70933 249.727 2.688H242.303C241.94 2.688 241.695 2.79467 241.567 3.008C241.439 3.2 241.375 3.54133 241.375 4.032V11.392H248.575C248.937 11.392 249.204 11.3387 249.375 11.232C249.545 11.104 249.673 10.8373 249.759 10.432L250.175 8.192H250.815C250.687 10.7307 250.687 13.2907 250.815 15.872H250.431L249.727 13.376C249.62 13.056 249.492 12.8107 249.343 12.64C249.193 12.4693 248.991 12.352 248.735 12.288C248.5 12.2027 248.201 12.16 247.839 12.16C247.497 12.1387 247.071 12.128 246.559 12.128H241.375V20.096C241.375 20.5653 241.46 20.896 241.631 21.088C241.801 21.2587 242.164 21.344 242.719 21.344H249.823C250.292 21.344 250.708 21.3013 251.071 21.216C251.433 21.1093 251.785 20.896 252.127 20.576C252.468 20.256 252.809 19.808 253.151 19.232C253.513 18.6347 253.908 17.8453 254.335 16.864H254.975ZM260.455 19.936C260.455 20.4693 260.519 20.832 260.647 21.024C260.775 21.1947 261.041 21.3013 261.447 21.344L264.391 21.664V22.176C263.111 22.112 261.831 22.08 260.551 22.08C259.271 22.08 257.788 22.112 256.103 22.176V21.664L257.863 21.344C258.588 21.216 259.047 21.0667 259.239 20.896C259.452 20.7253 259.559 20.4053 259.559 19.936V5.984C259.559 5.00267 259.452 4.26667 259.239 3.776C259.025 3.28533 258.62 2.99733 258.023 2.912L256.135 2.624V2.08H259.975C260.423 2.08 260.732 2.13333 260.903 2.24C261.095 2.34667 261.351 2.57067 261.671 2.912L276.135 18.688L275.815 4.288C275.793 3.69066 275.687 3.30667 275.495 3.136C275.324 2.96533 275.047 2.85867 274.663 2.816L271.911 2.496V1.984C272.508 2.048 273.66 2.08 275.367 2.08C277.052 2.08 278.204 2.048 278.823 1.984V2.496L277.479 2.624C277.116 2.66667 276.892 2.79467 276.807 3.008C276.721 3.22133 276.689 3.648 276.711 4.288L277.031 22.496H276.263L260.455 5.536V19.936ZM281.75 1.408C281.9 0.853332 282.049 0.575998 282.198 0.575998C282.369 0.575998 282.561 0.789332 282.774 1.216C283.009 1.64267 283.212 1.89867 283.382 1.984C283.553 2.048 283.884 2.08 284.374 2.08H296.758C297.142 2.08 297.441 2.08 297.654 2.08C297.889 2.05866 298.07 2.016 298.198 1.952C298.348 1.888 298.465 1.80267 298.55 1.696C298.657 1.568 298.764 1.38667 298.87 1.152C299.02 0.746665 299.201 0.543999 299.414 0.543999C299.692 0.543999 299.83 0.757332 299.83 1.184L299.766 6.24C299.766 6.41067 299.734 6.54933 299.67 6.656C299.628 6.74133 299.553 6.77333 299.446 6.752C299.361 6.70933 299.265 6.60267 299.158 6.432C299.052 6.24 298.956 5.93067 298.87 5.504C298.764 5.056 298.646 4.68267 298.518 4.384C298.412 4.064 298.252 3.808 298.038 3.616C297.825 3.424 297.537 3.28533 297.174 3.2C296.833 3.09333 296.396 3.04 295.862 3.04H291.862V19.52C291.862 20.096 291.926 20.48 292.054 20.672C292.204 20.864 292.502 21.0133 292.95 21.12L295.446 21.664V22.176C294.316 22.112 292.492 22.08 289.974 22.08C287.478 22.08 285.974 22.112 285.462 22.176V21.664L287.702 21.216C288.321 21.088 288.726 20.9067 288.918 20.672C289.11 20.416 289.206 20.0213 289.206 19.488V3.04H285.27C284.886 3.01867 284.556 3.04 284.278 3.104C284.022 3.168 283.766 3.30667 283.51 3.52C283.254 3.73333 282.977 4.032 282.678 4.416C282.38 4.77867 282.017 5.25867 281.59 5.856C281.313 6.26133 281.1 6.51733 280.95 6.624C280.801 6.73067 280.694 6.74133 280.63 6.656C280.588 6.54933 280.577 6.37867 280.598 6.144C280.641 5.888 280.694 5.61067 280.758 5.312L281.75 1.408ZM304.542 20.352V3.808C304.542 3.44533 304.478 3.18933 304.35 3.04C304.243 2.89067 304.04 2.80533 303.742 2.784L300.926 2.496V1.984C301.139 2.048 303.379 2.08 307.646 2.08C308.904 2.08 309.907 2.048 310.654 1.984V2.528L308.766 2.72C308.467 2.76267 308.211 2.79467 307.998 2.816C307.784 2.816 307.603 2.848 307.454 2.912C307.304 2.95467 307.198 3.05067 307.134 3.2C307.07 3.328 307.038 3.53067 307.038 3.808V20.352C307.038 20.7147 307.091 20.96 307.198 21.088C307.304 21.1947 307.518 21.2587 307.838 21.28L310.654 21.44V22.208C310.227 22.1653 309.608 22.1333 308.798 22.112C308.008 22.0907 307.006 22.08 305.79 22.08C304.574 22.08 303.56 22.0907 302.75 22.112C301.96 22.1333 301.352 22.1653 300.926 22.208V21.44L302.814 21.344C303.134 21.3227 303.4 21.3013 303.614 21.28C303.848 21.2587 304.03 21.2267 304.158 21.184C304.307 21.1413 304.403 21.056 304.446 20.928C304.51 20.8 304.542 20.608 304.542 20.352ZM318.574 12.992L316.014 20.416C315.908 20.736 315.886 20.9813 315.95 21.152C316.014 21.3227 316.334 21.4293 316.91 21.472L319.15 21.632V22.144C318.937 22.1227 318.5 22.112 317.838 22.112C317.198 22.0907 316.324 22.08 315.214 22.08C314.105 22.08 313.22 22.0907 312.558 22.112C311.918 22.112 311.492 22.1227 311.278 22.144V21.632L313.294 21.472C313.998 21.408 314.489 21.0133 314.766 20.288L321.934 0.959999H322.862L329.934 20.064C330.084 20.4267 330.222 20.672 330.35 20.8C330.478 20.928 330.713 21.0453 331.054 21.152L332.814 21.696V22.176C331.726 22.112 330.329 22.08 328.622 22.08H327.022C326.532 22.08 326.062 22.0907 325.614 22.112C325.188 22.1333 324.793 22.1547 324.43 22.176V21.696L326.542 21.376C326.841 21.3333 327.076 21.2907 327.246 21.248C327.417 21.184 327.524 21.1093 327.566 21.024C327.63 20.9173 327.652 20.8 327.63 20.672C327.609 20.5227 327.556 20.3413 327.47 20.128L324.878 12.992H318.574ZM324.622 12.288L321.646 4.032L318.83 12.288H324.622ZM339.719 20.64C339.719 20.9173 339.761 21.1307 339.847 21.28C339.953 21.408 340.209 21.472 340.615 21.472H343.591C344.593 21.472 345.457 21.44 346.183 21.376C346.929 21.312 347.591 21.1307 348.167 20.832C348.743 20.5333 349.255 20.0853 349.703 19.488C350.151 18.8907 350.599 18.048 351.047 16.96H351.559L350.631 22.208C349.735 22.1653 348.551 22.1333 347.079 22.112C345.628 22.0907 343.847 22.08 341.735 22.08C339.623 22.08 337.873 22.0907 336.487 22.112C335.1 22.1333 334.065 22.1653 333.383 22.208V21.76L335.335 21.472C335.847 21.408 336.22 21.3333 336.455 21.248C336.711 21.1627 336.881 21.0453 336.967 20.896C337.073 20.7253 337.127 20.512 337.127 20.256C337.127 20 337.127 19.6693 337.127 19.264V3.936C337.127 3.53067 337.052 3.27467 336.903 3.168C336.775 3.04 336.572 2.95467 336.295 2.912L333.831 2.496V1.984C334.983 2.048 336.711 2.08 339.015 2.08C341.319 2.08 342.748 2.048 343.303 1.984V2.496L340.551 2.912C340.231 2.95467 340.007 3.02933 339.879 3.136C339.772 3.22133 339.719 3.488 339.719 3.936V20.64ZM363.438 6.816C362.82 4.02133 361.284 2.624 358.83 2.624C358.254 2.624 357.721 2.72 357.23 2.912C356.74 3.08267 356.302 3.31733 355.918 3.616C355.556 3.91467 355.268 4.26667 355.054 4.672C354.862 5.07733 354.766 5.504 354.766 5.952C354.766 6.31467 354.83 6.656 354.958 6.976C355.086 7.27467 355.332 7.59467 355.694 7.936C356.057 8.256 356.558 8.608 357.198 8.992C357.838 9.376 358.66 9.83467 359.662 10.368C360.686 10.88 361.55 11.3493 362.254 11.776C362.98 12.1813 363.577 12.6187 364.046 13.088C364.516 13.536 364.857 14.0373 365.07 14.592C365.284 15.1467 365.39 15.8187 365.39 16.608C365.39 18.4 364.761 19.8507 363.502 20.96C362.265 22.048 360.526 22.592 358.286 22.592C356.217 22.592 354.329 22.0907 352.622 21.088L352.974 16.32H353.422C353.508 17.088 353.721 17.8027 354.062 18.464C354.404 19.1253 354.82 19.7013 355.31 20.192C355.822 20.6613 356.388 21.0347 357.006 21.312C357.625 21.5893 358.254 21.728 358.894 21.728C359.47 21.728 360.036 21.6427 360.59 21.472C361.145 21.28 361.625 21.024 362.03 20.704C362.457 20.384 362.798 20 363.054 19.552C363.31 19.0827 363.438 18.5707 363.438 18.016C363.438 17.504 363.364 17.0667 363.214 16.704C363.065 16.32 362.798 15.9467 362.414 15.584C362.052 15.2213 361.55 14.848 360.91 14.464C360.27 14.08 359.46 13.632 358.478 13.12C356.58 12.1173 355.193 11.1467 354.318 10.208C353.444 9.26933 353.006 8.192 353.006 6.976C353.006 6.208 353.156 5.51467 353.454 4.896C353.774 4.256 354.212 3.70133 354.766 3.232C355.342 2.76267 356.014 2.4 356.782 2.144C357.55 1.888 358.404 1.76 359.342 1.76C361.198 1.76 362.745 2.22933 363.982 3.168L363.854 6.816H363.438ZM380.479 9.824L384.639 9.92V11.04L380.543 11.168V19.2C380.543 20.5013 380.991 21.216 381.887 21.344L384.031 21.664V22.176C382.943 22.112 381.812 22.08 380.639 22.08H379.743C378.207 22.08 377.044 22.112 376.255 22.176V21.696L377.247 21.472C377.588 21.408 377.844 21.3333 378.015 21.248C378.185 21.1627 378.313 21.0453 378.399 20.896C378.484 20.7467 378.527 20.5653 378.527 20.352C378.548 20.1173 378.559 19.8187 378.559 19.456V11.552C378.153 11.4667 377.375 11.4027 376.223 11.36V10.88C376.692 10.688 377.076 10.5173 377.375 10.368C377.673 10.1973 377.908 10.048 378.079 9.92C378.249 9.792 378.356 9.664 378.399 9.536C378.463 9.408 378.495 9.25867 378.495 9.088C378.495 8.576 378.58 7.904 378.751 7.072C378.921 6.21867 379.209 5.36533 379.615 4.512C380.041 3.65867 380.607 2.90133 381.311 2.24C382.036 1.55733 382.943 1.152 384.031 1.024C384.18 1.00267 384.329 0.991999 384.479 0.991999C384.628 0.970666 384.788 0.959999 384.959 0.959999C386.729 0.959999 387.615 1.408 387.615 2.304C387.615 2.624 387.497 2.88 387.263 3.072C387.049 3.264 386.761 3.36 386.399 3.36C386.271 3.36 386.079 3.31733 385.823 3.232C385.567 3.12533 385.289 3.01867 384.991 2.912C384.692 2.784 384.372 2.67733 384.031 2.592C383.711 2.48533 383.391 2.432 383.071 2.432C382.409 2.432 381.897 2.58133 381.535 2.88C381.172 3.17867 380.905 3.57333 380.735 4.064C380.585 4.53333 380.5 5.07733 380.479 5.696C380.457 6.31467 380.447 6.944 380.447 7.584C380.447 8.16 380.447 8.64 380.447 9.024C380.447 9.38667 380.457 9.65333 380.479 9.824ZM394.343 22.592C393.404 22.592 392.53 22.432 391.719 22.112C390.908 21.7707 390.204 21.312 389.607 20.736C389.01 20.1387 388.53 19.4347 388.167 18.624C387.826 17.8133 387.655 16.928 387.655 15.968C387.655 14.9867 387.826 14.0907 388.167 13.28C388.53 12.4693 389.02 11.776 389.639 11.2C390.258 10.6027 390.983 10.144 391.815 9.824C392.668 9.48267 393.596 9.312 394.599 9.312C395.623 9.312 396.551 9.49333 397.383 9.856C398.215 10.1973 398.93 10.6773 399.527 11.296C400.146 11.8933 400.615 12.608 400.935 13.44C401.276 14.2507 401.447 15.1147 401.447 16.032C401.447 16.9493 401.266 17.8133 400.903 18.624C400.562 19.4133 400.071 20.1067 399.431 20.704C398.812 21.28 398.066 21.7387 397.191 22.08C396.316 22.4213 395.367 22.592 394.343 22.592ZM389.959 16.224C389.959 18.016 390.375 19.424 391.207 20.448C392.039 21.472 393.127 21.984 394.471 21.984C395.132 21.984 395.751 21.8453 396.327 21.568C396.903 21.2693 397.394 20.864 397.799 20.352C398.226 19.8187 398.556 19.1893 398.791 18.464C399.026 17.7173 399.143 16.896 399.143 16C399.143 15.104 399.036 14.2827 398.823 13.536C398.61 12.7893 398.3 12.1493 397.895 11.616C397.49 11.0827 396.999 10.6667 396.423 10.368C395.847 10.0693 395.207 9.92 394.503 9.92C393.095 9.92 391.986 10.4533 391.175 11.52C390.364 12.5867 389.959 14.1547 389.959 16.224ZM403.519 22.208V21.696L405.119 21.408C405.545 21.3013 405.812 21.1413 405.919 20.928C406.047 20.7147 406.111 20.3307 406.111 19.776V13.632C406.111 13.2053 406.015 12.896 405.823 12.704C405.652 12.512 405.257 12.352 404.639 12.224L403.775 12.032L403.839 11.552C404.671 11.2533 405.364 10.912 405.919 10.528C406.473 10.1227 406.964 9.472 407.391 8.576H407.967C408.009 9.152 408.041 9.78133 408.063 10.464C408.084 11.1253 408.095 11.84 408.095 12.608C408.521 11.8187 409.108 11.0827 409.855 10.4C410.601 9.67467 411.252 9.312 411.807 9.312C412.34 9.312 412.745 9.46133 413.023 9.76C413.321 10.0587 413.471 10.4213 413.471 10.848C413.471 11.2533 413.353 11.5627 413.119 11.776C412.884 11.9893 412.596 12.096 412.255 12.096C411.913 12.096 411.54 12.0107 411.135 11.84C410.751 11.6693 410.42 11.584 410.143 11.584C409.908 11.584 409.663 11.7013 409.407 11.936C409.172 12.1493 408.959 12.416 408.767 12.736C408.575 13.056 408.415 13.3867 408.287 13.728C408.159 14.048 408.095 14.3147 408.095 14.528V19.84C408.095 20.3947 408.18 20.768 408.351 20.96C408.543 21.1307 408.937 21.2587 409.535 21.344L411.999 21.696V22.208C411.423 22.1653 410.783 22.1333 410.079 22.112C409.375 22.0907 408.617 22.08 407.807 22.08H407.391C406.644 22.08 405.951 22.0907 405.311 22.112C404.671 22.1333 404.073 22.1653 403.519 22.208ZM27.4 67.176C25.352 67.112 23.7413 67.08 22.568 67.08H21.928C21.3733 67.08 20.7973 67.0907 20.2 67.112C19.624 67.1333 18.9733 67.1547 18.248 67.176V66.664L20.168 66.28C20.6587 66.1733 20.968 66.0133 21.096 65.8C21.224 65.5867 21.288 65.1707 21.288 64.552V49.608L14.12 67.336L5.608 48.232V64.744C5.608 65.7467 5.928 66.28 6.568 66.344L9.512 66.664V67.176C8.232 67.112 6.952 67.08 5.672 67.08C4.392 67.08 2.90933 67.112 1.224 67.176V66.664L2.984 66.344C3.38933 66.28 3.69867 66.2053 3.912 66.12C4.14667 66.0347 4.31733 65.9387 4.424 65.832C4.552 65.704 4.62667 65.5547 4.648 65.384C4.66933 65.2133 4.68 65 4.68 64.744V47.848L1.768 47.496V46.984C2.10933 47.048 3.06933 47.08 4.648 47.08C6.184 47.08 7.22933 47.048 7.784 46.984L14.888 62.856L21.352 46.984C22.3973 47.048 23.432 47.08 24.456 47.08C25.5013 47.08 26.472 47.048 27.368 46.984V47.496L25.384 47.912C24.7653 48.04 24.3387 48.232 24.104 48.488C23.8693 48.744 23.752 49.1813 23.752 49.8V64.328C23.752 64.9893 23.8053 65.4373 23.912 65.672C24.04 65.8853 24.296 66.0347 24.68 66.12L27.4 66.664V67.176ZM40.1043 67.592C38.4829 67.592 37.0003 67.336 35.6562 66.824C34.3123 66.312 33.1496 65.5973 32.1683 64.68C31.2083 63.7627 30.4616 62.6853 29.9283 61.448C29.3949 60.1893 29.1283 58.824 29.1283 57.352C29.1283 55.88 29.3949 54.504 29.9283 53.224C30.4829 51.944 31.2509 50.824 32.2323 49.864C33.2349 48.904 34.4403 48.1467 35.8483 47.592C37.2563 47.0373 38.8243 46.76 40.5523 46.76C42.0029 46.76 43.3683 47.0267 44.6483 47.56C45.9283 48.072 47.0483 48.7973 48.0083 49.736C48.9683 50.6533 49.7256 51.7627 50.2803 53.064C50.8349 54.344 51.1123 55.7413 51.1123 57.256C51.1123 58.7707 50.8456 60.168 50.3123 61.448C49.7789 62.7067 49.0216 63.7947 48.0403 64.712C47.0803 65.608 45.9176 66.312 44.5522 66.824C43.2083 67.336 41.7256 67.592 40.1043 67.592ZM32.0083 57.512C32.0083 58.7493 32.2109 59.944 32.6163 61.096C33.0216 62.2267 33.5763 63.24 34.2803 64.136C34.9843 65.0107 35.8163 65.7147 36.7763 66.248C37.7576 66.76 38.8243 67.016 39.9763 67.016C42.7069 67.016 44.7763 66.1947 46.1843 64.552C47.5923 62.888 48.2963 60.52 48.2963 57.448C48.2963 55.9547 48.0936 54.5893 47.6883 53.352C47.3043 52.1147 46.7496 51.0587 46.0243 50.184C45.3203 49.288 44.4669 48.5947 43.4643 48.104C42.4616 47.6133 41.3416 47.368 40.1043 47.368C38.8243 47.368 37.6723 47.6347 36.6483 48.168C35.6456 48.68 34.8029 49.3947 34.1203 50.312C33.4376 51.2293 32.9149 52.3067 32.5523 53.544C32.1896 54.7813 32.0083 56.104 32.0083 57.512ZM56.4643 49.448C56.4643 48.936 56.4003 48.5733 56.2723 48.36C56.1443 48.1467 55.8989 48.008 55.5363 47.944L53.3603 47.56V47.048C54.0643 47.0693 54.8963 47.0693 55.8563 47.048C56.8376 47.0053 57.8403 46.9627 58.8643 46.92C59.8883 46.856 60.8803 46.8133 61.8403 46.792C62.8003 46.7493 63.6323 46.7387 64.3363 46.76C65.9363 46.8027 67.4296 47.0587 68.8162 47.528C70.2029 47.976 71.4083 48.6267 72.4323 49.48C73.4563 50.3333 74.2669 51.3787 74.8643 52.616C75.4616 53.832 75.7603 55.2187 75.7603 56.776C75.7603 58.376 75.4723 59.816 74.8963 61.096C74.3203 62.376 73.5309 63.464 72.5283 64.36C71.5256 65.256 70.3416 65.9387 68.9763 66.408C67.6323 66.8773 66.1816 67.112 64.6243 67.112L59.4403 66.984H53.0403V66.472L55.5363 65.928C55.8776 65.864 56.1123 65.7253 56.2403 65.512C56.3896 65.2987 56.4643 64.8933 56.4643 64.296V49.448ZM59.0883 63.528C59.0883 63.8693 59.1736 64.2107 59.3443 64.552C59.5363 64.872 59.8136 65.1707 60.1763 65.448C60.5389 65.704 60.9869 65.9173 61.5203 66.088C62.0536 66.2373 62.6723 66.312 63.3763 66.312C64.5923 66.312 65.7549 66.1093 66.8643 65.704C67.9949 65.2987 68.9763 64.7013 69.8083 63.912C70.6616 63.1013 71.3336 62.088 71.8243 60.872C72.3363 59.656 72.5923 58.248 72.5923 56.648C72.5923 55.2187 72.3363 53.9493 71.8243 52.84C71.3336 51.7093 70.6189 50.76 69.6803 49.992C68.7416 49.2027 67.6003 48.6053 66.2563 48.2C64.9123 47.7733 63.3976 47.56 61.7123 47.56C60.5603 47.56 59.8349 47.6773 59.5363 47.912C59.2376 48.1467 59.0883 48.6587 59.0883 49.448V63.528ZM97.5998 61.864C97.1304 63.7627 96.8638 65.5227 96.7998 67.144C94.1331 67.08 91.0184 67.048 87.4558 67.048C83.8718 67.048 80.7571 67.08 78.1118 67.144V66.6L80.4158 66.44C80.7784 66.4187 81.0238 66.344 81.1518 66.216C81.3011 66.088 81.3758 65.7893 81.3758 65.32V49.224C81.3758 48.712 81.3118 48.3493 81.1838 48.136C81.0771 47.9013 80.8744 47.7733 80.5758 47.752L78.2398 47.528V46.952C79.9678 47.016 82.8478 47.048 86.8798 47.048C90.8904 47.048 93.7491 47.016 95.4558 46.952C95.3918 47.6133 95.3598 48.3493 95.3598 49.16C95.3598 49.9707 95.3811 50.7173 95.4237 51.4H95.0078C94.6451 50.504 94.3464 49.8213 94.1118 49.352C93.8984 48.8613 93.7064 48.4987 93.5358 48.264C93.3651 48.008 93.1944 47.8587 93.0238 47.816C92.8531 47.752 92.6291 47.7093 92.3518 47.688H84.9278C84.5651 47.688 84.3198 47.7947 84.1918 48.008C84.0638 48.2 83.9998 48.5413 83.9998 49.032V56.392H91.1998C91.5624 56.392 91.8291 56.3387 91.9998 56.232C92.1704 56.104 92.2984 55.8373 92.3838 55.432L92.7998 53.192H93.4398C93.3118 55.7307 93.3118 58.2907 93.4398 60.872H93.0558L92.3518 58.376C92.2451 58.056 92.1171 57.8107 91.9678 57.64C91.8184 57.4693 91.6158 57.352 91.3598 57.288C91.1251 57.2027 90.8264 57.16 90.4638 57.16C90.1224 57.1387 89.6958 57.128 89.1838 57.128H83.9998V65.096C83.9998 65.5653 84.0851 65.896 84.2558 66.088C84.4264 66.2587 84.7891 66.344 85.3438 66.344H92.4478C92.9171 66.344 93.3331 66.3013 93.6958 66.216C94.0584 66.1093 94.4104 65.896 94.7518 65.576C95.0931 65.256 95.4344 64.808 95.7758 64.232C96.1384 63.6347 96.5331 62.8453 96.9598 61.864H97.5998ZM99.0158 66.696L100.776 66.504C101.394 66.44 101.8 66.3227 101.992 66.152C102.205 65.96 102.312 65.5227 102.312 64.84V49.864C102.312 49.544 102.29 49.2667 102.248 49.032C102.226 48.7973 102.162 48.6053 102.056 48.456C101.949 48.3067 101.768 48.1787 101.512 48.072C101.277 47.9653 100.957 47.88 100.552 47.816L99.1438 47.56C99.1438 47.4747 99.1331 47.4 99.1118 47.336C99.1118 47.2507 99.1118 47.1653 99.1118 47.08C99.5598 47.08 99.9438 47.0907 100.264 47.112C100.584 47.112 100.861 47.0907 101.096 47.048L105.288 46.824C105.821 46.76 106.376 46.728 106.952 46.728C109.405 46.728 111.229 47.0907 112.424 47.816C113.64 48.5413 114.248 49.8 114.248 51.592C114.248 52.8507 113.928 53.8533 113.288 54.6C112.669 55.3253 111.709 55.9973 110.408 56.616L113.928 62.856C114.418 63.7093 114.845 64.3707 115.208 64.84C115.57 65.288 115.922 65.64 116.264 65.896C116.626 66.1307 117 66.2907 117.384 66.376C117.789 66.44 118.28 66.5147 118.856 66.6V67.112C118.408 67.0907 117.917 67.08 117.384 67.08C116.872 67.08 116.317 67.08 115.72 67.08C115.122 67.08 114.621 67.08 114.216 67.08C113.81 67.08 113.49 67.0907 113.256 67.112L108.36 58.056C108.018 57.3947 107.485 57.064 106.76 57.064H104.968V64.648C104.968 65.16 105.064 65.5333 105.256 65.768C105.469 66.0027 105.832 66.184 106.344 66.312L107.912 66.696V67.208C106.376 67.1227 104.829 67.08 103.272 67.08C101.714 67.08 100.296 67.1227 99.0158 67.208V66.696ZM104.968 56.2C109.277 56.3493 111.432 54.984 111.432 52.104C111.432 50.76 110.952 49.6827 109.992 48.872C109.032 48.0613 107.72 47.656 106.056 47.656C105.885 47.656 105.704 47.6667 105.512 47.688C105.341 47.688 105.16 47.6987 104.968 47.72V56.2ZM123.08 64.936C123.08 65.4693 123.144 65.832 123.272 66.024C123.4 66.1947 123.666 66.3013 124.072 66.344L127.016 66.664V67.176C125.736 67.112 124.456 67.08 123.176 67.08C121.896 67.08 120.413 67.112 118.728 67.176V66.664L120.488 66.344C121.213 66.216 121.672 66.0667 121.864 65.896C122.077 65.7253 122.184 65.4053 122.184 64.936V50.984C122.184 50.0027 122.077 49.2667 121.864 48.776C121.65 48.2853 121.245 47.9973 120.648 47.912L118.76 47.624V47.08H122.6C123.048 47.08 123.357 47.1333 123.528 47.24C123.72 47.3467 123.976 47.5707 124.296 47.912L138.76 63.688L138.44 49.288C138.418 48.6907 138.312 48.3067 138.12 48.136C137.949 47.9653 137.672 47.8587 137.288 47.816L134.536 47.496V46.984C135.133 47.048 136.285 47.08 137.992 47.08C139.677 47.08 140.829 47.048 141.448 46.984V47.496L140.104 47.624C139.741 47.6667 139.517 47.7947 139.432 48.008C139.346 48.2213 139.314 48.648 139.336 49.288L139.656 67.496H138.888L123.08 50.536V64.936ZM169.143 66.664L170.071 66.472C170.583 66.3653 170.946 66.2373 171.159 66.088C171.373 65.9173 171.479 65.5973 171.479 65.128V59.4C171.479 58.1413 171.234 57.224 170.743 56.648C170.253 56.072 169.463 55.784 168.375 55.784C166.967 55.784 165.741 56.4027 164.695 57.64V64.872C164.695 65.32 164.738 65.6613 164.823 65.896C164.909 66.1093 165.143 66.2587 165.527 66.344L167.159 66.696V67.208C166.071 67.1227 164.919 67.08 163.703 67.08C162.487 67.08 161.293 67.1227 160.119 67.208V66.696L161.047 66.472C161.645 66.3227 162.071 66.1627 162.327 65.992C162.605 65.8 162.743 65.48 162.743 65.032V59.336C162.743 58.248 162.487 57.3947 161.975 56.776C161.463 56.136 160.759 55.816 159.863 55.816C159.501 55.816 159.085 55.8907 158.615 56.04C158.167 56.1893 157.741 56.392 157.335 56.648C156.93 56.8827 156.589 57.1493 156.311 57.448C156.034 57.7467 155.895 58.056 155.895 58.376V64.904C155.895 65.416 155.959 65.768 156.087 65.96C156.237 66.152 156.461 66.28 156.759 66.344L158.391 66.696V67.208C156.258 67.0587 154.071 67.0587 151.831 67.208V66.696L152.759 66.504C153.229 66.3973 153.538 66.248 153.687 66.056C153.858 65.864 153.943 65.544 153.943 65.096V58.184C153.943 57.928 153.922 57.7147 153.879 57.544C153.837 57.352 153.751 57.2027 153.623 57.096C153.517 56.968 153.346 56.872 153.111 56.808C152.898 56.744 152.599 56.68 152.215 56.616V56.104C153.325 55.8053 154.349 55.016 155.287 53.736H155.895V56.808C156.834 55.9547 157.666 55.3253 158.391 54.92C159.138 54.5147 159.959 54.312 160.855 54.312C161.303 54.312 161.698 54.344 162.039 54.408C162.402 54.472 162.722 54.5893 162.999 54.76C163.298 54.9307 163.575 55.176 163.831 55.496C164.087 55.7947 164.343 56.1787 164.599 56.648C165.325 55.9013 166.061 55.3253 166.807 54.92C167.575 54.5147 168.514 54.312 169.623 54.312C170.775 54.312 171.693 54.696 172.375 55.464C173.079 56.2107 173.431 57.288 173.431 58.696V65.16C173.431 65.9493 173.602 66.376 173.943 66.44L175.383 66.696V67.208C174.295 67.1227 173.197 67.08 172.087 67.08C170.978 67.08 169.997 67.112 169.143 67.176V66.664ZM188.508 59.048H179.58C179.516 59.4747 179.484 59.9013 179.484 60.328C179.484 61.16 179.601 61.928 179.836 62.632C180.07 63.3147 180.401 63.9013 180.828 64.392C181.276 64.8827 181.809 65.2667 182.428 65.544C183.068 65.8213 183.772 65.96 184.54 65.96C185.286 65.96 185.969 65.8107 186.588 65.512C187.206 65.2133 187.878 64.7227 188.604 64.04L188.732 64.808C187.217 66.664 185.286 67.592 182.94 67.592C182.172 67.592 181.446 67.4213 180.764 67.08C180.102 66.7387 179.526 66.28 179.036 65.704C178.545 65.1067 178.161 64.4133 177.884 63.624C177.606 62.8133 177.468 61.9387 177.468 61C177.468 60.0613 177.617 59.1867 177.916 58.376C178.236 57.5653 178.673 56.8613 179.228 56.264C179.782 55.6453 180.433 55.1653 181.18 54.824C181.926 54.4827 182.748 54.312 183.644 54.312C184.326 54.312 184.956 54.4293 185.532 54.664C186.108 54.8773 186.609 55.1973 187.036 55.624C187.484 56.0293 187.825 56.5307 188.06 57.128C188.316 57.704 188.465 58.344 188.508 59.048ZM179.74 58.376H184.604C185.286 58.376 185.788 58.3333 186.108 58.248C186.449 58.1413 186.534 57.8 186.364 57.224C186.193 56.6693 185.894 56.168 185.468 55.72C185.062 55.272 184.444 55.048 183.612 55.048C182.588 55.048 181.734 55.3467 181.052 55.944C180.39 56.5413 179.953 57.352 179.74 58.376ZM206.224 67.176C204.005 67.048 201.787 67.048 199.568 67.176V66.664L201.328 66.408C201.797 66.344 202.032 65.928 202.032 65.16V59.752C202.032 58.5573 201.829 57.5973 201.424 56.872C201.019 56.1467 200.229 55.784 199.056 55.784C197.691 55.784 196.357 56.4347 195.056 57.736V65.512C195.056 65.8533 195.312 66.088 195.824 66.216L197.712 66.664V67.176C197.413 67.1547 197.061 67.1333 196.656 67.112C196.251 67.0907 195.803 67.08 195.312 67.08H194.256C192.741 67.08 191.589 67.112 190.8 67.176V66.664L192.496 66.344C192.923 66.28 193.136 65.96 193.136 65.384V59.048C193.136 58.3867 192.997 57.9387 192.72 57.704C192.464 57.4693 191.995 57.2987 191.312 57.192V56.616C192.656 56.296 193.733 55.336 194.544 53.736H195.056V56.616C195.867 55.912 196.763 55.3573 197.744 54.952C198.725 54.5253 199.589 54.312 200.336 54.312C202.789 54.312 204.016 55.7733 204.016 58.696V65.064C204.016 65.4693 204.069 65.7787 204.176 65.992C204.283 66.2053 204.496 66.344 204.816 66.408L206.224 66.664V67.176ZM230.871 55.848L234.775 64.488L239.927 51.304C240.375 50.152 240.599 49.2987 240.599 48.744C240.599 48.1893 240.333 47.8587 239.799 47.752L238.487 47.496V46.984C238.701 47.048 239.511 47.08 240.919 47.08C242.327 47.08 243.213 47.048 243.575 46.984V47.496L242.615 47.784C242.295 47.8907 242.05 48.04 241.879 48.232C241.709 48.424 241.538 48.7547 241.367 49.224L234.423 67.784H233.751L229.559 58.6L225.111 67.784H224.439L217.303 50.088C217.111 49.64 216.951 49.2773 216.823 49C216.717 48.7013 216.599 48.4773 216.471 48.328C216.365 48.1573 216.247 48.0293 216.119 47.944C216.013 47.8587 215.863 47.784 215.671 47.72L214.743 47.496V46.984C215.277 47.048 216.269 47.08 217.719 47.08C219.191 47.08 220.311 47.048 221.079 46.984V47.496L219.575 47.784C219.405 47.8267 219.319 47.9227 219.319 48.072C219.319 48.3707 219.554 49.096 220.023 50.248L225.815 64.84L229.143 57.704L225.815 50.056C225.602 49.5867 225.421 49.2133 225.271 48.936C225.122 48.6373 224.983 48.4133 224.855 48.264C224.749 48.0933 224.642 47.976 224.535 47.912C224.429 47.848 224.311 47.8053 224.183 47.784L222.615 47.496V46.984C223.213 47.048 224.461 47.08 226.359 47.08C228.237 47.08 229.421 47.048 229.911 46.984V47.496L228.055 47.848C227.863 47.8907 227.767 48.008 227.767 48.2C227.767 48.456 228.002 49.128 228.471 50.216L230.423 54.856L232.951 49.224C233.122 48.8827 233.143 48.552 233.015 48.232C232.909 47.912 232.695 47.7307 232.375 47.688L231.287 47.496V46.984C231.821 47.048 232.823 47.08 234.295 47.08C235.746 47.08 236.685 47.048 237.111 46.984V47.496L235.607 47.784C234.882 47.9333 234.327 48.424 233.943 49.256L230.871 55.848ZM264.225 61.864C263.755 63.7627 263.489 65.5227 263.425 67.144C260.758 67.08 257.643 67.048 254.081 67.048C250.497 67.048 247.382 67.08 244.737 67.144V66.6L247.041 66.44C247.403 66.4187 247.649 66.344 247.777 66.216C247.926 66.088 248.001 65.7893 248.001 65.32V49.224C248.001 48.712 247.937 48.3493 247.809 48.136C247.702 47.9013 247.499 47.7733 247.201 47.752L244.865 47.528V46.952C246.593 47.016 249.473 47.048 253.505 47.048C257.515 47.048 260.374 47.016 262.081 46.952C262.017 47.6133 261.985 48.3493 261.985 49.16C261.985 49.9707 262.006 50.7173 262.049 51.4H261.633C261.27 50.504 260.971 49.8213 260.737 49.352C260.523 48.8613 260.331 48.4987 260.161 48.264C259.99 48.008 259.819 47.8587 259.649 47.816C259.478 47.752 259.254 47.7093 258.977 47.688H251.553C251.19 47.688 250.945 47.7947 250.817 48.008C250.689 48.2 250.625 48.5413 250.625 49.032V56.392H257.825C258.187 56.392 258.454 56.3387 258.625 56.232C258.795 56.104 258.923 55.8373 259.009 55.432L259.425 53.192H260.065C259.937 55.7307 259.937 58.2907 260.065 60.872H259.681L258.977 58.376C258.87 58.056 258.742 57.8107 258.593 57.64C258.443 57.4693 258.241 57.352 257.985 57.288C257.75 57.2027 257.451 57.16 257.089 57.16C256.747 57.1387 256.321 57.128 255.809 57.128H250.625V65.096C250.625 65.5653 250.71 65.896 250.881 66.088C251.051 66.2587 251.414 66.344 251.969 66.344H259.073C259.542 66.344 259.958 66.3013 260.321 66.216C260.683 66.1093 261.035 65.896 261.377 65.576C261.718 65.256 262.059 64.808 262.401 64.232C262.763 63.6347 263.158 62.8453 263.585 61.864H264.225ZM272.137 57.992L269.577 65.416C269.47 65.736 269.449 65.9813 269.513 66.152C269.577 66.3227 269.897 66.4293 270.473 66.472L272.713 66.632V67.144C272.499 67.1227 272.062 67.112 271.401 67.112C270.761 67.0907 269.886 67.08 268.777 67.08C267.667 67.08 266.782 67.0907 266.121 67.112C265.481 67.112 265.054 67.1227 264.841 67.144V66.632L266.857 66.472C267.561 66.408 268.051 66.0133 268.329 65.288L275.497 45.96H276.425L283.497 65.064C283.646 65.4267 283.785 65.672 283.913 65.8C284.041 65.928 284.275 66.0453 284.617 66.152L286.377 66.696V67.176C285.289 67.112 283.891 67.08 282.185 67.08H280.585C280.094 67.08 279.625 67.0907 279.177 67.112C278.75 67.1333 278.355 67.1547 277.993 67.176V66.696L280.105 66.376C280.403 66.3333 280.638 66.2907 280.809 66.248C280.979 66.184 281.086 66.1093 281.129 66.024C281.193 65.9173 281.214 65.8 281.193 65.672C281.171 65.5227 281.118 65.3413 281.033 65.128L278.441 57.992H272.137ZM278.185 57.288L275.209 49.032L272.393 57.288H278.185ZM287.297 66.696L289.057 66.504C289.676 66.44 290.081 66.3227 290.273 66.152C290.486 65.96 290.593 65.5227 290.593 64.84V49.864C290.593 49.544 290.572 49.2667 290.529 49.032C290.508 48.7973 290.444 48.6053 290.337 48.456C290.23 48.3067 290.049 48.1787 289.793 48.072C289.558 47.9653 289.238 47.88 288.833 47.816L287.425 47.56C287.425 47.4747 287.414 47.4 287.393 47.336C287.393 47.2507 287.393 47.1653 287.393 47.08C287.841 47.08 288.225 47.0907 288.545 47.112C288.865 47.112 289.142 47.0907 289.377 47.048L293.569 46.824C294.102 46.76 294.657 46.728 295.233 46.728C297.686 46.728 299.51 47.0907 300.705 47.816C301.921 48.5413 302.529 49.8 302.529 51.592C302.529 52.8507 302.209 53.8533 301.569 54.6C300.95 55.3253 299.99 55.9973 298.689 56.616L302.209 62.856C302.7 63.7093 303.126 64.3707 303.489 64.84C303.852 65.288 304.204 65.64 304.545 65.896C304.908 66.1307 305.281 66.2907 305.665 66.376C306.07 66.44 306.561 66.5147 307.137 66.6V67.112C306.689 67.0907 306.198 67.08 305.665 67.08C305.153 67.08 304.598 67.08 304.001 67.08C303.404 67.08 302.902 67.08 302.497 67.08C302.092 67.08 301.772 67.0907 301.537 67.112L296.641 58.056C296.3 57.3947 295.766 57.064 295.041 57.064H293.249V64.648C293.249 65.16 293.345 65.5333 293.537 65.768C293.75 66.0027 294.113 66.184 294.625 66.312L296.193 66.696V67.208C294.657 67.1227 293.11 67.08 291.553 67.08C289.996 67.08 288.577 67.1227 287.297 67.208V66.696ZM293.249 56.2C297.558 56.3493 299.713 54.984 299.713 52.104C299.713 50.76 299.233 49.6827 298.273 48.872C297.313 48.0613 296.001 47.656 294.337 47.656C294.166 47.656 293.985 47.6667 293.793 47.688C293.622 47.688 293.441 47.6987 293.249 47.72V56.2ZM318.657 51.816C318.038 49.0213 316.502 47.624 314.049 47.624C313.473 47.624 312.94 47.72 312.449 47.912C311.958 48.0827 311.521 48.3173 311.137 48.616C310.774 48.9147 310.486 49.2667 310.273 49.672C310.081 50.0773 309.985 50.504 309.985 50.952C309.985 51.3147 310.049 51.656 310.177 51.976C310.305 52.2747 310.55 52.5947 310.913 52.936C311.276 53.256 311.777 53.608 312.417 53.992C313.057 54.376 313.878 54.8347 314.881 55.368C315.905 55.88 316.769 56.3493 317.473 56.776C318.198 57.1813 318.796 57.6187 319.265 58.088C319.734 58.536 320.076 59.0373 320.289 59.592C320.502 60.1467 320.609 60.8187 320.609 61.608C320.609 63.4 319.98 64.8507 318.721 65.96C317.484 67.048 315.745 67.592 313.505 67.592C311.436 67.592 309.548 67.0907 307.841 66.088L308.193 61.32H308.641C308.726 62.088 308.94 62.8027 309.281 63.464C309.622 64.1253 310.038 64.7013 310.529 65.192C311.041 65.6613 311.606 66.0347 312.225 66.312C312.844 66.5893 313.473 66.728 314.113 66.728C314.689 66.728 315.254 66.6427 315.809 66.472C316.364 66.28 316.844 66.024 317.249 65.704C317.676 65.384 318.017 65 318.273 64.552C318.529 64.0827 318.657 63.5707 318.657 63.016C318.657 62.504 318.582 62.0667 318.433 61.704C318.284 61.32 318.017 60.9467 317.633 60.584C317.27 60.2213 316.769 59.848 316.129 59.464C315.489 59.08 314.678 58.632 313.697 58.12C311.798 57.1173 310.412 56.1467 309.537 55.208C308.662 54.2693 308.225 53.192 308.225 51.976C308.225 51.208 308.374 50.5147 308.673 49.896C308.993 49.256 309.43 48.7013 309.985 48.232C310.561 47.7627 311.233 47.4 312.001 47.144C312.769 46.888 313.622 46.76 314.561 46.76C316.417 46.76 317.964 47.2293 319.201 48.168L319.073 51.816H318.657Z" fill="#060606"/>
</svg>
