<svg width="460" height="397" viewBox="0 0 460 397" fill="none" xmlns="http://www.w3.org/2000/svg">
<path d="M41.72 30.24L51.08 51.04L63.32 19.76C64.4933 16.88 65.0533 14.8267 65 13.6C65 12.32 64.3333 11.5467 63 11.28L59.72 10.64V8.96C60.2533 9.12 62.28 9.2 65.8 9.2C67.6133 9.2 69.16 9.2 70.44 9.2C71.72 9.14666 72.5733 9.06666 73 8.96V10.64L70.6 11.36C69.8 11.6267 69.1867 12.0267 68.76 12.56C68.3333 13.04 67.9067 13.84 67.48 14.96L50.12 60.96H47.48L37.64 38.88L26.84 60.96H24.68L6.76 16.64C6.28 15.52 5.85333 14.64 5.48 14C5.16 13.3067 4.84 12.8 4.52 12.48C4.25333 12.1067 3.96 11.84 3.64 11.68C3.37333 11.52 3.05333 11.36 2.68 11.2L0.92 10.64V8.96C2.25333 9.12 4.73333 9.2 8.36 9.2C12.04 9.2 14.84 9.12 16.76 8.96V10.64L14.36 11.2C13.9333 11.3067 13.72 11.5467 13.72 11.92C13.72 12.2933 13.8533 12.8533 14.12 13.6C14.44 14.3467 14.8933 15.4667 15.48 16.96L29.24 51.6L36.36 36.64L28.04 17.76C26.9733 15.36 26.12 13.7333 25.48 12.88C24.84 11.9733 24.1733 11.44 23.48 11.28L20.6 10.64V8.96C22.0933 9.12 25.2133 9.2 29.96 9.2C34.6533 9.2 37.6133 9.12 38.84 8.96V10.64L35.64 11.28C34.8933 11.44 34.4667 11.8133 34.36 12.4C34.36 12.6667 34.4667 13.1733 34.68 13.92C34.8933 14.6133 35.2933 15.6533 35.88 17.04L40.52 28L46.44 14.96C46.8667 14.1067 46.92 13.28 46.6 12.48C46.3333 11.68 45.8 11.2267 45 11.12L42.28 10.64V8.96C43.6133 9.12 46.12 9.2 49.8 9.2C53.4267 9.2 55.7733 9.12 56.84 8.96V10.64L53.08 11.36C51.2667 11.7333 49.88 12.96 48.92 15.04L41.72 30.24ZM79.9894 15.44C79.9894 13.9467 79.5627 12.9067 78.7094 12.32C77.856 11.68 76.496 11.1467 74.6294 10.72V9.28C75.1627 9.28 75.856 9.2 76.7094 9.04C77.616 8.88 78.576 8.69333 79.5894 8.48C80.6027 8.21333 81.616 7.92 82.6294 7.6C83.696 7.22666 84.656 6.82667 85.5094 6.4H87.4294V34.32C89.0827 32.1333 90.7627 30.48 92.4694 29.36C94.2294 28.1867 96.2027 27.52 98.3894 27.36C98.816 27.36 99.2427 27.36 99.6694 27.36C100.096 27.36 100.523 27.3867 100.949 27.44C103.563 27.6533 105.616 28.6667 107.109 30.48C108.603 32.2933 109.349 34.8533 109.349 38.16V54.48C109.349 55.0133 109.456 55.4933 109.669 55.92C109.883 56.3467 110.443 56.6933 111.349 56.96L114.069 57.76V59.52C112.416 59.4133 110.843 59.3333 109.349 59.28C107.909 59.2267 106.709 59.2 105.749 59.2C104.843 59.2 103.589 59.2267 101.989 59.28C100.443 59.3333 98.8427 59.4133 97.1894 59.52V57.76L99.9894 56.88C100.736 56.6133 101.243 56.2933 101.509 55.92C101.776 55.4933 101.909 54.8267 101.909 53.92V38.8C101.909 36.8267 101.456 35.28 100.549 34.16C99.6427 33.04 98.176 32.48 96.1494 32.48C94.1227 32.48 92.3894 33.0933 90.9494 34.32C89.5627 35.5467 88.3894 36.9067 87.4294 38.4V53.92C87.4294 54.5067 87.536 55.0133 87.7494 55.44C87.9627 55.8667 88.3627 56.1867 88.9494 56.4L93.1894 57.76V59.52C92.336 59.4133 91.0827 59.3333 89.4294 59.28C87.776 59.2267 85.936 59.2 83.9094 59.2C81.936 59.2 80.176 59.2267 78.6294 59.28C77.136 59.3333 75.9627 59.4133 75.1094 59.52V57.76L78.3094 56.88C79.0027 56.6667 79.456 56.3467 79.6694 55.92C79.8827 55.4933 79.9894 54.96 79.9894 54.32V15.44ZM130.809 60.24C128.623 60.24 126.729 59.8667 125.129 59.12C123.529 58.32 122.196 57.2533 121.129 55.92C120.116 54.5867 119.343 53.0133 118.809 51.2C118.329 49.3867 118.089 47.44 118.089 45.36C118.089 42.5333 118.543 40.0533 119.449 37.92C120.356 35.7333 121.529 33.8933 122.969 32.4C124.463 30.9067 126.169 29.7867 128.089 29.04C130.063 28.2933 132.089 27.92 134.169 27.92C135.449 27.92 136.596 28.0267 137.609 28.24C138.623 28.4533 139.503 28.6933 140.249 28.96C141.103 29.2267 141.876 29.5467 142.569 29.92L147.449 27.28L148.169 27.52C148.169 31.68 148.169 35.8133 148.169 39.92C148.223 43.9733 148.249 48.08 148.249 52.24C148.249 54.3733 149.156 55.3867 150.969 55.28C151.396 55.28 151.743 55.2267 152.009 55.12C152.276 54.96 152.516 54.8267 152.729 54.72C152.943 54.56 153.156 54.3733 153.369 54.16L153.929 54.96C153.503 55.9733 152.969 56.8533 152.329 57.6C151.743 58.2933 151.023 58.9067 150.169 59.44C149.316 59.9733 148.249 60.24 146.969 60.24C144.889 60.24 143.396 59.6 142.489 58.32C141.583 57.04 141.129 55.3867 141.129 53.36V51.28C140.809 52.4 140.383 53.52 139.849 54.64C139.316 55.7067 138.623 56.6667 137.769 57.52C136.969 58.32 135.983 58.9867 134.809 59.52C133.689 60 132.356 60.24 130.809 60.24ZM141.129 42.16C141.129 40.72 141.023 39.3333 140.809 38C140.649 36.6667 140.303 35.4933 139.769 34.48C139.236 33.4133 138.516 32.56 137.609 31.92C136.703 31.28 135.503 30.96 134.009 30.96C133.103 30.96 132.143 31.1733 131.129 31.6C130.116 32.0267 129.183 32.72 128.329 33.68C127.476 34.64 126.783 35.92 126.249 37.52C125.716 39.12 125.449 41.0667 125.449 43.36C125.449 45.0667 125.609 46.6933 125.929 48.24C126.303 49.7333 126.809 51.04 127.449 52.16C128.143 53.28 128.969 54.1867 129.929 54.88C130.943 55.52 132.089 55.84 133.369 55.84C134.543 55.84 135.609 55.4933 136.569 54.8C137.529 54.1067 138.329 53.2 138.969 52.08C139.663 50.9067 140.196 49.5467 140.569 48C140.943 46.4533 141.129 44.8 141.129 43.04V42.16ZM168.733 20.64H170.173C170.173 22.08 170.173 23.52 170.173 24.96C170.226 26.3467 170.253 27.76 170.253 29.2L180.573 28.96V32.4L170.253 32.72V47.84C170.253 50.5067 170.493 52.5333 170.973 53.92C171.506 55.2533 172.76 55.8667 174.733 55.76C175.533 55.76 176.413 55.6533 177.373 55.44C178.386 55.1733 179.506 54.5867 180.733 53.68L181.453 54.8C180.546 56.1867 179.24 57.4933 177.533 58.72C175.88 59.8933 173.64 60.48 170.813 60.48C167.986 60.48 165.933 59.76 164.653 58.32C163.426 56.8267 162.813 54.1867 162.813 50.4V32.88C162.066 32.88 161.346 32.9067 160.653 32.96C159.96 32.96 159.24 32.96 158.493 32.96C157.746 32.96 157.346 32.6667 157.293 32.08C157.293 31.4933 157.666 31.04 158.413 30.72C159.533 30.24 160.546 29.7333 161.453 29.2C162.413 28.6667 163.186 28.1067 163.773 27.52C164.36 26.9333 165.186 26.0533 166.253 24.88C167.32 23.7067 168.146 22.2933 168.733 20.64ZM193.934 -9.53674e-07C195.48 0.0533317 196.787 0.719998 197.854 2C198.974 3.22666 199.534 4.77333 199.534 6.64C199.534 8.61333 198.867 10.6133 197.534 12.64V12.56C196.894 13.6267 196.094 14.72 195.134 15.84C194.227 16.96 193.16 18.0267 191.934 19.04C189.534 21.12 187.934 22.16 187.134 22.16C186.92 22.16 186.68 22.1067 186.414 22C186.147 21.84 185.96 21.6267 185.854 21.36C185.747 21.0933 185.747 20.7733 185.854 20.4C185.96 20.0267 186.307 19.6 186.894 19.12C191.48 15.4933 193.774 12.56 193.774 10.32C193.774 9.30666 193.267 8.61333 192.254 8.24C190.44 7.49333 189.534 6.26666 189.534 4.56C189.534 3.33333 189.934 2.26666 190.734 1.36C191.534 0.453331 192.6 -9.53674e-07 193.934 -9.53674e-07ZM225.509 37.2C225.349 36.4 225.056 35.5733 224.629 34.72C224.256 33.8667 223.749 33.0933 223.109 32.4C222.469 31.6533 221.723 31.04 220.869 30.56C220.016 30.08 219.029 29.84 217.909 29.84C216.363 29.84 215.056 30.16 213.989 30.8C212.923 31.44 212.389 32.56 212.389 34.16C212.389 35.7067 213.109 36.9067 214.549 37.76C216.043 38.56 218.123 39.36 220.789 40.16C224.096 41.2267 226.389 42.56 227.669 44.16C228.949 45.76 229.589 47.6267 229.589 49.76C229.589 51.6267 229.216 53.2533 228.469 54.64C227.776 55.9733 226.816 57.0933 225.589 58C224.416 58.8533 223.029 59.4933 221.429 59.92C219.883 60.2933 218.256 60.48 216.549 60.48C214.629 60.48 212.816 60.32 211.109 60C209.456 59.6267 208.016 59.0933 206.789 58.4L205.989 48.88H207.749C208.496 51.76 209.696 54 211.349 55.6C213.003 57.1467 215.003 57.92 217.349 57.92C219.056 57.92 220.523 57.4933 221.749 56.64C222.976 55.7333 223.589 54.4267 223.589 52.72C223.589 51.1733 223.003 49.9467 221.829 49.04C220.656 48.1333 218.789 47.3067 216.229 46.56C212.443 45.4933 209.776 44.1867 208.229 42.64C206.736 41.0933 205.989 39.0133 205.989 36.4C205.989 34.96 206.336 33.68 207.029 32.56C207.723 31.3867 208.629 30.4267 209.749 29.68C210.869 28.88 212.176 28.2933 213.669 27.92C215.163 27.4933 216.709 27.28 218.309 27.28C219.963 27.28 221.536 27.44 223.029 27.76C224.523 28.08 225.803 28.56 226.869 29.2L227.349 37.2H225.509ZM265.296 20.64H266.736C266.736 22.08 266.736 23.52 266.736 24.96C266.789 26.3467 266.816 27.76 266.816 29.2L277.136 28.96V32.4L266.816 32.72V47.84C266.816 50.5067 267.056 52.5333 267.536 53.92C268.069 55.2533 269.322 55.8667 271.296 55.76C272.096 55.76 272.976 55.6533 273.936 55.44C274.949 55.1733 276.069 54.5867 277.296 53.68L278.016 54.8C277.109 56.1867 275.802 57.4933 274.096 58.72C272.442 59.8933 270.202 60.48 267.376 60.48C264.549 60.48 262.496 59.76 261.216 58.32C259.989 56.8267 259.376 54.1867 259.376 50.4V32.88C258.629 32.88 257.909 32.9067 257.216 32.96C256.522 32.96 255.802 32.96 255.056 32.96C254.309 32.96 253.909 32.6667 253.856 32.08C253.856 31.4933 254.229 31.04 254.976 30.72C256.096 30.24 257.109 29.7333 258.016 29.2C258.976 28.6667 259.749 28.1067 260.336 27.52C260.922 26.9333 261.749 26.0533 262.816 24.88C263.882 23.7067 264.709 22.2933 265.296 20.64ZM285.536 15.44C285.536 13.9467 285.11 12.9067 284.256 12.32C283.403 11.68 282.043 11.1467 280.176 10.72V9.28C280.71 9.28 281.403 9.2 282.256 9.04C283.163 8.88 284.123 8.69333 285.136 8.48C286.15 8.21333 287.163 7.92 288.176 7.6C289.243 7.22666 290.203 6.82667 291.056 6.4H292.976V34.32C294.63 32.1333 296.31 30.48 298.016 29.36C299.776 28.1867 301.75 27.52 303.936 27.36C304.363 27.36 304.79 27.36 305.216 27.36C305.643 27.36 306.07 27.3867 306.496 27.44C309.11 27.6533 311.163 28.6667 312.656 30.48C314.15 32.2933 314.896 34.8533 314.896 38.16V54.48C314.896 55.0133 315.003 55.4933 315.216 55.92C315.43 56.3467 315.99 56.6933 316.896 56.96L319.616 57.76V59.52C317.963 59.4133 316.39 59.3333 314.896 59.28C313.456 59.2267 312.256 59.2 311.296 59.2C310.39 59.2 309.136 59.2267 307.536 59.28C305.99 59.3333 304.39 59.4133 302.736 59.52V57.76L305.536 56.88C306.283 56.6133 306.79 56.2933 307.056 55.92C307.323 55.4933 307.456 54.8267 307.456 53.92V38.8C307.456 36.8267 307.003 35.28 306.096 34.16C305.19 33.04 303.723 32.48 301.696 32.48C299.67 32.48 297.936 33.0933 296.496 34.32C295.11 35.5467 293.936 36.9067 292.976 38.4V53.92C292.976 54.5067 293.083 55.0133 293.296 55.44C293.51 55.8667 293.91 56.1867 294.496 56.4L298.736 57.76V59.52C297.883 59.4133 296.63 59.3333 294.976 59.28C293.323 59.2267 291.483 59.2 289.456 59.2C287.483 59.2 285.723 59.2267 284.176 59.28C282.683 59.3333 281.51 59.4133 280.656 59.52V57.76L283.856 56.88C284.55 56.6667 285.003 56.3467 285.216 55.92C285.43 55.4933 285.536 54.96 285.536 54.32V15.44ZM352.356 39.92H331.476C331.37 40.4533 331.29 40.8533 331.236 41.12C331.236 41.3867 331.236 41.7867 331.236 42.32C331.236 44.1867 331.503 45.8933 332.036 47.44C332.57 48.9867 333.316 50.32 334.276 51.44C335.236 52.56 336.383 53.44 337.716 54.08C339.103 54.6667 340.65 54.96 342.356 54.96C344.223 54.96 345.93 54.6667 347.476 54.08C349.076 53.44 350.756 52.2667 352.516 50.56L352.836 52.08C352.09 53.2533 351.236 54.3467 350.276 55.36C349.37 56.3733 348.33 57.28 347.156 58.08C345.983 58.8267 344.65 59.4133 343.156 59.84C341.663 60.2667 339.983 60.48 338.116 60.48C335.983 60.48 334.036 60.08 332.276 59.28C330.516 58.48 328.996 57.36 327.716 55.92C326.436 54.4267 325.423 52.6667 324.676 50.64C323.983 48.6133 323.636 46.4 323.636 44C323.636 41.5467 324.01 39.3067 324.756 37.28C325.556 35.2533 326.65 33.4933 328.036 32C329.423 30.5067 331.103 29.36 333.076 28.56C335.05 27.7067 337.236 27.28 339.636 27.28C341.716 27.28 343.53 27.6 345.076 28.24C346.623 28.88 347.903 29.7867 348.916 30.96C349.983 32.08 350.783 33.4133 351.316 34.96C351.903 36.5067 352.25 38.16 352.356 39.92ZM331.876 37.44H341.316C342.383 37.44 343.183 37.3067 343.716 37.04C344.303 36.7733 344.516 36.1067 344.356 35.04C344.196 33.5467 343.743 32.2667 342.996 31.2C342.303 30.08 341.103 29.52 339.396 29.52C337.476 29.52 335.876 30.2133 334.596 31.6C333.316 32.9333 332.41 34.88 331.876 37.44ZM44.44 169.68L46.76 169.2C48.04 168.933 48.92 168.613 49.4 168.24C49.88 167.813 50.12 167.013 50.12 165.84V152C50.12 150.827 50.0133 149.76 49.8 148.8C49.64 147.84 49.3467 147.013 48.92 146.32C48.4933 145.573 47.88 145.013 47.08 144.64C46.3333 144.213 45.3733 144 44.2 144C42.6533 144 41.2133 144.507 39.88 145.52C38.5467 146.48 37.3733 147.707 36.36 149.2V165.2C36.36 166.32 36.4667 167.173 36.68 167.76C36.8933 168.347 37.48 168.747 38.44 168.96L41.56 169.76V171.52C38.84 171.307 35.9333 171.2 32.84 171.2C29.7467 171.2 26.7333 171.307 23.8 171.52V169.76L25.64 169.28C26.8133 168.96 27.64 168.533 28.12 168C28.6533 167.467 28.92 166.667 28.92 165.6V152C28.92 150.933 28.8133 149.92 28.6 148.96C28.3867 147.947 28.04 147.093 27.56 146.4C27.08 145.653 26.4667 145.067 25.72 144.64C25.0267 144.213 24.1733 144 23.16 144C22.2533 144 21.3467 144.187 20.44 144.56C19.5333 144.933 18.7067 145.413 17.96 146C17.2133 146.533 16.5733 147.147 16.04 147.84C15.56 148.533 15.24 149.227 15.08 149.92V165.28C15.08 166.613 15.24 167.52 15.56 168C15.9333 168.48 16.4933 168.8 17.24 168.96L20.84 169.76V171.52C18.12 171.307 15.1067 171.2 11.8 171.2C8.49333 171.2 5.4 171.307 2.52 171.52V169.76L4.68 169.28C5.85333 169.013 6.62667 168.64 7 168.16C7.42667 167.68 7.64 166.88 7.64 165.76V148.96C7.64 148.32 7.58667 147.787 7.48 147.36C7.42667 146.88 7.24 146.507 6.92 146.24C6.65333 145.92 6.25333 145.68 5.72 145.52C5.18667 145.36 4.44 145.2 3.48 145.04V143.76C4.17333 143.6 4.97333 143.36 5.88 143.04C6.78667 142.667 7.69333 142.24 8.6 141.76C9.56 141.28 10.4667 140.72 11.32 140.08C12.2267 139.387 12.9733 138.64 13.56 137.84H15.08V145.52C16.2 144.453 17.24 143.547 18.2 142.8C19.16 142 20.0667 141.36 20.92 140.88C21.8267 140.347 22.7067 139.947 23.56 139.68C24.4133 139.413 25.3467 139.28 26.36 139.28C28.8133 139.227 30.8133 139.653 32.36 140.56C33.9067 141.467 35.16 143.173 36.12 145.68C36.9733 144.72 37.8 143.867 38.6 143.12C39.4 142.32 40.2533 141.653 41.16 141.12C42.0667 140.533 43.0533 140.08 44.12 139.76C45.1867 139.44 46.4133 139.28 47.8 139.28C50.8933 139.28 53.2933 140.107 55 141.76C56.7067 143.413 57.56 146.24 57.56 150.24V165.92C57.56 167.893 57.9867 168.96 58.84 169.12L61.96 169.76V171.52C60.6267 171.413 59.16 171.333 57.56 171.28C55.96 171.227 54.36 171.2 52.76 171.2C51.16 171.2 49.64 171.227 48.2 171.28C46.76 171.333 45.5067 171.387 44.44 171.44V169.68ZM78.7 172.24C76.5133 172.24 74.62 171.867 73.02 171.12C71.42 170.32 70.0867 169.253 69.02 167.92C68.0067 166.587 67.2333 165.013 66.7 163.2C66.22 161.387 65.98 159.44 65.98 157.36C65.98 154.533 66.4333 152.053 67.34 149.92C68.2467 147.733 69.42 145.893 70.86 144.4C72.3533 142.907 74.06 141.787 75.98 141.04C77.9533 140.293 79.98 139.92 82.06 139.92C83.34 139.92 84.4867 140.027 85.5 140.24C86.5133 140.453 87.3933 140.693 88.14 140.96C88.9933 141.227 89.7667 141.547 90.46 141.92L95.34 139.28L96.06 139.52C96.06 143.68 96.06 147.813 96.06 151.92C96.1133 155.973 96.14 160.08 96.14 164.24C96.14 166.373 97.0467 167.387 98.86 167.28C99.2867 167.28 99.6333 167.227 99.9 167.12C100.167 166.96 100.407 166.827 100.62 166.72C100.833 166.56 101.047 166.373 101.26 166.16L101.82 166.96C101.393 167.973 100.86 168.853 100.22 169.6C99.6333 170.293 98.9133 170.907 98.06 171.44C97.2067 171.973 96.14 172.24 94.86 172.24C92.78 172.24 91.2867 171.6 90.38 170.32C89.4733 169.04 89.02 167.387 89.02 165.36V163.28C88.7 164.4 88.2733 165.52 87.74 166.64C87.2067 167.707 86.5133 168.667 85.66 169.52C84.86 170.32 83.8733 170.987 82.7 171.52C81.58 172 80.2467 172.24 78.7 172.24ZM89.02 154.16C89.02 152.72 88.9133 151.333 88.7 150C88.54 148.667 88.1933 147.493 87.66 146.48C87.1267 145.413 86.4067 144.56 85.5 143.92C84.5933 143.28 83.3933 142.96 81.9 142.96C80.9933 142.96 80.0333 143.173 79.02 143.6C78.0067 144.027 77.0733 144.72 76.22 145.68C75.3667 146.64 74.6733 147.92 74.14 149.52C73.6067 151.12 73.34 153.067 73.34 155.36C73.34 157.067 73.5 158.693 73.82 160.24C74.1933 161.733 74.7 163.04 75.34 164.16C76.0333 165.28 76.86 166.187 77.82 166.88C78.8333 167.52 79.98 167.84 81.26 167.84C82.4333 167.84 83.5 167.493 84.46 166.8C85.42 166.107 86.22 165.2 86.86 164.08C87.5533 162.907 88.0867 161.547 88.46 160C88.8333 158.453 89.02 156.8 89.02 155.04V154.16ZM115.024 122.32C116.25 122.32 117.29 122.773 118.144 123.68C119.05 124.533 119.504 125.573 119.504 126.8C119.504 127.867 119.05 128.853 118.144 129.76C117.237 130.613 116.17 131.04 114.944 131.04C113.717 131.04 112.704 130.64 111.904 129.84C111.104 128.987 110.704 127.973 110.704 126.8C110.704 125.573 111.13 124.533 111.984 123.68C112.837 122.773 113.85 122.32 115.024 122.32ZM123.424 171.52C122.57 171.413 121.344 171.333 119.744 171.28C118.144 171.227 116.277 171.2 114.144 171.2C112.01 171.2 110.144 171.227 108.544 171.28C106.944 171.333 105.717 171.413 104.864 171.52V169.76L108.464 168.96C110.117 168.64 110.944 167.653 110.944 166V150.96C110.944 149.68 110.624 148.747 109.984 148.16C109.344 147.573 108.064 147.067 106.144 146.64V145.04C107.104 144.827 108.09 144.533 109.104 144.16C110.117 143.733 111.104 143.28 112.064 142.8C113.024 142.267 113.904 141.707 114.704 141.12C115.504 140.533 116.144 139.893 116.624 139.2C116.944 139.2 117.237 139.227 117.504 139.28C117.824 139.28 118.117 139.28 118.384 139.28V166.24C118.384 167.04 118.49 167.653 118.704 168.08C118.97 168.453 119.45 168.72 120.144 168.88L123.424 169.76V171.52ZM165.866 171.44C163.093 171.28 160.133 171.2 156.986 171.2C153.84 171.2 150.88 171.28 148.106 171.44V169.76L151.546 169.12C152.72 168.96 153.306 167.92 153.306 166V152.48C153.306 151.2 153.226 150.053 153.066 149.04C152.96 147.973 152.693 147.093 152.266 146.4C151.893 145.707 151.333 145.173 150.586 144.8C149.84 144.427 148.853 144.24 147.626 144.24C146.186 144.24 144.72 144.64 143.226 145.44C141.786 146.24 140.453 147.28 139.226 148.56V166.88C139.226 167.733 139.866 168.32 141.146 168.64L144.426 169.76V171.44C143.52 171.333 142.586 171.28 141.626 171.28C140.72 171.227 139.44 171.2 137.786 171.2H135.226C133.466 171.2 131.786 171.227 130.186 171.28C128.586 171.28 127.333 171.333 126.426 171.44V169.76L130.186 168.96C131.253 168.693 131.786 167.893 131.786 166.56V150.72C131.786 149.067 131.44 147.947 130.746 147.36C130.106 146.773 128.933 146.347 127.226 146.08V144.64C128.08 144.427 128.986 144.16 129.946 143.84C130.96 143.467 131.92 143.013 132.826 142.48C133.786 141.893 134.666 141.227 135.466 140.48C136.32 139.733 136.986 138.853 137.466 137.84H139.226V145.36C140.986 143.493 142.906 142.027 144.986 140.96C147.12 139.84 149.12 139.28 150.986 139.28C154.08 139.28 156.48 140.187 158.186 142C159.946 143.813 160.826 146.56 160.826 150.24V165.76C160.826 166.773 160.96 167.547 161.226 168.08C161.493 168.56 162.026 168.907 162.826 169.12L165.866 169.76V171.44ZM197.246 166.4V126C197.246 125.093 197.086 124.453 196.766 124.08C196.5 123.707 195.993 123.493 195.246 123.44L189.406 122.72V120.96C189.94 121.12 195.54 121.2 206.206 121.2C209.353 121.2 211.86 121.12 213.726 120.96V122.8L208.846 123.44C207.78 123.547 207.006 123.733 206.526 124C206.1 124.213 205.886 124.88 205.886 126V166.4C205.886 167.36 206.02 167.973 206.286 168.24C206.553 168.507 207.086 168.667 207.886 168.72L213.726 169.12V171.52C212.66 171.413 211.113 171.333 209.086 171.28C207.113 171.227 204.606 171.2 201.566 171.2C198.526 171.2 195.993 171.227 193.966 171.28C191.993 171.333 190.473 171.413 189.406 171.52V169.12L194.366 168.8C195.486 168.64 196.233 168.48 196.606 168.32C197.033 168.107 197.246 167.467 197.246 166.4ZM242.488 127.6C242.488 126.587 242.434 125.76 242.328 125.12C242.221 124.48 241.954 123.973 241.528 123.6C241.101 123.173 240.461 122.827 239.608 122.56C238.808 122.24 237.688 121.893 236.247 121.52V120.24C237.101 120.187 238.061 120.107 239.128 120C240.248 119.893 241.341 119.76 242.408 119.6C243.474 119.44 244.514 119.28 245.528 119.12C246.541 118.907 247.394 118.667 248.088 118.4H250.088V165.28C250.088 166.24 250.114 166.987 250.168 167.52C250.274 168.053 250.514 168.453 250.888 168.72C251.261 168.933 251.794 169.067 252.488 169.12C253.234 169.173 254.248 169.227 255.528 169.28V171.04C254.514 171.253 253.394 171.467 252.168 171.68C250.994 171.84 249.794 172 248.568 172.16C247.394 172.32 246.274 172.48 245.208 172.64C244.141 172.747 243.234 172.827 242.488 172.88V168.24C240.408 169.467 238.514 170.48 236.807 171.28C235.154 172.08 233.234 172.48 231.048 172.48C229.234 172.48 227.554 172.187 226.008 171.6C224.461 171.013 223.048 169.947 221.768 168.4C219.208 165.36 217.928 161.653 217.928 157.28C217.928 154.453 218.381 151.947 219.288 149.76C220.248 147.52 221.501 145.627 223.048 144.08C224.594 142.533 226.328 141.36 228.248 140.56C230.168 139.707 232.141 139.28 234.168 139.28C236.034 139.28 237.634 139.467 238.968 139.84C240.354 140.213 241.528 140.747 242.488 141.44V127.6ZM242.488 165.92V151.76C242.488 150.64 242.408 149.52 242.248 148.4C242.141 147.227 241.821 146.187 241.288 145.28C240.808 144.373 240.061 143.627 239.048 143.04C238.034 142.453 236.648 142.16 234.888 142.16C233.608 142.16 232.434 142.507 231.368 143.2C230.301 143.893 229.368 144.853 228.568 146.08C227.821 147.307 227.234 148.747 226.808 150.4C226.434 152.053 226.247 153.84 226.247 155.76C226.247 159.44 227.047 162.427 228.648 164.72C230.248 166.96 232.488 168.08 235.368 168.08C237.021 168.08 238.408 167.893 239.528 167.52C240.701 167.093 241.688 166.56 242.488 165.92ZM288.216 151.92H267.336C267.229 152.453 267.149 152.853 267.096 153.12C267.096 153.387 267.096 153.787 267.096 154.32C267.096 156.187 267.362 157.893 267.896 159.44C268.429 160.987 269.176 162.32 270.136 163.44C271.096 164.56 272.242 165.44 273.576 166.08C274.962 166.667 276.509 166.96 278.216 166.96C280.082 166.96 281.789 166.667 283.336 166.08C284.936 165.44 286.616 164.267 288.376 162.56L288.696 164.08C287.949 165.253 287.096 166.347 286.136 167.36C285.229 168.373 284.189 169.28 283.016 170.08C281.842 170.827 280.509 171.413 279.016 171.84C277.522 172.267 275.842 172.48 273.976 172.48C271.842 172.48 269.896 172.08 268.136 171.28C266.376 170.48 264.856 169.36 263.576 167.92C262.296 166.427 261.282 164.667 260.536 162.64C259.842 160.613 259.496 158.4 259.496 156C259.496 153.547 259.869 151.307 260.616 149.28C261.416 147.253 262.509 145.493 263.896 144C265.282 142.507 266.962 141.36 268.936 140.56C270.909 139.707 273.096 139.28 275.496 139.28C277.576 139.28 279.389 139.6 280.936 140.24C282.482 140.88 283.762 141.787 284.776 142.96C285.842 144.08 286.642 145.413 287.176 146.96C287.762 148.507 288.109 150.16 288.216 151.92ZM267.736 149.44H277.176C278.242 149.44 279.042 149.307 279.576 149.04C280.162 148.773 280.376 148.107 280.216 147.04C280.056 145.547 279.602 144.267 278.856 143.2C278.162 142.08 276.962 141.52 275.256 141.52C273.336 141.52 271.736 142.213 270.456 143.6C269.176 144.933 268.269 146.88 267.736 149.44ZM306.356 172.24C304.17 172.24 302.276 171.867 300.676 171.12C299.076 170.32 297.743 169.253 296.676 167.92C295.663 166.587 294.89 165.013 294.356 163.2C293.876 161.387 293.636 159.44 293.636 157.36C293.636 154.533 294.09 152.053 294.996 149.92C295.903 147.733 297.076 145.893 298.516 144.4C300.01 142.907 301.716 141.787 303.636 141.04C305.61 140.293 307.636 139.92 309.716 139.92C310.996 139.92 312.143 140.027 313.156 140.24C314.17 140.453 315.05 140.693 315.796 140.96C316.65 141.227 317.423 141.547 318.116 141.92L322.996 139.28L323.716 139.52C323.716 143.68 323.716 147.813 323.716 151.92C323.77 155.973 323.796 160.08 323.796 164.24C323.796 166.373 324.703 167.387 326.516 167.28C326.943 167.28 327.29 167.227 327.556 167.12C327.823 166.96 328.063 166.827 328.276 166.72C328.49 166.56 328.703 166.373 328.916 166.16L329.476 166.96C329.05 167.973 328.516 168.853 327.876 169.6C327.29 170.293 326.57 170.907 325.716 171.44C324.863 171.973 323.796 172.24 322.516 172.24C320.436 172.24 318.943 171.6 318.036 170.32C317.13 169.04 316.676 167.387 316.676 165.36V163.28C316.356 164.4 315.93 165.52 315.396 166.64C314.863 167.707 314.17 168.667 313.316 169.52C312.516 170.32 311.53 170.987 310.356 171.52C309.236 172 307.903 172.24 306.356 172.24ZM316.676 154.16C316.676 152.72 316.57 151.333 316.356 150C316.196 148.667 315.85 147.493 315.316 146.48C314.783 145.413 314.063 144.56 313.156 143.92C312.25 143.28 311.05 142.96 309.556 142.96C308.65 142.96 307.69 143.173 306.676 143.6C305.663 144.027 304.73 144.72 303.876 145.68C303.023 146.64 302.33 147.92 301.796 149.52C301.263 151.12 300.996 153.067 300.996 155.36C300.996 157.067 301.156 158.693 301.476 160.24C301.85 161.733 302.356 163.04 302.996 164.16C303.69 165.28 304.516 166.187 305.476 166.88C306.49 167.52 307.636 167.84 308.916 167.84C310.09 167.84 311.156 167.493 312.116 166.8C313.076 166.107 313.876 165.2 314.516 164.08C315.21 162.907 315.743 161.547 316.116 160C316.49 158.453 316.676 156.8 316.676 155.04V154.16ZM2.52 234.64L2.76 232.88L15.4 230.4V254.08C17.2133 253.227 18.92 252.56 20.52 252.08C22.12 251.547 23.7467 251.28 25.4 251.28C27.6933 251.28 29.7467 251.68 31.56 252.48C33.4267 253.28 34.9733 254.4 36.2 255.84C37.4267 257.227 38.36 258.907 39 260.88C39.6933 262.853 40.04 265.013 40.04 267.36C40.04 270.08 39.64 272.507 38.84 274.64C38.04 276.773 36.8933 278.56 35.4 280C33.96 281.44 32.2267 282.56 30.2 283.36C28.1733 284.107 25.96 284.48 23.56 284.48C22.3867 284.48 21.2667 284.347 20.2 284.08C19.1867 283.76 18.2267 283.44 17.32 283.12C16.4667 282.8 15.6933 282.507 15 282.24C14.36 281.92 13.8533 281.76 13.48 281.76C12.7867 281.76 12.1733 282.027 11.64 282.56C11.1067 283.04 10.5467 283.813 9.96 284.88H7.8V242.48C7.8 241.413 7.8 240.507 7.8 239.76C7.8 239.013 7.64 238.347 7.32 237.76C7.05333 237.173 6.54667 236.64 5.8 236.16C5.10667 235.68 4.01333 235.173 2.52 234.64ZM15.4 274C15.4 278.693 17.7467 281.04 22.44 281.04C25.48 281.04 27.8 279.893 29.4 277.6C31 275.307 31.8 272.4 31.8 268.88C31.8 266.96 31.56 265.173 31.08 263.52C30.6533 261.813 30.0133 260.32 29.16 259.04C28.3067 257.76 27.2133 256.747 25.88 256C24.6 255.253 23.1333 254.88 21.48 254.88C19.7733 254.88 18.3333 255.227 17.16 255.92C15.9867 256.613 15.4 257.333 15.4 258.08V274ZM73.6844 263.92H52.8044C52.6977 264.453 52.6177 264.853 52.5644 265.12C52.5644 265.387 52.5644 265.787 52.5644 266.32C52.5644 268.187 52.831 269.893 53.3644 271.44C53.8977 272.987 54.6444 274.32 55.6044 275.44C56.5644 276.56 57.711 277.44 59.0444 278.08C60.431 278.667 61.9777 278.96 63.6844 278.96C65.551 278.96 67.2577 278.667 68.8044 278.08C70.4044 277.44 72.0844 276.267 73.8444 274.56L74.1644 276.08C73.4177 277.253 72.5644 278.347 71.6044 279.36C70.6977 280.373 69.6577 281.28 68.4844 282.08C67.311 282.827 65.9777 283.413 64.4844 283.84C62.991 284.267 61.311 284.48 59.4444 284.48C57.311 284.48 55.3644 284.08 53.6044 283.28C51.8444 282.48 50.3244 281.36 49.0444 279.92C47.7644 278.427 46.751 276.667 46.0044 274.64C45.311 272.613 44.9644 270.4 44.9644 268C44.9644 265.547 45.3377 263.307 46.0844 261.28C46.8844 259.253 47.9777 257.493 49.3644 256C50.751 254.507 52.431 253.36 54.4044 252.56C56.3777 251.707 58.5644 251.28 60.9644 251.28C63.0444 251.28 64.8577 251.6 66.4044 252.24C67.951 252.88 69.231 253.787 70.2444 254.96C71.311 256.08 72.111 257.413 72.6444 258.96C73.231 260.507 73.5777 262.16 73.6844 263.92ZM53.2044 261.44H62.6444C63.711 261.44 64.511 261.307 65.0444 261.04C65.631 260.773 65.8444 260.107 65.6844 259.04C65.5244 257.547 65.071 256.267 64.3244 255.2C63.631 254.08 62.431 253.52 60.7244 253.52C58.8044 253.52 57.2044 254.213 55.9244 255.6C54.6444 256.933 53.7377 258.88 53.2044 261.44ZM83.505 239.44C83.505 237.947 83.0783 236.907 82.225 236.32C81.3717 235.68 80.0117 235.147 78.145 234.72V233.28C78.6783 233.28 79.3717 233.2 80.225 233.04C81.1317 232.88 82.0917 232.693 83.105 232.48C84.1183 232.213 85.1317 231.92 86.145 231.6C87.2117 231.227 88.1717 230.827 89.025 230.4H90.945V258.32C92.5983 256.133 94.2783 254.48 95.985 253.36C97.745 252.187 99.7183 251.52 101.905 251.36C102.332 251.36 102.758 251.36 103.185 251.36C103.612 251.36 104.038 251.387 104.465 251.44C107.078 251.653 109.132 252.667 110.625 254.48C112.118 256.293 112.865 258.853 112.865 262.16V278.48C112.865 279.013 112.972 279.493 113.185 279.92C113.398 280.347 113.958 280.693 114.865 280.96L117.585 281.76V283.52C115.932 283.413 114.358 283.333 112.865 283.28C111.425 283.227 110.225 283.2 109.265 283.2C108.358 283.2 107.105 283.227 105.505 283.28C103.958 283.333 102.358 283.413 100.705 283.52V281.76L103.505 280.88C104.252 280.613 104.758 280.293 105.025 279.92C105.292 279.493 105.425 278.827 105.425 277.92V262.8C105.425 260.827 104.972 259.28 104.065 258.16C103.158 257.04 101.692 256.48 99.665 256.48C97.6383 256.48 95.905 257.093 94.465 258.32C93.0783 259.547 91.905 260.907 90.945 262.4V277.92C90.945 278.507 91.0517 279.013 91.265 279.44C91.4783 279.867 91.8783 280.187 92.465 280.4L96.705 281.76V283.52C95.8517 283.413 94.5983 283.333 92.945 283.28C91.2917 283.227 89.4517 283.2 87.425 283.2C85.4517 283.2 83.6917 283.227 82.145 283.28C80.6517 283.333 79.4783 283.413 78.625 283.52V281.76L81.825 280.88C82.5183 280.667 82.9717 280.347 83.185 279.92C83.3983 279.493 83.505 278.96 83.505 278.32V239.44ZM130.805 234.32C132.032 234.32 133.072 234.773 133.925 235.68C134.832 236.533 135.285 237.573 135.285 238.8C135.285 239.867 134.832 240.853 133.925 241.76C133.018 242.613 131.952 243.04 130.725 243.04C129.498 243.04 128.485 242.64 127.685 241.84C126.885 240.987 126.485 239.973 126.485 238.8C126.485 237.573 126.912 236.533 127.765 235.68C128.618 234.773 129.632 234.32 130.805 234.32ZM139.205 283.52C138.352 283.413 137.125 283.333 135.525 283.28C133.925 283.227 132.058 283.2 129.925 283.2C127.792 283.2 125.925 283.227 124.325 283.28C122.725 283.333 121.498 283.413 120.645 283.52V281.76L124.245 280.96C125.898 280.64 126.725 279.653 126.725 278V262.96C126.725 261.68 126.405 260.747 125.765 260.16C125.125 259.573 123.845 259.067 121.925 258.64V257.04C122.885 256.827 123.872 256.533 124.885 256.16C125.898 255.733 126.885 255.28 127.845 254.8C128.805 254.267 129.685 253.707 130.485 253.12C131.285 252.533 131.925 251.893 132.405 251.2C132.725 251.2 133.018 251.227 133.285 251.28C133.605 251.28 133.898 251.28 134.165 251.28V278.24C134.165 279.04 134.272 279.653 134.485 280.08C134.752 280.453 135.232 280.72 135.925 280.88L139.205 281.76V283.52ZM181.648 283.44C178.874 283.28 175.914 283.2 172.768 283.2C169.621 283.2 166.661 283.28 163.888 283.44V281.76L167.328 281.12C168.501 280.96 169.088 279.92 169.088 278V264.48C169.088 263.2 169.008 262.053 168.848 261.04C168.741 259.973 168.474 259.093 168.048 258.4C167.674 257.707 167.114 257.173 166.368 256.8C165.621 256.427 164.634 256.24 163.408 256.24C161.968 256.24 160.501 256.64 159.008 257.44C157.568 258.24 156.234 259.28 155.008 260.56V278.88C155.008 279.733 155.648 280.32 156.928 280.64L160.208 281.76V283.44C159.301 283.333 158.368 283.28 157.408 283.28C156.501 283.227 155.221 283.2 153.568 283.2H151.008C149.248 283.2 147.568 283.227 145.967 283.28C144.368 283.28 143.114 283.333 142.208 283.44V281.76L145.967 280.96C147.034 280.693 147.568 279.893 147.568 278.56V262.72C147.568 261.067 147.221 259.947 146.528 259.36C145.888 258.773 144.714 258.347 143.008 258.08V256.64C143.861 256.427 144.768 256.16 145.728 255.84C146.741 255.467 147.701 255.013 148.608 254.48C149.568 253.893 150.448 253.227 151.247 252.48C152.101 251.733 152.768 250.853 153.248 249.84H155.008V257.36C156.768 255.493 158.688 254.027 160.768 252.96C162.901 251.84 164.901 251.28 166.768 251.28C169.861 251.28 172.261 252.187 173.968 254C175.728 255.813 176.608 258.56 176.608 262.24V277.76C176.608 278.773 176.741 279.547 177.008 280.08C177.274 280.56 177.808 280.907 178.608 281.12L181.648 281.76V283.44ZM209.988 239.6C209.988 238.587 209.934 237.76 209.828 237.12C209.721 236.48 209.454 235.973 209.028 235.6C208.601 235.173 207.961 234.827 207.108 234.56C206.308 234.24 205.188 233.893 203.747 233.52V232.24C204.601 232.187 205.561 232.107 206.628 232C207.748 231.893 208.841 231.76 209.908 231.6C210.974 231.44 212.014 231.28 213.028 231.12C214.041 230.907 214.894 230.667 215.588 230.4H217.588V277.28C217.588 278.24 217.614 278.987 217.668 279.52C217.774 280.053 218.014 280.453 218.388 280.72C218.761 280.933 219.294 281.067 219.988 281.12C220.734 281.173 221.748 281.227 223.028 281.28V283.04C222.014 283.253 220.894 283.467 219.668 283.68C218.494 283.84 217.294 284 216.068 284.16C214.894 284.32 213.774 284.48 212.708 284.64C211.641 284.747 210.734 284.827 209.988 284.88V280.24C207.908 281.467 206.014 282.48 204.307 283.28C202.654 284.08 200.734 284.48 198.548 284.48C196.734 284.48 195.054 284.187 193.508 283.6C191.961 283.013 190.548 281.947 189.268 280.4C186.708 277.36 185.428 273.653 185.428 269.28C185.428 266.453 185.881 263.947 186.788 261.76C187.748 259.52 189.001 257.627 190.548 256.08C192.094 254.533 193.828 253.36 195.748 252.56C197.668 251.707 199.641 251.28 201.668 251.28C203.534 251.28 205.134 251.467 206.468 251.84C207.854 252.213 209.028 252.747 209.988 253.44V239.6ZM209.988 277.92V263.76C209.988 262.64 209.908 261.52 209.748 260.4C209.641 259.227 209.321 258.187 208.788 257.28C208.308 256.373 207.561 255.627 206.548 255.04C205.534 254.453 204.148 254.16 202.388 254.16C201.108 254.16 199.934 254.507 198.868 255.2C197.801 255.893 196.868 256.853 196.068 258.08C195.321 259.307 194.734 260.747 194.308 262.4C193.934 264.053 193.747 265.84 193.747 267.76C193.747 271.44 194.547 274.427 196.148 276.72C197.748 278.96 199.988 280.08 202.868 280.08C204.521 280.08 205.908 279.893 207.028 279.52C208.201 279.093 209.188 278.56 209.988 277.92ZM285.236 254.24L294.596 275.04L306.836 243.76C308.009 240.88 308.569 238.827 308.516 237.6C308.516 236.32 307.849 235.547 306.516 235.28L303.236 234.64V232.96C303.769 233.12 305.796 233.2 309.316 233.2C311.129 233.2 312.676 233.2 313.956 233.2C315.236 233.147 316.089 233.067 316.516 232.96V234.64L314.116 235.36C313.316 235.627 312.702 236.027 312.276 236.56C311.849 237.04 311.422 237.84 310.996 238.96L293.636 284.96H290.996L281.156 262.88L270.356 284.96H268.196L250.276 240.64C249.796 239.52 249.369 238.64 248.996 238C248.676 237.307 248.356 236.8 248.036 236.48C247.769 236.107 247.476 235.84 247.156 235.68C246.889 235.52 246.569 235.36 246.196 235.2L244.436 234.64V232.96C245.769 233.12 248.249 233.2 251.876 233.2C255.556 233.2 258.356 233.12 260.276 232.96V234.64L257.876 235.2C257.449 235.307 257.236 235.547 257.236 235.92C257.236 236.293 257.369 236.853 257.636 237.6C257.956 238.347 258.409 239.467 258.996 240.96L272.756 275.6L279.876 260.64L271.556 241.76C270.489 239.36 269.636 237.733 268.996 236.88C268.356 235.973 267.689 235.44 266.996 235.28L264.116 234.64V232.96C265.609 233.12 268.729 233.2 273.476 233.2C278.169 233.2 281.129 233.12 282.356 232.96V234.64L279.156 235.28C278.409 235.44 277.982 235.813 277.876 236.4C277.876 236.667 277.982 237.173 278.196 237.92C278.409 238.613 278.809 239.653 279.396 241.04L284.036 252L289.956 238.96C290.382 238.107 290.436 237.28 290.116 236.48C289.849 235.68 289.316 235.227 288.516 235.12L285.796 234.64V232.96C287.129 233.12 289.636 233.2 293.316 233.2C296.942 233.2 299.289 233.12 300.356 232.96V234.64L296.596 235.36C294.782 235.733 293.396 236.96 292.436 239.04L285.236 254.24ZM331.825 284.24C329.638 284.24 327.745 283.867 326.145 283.12C324.545 282.32 323.212 281.253 322.145 279.92C321.132 278.587 320.358 277.013 319.825 275.2C319.345 273.387 319.105 271.44 319.105 269.36C319.105 266.533 319.558 264.053 320.465 261.92C321.372 259.733 322.545 257.893 323.985 256.4C325.478 254.907 327.185 253.787 329.105 253.04C331.078 252.293 333.105 251.92 335.185 251.92C336.465 251.92 337.612 252.027 338.625 252.24C339.638 252.453 340.518 252.693 341.265 252.96C342.118 253.227 342.892 253.547 343.585 253.92L348.465 251.28L349.185 251.52C349.185 255.68 349.185 259.813 349.185 263.92C349.238 267.973 349.265 272.08 349.265 276.24C349.265 278.373 350.172 279.387 351.985 279.28C352.412 279.28 352.758 279.227 353.025 279.12C353.292 278.96 353.532 278.827 353.745 278.72C353.958 278.56 354.172 278.373 354.385 278.16L354.945 278.96C354.518 279.973 353.985 280.853 353.345 281.6C352.758 282.293 352.038 282.907 351.185 283.44C350.332 283.973 349.265 284.24 347.985 284.24C345.905 284.24 344.412 283.6 343.505 282.32C342.598 281.04 342.145 279.387 342.145 277.36V275.28C341.825 276.4 341.398 277.52 340.865 278.64C340.332 279.707 339.638 280.667 338.785 281.52C337.985 282.32 336.998 282.987 335.825 283.52C334.705 284 333.372 284.24 331.825 284.24ZM342.145 266.16C342.145 264.72 342.038 263.333 341.825 262C341.665 260.667 341.318 259.493 340.785 258.48C340.252 257.413 339.532 256.56 338.625 255.92C337.718 255.28 336.518 254.96 335.025 254.96C334.118 254.96 333.158 255.173 332.145 255.6C331.132 256.027 330.198 256.72 329.345 257.68C328.492 258.64 327.798 259.92 327.265 261.52C326.732 263.12 326.465 265.067 326.465 267.36C326.465 269.067 326.625 270.693 326.945 272.24C327.318 273.733 327.825 275.04 328.465 276.16C329.158 277.28 329.985 278.187 330.945 278.88C331.958 279.52 333.105 279.84 334.385 279.84C335.558 279.84 336.625 279.493 337.585 278.8C338.545 278.107 339.345 277.2 339.985 276.08C340.678 274.907 341.212 273.547 341.585 272C341.958 270.453 342.145 268.8 342.145 267.04V266.16ZM376.629 283.44C375.349 283.387 373.882 283.333 372.229 283.28C370.629 283.227 368.975 283.2 367.269 283.2C365.615 283.2 363.962 283.227 362.309 283.28C360.709 283.333 359.269 283.387 357.989 283.44V281.68L362.149 280.72C362.842 280.56 363.322 280.347 363.589 280.08C363.855 279.813 363.989 279.28 363.989 278.48V238.8C363.989 237.68 363.669 236.853 363.029 236.32C362.389 235.787 360.975 235.2 358.789 234.56V233.04C359.322 232.933 360.015 232.8 360.869 232.64C361.722 232.48 362.655 232.293 363.669 232.08C364.682 231.867 365.695 231.627 366.709 231.36C367.775 231.04 368.762 230.72 369.669 230.4H371.509V278.32C371.509 279.387 371.615 280.053 371.829 280.32C372.042 280.533 372.549 280.747 373.349 280.96L376.629 281.68V283.44ZM409.388 263.92H388.508C388.401 264.453 388.321 264.853 388.268 265.12C388.268 265.387 388.268 265.787 388.268 266.32C388.268 268.187 388.534 269.893 389.068 271.44C389.601 272.987 390.348 274.32 391.308 275.44C392.268 276.56 393.414 277.44 394.748 278.08C396.134 278.667 397.681 278.96 399.388 278.96C401.254 278.96 402.961 278.667 404.508 278.08C406.108 277.44 407.788 276.267 409.548 274.56L409.868 276.08C409.121 277.253 408.268 278.347 407.308 279.36C406.401 280.373 405.361 281.28 404.188 282.08C403.014 282.827 401.681 283.413 400.188 283.84C398.694 284.267 397.014 284.48 395.148 284.48C393.014 284.48 391.068 284.08 389.308 283.28C387.548 282.48 386.028 281.36 384.748 279.92C383.468 278.427 382.454 276.667 381.708 274.64C381.014 272.613 380.668 270.4 380.668 268C380.668 265.547 381.041 263.307 381.788 261.28C382.588 259.253 383.681 257.493 385.068 256C386.454 254.507 388.134 253.36 390.108 252.56C392.081 251.707 394.268 251.28 396.668 251.28C398.748 251.28 400.561 251.6 402.108 252.24C403.654 252.88 404.934 253.787 405.948 254.96C407.014 256.08 407.814 257.413 408.348 258.96C408.934 260.507 409.281 262.16 409.388 263.92ZM388.908 261.44H398.348C399.414 261.44 400.214 261.307 400.748 261.04C401.334 260.773 401.548 260.107 401.388 259.04C401.228 257.547 400.774 256.267 400.028 255.2C399.334 254.08 398.134 253.52 396.428 253.52C394.508 253.52 392.908 254.213 391.628 255.6C390.348 256.933 389.441 258.88 388.908 261.44ZM424.168 224C425.715 224.053 427.021 224.72 428.088 226C429.208 227.227 429.768 228.773 429.768 230.64C429.768 232.613 429.101 234.613 427.768 236.64V236.56C427.128 237.627 426.328 238.72 425.368 239.84C424.461 240.96 423.395 242.027 422.168 243.04C419.768 245.12 418.168 246.16 417.368 246.16C417.155 246.16 416.915 246.107 416.648 246C416.381 245.84 416.195 245.627 416.088 245.36C415.981 245.093 415.981 244.773 416.088 244.4C416.195 244.027 416.541 243.6 417.128 243.12C421.715 239.493 424.008 236.56 424.008 234.32C424.008 233.307 423.501 232.613 422.488 232.24C420.675 231.493 419.768 230.267 419.768 228.56C419.768 227.333 420.168 226.267 420.968 225.36C421.768 224.453 422.835 224 424.168 224ZM455.744 261.2C455.584 260.4 455.29 259.573 454.864 258.72C454.49 257.867 453.984 257.093 453.344 256.4C452.704 255.653 451.957 255.04 451.104 254.56C450.25 254.08 449.264 253.84 448.144 253.84C446.597 253.84 445.29 254.16 444.224 254.8C443.157 255.44 442.624 256.56 442.624 258.16C442.624 259.707 443.344 260.907 444.784 261.76C446.277 262.56 448.357 263.36 451.024 264.16C454.33 265.227 456.624 266.56 457.904 268.16C459.184 269.76 459.824 271.627 459.824 273.76C459.824 275.627 459.45 277.253 458.704 278.64C458.01 279.973 457.05 281.093 455.824 282C454.65 282.853 453.264 283.493 451.664 283.92C450.117 284.293 448.49 284.48 446.784 284.48C444.864 284.48 443.05 284.32 441.344 284C439.69 283.627 438.25 283.093 437.024 282.4L436.224 272.88H437.984C438.73 275.76 439.93 278 441.584 279.6C443.237 281.147 445.237 281.92 447.584 281.92C449.29 281.92 450.757 281.493 451.984 280.64C453.21 279.733 453.824 278.427 453.824 276.72C453.824 275.173 453.237 273.947 452.064 273.04C450.89 272.133 449.024 271.307 446.464 270.56C442.677 269.493 440.01 268.187 438.464 266.64C436.97 265.093 436.224 263.013 436.224 260.4C436.224 258.96 436.57 257.68 437.264 256.56C437.957 255.387 438.864 254.427 439.984 253.68C441.104 252.88 442.41 252.293 443.904 251.92C445.397 251.493 446.944 251.28 448.544 251.28C450.197 251.28 451.77 251.44 453.264 251.76C454.757 252.08 456.037 252.56 457.104 253.2L457.584 261.2H455.744ZM61.24 374.32L56.92 374.88C56.0133 375.04 55.3733 375.28 55 375.6C54.68 375.867 54.52 376.373 54.52 377.12V386C54.52 387.493 54.4933 388.667 54.44 389.52C54.3867 390.32 54.2 390.987 53.88 391.52C53.56 392 53.08 392.4 52.44 392.72C51.8 393.04 50.92 393.413 49.8 393.84C48.7333 394.267 47.5333 394.64 46.2 394.96C44.92 395.28 43.5333 395.547 42.04 395.76C40.6 395.973 39.1067 396.16 37.56 396.32C36.0133 396.427 34.4933 396.48 33 396.48C28.8933 396.48 25.0533 395.92 21.48 394.8C17.96 393.627 14.8933 391.973 12.28 389.84C9.66667 387.653 7.61333 385.013 6.12 381.92C4.62667 378.827 3.88 375.307 3.88 371.36C3.88 366.933 4.70667 363.04 6.36 359.68C8.01333 356.32 10.2533 353.52 13.08 351.28C15.9067 348.987 19.2133 347.28 23 346.16C26.7867 344.987 30.8133 344.4 35.08 344.4C42.1733 344.4 48.0933 345.68 52.84 348.24L53.48 360.16L51.88 360.4C51.08 358.427 50.1467 356.613 49.08 354.96C48.0133 353.307 46.8133 351.893 45.48 350.72C44.1467 349.547 42.6533 348.64 41 348C39.3467 347.36 37.48 347.04 35.4 347.04C31.88 347.04 28.7867 347.6 26.12 348.72C23.4533 349.84 21.2133 351.44 19.4 353.52C17.64 355.547 16.28 358 15.32 360.88C14.4133 363.707 13.96 366.88 13.96 370.4C13.96 373.547 14.44 376.56 15.4 379.44C16.4133 382.267 17.8267 384.773 19.64 386.96C21.4533 389.093 23.6667 390.8 26.28 392.08C28.8933 393.307 31.8267 393.92 35.08 393.92C39.08 393.92 41.88 393.173 43.48 391.68C45.08 390.133 45.88 388.133 45.88 385.68V377.12C45.88 376.267 45.6667 375.707 45.24 375.44C44.8667 375.173 44.2533 374.987 43.4 374.88L36.92 374.32V372.24C41.08 372.453 45.1333 372.56 49.08 372.56C53.0267 372.56 57.08 372.453 61.24 372.24V374.32ZM113.443 389.12C112.803 390.08 112.056 391.013 111.203 391.92C110.403 392.773 109.469 393.547 108.403 394.24C107.336 394.88 106.163 395.413 104.883 395.84C103.603 396.267 102.216 396.48 100.723 396.48C98.3225 396.48 96.1358 396.08 94.1625 395.28C92.2425 394.48 90.5892 393.36 89.2025 391.92C87.8692 390.48 86.8292 388.8 86.0825 386.88C85.3892 384.907 85.0425 382.747 85.0425 380.4C85.0425 377.84 85.4692 375.52 86.3225 373.44C87.1758 371.36 88.3758 369.573 89.9225 368.08C91.4692 366.533 93.3092 365.36 95.4425 364.56C97.6292 363.707 100.056 363.28 102.723 363.28C105.603 363.28 107.976 363.733 109.843 364.64C111.709 365.493 112.643 366.72 112.643 368.32C112.643 369.28 112.376 370.053 111.843 370.64C111.309 371.173 110.669 371.467 109.923 371.52C109.176 371.52 108.429 371.253 107.683 370.72C106.989 370.133 106.269 369.493 105.523 368.8C104.776 368.107 103.949 367.467 103.043 366.88C102.136 366.293 101.123 366 100.003 366C98.6692 366 97.5225 366.4 96.5625 367.2C95.6025 367.947 94.8292 368.933 94.2425 370.16C93.6558 371.333 93.2025 372.667 92.8825 374.16C92.6158 375.653 92.4825 377.147 92.4825 378.64C92.4825 382.32 93.4958 385.28 95.5225 387.52C97.5492 389.76 100.083 390.96 103.122 391.12C105.149 391.28 106.909 391.013 108.403 390.32C109.949 389.627 111.363 388.667 112.643 387.44L113.443 389.12ZM134.499 396.48C131.885 396.48 129.539 396.08 127.459 395.28C125.379 394.427 123.619 393.253 122.179 391.76C120.739 390.267 119.619 388.533 118.819 386.56C118.072 384.533 117.699 382.32 117.699 379.92C117.699 377.467 118.072 375.227 118.819 373.2C119.565 371.12 120.685 369.36 122.179 367.92C123.672 366.427 125.485 365.28 127.619 364.48C129.805 363.627 132.312 363.2 135.139 363.2C137.965 363.2 140.445 363.653 142.579 364.56C144.712 365.413 146.499 366.613 147.939 368.16C149.379 369.653 150.472 371.44 151.219 373.52C151.965 375.547 152.339 377.733 152.339 380.08C152.339 382.48 151.912 384.693 151.059 386.72C150.205 388.693 149.005 390.4 147.459 391.84C145.912 393.28 144.045 394.427 141.859 395.28C139.672 396.08 137.219 396.48 134.499 396.48ZM126.019 380.48C126.019 384.693 126.792 388.027 128.339 390.48C129.939 392.88 132.099 394.08 134.819 394.08C137.539 394.08 139.725 392.8 141.379 390.24C143.032 387.68 143.859 384.267 143.859 380C143.859 375.733 143.085 372.293 141.539 369.68C139.992 367.013 137.779 365.68 134.899 365.68C132.019 365.68 129.805 366.933 128.259 369.44C126.765 371.947 126.019 375.627 126.019 380.48ZM174.988 395.44C173.708 395.387 172.241 395.333 170.588 395.28C168.988 395.227 167.335 395.2 165.628 395.2C163.975 395.2 162.321 395.227 160.668 395.28C159.068 395.333 157.628 395.387 156.348 395.44V393.68L160.508 392.72C161.201 392.56 161.681 392.347 161.948 392.08C162.215 391.813 162.348 391.28 162.348 390.48V350.8C162.348 349.68 162.028 348.853 161.388 348.32C160.748 347.787 159.335 347.2 157.148 346.56V345.04C157.681 344.933 158.375 344.8 159.228 344.64C160.081 344.48 161.015 344.293 162.028 344.08C163.041 343.867 164.055 343.627 165.068 343.36C166.135 343.04 167.121 342.72 168.028 342.4H169.868V390.32C169.868 391.387 169.975 392.053 170.188 392.32C170.401 392.533 170.908 392.747 171.708 392.96L174.988 393.68V395.44ZM196.707 395.44C195.427 395.387 193.96 395.333 192.307 395.28C190.707 395.227 189.054 395.2 187.347 395.2C185.694 395.2 184.04 395.227 182.387 395.28C180.787 395.333 179.347 395.387 178.067 395.44V393.68L182.227 392.72C182.92 392.56 183.4 392.347 183.667 392.08C183.934 391.813 184.067 391.28 184.067 390.48V350.8C184.067 349.68 183.747 348.853 183.107 348.32C182.467 347.787 181.054 347.2 178.867 346.56V345.04C179.4 344.933 180.094 344.8 180.947 344.64C181.8 344.48 182.734 344.293 183.747 344.08C184.76 343.867 185.774 343.627 186.787 343.36C187.854 343.04 188.84 342.72 189.747 342.4H191.587V390.32C191.587 391.387 191.694 392.053 191.907 392.32C192.12 392.533 192.627 392.747 193.427 392.96L196.707 393.68V395.44ZM229.466 375.92H208.586C208.479 376.453 208.399 376.853 208.346 377.12C208.346 377.387 208.346 377.787 208.346 378.32C208.346 380.187 208.612 381.893 209.146 383.44C209.679 384.987 210.426 386.32 211.386 387.44C212.346 388.56 213.492 389.44 214.826 390.08C216.212 390.667 217.759 390.96 219.466 390.96C221.332 390.96 223.039 390.667 224.586 390.08C226.186 389.44 227.866 388.267 229.626 386.56L229.946 388.08C229.199 389.253 228.346 390.347 227.386 391.36C226.479 392.373 225.439 393.28 224.266 394.08C223.092 394.827 221.759 395.413 220.266 395.84C218.772 396.267 217.092 396.48 215.226 396.48C213.092 396.48 211.146 396.08 209.386 395.28C207.626 394.48 206.106 393.36 204.826 391.92C203.546 390.427 202.532 388.667 201.786 386.64C201.092 384.613 200.746 382.4 200.746 380C200.746 377.547 201.119 375.307 201.866 373.28C202.666 371.253 203.759 369.493 205.146 368C206.532 366.507 208.212 365.36 210.186 364.56C212.159 363.707 214.346 363.28 216.746 363.28C218.826 363.28 220.639 363.6 222.186 364.24C223.732 364.88 225.012 365.787 226.026 366.96C227.092 368.08 227.892 369.413 228.426 370.96C229.012 372.507 229.359 374.16 229.466 375.92ZM208.986 373.44H218.426C219.492 373.44 220.292 373.307 220.826 373.04C221.412 372.773 221.626 372.107 221.466 371.04C221.306 369.547 220.852 368.267 220.106 367.2C219.412 366.08 218.212 365.52 216.506 365.52C214.586 365.52 212.986 366.213 211.706 367.6C210.426 368.933 209.519 370.88 208.986 373.44ZM263.286 389.12C262.646 390.08 261.9 391.013 261.046 391.92C260.246 392.773 259.313 393.547 258.246 394.24C257.18 394.88 256.006 395.413 254.726 395.84C253.446 396.267 252.06 396.48 250.566 396.48C248.166 396.48 245.98 396.08 244.006 395.28C242.086 394.48 240.433 393.36 239.046 391.92C237.713 390.48 236.673 388.8 235.926 386.88C235.233 384.907 234.886 382.747 234.886 380.4C234.886 377.84 235.313 375.52 236.166 373.44C237.02 371.36 238.22 369.573 239.766 368.08C241.313 366.533 243.153 365.36 245.286 364.56C247.473 363.707 249.9 363.28 252.566 363.28C255.446 363.28 257.82 363.733 259.686 364.64C261.553 365.493 262.486 366.72 262.486 368.32C262.486 369.28 262.22 370.053 261.686 370.64C261.153 371.173 260.513 371.467 259.766 371.52C259.02 371.52 258.273 371.253 257.526 370.72C256.833 370.133 256.113 369.493 255.366 368.8C254.62 368.107 253.793 367.467 252.886 366.88C251.98 366.293 250.966 366 249.846 366C248.513 366 247.366 366.4 246.406 367.2C245.446 367.947 244.673 368.933 244.086 370.16C243.5 371.333 243.046 372.667 242.726 374.16C242.46 375.653 242.326 377.147 242.326 378.64C242.326 382.32 243.34 385.28 245.366 387.52C247.393 389.76 249.926 390.96 252.966 391.12C254.993 391.28 256.753 391.013 258.246 390.32C259.793 389.627 261.206 388.667 262.486 387.44L263.286 389.12ZM278.343 356.64H279.783C279.783 358.08 279.783 359.52 279.783 360.96C279.836 362.347 279.863 363.76 279.863 365.2L290.183 364.96V368.4L279.863 368.72V383.84C279.863 386.507 280.103 388.533 280.583 389.92C281.116 391.253 282.369 391.867 284.343 391.76C285.143 391.76 286.023 391.653 286.983 391.44C287.996 391.173 289.116 390.587 290.343 389.68L291.063 390.8C290.156 392.187 288.849 393.493 287.143 394.72C285.489 395.893 283.249 396.48 280.423 396.48C277.596 396.48 275.543 395.76 274.263 394.32C273.036 392.827 272.423 390.187 272.423 386.4V368.88C271.676 368.88 270.956 368.907 270.263 368.96C269.569 368.96 268.849 368.96 268.103 368.96C267.356 368.96 266.956 368.667 266.903 368.08C266.903 367.493 267.276 367.04 268.023 366.72C269.143 366.24 270.156 365.733 271.063 365.2C272.023 364.667 272.796 364.107 273.383 363.52C273.969 362.933 274.796 362.053 275.863 360.88C276.929 359.707 277.756 358.293 278.343 356.64ZM303.383 346.32C304.61 346.32 305.65 346.773 306.503 347.68C307.41 348.533 307.863 349.573 307.863 350.8C307.863 351.867 307.41 352.853 306.503 353.76C305.596 354.613 304.53 355.04 303.303 355.04C302.076 355.04 301.063 354.64 300.263 353.84C299.463 352.987 299.063 351.973 299.063 350.8C299.063 349.573 299.49 348.533 300.343 347.68C301.196 346.773 302.21 346.32 303.383 346.32ZM311.783 395.52C310.93 395.413 309.703 395.333 308.103 395.28C306.503 395.227 304.636 395.2 302.503 395.2C300.37 395.2 298.503 395.227 296.903 395.28C295.303 395.333 294.076 395.413 293.223 395.52V393.76L296.823 392.96C298.476 392.64 299.303 391.653 299.303 390V374.96C299.303 373.68 298.983 372.747 298.343 372.16C297.703 371.573 296.423 371.067 294.503 370.64V369.04C295.463 368.827 296.45 368.533 297.463 368.16C298.476 367.733 299.463 367.28 300.423 366.8C301.383 366.267 302.263 365.707 303.063 365.12C303.863 364.533 304.503 363.893 304.983 363.2C305.303 363.2 305.596 363.227 305.863 363.28C306.183 363.28 306.476 363.28 306.743 363.28V390.24C306.743 391.04 306.85 391.653 307.063 392.08C307.33 392.453 307.81 392.72 308.503 392.88L311.783 393.76V395.52ZM332.546 396.48C329.932 396.48 327.586 396.08 325.506 395.28C323.426 394.427 321.666 393.253 320.226 391.76C318.786 390.267 317.666 388.533 316.866 386.56C316.119 384.533 315.746 382.32 315.746 379.92C315.746 377.467 316.119 375.227 316.866 373.2C317.612 371.12 318.732 369.36 320.226 367.92C321.719 366.427 323.532 365.28 325.666 364.48C327.852 363.627 330.359 363.2 333.186 363.2C336.012 363.2 338.492 363.653 340.626 364.56C342.759 365.413 344.546 366.613 345.986 368.16C347.426 369.653 348.519 371.44 349.266 373.52C350.012 375.547 350.386 377.733 350.386 380.08C350.386 382.48 349.959 384.693 349.106 386.72C348.252 388.693 347.052 390.4 345.506 391.84C343.959 393.28 342.092 394.427 339.906 395.28C337.719 396.08 335.266 396.48 332.546 396.48ZM324.066 380.48C324.066 384.693 324.839 388.027 326.386 390.48C327.986 392.88 330.146 394.08 332.866 394.08C335.586 394.08 337.772 392.8 339.426 390.24C341.079 387.68 341.906 384.267 341.906 380C341.906 375.733 341.132 372.293 339.586 369.68C338.039 367.013 335.826 365.68 332.946 365.68C330.066 365.68 327.852 366.933 326.306 369.44C324.812 371.947 324.066 375.627 324.066 380.48ZM393.835 395.44C391.062 395.28 388.102 395.2 384.955 395.2C381.808 395.2 378.848 395.28 376.075 395.44V393.76L379.515 393.12C380.688 392.96 381.275 391.92 381.275 390V376.48C381.275 375.2 381.195 374.053 381.035 373.04C380.928 371.973 380.662 371.093 380.235 370.4C379.862 369.707 379.302 369.173 378.555 368.8C377.808 368.427 376.822 368.24 375.595 368.24C374.155 368.24 372.688 368.64 371.195 369.44C369.755 370.24 368.422 371.28 367.195 372.56V390.88C367.195 391.733 367.835 392.32 369.115 392.64L372.395 393.76V395.44C371.488 395.333 370.555 395.28 369.595 395.28C368.688 395.227 367.408 395.2 365.755 395.2H363.195C361.435 395.2 359.755 395.227 358.155 395.28C356.555 395.28 355.302 395.333 354.395 395.44V393.76L358.155 392.96C359.222 392.693 359.755 391.893 359.755 390.56V374.72C359.755 373.067 359.408 371.947 358.715 371.36C358.075 370.773 356.902 370.347 355.195 370.08V368.64C356.048 368.427 356.955 368.16 357.915 367.84C358.928 367.467 359.888 367.013 360.795 366.48C361.755 365.893 362.635 365.227 363.435 364.48C364.288 363.733 364.955 362.853 365.435 361.84H367.195V369.36C368.955 367.493 370.875 366.027 372.955 364.96C375.088 363.84 377.088 363.28 378.955 363.28C382.048 363.28 384.448 364.187 386.155 366C387.915 367.813 388.795 370.56 388.795 374.24V389.76C388.795 390.773 388.928 391.547 389.195 392.08C389.462 392.56 389.995 392.907 390.795 393.12L393.835 393.76V395.44ZM417.775 373.2C417.615 372.4 417.322 371.573 416.895 370.72C416.522 369.867 416.015 369.093 415.375 368.4C414.735 367.653 413.988 367.04 413.135 366.56C412.282 366.08 411.295 365.84 410.175 365.84C408.628 365.84 407.322 366.16 406.255 366.8C405.188 367.44 404.655 368.56 404.655 370.16C404.655 371.707 405.375 372.907 406.815 373.76C408.308 374.56 410.388 375.36 413.055 376.16C416.362 377.227 418.655 378.56 419.935 380.16C421.215 381.76 421.855 383.627 421.855 385.76C421.855 387.627 421.482 389.253 420.735 390.64C420.042 391.973 419.082 393.093 417.855 394C416.682 394.853 415.295 395.493 413.695 395.92C412.148 396.293 410.522 396.48 408.815 396.48C406.895 396.48 405.082 396.32 403.375 396C401.722 395.627 400.282 395.093 399.055 394.4L398.255 384.88H400.015C400.762 387.76 401.962 390 403.615 391.6C405.268 393.147 407.268 393.92 409.615 393.92C411.322 393.92 412.788 393.493 414.015 392.64C415.242 391.733 415.855 390.427 415.855 388.72C415.855 387.173 415.268 385.947 414.095 385.04C412.922 384.133 411.055 383.307 408.495 382.56C404.708 381.493 402.042 380.187 400.495 378.64C399.002 377.093 398.255 375.013 398.255 372.4C398.255 370.96 398.602 369.68 399.295 368.56C399.988 367.387 400.895 366.427 402.015 365.68C403.135 364.88 404.442 364.293 405.935 363.92C407.428 363.493 408.975 363.28 410.575 363.28C412.228 363.28 413.802 363.44 415.295 363.76C416.788 364.08 418.068 364.56 419.135 365.2L419.615 373.2H417.775Z" fill="#060606"/>
</svg>
